<svg width="1757" height="1056" xmlns="http://www.w3.org/2000/svg" xmlns:xlink="http://www.w3.org/1999/xlink" xml:space="preserve" overflow="hidden"><defs><linearGradient x1="1658" y1="1636.5" x2="1658" y2="1684.5" gradientUnits="userSpaceOnUse" spreadMethod="reflect" id="fill0"><stop offset="0" stop-color="#ED8256"/><stop offset="0.5" stop-color="#F26E29"/><stop offset="1" stop-color="#E15E19"/></linearGradient><linearGradient x1="1658" y1="1382.5" x2="1658" y2="1430.5" gradientUnits="userSpaceOnUse" spreadMethod="reflect" id="fill1"><stop offset="0" stop-color="#66B352"/><stop offset="0.5" stop-color="#4BAD28"/><stop offset="1" stop-color="#3F9E1D"/></linearGradient><linearGradient x1="1658" y1="1189.5" x2="1658" y2="1237.5" gradientUnits="userSpaceOnUse" spreadMethod="reflect" id="fill2"><stop offset="0" stop-color="#ED8256"/><stop offset="0.5" stop-color="#F26E29"/><stop offset="1" stop-color="#E15E19"/></linearGradient><linearGradient x1="1658" y1="934.5" x2="1658" y2="983.5" gradientUnits="userSpaceOnUse" spreadMethod="reflect" id="fill3"><stop offset="0" stop-color="#AC51A0"/><stop offset="0.5" stop-color="#A62598"/><stop offset="1" stop-color="#981B8A"/></linearGradient><linearGradient x1="1985" y1="1163.5" x2="1985" y2="1211.5" gradientUnits="userSpaceOnUse" spreadMethod="reflect" id="fill4"><stop offset="0" stop-color="#66B352"/><stop offset="0.5" stop-color="#4BAD28"/><stop offset="1" stop-color="#3F9E1D"/></linearGradient><linearGradient x1="1985" y1="1272.5" x2="1985" y2="1321.5" gradientUnits="userSpaceOnUse" spreadMethod="reflect" id="fill5"><stop offset="0" stop-color="#ED8256"/><stop offset="0.5" stop-color="#F26E29"/><stop offset="1" stop-color="#E15E19"/></linearGradient></defs><g transform="translate(-875 -890)"><rect x="1634.5" y="1636.5" width="47.0001" height="47.9998" stroke="#E97132" stroke-width="4.58333" stroke-miterlimit="8" fill="url(#fill0)"/><path d="M1430.68 1521.75 1486.62 1463.87 1542.3 1517.69 1486.35 1575.57Z" stroke="#0070C0" stroke-width="4.58333" stroke-miterlimit="8" fill="#0070C0" fill-rule="evenodd"/><path d="M1294 1660.5C1294 1647.52 1304.52 1637 1317.5 1637 1330.48 1637 1341 1647.52 1341 1660.5 1341 1673.48 1330.48 1684 1317.5 1684 1304.52 1684 1294 1673.48 1294 1660.5Z" fill="#000000" fill-rule="evenodd" fill-opacity="0.501961"/><path d="M1294 1405.5C1294 1392.52 1304.52 1382 1317.5 1382 1330.48 1382 1341 1392.52 1341 1405.5 1341 1418.48 1330.48 1429 1317.5 1429 1304.52 1429 1294 1418.48 1294 1405.5Z" fill="#000000" fill-rule="evenodd" fill-opacity="0.501961"/><rect x="1634.5" y="1382.5" width="47.0001" height="47.9998" stroke="#4EA72E" stroke-width="4.58333" stroke-miterlimit="8" fill="url(#fill1)"/><path d="M2.37238-2.48761 17.2981 11.7467 12.5533 16.7219-2.37238 2.48761ZM22.2733 16.4914 37.199 30.7257 32.4542 35.7009 17.5285 21.4666ZM42.1742 35.4704 57.0999 49.7047 52.3551 54.6799 37.4295 40.4457ZM62.0751 54.4495 77.0008 68.6837 72.2561 73.659 57.3304 59.4247ZM81.976 73.4285 96.9017 87.6628 92.157 92.638 77.2313 78.4037ZM101.877 92.4075 103.512 93.967 98.7674 98.9422 97.1322 97.3827ZM107.312 83.3409 117.724 112.27 88.3334 103.242Z" fill="#AEAEAE" transform="matrix(1 0 0 -1 1341.5 1661.77)"/><path d="M1336.2 1419.51 1354.12 1429.72 1350.72 1435.7 1332.8 1425.49ZM1360.1 1433.12 1378.02 1443.33 1374.62 1449.31 1356.69 1439.1ZM1383.99 1446.73 1401.91 1456.94 1398.51 1462.92 1380.59 1452.71ZM1407.89 1460.35 1425.81 1470.55 1422.41 1476.53 1404.48 1466.32ZM1431.78 1473.96 1441.02 1479.22 1437.61 1485.19 1428.38 1479.93ZM1442.14 1467.99 1459.23 1493.55 1428.53 1491.88Z" fill="#AEAEAE"/><path d="M1.99118-2.80207 18.8036 9.14501 14.8213 14.7492-1.99118 2.80207ZM24.4078 13.1274 41.2202 25.0744 37.2378 30.6786 20.4254 18.7315ZM46.8243 29.0568 63.6368 41.0039 59.6544 46.608 42.842 34.6609ZM69.2409 44.9862 86.0534 56.9333 82.071 62.5375 65.2586 50.5904ZM91.6575 60.9157 102.721 68.7775 98.7386 74.3816 87.6751 66.5198ZM104.958 57.7164 119.41 84.8541 89.029 80.1329Z" fill="#AEAEAE" transform="matrix(1 0 0 -1 1514.5 1491.35)"/><path d="M1516.87 1545.01 1531.82 1559.21 1527.09 1564.2 1512.13 1549.99ZM1536.81 1563.95 1551.76 1578.15 1547.03 1583.13 1532.07 1568.93ZM1556.75 1582.88 1571.7 1597.09 1566.97 1602.07 1552.01 1587.87ZM1576.69 1601.82 1591.64 1616.03 1586.91 1621.01 1571.95 1606.81ZM1596.63 1620.76 1611.58 1634.97 1606.85 1639.95 1591.89 1625.75ZM1616.57 1639.7 1619.79 1642.77 1615.06 1647.75 1611.83 1644.68ZM1623.57 1632.13 1634.04 1661.04 1604.63 1652.07Z" fill="#AEAEAE"/><path d="M1341.51 1402.06 1362.13 1402.12 1362.12 1408.99 1341.49 1408.94ZM1369.01 1402.13 1389.63 1402.19 1389.62 1409.06 1368.99 1409.01ZM1396.51 1402.2 1417.13 1402.26 1417.12 1409.13 1396.49 1409.08ZM1424.01 1402.28 1444.63 1402.33 1444.62 1409.2 1423.99 1409.15ZM1451.51 1402.35 1472.13 1402.4 1472.12 1409.27 1451.49 1409.22ZM1479.01 1402.42 1499.63 1402.47 1499.62 1409.35 1478.99 1409.29ZM1506.51 1402.49 1527.13 1402.54 1527.12 1409.42 1506.49 1409.36ZM1534.01 1402.56 1554.63 1402.61 1554.62 1409.49 1533.99 1409.43ZM1561.51 1402.63 1582.13 1402.68 1582.12 1409.56 1561.49 1409.51ZM1589.01 1402.7 1609.63 1402.76 1609.62 1409.63 1588.99 1409.58ZM1607.11 1392.44 1634.58 1406.26 1607.04 1419.94Z" fill="#AEAEAE"/><rect x="1634.5" y="1189.5" width="47.0001" height="48.0001" stroke="#E97132" stroke-width="4.58333" stroke-miterlimit="8" fill="url(#fill2)"/><path d="M1430.68 1074.41 1486.62 1016.54 1542.3 1070.36 1486.35 1128.23Z" stroke="#0070C0" stroke-width="4.58333" stroke-miterlimit="8" fill="#0070C0" fill-rule="evenodd"/><path d="M1294 1213.5C1294 1200.52 1304.52 1190 1317.5 1190 1330.48 1190 1341 1200.52 1341 1213.5 1341 1226.48 1330.48 1237 1317.5 1237 1304.52 1237 1294 1226.48 1294 1213.5Z" fill="#000000" fill-rule="evenodd" fill-opacity="0.501961"/><path d="M1294 957.5C1294 944.521 1304.52 934 1317.5 934 1330.48 934 1341 944.521 1341 957.5 1341 970.479 1330.48 981 1317.5 981 1304.52 981 1294 970.479 1294 957.5Z" fill="#000000" fill-rule="evenodd" fill-opacity="0.501961"/><rect x="1634.5" y="934.5" width="47.0001" height="48.9998" stroke="#A02B93" stroke-width="4.58333" stroke-miterlimit="8" fill="url(#fill3)"/><path d="M2.37238-2.48761 17.2981 11.7467 12.5533 16.7219-2.37238 2.48761ZM22.2733 16.4914 37.199 30.7257 32.4542 35.7009 17.5285 21.4666ZM42.1742 35.4704 57.0999 49.7047 52.3551 54.6799 37.4295 40.4457ZM62.0751 54.4495 77.0008 68.6837 72.2561 73.659 57.3304 59.4247ZM81.976 73.4285 96.9017 87.6628 92.157 92.638 77.2313 78.4037ZM101.877 92.4075 103.512 93.967 98.7674 98.9422 97.1322 97.3827ZM107.312 83.3409 117.724 112.27 88.3334 103.242Z" fill="#AEAEAE" transform="matrix(1 0 0 -1 1341.5 1213.77)"/><path d="M1336.2 971.513 1354.12 981.721 1350.72 987.695 1332.8 977.487ZM1360.1 985.124 1378.02 995.332 1374.62 1001.31 1356.69 991.098ZM1383.99 998.735 1401.91 1008.94 1398.51 1014.92 1380.59 1004.71ZM1407.89 1012.35 1425.81 1022.55 1422.41 1028.53 1404.48 1018.32ZM1431.78 1025.96 1441.02 1031.22 1437.61 1037.19 1428.38 1031.93ZM1442.14 1019.99 1459.23 1045.55 1428.53 1043.88Z" fill="#AEAEAE"/><path d="M1.99118-2.80207 18.8036 9.14501 14.8213 14.7492-1.99118 2.80207ZM24.4078 13.1274 41.2202 25.0744 37.2378 30.6786 20.4254 18.7315ZM46.8243 29.0568 63.6368 41.0039 59.6544 46.608 42.842 34.6609ZM69.2409 44.9862 86.0534 56.9333 82.071 62.5375 65.2586 50.5904ZM91.6575 60.9157 102.721 68.7775 98.7386 74.3816 87.6751 66.5198ZM104.958 57.7164 119.41 84.8541 89.029 80.1329Z" fill="#AEAEAE" transform="matrix(1 0 0 -1 1514.5 1044.35)"/><path d="M1516.87 1097.01 1531.82 1111.21 1527.09 1116.2 1512.13 1101.99ZM1536.81 1115.95 1551.76 1130.15 1547.03 1135.13 1532.07 1120.93ZM1556.75 1134.88 1571.7 1149.09 1566.97 1154.07 1552.01 1139.87ZM1576.69 1153.82 1591.64 1168.03 1586.91 1173.01 1571.95 1158.81ZM1596.63 1172.76 1611.58 1186.97 1606.85 1191.95 1591.89 1177.75ZM1616.57 1191.7 1619.79 1194.77 1615.06 1199.75 1611.83 1196.68ZM1623.57 1184.13 1634.04 1213.04 1604.63 1204.07Z" fill="#AEAEAE"/><path d="M1341.51 955.062 1362.13 955.116 1362.12 961.991 1341.49 961.937ZM1369.01 955.133 1389.63 955.187 1389.62 962.062 1368.99 962.008ZM1396.51 955.204 1417.13 955.258 1417.12 962.133 1396.49 962.079ZM1424.01 955.275 1444.63 955.329 1444.62 962.204 1423.99 962.15ZM1451.51 955.346 1472.13 955.4 1472.12 962.275 1451.49 962.221ZM1479.01 955.417 1499.63 955.471 1499.62 962.346 1478.99 962.292ZM1506.51 955.488 1527.13 955.542 1527.12 962.417 1506.49 962.363ZM1534.01 955.559 1554.63 955.613 1554.62 962.488 1533.99 962.434ZM1561.51 955.63 1582.13 955.684 1582.12 962.559 1561.49 962.505ZM1589.01 955.701 1609.63 955.755 1609.62 962.63 1588.99 962.576ZM1607.11 945.436 1634.58 959.257 1607.04 972.936Z" fill="#AEAEAE"/><path d="M1511.06 1491.36 1511.61 1470.74 1518.48 1470.92 1517.94 1491.54ZM1511.87 1463.7 1513.46 1443.13 1520.32 1443.66 1518.73 1464.23ZM1514.16 1436.13 1516.75 1415.67 1523.57 1416.53 1520.98 1436.99ZM1517.88 1408.72 1521.39 1388.71 1521.5 1388.25 1528.2 1389.76 1528.12 1390.15 1528.15 1389.98 1524.65 1409.91ZM1523.01 1381.54 1526.83 1364.56 1527.74 1361.3 1534.37 1363.13 1533.48 1366.32 1533.52 1366.16 1529.71 1383.05ZM1529.58 1354.67 1533.25 1341.43 1535.48 1334.73 1542 1336.91 1539.8 1343.52 1539.85 1343.35 1536.2 1356.51ZM1537.65 1328.21 1540.55 1319.53 1544.51 1309.07 1544.71 1308.58 1551.07 1311.2 1550.89 1311.64 1550.92 1311.55 1547 1321.9 1547.05 1321.77 1544.18 1330.38ZM1547.33 1302.22 1548.66 1299 1552.99 1289.34 1555.95 1283.26 1562.13 1286.27 1559.19 1292.3 1559.24 1292.2 1554.95 1301.76 1554.99 1301.67 1553.69 1304.84ZM1559.12 1277.02 1562.14 1271.32 1566.95 1263.02 1569.55 1258.93 1575.35 1262.61 1572.79 1266.64 1572.87 1266.52 1568.12 1274.71 1568.18 1274.6 1565.19 1280.25ZM1573.41 1253.06 1576.99 1247.94 1582.2 1241.21 1586.28 1236.51 1591.47 1241.01 1587.46 1245.64 1587.58 1245.49 1582.48 1252.08 1582.58 1251.94 1579.04 1257ZM1591.15 1231.37 1592.98 1229.5 1598.54 1224.58 1604.44 1220.14 1608.7 1218.39 1611.31 1224.75 1607.46 1226.33 1608.22 1225.89 1602.79 1229.99 1603 1229.81 1597.63 1234.57 1597.81 1234.4 1596.06 1236.18ZM1603.49 1209.07 1633.91 1213.5 1612.11 1235.18Z" fill="#FF0000"/><path d="M1258.5 955.668C1258.5 920.229 1287.23 891.5 1322.67 891.5L1664.33 891.5C1699.77 891.5 1728.5 920.229 1728.5 955.668L1728.5 1212.33C1728.5 1247.77 1699.77 1276.5 1664.33 1276.5L1322.67 1276.5C1287.23 1276.5 1258.5 1247.77 1258.5 1212.33Z" stroke="#4EA72E" stroke-width="3.4375" stroke-linejoin="round" stroke-miterlimit="10" fill="none" fill-rule="evenodd"/><path d="M1258.5 1406.67C1258.5 1371.23 1287.23 1342.5 1322.67 1342.5L1664.33 1342.5C1699.77 1342.5 1728.5 1371.23 1728.5 1406.67L1728.5 1663.33C1728.5 1698.77 1699.77 1727.5 1664.33 1727.5L1322.67 1727.5C1287.23 1727.5 1258.5 1698.77 1258.5 1663.33Z" stroke="#0F9ED5" stroke-width="3.4375" stroke-linejoin="round" stroke-miterlimit="10" fill="none" fill-rule="evenodd"/><path d="M1227.5 1832.06 1717.07 1832.06 1717.07 1838.94 1227.5 1838.94ZM1712.49 1821.75 1739.99 1835.5 1712.49 1849.25Z"/><path d="M1492.5 1794.5 1492.5 1835.06" stroke="#000000" stroke-width="6.875" stroke-miterlimit="8" fill="none" fill-rule="evenodd"/><path d="M1661.5 1793.5 1661.5 1834.06" stroke="#000000" stroke-width="6.875" stroke-miterlimit="8" fill="none" fill-rule="evenodd"/><path d="M1315.5 1793.5 1315.5 1834.06" stroke="#000000" stroke-width="6.875" stroke-miterlimit="8" fill="none" fill-rule="evenodd"/><text font-family="DengXian,DengXian_MSFontService,sans-serif" font-weight="400" font-size="50" transform="matrix(1 0 0 1 1482.65 1902)">T</text><text font-family="DengXian,DengXian_MSFontService,sans-serif" font-weight="400" font-size="50" transform="matrix(1 0 0 1 1617.72 1902)">T+1</text><text font-family="DengXian,DengXian_MSFontService,sans-serif" font-weight="400" font-size="50" transform="matrix(1 0 0 1 1277.81 1902)">T</text><text font-family="DengXian,DengXian_MSFontService,sans-serif" font-weight="400" font-size="50" transform="matrix(1 0 0 1 1304.16 1902)">-</text><text font-family="DengXian,DengXian_MSFontService,sans-serif" font-weight="400" font-size="50" transform="matrix(1 0 0 1 1329.37 1902)">1</text><text fill="#00B050" font-family="DengXian,DengXian_MSFontService,sans-serif" font-weight="400" font-size="83" transform="matrix(1 0 0 1 925.378 1099)">Brand A</text><text fill="#00B0F0" font-family="DengXian,DengXian_MSFontService,sans-serif" font-weight="400" font-size="83" transform="matrix(1 0 0 1 925.378 1562)">Brand B</text><text font-family="DengXian,DengXian_MSFontService,sans-serif" font-weight="400" font-size="46" transform="matrix(1 0 0 1 1410.11 1188)">Focal A</text><text font-family="DengXian,DengXian_MSFontService,sans-serif" font-weight="400" font-size="46" transform="matrix(1 0 0 1 1413.97 1644)">Focal B</text><path d="M1890.52 1504.06 1911.14 1504.16 1911.11 1511.03 1890.48 1510.94ZM1918.02 1504.19 1938.64 1504.29 1938.61 1511.16 1917.98 1511.07ZM1945.52 1504.32 1966.14 1504.41 1966.11 1511.29 1945.48 1511.19ZM1973.02 1504.45 1993.64 1504.54 1993.61 1511.42 1972.98 1511.32ZM2000.51 1504.57 2021.14 1504.67 2021.11 1511.54 2000.48 1511.45ZM2028.01 1504.7 2030.49 1504.71 2030.46 1511.59 2027.98 1511.58ZM2025.96 1494.38 2053.39 1508.26 2025.83 1521.88Z" fill="#AEAEAE"/><path d="M1890.52 1616.06 1911.14 1616.16 1911.11 1623.03 1890.48 1622.94ZM1918.02 1616.19 1938.64 1616.29 1938.61 1623.16 1917.98 1623.07ZM1945.52 1616.32 1966.14 1616.41 1966.11 1623.29 1945.48 1623.19ZM1973.02 1616.45 1993.64 1616.54 1993.61 1623.42 1972.98 1623.32ZM2000.51 1616.57 2021.14 1616.67 2021.11 1623.54 2000.48 1623.45ZM2028.01 1616.7 2030.49 1616.71 2030.46 1623.59 2027.98 1623.58ZM2025.96 1606.38 2053.39 1620.26 2025.83 1633.88Z" fill="#FF0000"/><text font-family="DengXian,DengXian_MSFontService,sans-serif" font-weight="400" font-size="64" transform="matrix(1 0 0 1 2086.23 1528)">Link within brand</text><text font-family="DengXian,DengXian_MSFontService,sans-serif" font-weight="400" font-size="64" transform="matrix(1 0 0 1 2086.23 1640)">Link across brands</text><path d="M1932.93 1062.97 1988.87 1005.09 2044.55 1058.91 1988.6 1116.79Z" stroke="#0070C0" stroke-width="4.58333" stroke-miterlimit="8" fill="#0070C0" fill-rule="evenodd"/><rect x="1961.5" y="1163.5" width="47.0001" height="47.9998" stroke="#4EA72E" stroke-width="4.58333" stroke-miterlimit="8" fill="url(#fill4)"/><rect x="1961.5" y="1272.5" width="47.0001" height="48.9998" stroke="#E97132" stroke-width="4.58333" stroke-miterlimit="8" fill="url(#fill5)"/><path d="M1965 1404.5C1965 1391.52 1975.52 1381 1988.5 1381 2001.48 1381 2012 1391.52 2012 1404.5 2012 1417.48 2001.48 1428 1988.5 1428 1975.52 1428 1965 1417.48 1965 1404.5Z" fill="#000000" fill-rule="evenodd" fill-opacity="0.501961"/><text font-family="DengXian,DengXian_MSFontService,sans-serif" font-weight="400" font-size="64" transform="matrix(1 0 0 1 2077.55 1081)">Focal product</text><text font-family="DengXian,DengXian_MSFontService,sans-serif" font-weight="400" font-size="64" transform="matrix(1 0 0 1 2073.12 1206)">Type j</text><text font-family="DengXian,DengXian_MSFontService,sans-serif" font-weight="400" font-size="64" transform="matrix(1 0 0 1 2255.88 1206)">descendan</text><text font-family="DengXian,DengXian_MSFontService,sans-serif" font-weight="400" font-size="64" transform="matrix(1 0 0 1 2554.37 1206)">t</text><text font-family="DengXian,DengXian_MSFontService,sans-serif" font-weight="400" font-size="64" transform="matrix(1 0 0 1 2073.12 1316)">Type </text><text font-family="DengXian,DengXian_MSFontService,sans-serif" font-weight="400" font-size="64" transform="matrix(1 0 0 1 2223.79 1316)">i</text><text font-family="DengXian,DengXian_MSFontService,sans-serif" font-weight="400" font-size="64" transform="matrix(1 0 0 1 2255.88 1316)">descendan</text><text font-family="DengXian,DengXian_MSFontService,sans-serif" font-weight="400" font-size="64" transform="matrix(1 0 0 1 2554.37 1316)">t</text><text font-family="DengXian,DengXian_MSFontService,sans-serif" font-weight="400" font-size="64" transform="matrix(1 0 0 1 2077.59 1420)">Ancestor</text></g></svg>