<svg width="361" height="268" xmlns="http://www.w3.org/2000/svg" xmlns:xlink="http://www.w3.org/1999/xlink" xml:space="preserve" overflow="hidden"><g><path d="M324.012 208.698 351.079 181.631 378.145 208.698 351.079 235.764Z" stroke="#172C51" stroke-width="0.797774" stroke-miterlimit="8" fill="#4472C4" fill-rule="evenodd" transform="matrix(1 0 0 1.00176 -97.1254 -111.594)"/><path d="M271.446 156.828C271.446 151.877 275.225 147.864 279.888 147.864 284.551 147.864 288.33 151.877 288.33 156.828 288.33 161.779 284.551 165.792 279.888 165.792 275.225 165.792 271.446 161.779 271.446 156.828Z" stroke="#434343" stroke-width="0.797774" stroke-miterlimit="8" fill="#A5A5A5" fill-rule="evenodd" transform="matrix(1 0 0 1.00176 -97.1254 -111.594)"/><path d="M271.446 208.176C271.446 203.225 275.225 199.211 279.888 199.211 284.551 199.211 288.33 203.225 288.33 208.176 288.33 213.126 284.551 217.14 279.888 217.14 275.225 217.14 271.446 213.126 271.446 208.176Z" stroke="#434343" stroke-width="0.797774" stroke-miterlimit="8" fill="#A5A5A5" fill-rule="evenodd" transform="matrix(1 0 0 1.00176 -97.1254 -111.594)"/><path d="M271.446 262.308C271.446 257.358 275.225 253.344 279.888 253.344 284.551 253.344 288.33 257.358 288.33 262.308 288.33 267.258 284.551 271.272 279.888 271.272 275.225 271.272 271.446 267.258 271.446 262.308Z" stroke="#434343" stroke-width="0.797774" stroke-miterlimit="8" fill="#A5A5A5" fill-rule="evenodd" transform="matrix(1 0 0 1.00176 -97.1254 -111.594)"/><path d="M400.25 183.546 417.308 183.546 417.308 201.3 400.25 201.3Z" stroke="#FFFFFF" stroke-width="1.19666" stroke-miterlimit="8" fill="#ED7D31" transform="matrix(1 0 0 1.00176 -97.1254 -111.594)"/><path d="M400.25 254.911 417.308 254.911 417.308 272.839 400.25 272.839Z" stroke="#FFFFFF" stroke-width="1.19666" stroke-miterlimit="8" fill="#70AD47" transform="matrix(1 0 0 1.00176 -97.1254 -111.594)"/><path d="M0.155289-0.125152 35.8382 44.1504 35.5275 44.4007-0.155289 0.125152ZM37.0457 42.1526 38.1859 47.3813 33.3187 45.1563Z" fill="#A5A5A5" transform="matrix(-1 0 0 1.00176 226.692 97.296)"/><path d="M323.95 208.816 292.229 208.424 292.234 208.026 323.955 208.416ZM293 210.628 288.243 208.176 293.059 205.841Z" fill="#A5A5A5" transform="matrix(1 0 0 1.00176 -97.1254 -111.594)"/><path d="M323.666 208.633 288.046 166.275 288.353 166.019 323.971 208.377ZM286.882 168.298 285.632 163.094 290.544 165.217Z" fill="#A5A5A5" transform="matrix(1 0 0 1.00176 -97.1254 -111.594)"/><path d="M241.421 342.175 449.288 342.175 449.288 342.576 241.421 342.576ZM448.489 339.982 453.276 342.376 448.489 344.769Z" fill="#FF0000" transform="matrix(1 0 0 1.00176 -97.1254 -111.594)"/><path d="M285.458 328.277 285.458 342.45" stroke="#FF0000" stroke-width="0.398888" stroke-miterlimit="8" fill="none" fill-rule="evenodd" transform="matrix(1 0 0 1.00176 -97.1254 -111.594)"/><path d="M346.901 328.277 346.901 342.45" stroke="#FF0000" stroke-width="0.398888" stroke-miterlimit="8" fill="none" fill-rule="evenodd" transform="matrix(1 0 0 1.00176 -97.1254 -111.594)"/><path d="M408.344 328.277 408.344 342.45" stroke="#FF0000" stroke-width="0.398888" stroke-miterlimit="8" fill="none" fill-rule="evenodd" transform="matrix(1 0 0 1.00176 -97.1254 -111.594)"/><text fill="#FF0000" font-family="DengXian,DengXian_MSFontService,sans-serif" font-weight="400" font-size="83" transform="matrix(0.17406 0 0 0.174366 246.78 255)">t</text><text fill="#FF0000" font-family="DengXian,DengXian_MSFontService,sans-serif" font-weight="400" font-size="83" transform="matrix(0.17406 0 0 0.174366 305.835 255)">t</text><text fill="#FF0000" font-family="DengXian,DengXian_MSFontService,sans-serif" font-weight="400" font-size="83" transform="matrix(0.17406 0 0 0.174366 310.361 255)">+</text><text fill="#FF0000" font-family="DengXian,DengXian_MSFontService,sans-serif" font-weight="400" font-size="83" transform="matrix(0.17406 0 0 0.174366 319.934 255)">1</text><text fill="#FF0000" font-family="DengXian,DengXian_MSFontService,sans-serif" font-weight="400" font-size="83" transform="matrix(0.17406 0 0 0.174366 172.387 255)">t</text><text fill="#FF0000" font-family="DengXian,DengXian_MSFontService,sans-serif" font-weight="400" font-size="83" transform="matrix(0.17406 0 0 0.174366 176.974 255)">-</text><text fill="#FF0000" font-family="DengXian,DengXian_MSFontService,sans-serif" font-weight="400" font-size="83" transform="matrix(0.17406 0 0 0.174366 184.154 255)">1</text><path d="M400.002 263.887 379.355 212.301 379.725 212.153 400.372 263.739ZM377.614 213.857 378.058 208.524 382.058 212.078Z" fill="#A5A5A5" transform="matrix(1 0 0 1.00176 -97.1254 -111.594)"/><path d="M0.117941-0.160834 19.0307 13.708 18.7948 14.0297-0.117941 0.160834ZM19.6848 11.4671 22.1294 16.2277 16.8542 15.3271Z" fill="#A5A5A5" transform="matrix(-1 0 0 1.00176 303.062 81.08)"/><path d="M400.25 219.228 417.308 219.228 417.308 237.156 400.25 237.156Z" stroke="#FFFFFF" stroke-width="1.19666" stroke-miterlimit="8" fill="#70AD47" transform="matrix(1 0 0 1.00176 -97.1254 -111.594)"/><path d="M400.25 147.69 417.308 147.69 417.308 165.618 400.25 165.618Z" stroke="#FFFFFF" stroke-width="1.19666" stroke-miterlimit="8" fill="#ED7D31" transform="matrix(1 0 0 1.00176 -97.1254 -111.594)"/><path d="M400.25 290.767 417.308 290.767 417.308 308.695 400.25 308.695Z" stroke="#FFFFFF" stroke-width="1.19666" stroke-miterlimit="8" transform="matrix(1 0 0 1.00176 -97.1254 -111.594)"/><path d="M400.25 112.007 417.308 112.007 417.308 129.936 400.25 129.936Z" stroke="#FFFFFF" stroke-width="1.19666" stroke-miterlimit="8" transform="matrix(1 0 0 1.00176 -97.1254 -111.594)"/><path d="M0.0899908-0.177987 45.7633 22.9146 45.5833 23.2706-0.0899908 0.177987ZM46.0413 20.5968 49.2332 24.8925 43.8815 24.8684Z" fill="#A5A5A5" transform="matrix(-1 0 0 1.00176 303.186 45.3351)"/><path d="M400.214 299.769 394.566 299.727 388.926 299.606 383.311 299.407 377.727 299.13 372.189 298.784 366.704 298.365 361.287 297.879 355.947 297.329 350.694 296.716 345.542 296.043 340.499 295.312 335.577 294.527 330.788 293.691 326.143 292.803 321.65 291.87 317.325 290.894 313.175 289.874 309.212 288.816 305.447 287.721 301.893 286.593 298.556 285.432 295.453 284.241 292.591 283.026 291.253 282.409 289.98 281.785 288.772 281.157 287.634 280.523 286.562 279.885 285.561 279.241 284.63 278.591 283.773 277.939 282.988 277.282 282.28 276.621 281.634 275.94 281.11 274.945 281.462 274.759 281.973 275.73 281.942 275.686 282.565 276.343 282.556 276.334 283.256 276.987 283.249 276.98 284.026 277.631 284.019 277.625 284.868 278.273 284.861 278.268 285.785 278.912 285.78 278.906 286.774 279.547 286.769 279.544 287.834 280.179 287.829 280.175 288.964 280.807 288.96 280.804 290.161 281.43 290.158 281.429 291.427 282.05 291.421 282.048 292.755 282.663 292.749 282.661 295.604 283.874 295.599 283.871 298.697 285.058 298.69 285.056 302.02 286.215 302.015 286.213 305.565 287.34 305.562 287.34 309.322 288.433 309.316 288.431 313.276 289.489 313.271 289.488 317.419 290.506 317.414 290.506 321.737 291.482 321.734 291.481 326.223 292.413 326.219 292.413 330.862 293.298 330.858 293.298 335.645 294.135 335.641 294.133 340.56 294.918 340.557 294.918 345.597 295.648 345.594 295.648 350.744 296.319 350.743 296.319 355.992 296.932 355.989 296.932 361.327 297.482 361.324 297.482 366.739 297.968 366.737 297.968 372.218 298.385 372.215 298.385 377.752 298.734 377.748 298.734 383.328 299.009 383.327 299.009 388.94 299.207 388.937 299.207 394.573 299.329 394.569 299.329 400.216 299.371ZM279.401 276.527 279.714 271.185 283.799 274.642Z" fill="#A5A5A5" transform="matrix(1 0 0 1.00176 -97.1254 -111.594)"/><path d="M0.00159855-0.199438 5.36968-0.15641 10.7288-0.0291051 16.0669 0.179746 21.3735 0.467424 26.6379 0.831209 31.8502 1.26839 36.9994 1.77625 42.0751 2.35205 47.0672 2.99311 51.9649 3.69672 56.7578 4.46014 61.4354 5.28068 65.9873 6.15562 70.403 7.08227 74.6722 8.05792 78.7843 9.07988 82.7289 10.1455 86.4957 11.252 90.074 12.3968 93.4536 13.5772 96.6242 14.7906 99.5753 16.0345 102.297 17.3062 104.777 18.6028 105.925 19.2608 107.009 19.9236 108.027 20.5918 108.979 21.2649 109.863 21.9428 110.679 22.6253 111.424 23.3123 112.097 24.0037 112.709 24.7128 113.285 25.8545 112.929 26.0339 112.364 24.9142 112.391 24.9548 111.799 24.269 111.807 24.2777 111.142 23.5945 111.15 23.602 110.412 22.9219 110.419 22.9282 109.611 22.2515 109.617 22.2569 108.74 21.5838 108.746 21.5885 107.8 20.9195 107.805 20.9234 106.792 20.2588 106.798 20.2623 105.719 19.6024 105.724 19.6054 104.582 18.9508 104.588 18.9544 102.116 17.6617 102.124 17.6657 99.4099 16.3975 99.4169 16.4006 96.4723 15.1595 96.4786 15.162 93.3138 13.9508 93.3194 13.9528 89.945 12.7742 89.9499 12.7759 86.3763 11.6326 86.381 11.634 82.6187 10.5288 82.6229 10.53 78.6823 9.46549 78.6862 9.4665 74.5778 8.44549 74.5815 8.44636 70.316 7.47152 70.3195 7.47228 65.907 6.54635 65.9104 6.54702 61.3616 5.6727 61.3648 5.67329 56.6904 4.85329 56.6934 4.85381 51.9036 4.09088 51.9065 4.09133 47.012 3.38816 47.0149 3.38856 42.0259 2.74788 42.0288 2.74823 36.9559 2.17275 36.9588 2.17307 31.8124 1.66549 31.8153 1.66576 26.6061 1.22882 26.609 1.22905 21.3474 0.865464 21.3503 0.865645 16.0468 0.578129 16.0498 0.578268 10.7147 0.369538 10.7178 0.369633 5.36176 0.242401 5.36491 0.242451-0.00159855 0.199438ZM115.061 24.3489 114.523 29.6734 110.586 26.0479Z" fill="#A5A5A5" transform="matrix(-1 1.2268e-16 1.22465e-16 1.00176 303.029 9.41574)"/><path d="M400.056 228.205 380.916 211.312 381.18 211.014 400.32 227.905ZM380.063 213.486 378.058 208.524 383.231 209.897Z" fill="#A5A5A5" transform="matrix(1 0 0 1.00176 -97.1254 -111.594)"/><path d="M0.0274391 0.197547-0.645464 0.291012-0.596983 0.277893-1.26857 0.554356-1.23257 0.535006-1.90153 0.98856-1.87689 0.968841-2.54192 1.59359-2.52538 1.57607-3.18514 2.3661-3.17391 2.3513-3.82711 3.30071-3.81927 3.28839-4.46456 4.39128-4.45894 4.38098-5.09504 5.63146-5.09088 5.62278-5.71647 7.01492-5.71332 7.00753-6.32706 8.53544-6.32462 8.52903-6.92521 10.1868-6.92328 10.1812-7.50943 11.963-7.50786 11.958-8.07822 13.8578-8.07693 13.8533-8.6302 15.8653-8.62914 15.8612-9.164 17.9795-9.1631 17.9757-9.67825 20.1942-9.67748 20.1909-10.1716 22.5038-10.1709 22.5007-10.6427 24.9022-10.6421 24.8993-11.0902 27.3834-11.0897 27.3805-11.5128 29.9414-11.5124 29.9386-11.9092 32.5706-11.9088 32.5678-12.2781 35.2645-12.2776 35.2607-12.9279 40.8254-12.9274 40.8202-13.4515 46.5737-13.4511 46.5688-13.8385 52.4641-13.8382 52.4588-14.0784 58.4486-14.0783 58.4434-14.1607 64.4803-14.1607 64.4742-14.1109 67.4955-14.1111 67.4891-13.9639 70.5047-13.9643 70.4984-13.7228 73.5021-13.7234 73.4961-13.3907 76.482-13.3915 76.476-12.9708 79.4383-12.9718 79.4325-12.4662 82.3654-12.4673 82.3597-11.8801 85.2571-11.8813 85.2514-11.2155 88.1075-11.2169 88.1019-10.4756 90.9107-10.4772 90.9052-9.66364 93.661-9.66538 93.6555-8.78269 96.3522-8.78461 96.3466-7.83591 98.9784-7.83803 98.9727-6.82647 101.534-6.82884 101.528-5.75755 104.012-5.76016 104.006-4.63231 106.408-4.63521 106.402-3.45392 108.715-3.45718 108.709-2.2256 110.927-2.22922 110.921-0.950501 113.039-0.954591 113.033 0.368138 115.045 0.363512 115.038 1.7271 116.938 1.72184 116.931 3.12314 118.713 3.11713 118.705 4.55302 120.363 4.54611 120.356 6.01342 121.884 6.00546 121.876 7.50105 123.268 7.49183 123.26 9.01257 124.51 9.0019 124.502 10.5446 125.605 10.5323 125.597 12.0939 126.546 12.0796 126.538 13.6569 127.328 13.6405 127.321 15.2304 127.946 15.193 127.935 16.0734 128.095 16.0024 128.487 15.1027 128.324 13.4863 127.689 11.8936 126.891 10.3187 125.934 8.76443 124.823 7.23377 123.564 5.72958 122.164 4.25486 120.628 2.81253 118.963 1.4056 117.174 0.0370737 115.267-1.29001 113.249-2.57259 111.124-3.80759 108.899-4.99197 106.58-6.12257 104.173-7.19633 101.683-8.21014 99.1164-9.16085 96.4791-10.0454 93.7766-10.8606 91.0153-11.6033 88.201-12.2704 85.3391-12.8588 82.4359-13.3654 79.4975-13.7868 76.529-14.1202 73.5371-14.3622 70.5273-14.5097 67.5054-14.5595 64.4778-14.4771 58.4352-14.2367 52.4404-13.849 46.5401-13.3244 40.7815-12.6735 35.2125-12.3039 32.5125-11.9066 29.8779-11.483 27.314-11.0344 24.8268-10.562 22.4222-10.0672 20.1058-9.55122 17.8836-9.01538 15.7615-8.46092 13.7453-7.88914 11.8408-7.30127 10.0537-6.69848 8.38994-6.08196 6.8551-5.45275 5.45489-4.81181 4.19491-4.15987 3.08065-3.49728 2.11754-2.82382 1.31112-2.13848 0.667284-1.43941 0.193319-0.725415-0.100599-0.0274391-0.197547ZM15.6497 125.798 19.9711 128.955 14.8528 130.518Z" fill="#A5A5A5" transform="matrix(-6.12323e-17 -1.00176 -1 6.13399e-17 311.544 125.847)"/><path d="M0.027439 0.197547-0.645468 0.291012-0.596985 0.277893-1.26858 0.554356-1.23257 0.535006-1.90153 0.98856-1.8769 0.968841-2.54192 1.59359-2.52538 1.57607-3.18514 2.3661-3.17391 2.3513-3.82711 3.30071-3.81927 3.28839-4.46456 4.39128-4.45894 4.381-5.09503 5.63146-5.09088 5.62278-5.71645 7.01492-5.7133 7.00753-6.32704 8.53544-6.32458 8.52903-6.92518 10.1868-6.92325 10.1812-7.50938 11.963-7.50781 11.958-8.07817 13.8578-8.07688 13.8533-8.63015 15.8653-8.62907 15.8613-9.16393 17.9795-9.16303 17.9757-9.67816 20.1942-9.67739 20.1909-10.1715 22.5038-10.1708 22.5007-10.6426 24.9022-10.642 24.8993-11.0901 27.3834-11.0896 27.3805-11.5127 29.9416-11.5123 29.9388-11.9091 32.5706-11.9087 32.5678-12.2779 35.2645-12.2774 35.2607-12.9277 40.8254-12.9272 40.8203-13.4513 46.5739-13.4509 46.5688-13.8383 52.4641-13.838 52.4588-14.0782 58.4486-14.0781 58.4434-14.1604 64.4803-14.1605 64.4745-14.069 70.5115-14.0692 70.5055-13.8026 76.4953-13.803 76.4895-13.373 82.3848-13.3735 82.3792-12.7918 88.1327-12.7924 88.1272-12.0707 93.6919-12.0713 93.6875-11.6615 96.3842-11.662 96.3813-11.2215 99.013-11.2221 99.0101-10.7525 101.571-10.7531 101.568-10.2558 104.052-10.2565 104.049-9.73288 106.45-9.73368 106.447-9.18529 108.76-9.18623 108.756-8.61448 110.975-8.61558 110.971-8.02195 113.089-8.02323 113.084-7.40919 115.096-7.41074 115.091-6.77771 116.991-6.77958 116.986-6.12905 118.768-6.13134 118.762-5.46476 120.419-5.46765 120.413-4.78647 121.941-4.79016 121.933-4.09585 123.325-4.10066 123.316-3.39467 124.566-3.40108 124.556-2.68489 125.659-2.71777 125.62-1.62248 126.619-1.89125 126.913-3.00547 125.897-3.739 124.768-4.45052 123.508-5.14904 122.107-5.83347 120.572-6.50263 118.908-7.15525 117.12-7.78996 115.215-8.40542 113.199-9.00023 111.076-9.57298 108.854-10.1222 106.537-10.6466 104.132-11.1445 101.644-11.6147 99.0804-12.0556 96.4457-12.466 93.7453-13.1884 88.1757-13.7707 82.4166-14.201 76.5158-14.4678 70.5203-14.5593 64.4777-14.4769 58.4352-14.2365 52.4404-13.8488 46.5401-13.3242 40.7815-12.6734 35.2125-12.3037 32.5125-11.9065 29.8779-11.4829 27.3142-11.0343 24.8268-10.5619 22.4222-10.0671 20.1058-9.55115 17.8836-9.01531 15.7615-8.46087 13.7453-7.8891 11.8408-7.30123 10.0537-6.69846 8.38994-6.08194 6.8551-5.45274 5.45489-4.81181 4.19491-4.15987 3.08065-3.49728 2.11756-2.82382 1.31112-2.13848 0.667284-1.43942 0.193319-0.725419-0.100599-0.027439-0.197547ZM-1.11046 124.328 1.57777 128.955-3.73713 128.329Z" fill="#A5A5A5" transform="matrix(-6.12323e-17 -1.00176 -1 6.13399e-17 311.544 161.647)"/><text fill="#FF9C44" font-family="DengXian,DengXian_MSFontService,sans-serif" font-weight="400" font-size="83" transform="matrix(0.17406 0 0 0.174366 337.152 62)">i</text><text fill="#139513" font-family="DengXian,DengXian_MSFontService,sans-serif" font-weight="400" font-size="83" transform="matrix(0.17406 0 0 0.174366 339.387 138)">j</text><text font-family="DengXian,DengXian_MSFontService,sans-serif" font-weight="400" font-size="83" transform="matrix(0.17406 0 0 0.174366 339.387 193)">k</text><path d="M97.9086 181.196C97.9086 178.072 100.441 175.539 103.566 175.539 106.69 175.539 109.223 178.072 109.223 181.196 109.223 184.321 106.69 186.853 103.566 186.853 100.441 186.853 97.9086 184.321 97.9086 181.196Z" stroke="#434343" stroke-width="0.797774" stroke-miterlimit="8" fill="#A5A5A5" fill-rule="evenodd" transform="matrix(1 0 0 1.00176 -97.1254 -111.594)"/><path d="M97.9086 210.525 109.223 210.525 109.223 221.839 97.9086 221.839Z" stroke="#FFFFFF" stroke-width="1.19666" stroke-miterlimit="8" transform="matrix(1 0 0 1.00176 -97.1254 -111.594)"/><path d="M97.9086 146.036 103.566 140.379 109.223 146.036 103.566 151.693Z" stroke="#172C51" stroke-width="0.797774" stroke-miterlimit="8" fill="#4472C4" fill-rule="evenodd" transform="matrix(1 0 0 1.00176 -97.1254 -111.594)"/><text font-family="DengXian,DengXian_MSFontService,sans-serif" font-weight="400" font-size="83" transform="matrix(0.17406 0 0 0.174366 32.5081 73)">Ancestor</text><text font-family="DengXian,DengXian_MSFontService,sans-serif" font-weight="400" font-size="83" transform="matrix(0.17406 0 0 0.174366 32.5081 100)">Type k</text><text font-family="DengXian,DengXian_MSFontService,sans-serif" font-weight="400" font-size="83" transform="matrix(0.17406 0 0 0.174366 32.5081 117)">product</text><text font-family="DengXian,DengXian_MSFontService,sans-serif" font-weight="400" font-size="83" transform="matrix(0.17406 0 0 0.174366 32.5081 39)">Focal product</text><path d="M97.9086 245.511 109.223 245.511 109.223 256.825 97.9086 256.825Z" stroke="#FFFFFF" stroke-width="1.19666" stroke-miterlimit="8" fill="#70AD47" transform="matrix(1 0 0 1.00176 -97.1254 -111.594)"/><text font-family="DengXian,DengXian_MSFontService,sans-serif" font-weight="400" font-size="83" transform="matrix(0.17406 0 0 0.174366 32.5081 136)">Type j</text><text font-family="DengXian,DengXian_MSFontService,sans-serif" font-weight="400" font-size="83" transform="matrix(0.17406 0 0 0.174366 32.5081 153)">product</text><path d="M97.9086 280.497 109.223 280.497 109.223 291.811 97.9086 291.811Z" stroke="#FFFFFF" stroke-width="1.19666" stroke-miterlimit="8" fill="#ED7D31" transform="matrix(1 0 0 1.00176 -97.1254 -111.594)"/><text font-family="DengXian,DengXian_MSFontService,sans-serif" font-weight="400" font-size="83" transform="matrix(0.17406 0 0 0.174366 32.5081 173)">Type </text><text font-family="DengXian,DengXian_MSFontService,sans-serif" font-weight="400" font-size="83" transform="matrix(0.17406 0 0 0.174366 66.2141 173)">i</text><text font-family="DengXian,DengXian_MSFontService,sans-serif" font-weight="400" font-size="83" transform="matrix(0.17406 0 0 0.174366 32.5081 190)">product</text></g></svg>