<?xml version="1.0" encoding="utf-8" standalone="no"?>
<!DOCTYPE svg PUBLIC "-//W3C//DTD SVG 1.1//EN"
  "http://www.w3.org/Graphics/SVG/1.1/DTD/svg11.dtd">
<svg xmlns:xlink="http://www.w3.org/1999/xlink" width="720pt" height="432pt" viewBox="0 0 720 432" xmlns="http://www.w3.org/2000/svg" version="1.1">
 <metadata>
  <rdf:RDF xmlns:dc="http://purl.org/dc/elements/1.1/" xmlns:cc="http://creativecommons.org/ns#" xmlns:rdf="http://www.w3.org/1999/02/22-rdf-syntax-ns#">
   <cc:Work>
    <dc:type rdf:resource="http://purl.org/dc/dcmitype/StillImage"/>
    <dc:date>2025-01-11T20:31:38.508291</dc:date>
    <dc:format>image/svg+xml</dc:format>
    <dc:creator>
     <cc:Agent>
      <dc:title>Matplotlib v3.7.2, https://matplotlib.org/</dc:title>
     </cc:Agent>
    </dc:creator>
   </cc:Work>
  </rdf:RDF>
 </metadata>
 <defs>
  <style type="text/css">*{stroke-linejoin: round; stroke-linecap: butt}</style>
 </defs>
 <g id="figure_1">
  <g id="patch_1">
   <path d="M 0 432 
L 720 432 
L 720 0 
L 0 0 
z
" style="fill: #ffffff"/>
  </g>
  <g id="axes_1">
   <g id="patch_2">
    <path d="M 90 384.48 
L 648 384.48 
L 648 51.84 
L 90 51.84 
z
" style="fill: #ffffff"/>
   </g>
   <g id="matplotlib.axis_1">
    <g id="xtick_1">
     <g id="line2d_1">
      <defs>
       <path id="m7eff4ff682" d="M 0 0 
L 0 3.5 
" style="stroke: #000000; stroke-width: 0.8"/>
      </defs>
      <g>
       <use xlink:href="#m7eff4ff682" x="164.950314" y="384.48" style="stroke: #000000; stroke-width: 0.8"/>
      </g>
     </g>
     <g id="text_1">
      <!-- 0.0 -->
      <g transform="translate(156.998751 399.078438) scale(0.1 -0.1)">
       <defs>
        <path id="DejaVuSans-30" d="M 2034 4250 
Q 1547 4250 1301 3770 
Q 1056 3291 1056 2328 
Q 1056 1369 1301 889 
Q 1547 409 2034 409 
Q 2525 409 2770 889 
Q 3016 1369 3016 2328 
Q 3016 3291 2770 3770 
Q 2525 4250 2034 4250 
z
M 2034 4750 
Q 2819 4750 3233 4129 
Q 3647 3509 3647 2328 
Q 3647 1150 3233 529 
Q 2819 -91 2034 -91 
Q 1250 -91 836 529 
Q 422 1150 422 2328 
Q 422 3509 836 4129 
Q 1250 4750 2034 4750 
z
" transform="scale(0.015625)"/>
        <path id="DejaVuSans-2e" d="M 684 794 
L 1344 794 
L 1344 0 
L 684 0 
L 684 794 
z
" transform="scale(0.015625)"/>
       </defs>
       <use xlink:href="#DejaVuSans-30"/>
       <use xlink:href="#DejaVuSans-2e" x="63.623047"/>
       <use xlink:href="#DejaVuSans-30" x="95.410156"/>
      </g>
     </g>
    </g>
    <g id="xtick_2">
     <g id="line2d_2">
      <g>
       <use xlink:href="#m7eff4ff682" x="272.177873" y="384.48" style="stroke: #000000; stroke-width: 0.8"/>
      </g>
     </g>
     <g id="text_2">
      <!-- 0.1 -->
      <g transform="translate(264.226311 399.078438) scale(0.1 -0.1)">
       <defs>
        <path id="DejaVuSans-31" d="M 794 531 
L 1825 531 
L 1825 4091 
L 703 3866 
L 703 4441 
L 1819 4666 
L 2450 4666 
L 2450 531 
L 3481 531 
L 3481 0 
L 794 0 
L 794 531 
z
" transform="scale(0.015625)"/>
       </defs>
       <use xlink:href="#DejaVuSans-30"/>
       <use xlink:href="#DejaVuSans-2e" x="63.623047"/>
       <use xlink:href="#DejaVuSans-31" x="95.410156"/>
      </g>
     </g>
    </g>
    <g id="xtick_3">
     <g id="line2d_3">
      <g>
       <use xlink:href="#m7eff4ff682" x="379.405433" y="384.48" style="stroke: #000000; stroke-width: 0.8"/>
      </g>
     </g>
     <g id="text_3">
      <!-- 0.2 -->
      <g transform="translate(371.45387 399.078438) scale(0.1 -0.1)">
       <defs>
        <path id="DejaVuSans-32" d="M 1228 531 
L 3431 531 
L 3431 0 
L 469 0 
L 469 531 
Q 828 903 1448 1529 
Q 2069 2156 2228 2338 
Q 2531 2678 2651 2914 
Q 2772 3150 2772 3378 
Q 2772 3750 2511 3984 
Q 2250 4219 1831 4219 
Q 1534 4219 1204 4116 
Q 875 4013 500 3803 
L 500 4441 
Q 881 4594 1212 4672 
Q 1544 4750 1819 4750 
Q 2544 4750 2975 4387 
Q 3406 4025 3406 3419 
Q 3406 3131 3298 2873 
Q 3191 2616 2906 2266 
Q 2828 2175 2409 1742 
Q 1991 1309 1228 531 
z
" transform="scale(0.015625)"/>
       </defs>
       <use xlink:href="#DejaVuSans-30"/>
       <use xlink:href="#DejaVuSans-2e" x="63.623047"/>
       <use xlink:href="#DejaVuSans-32" x="95.410156"/>
      </g>
     </g>
    </g>
    <g id="xtick_4">
     <g id="line2d_4">
      <g>
       <use xlink:href="#m7eff4ff682" x="486.632992" y="384.48" style="stroke: #000000; stroke-width: 0.8"/>
      </g>
     </g>
     <g id="text_4">
      <!-- 0.3 -->
      <g transform="translate(478.68143 399.078438) scale(0.1 -0.1)">
       <defs>
        <path id="DejaVuSans-33" d="M 2597 2516 
Q 3050 2419 3304 2112 
Q 3559 1806 3559 1356 
Q 3559 666 3084 287 
Q 2609 -91 1734 -91 
Q 1441 -91 1130 -33 
Q 819 25 488 141 
L 488 750 
Q 750 597 1062 519 
Q 1375 441 1716 441 
Q 2309 441 2620 675 
Q 2931 909 2931 1356 
Q 2931 1769 2642 2001 
Q 2353 2234 1838 2234 
L 1294 2234 
L 1294 2753 
L 1863 2753 
Q 2328 2753 2575 2939 
Q 2822 3125 2822 3475 
Q 2822 3834 2567 4026 
Q 2313 4219 1838 4219 
Q 1578 4219 1281 4162 
Q 984 4106 628 3988 
L 628 4550 
Q 988 4650 1302 4700 
Q 1616 4750 1894 4750 
Q 2613 4750 3031 4423 
Q 3450 4097 3450 3541 
Q 3450 3153 3228 2886 
Q 3006 2619 2597 2516 
z
" transform="scale(0.015625)"/>
       </defs>
       <use xlink:href="#DejaVuSans-30"/>
       <use xlink:href="#DejaVuSans-2e" x="63.623047"/>
       <use xlink:href="#DejaVuSans-33" x="95.410156"/>
      </g>
     </g>
    </g>
    <g id="xtick_5">
     <g id="line2d_5">
      <g>
       <use xlink:href="#m7eff4ff682" x="593.860552" y="384.48" style="stroke: #000000; stroke-width: 0.8"/>
      </g>
     </g>
     <g id="text_5">
      <!-- 0.4 -->
      <g transform="translate(585.908989 399.078438) scale(0.1 -0.1)">
       <defs>
        <path id="DejaVuSans-34" d="M 2419 4116 
L 825 1625 
L 2419 1625 
L 2419 4116 
z
M 2253 4666 
L 3047 4666 
L 3047 1625 
L 3713 1625 
L 3713 1100 
L 3047 1100 
L 3047 0 
L 2419 0 
L 2419 1100 
L 313 1100 
L 313 1709 
L 2253 4666 
z
" transform="scale(0.015625)"/>
       </defs>
       <use xlink:href="#DejaVuSans-30"/>
       <use xlink:href="#DejaVuSans-2e" x="63.623047"/>
       <use xlink:href="#DejaVuSans-34" x="95.410156"/>
      </g>
     </g>
    </g>
    <g id="text_6">
     <!-- Threshold -->
     <g transform="translate(344.361719 412.756563) scale(0.1 -0.1)">
      <defs>
       <path id="DejaVuSans-54" d="M -19 4666 
L 3928 4666 
L 3928 4134 
L 2272 4134 
L 2272 0 
L 1638 0 
L 1638 4134 
L -19 4134 
L -19 4666 
z
" transform="scale(0.015625)"/>
       <path id="DejaVuSans-68" d="M 3513 2113 
L 3513 0 
L 2938 0 
L 2938 2094 
Q 2938 2591 2744 2837 
Q 2550 3084 2163 3084 
Q 1697 3084 1428 2787 
Q 1159 2491 1159 1978 
L 1159 0 
L 581 0 
L 581 4863 
L 1159 4863 
L 1159 2956 
Q 1366 3272 1645 3428 
Q 1925 3584 2291 3584 
Q 2894 3584 3203 3211 
Q 3513 2838 3513 2113 
z
" transform="scale(0.015625)"/>
       <path id="DejaVuSans-72" d="M 2631 2963 
Q 2534 3019 2420 3045 
Q 2306 3072 2169 3072 
Q 1681 3072 1420 2755 
Q 1159 2438 1159 1844 
L 1159 0 
L 581 0 
L 581 3500 
L 1159 3500 
L 1159 2956 
Q 1341 3275 1631 3429 
Q 1922 3584 2338 3584 
Q 2397 3584 2469 3576 
Q 2541 3569 2628 3553 
L 2631 2963 
z
" transform="scale(0.015625)"/>
       <path id="DejaVuSans-65" d="M 3597 1894 
L 3597 1613 
L 953 1613 
Q 991 1019 1311 708 
Q 1631 397 2203 397 
Q 2534 397 2845 478 
Q 3156 559 3463 722 
L 3463 178 
Q 3153 47 2828 -22 
Q 2503 -91 2169 -91 
Q 1331 -91 842 396 
Q 353 884 353 1716 
Q 353 2575 817 3079 
Q 1281 3584 2069 3584 
Q 2775 3584 3186 3129 
Q 3597 2675 3597 1894 
z
M 3022 2063 
Q 3016 2534 2758 2815 
Q 2500 3097 2075 3097 
Q 1594 3097 1305 2825 
Q 1016 2553 972 2059 
L 3022 2063 
z
" transform="scale(0.015625)"/>
       <path id="DejaVuSans-73" d="M 2834 3397 
L 2834 2853 
Q 2591 2978 2328 3040 
Q 2066 3103 1784 3103 
Q 1356 3103 1142 2972 
Q 928 2841 928 2578 
Q 928 2378 1081 2264 
Q 1234 2150 1697 2047 
L 1894 2003 
Q 2506 1872 2764 1633 
Q 3022 1394 3022 966 
Q 3022 478 2636 193 
Q 2250 -91 1575 -91 
Q 1294 -91 989 -36 
Q 684 19 347 128 
L 347 722 
Q 666 556 975 473 
Q 1284 391 1588 391 
Q 1994 391 2212 530 
Q 2431 669 2431 922 
Q 2431 1156 2273 1281 
Q 2116 1406 1581 1522 
L 1381 1569 
Q 847 1681 609 1914 
Q 372 2147 372 2553 
Q 372 3047 722 3315 
Q 1072 3584 1716 3584 
Q 2034 3584 2315 3537 
Q 2597 3491 2834 3397 
z
" transform="scale(0.015625)"/>
       <path id="DejaVuSans-6f" d="M 1959 3097 
Q 1497 3097 1228 2736 
Q 959 2375 959 1747 
Q 959 1119 1226 758 
Q 1494 397 1959 397 
Q 2419 397 2687 759 
Q 2956 1122 2956 1747 
Q 2956 2369 2687 2733 
Q 2419 3097 1959 3097 
z
M 1959 3584 
Q 2709 3584 3137 3096 
Q 3566 2609 3566 1747 
Q 3566 888 3137 398 
Q 2709 -91 1959 -91 
Q 1206 -91 779 398 
Q 353 888 353 1747 
Q 353 2609 779 3096 
Q 1206 3584 1959 3584 
z
" transform="scale(0.015625)"/>
       <path id="DejaVuSans-6c" d="M 603 4863 
L 1178 4863 
L 1178 0 
L 603 0 
L 603 4863 
z
" transform="scale(0.015625)"/>
       <path id="DejaVuSans-64" d="M 2906 2969 
L 2906 4863 
L 3481 4863 
L 3481 0 
L 2906 0 
L 2906 525 
Q 2725 213 2448 61 
Q 2172 -91 1784 -91 
Q 1150 -91 751 415 
Q 353 922 353 1747 
Q 353 2572 751 3078 
Q 1150 3584 1784 3584 
Q 2172 3584 2448 3432 
Q 2725 3281 2906 2969 
z
M 947 1747 
Q 947 1113 1208 752 
Q 1469 391 1925 391 
Q 2381 391 2643 752 
Q 2906 1113 2906 1747 
Q 2906 2381 2643 2742 
Q 2381 3103 1925 3103 
Q 1469 3103 1208 2742 
Q 947 2381 947 1747 
z
" transform="scale(0.015625)"/>
      </defs>
      <use xlink:href="#DejaVuSans-54"/>
      <use xlink:href="#DejaVuSans-68" x="61.083984"/>
      <use xlink:href="#DejaVuSans-72" x="124.462891"/>
      <use xlink:href="#DejaVuSans-65" x="163.326172"/>
      <use xlink:href="#DejaVuSans-73" x="224.849609"/>
      <use xlink:href="#DejaVuSans-68" x="276.949219"/>
      <use xlink:href="#DejaVuSans-6f" x="340.328125"/>
      <use xlink:href="#DejaVuSans-6c" x="401.509766"/>
      <use xlink:href="#DejaVuSans-64" x="429.292969"/>
     </g>
    </g>
   </g>
   <g id="matplotlib.axis_2">
    <g id="ytick_1">
     <g id="line2d_6">
      <defs>
       <path id="m58a91ab7d6" d="M 0 0 
L -3.5 0 
" style="stroke: #000000; stroke-width: 0.8"/>
      </defs>
      <g>
       <use xlink:href="#m58a91ab7d6" x="90" y="384.48" style="stroke: #000000; stroke-width: 0.8"/>
      </g>
     </g>
     <g id="text_7">
      <!-- 0 -->
      <g transform="translate(76.6375 388.279219) scale(0.1 -0.1)">
       <use xlink:href="#DejaVuSans-30"/>
      </g>
     </g>
    </g>
    <g id="ytick_2">
     <g id="line2d_7">
      <g>
       <use xlink:href="#m58a91ab7d6" x="90" y="325.957889" style="stroke: #000000; stroke-width: 0.8"/>
      </g>
     </g>
     <g id="text_8">
      <!-- 2 -->
      <g transform="translate(76.6375 329.757108) scale(0.1 -0.1)">
       <use xlink:href="#DejaVuSans-32"/>
      </g>
     </g>
    </g>
    <g id="ytick_3">
     <g id="line2d_8">
      <g>
       <use xlink:href="#m58a91ab7d6" x="90" y="267.435778" style="stroke: #000000; stroke-width: 0.8"/>
      </g>
     </g>
     <g id="text_9">
      <!-- 4 -->
      <g transform="translate(76.6375 271.234996) scale(0.1 -0.1)">
       <use xlink:href="#DejaVuSans-34"/>
      </g>
     </g>
    </g>
    <g id="ytick_4">
     <g id="line2d_9">
      <g>
       <use xlink:href="#m58a91ab7d6" x="90" y="208.913666" style="stroke: #000000; stroke-width: 0.8"/>
      </g>
     </g>
     <g id="text_10">
      <!-- 6 -->
      <g transform="translate(76.6375 212.712885) scale(0.1 -0.1)">
       <defs>
        <path id="DejaVuSans-36" d="M 2113 2584 
Q 1688 2584 1439 2293 
Q 1191 2003 1191 1497 
Q 1191 994 1439 701 
Q 1688 409 2113 409 
Q 2538 409 2786 701 
Q 3034 994 3034 1497 
Q 3034 2003 2786 2293 
Q 2538 2584 2113 2584 
z
M 3366 4563 
L 3366 3988 
Q 3128 4100 2886 4159 
Q 2644 4219 2406 4219 
Q 1781 4219 1451 3797 
Q 1122 3375 1075 2522 
Q 1259 2794 1537 2939 
Q 1816 3084 2150 3084 
Q 2853 3084 3261 2657 
Q 3669 2231 3669 1497 
Q 3669 778 3244 343 
Q 2819 -91 2113 -91 
Q 1303 -91 875 529 
Q 447 1150 447 2328 
Q 447 3434 972 4092 
Q 1497 4750 2381 4750 
Q 2619 4750 2861 4703 
Q 3103 4656 3366 4563 
z
" transform="scale(0.015625)"/>
       </defs>
       <use xlink:href="#DejaVuSans-36"/>
      </g>
     </g>
    </g>
    <g id="ytick_5">
     <g id="line2d_10">
      <g>
       <use xlink:href="#m58a91ab7d6" x="90" y="150.391555" style="stroke: #000000; stroke-width: 0.8"/>
      </g>
     </g>
     <g id="text_11">
      <!-- 8 -->
      <g transform="translate(76.6375 154.190774) scale(0.1 -0.1)">
       <defs>
        <path id="DejaVuSans-38" d="M 2034 2216 
Q 1584 2216 1326 1975 
Q 1069 1734 1069 1313 
Q 1069 891 1326 650 
Q 1584 409 2034 409 
Q 2484 409 2743 651 
Q 3003 894 3003 1313 
Q 3003 1734 2745 1975 
Q 2488 2216 2034 2216 
z
M 1403 2484 
Q 997 2584 770 2862 
Q 544 3141 544 3541 
Q 544 4100 942 4425 
Q 1341 4750 2034 4750 
Q 2731 4750 3128 4425 
Q 3525 4100 3525 3541 
Q 3525 3141 3298 2862 
Q 3072 2584 2669 2484 
Q 3125 2378 3379 2068 
Q 3634 1759 3634 1313 
Q 3634 634 3220 271 
Q 2806 -91 2034 -91 
Q 1263 -91 848 271 
Q 434 634 434 1313 
Q 434 1759 690 2068 
Q 947 2378 1403 2484 
z
M 1172 3481 
Q 1172 3119 1398 2916 
Q 1625 2713 2034 2713 
Q 2441 2713 2670 2916 
Q 2900 3119 2900 3481 
Q 2900 3844 2670 4047 
Q 2441 4250 2034 4250 
Q 1625 4250 1398 4047 
Q 1172 3844 1172 3481 
z
" transform="scale(0.015625)"/>
       </defs>
       <use xlink:href="#DejaVuSans-38"/>
      </g>
     </g>
    </g>
    <g id="ytick_6">
     <g id="line2d_11">
      <g>
       <use xlink:href="#m58a91ab7d6" x="90" y="91.869444" style="stroke: #000000; stroke-width: 0.8"/>
      </g>
     </g>
     <g id="text_12">
      <!-- 10 -->
      <g transform="translate(70.275 95.668663) scale(0.1 -0.1)">
       <use xlink:href="#DejaVuSans-31"/>
       <use xlink:href="#DejaVuSans-30" x="63.623047"/>
      </g>
     </g>
    </g>
    <g id="text_13">
     <!-- Density -->
     <g transform="translate(64.195312 237.168594) rotate(-90) scale(0.1 -0.1)">
      <defs>
       <path id="DejaVuSans-44" d="M 1259 4147 
L 1259 519 
L 2022 519 
Q 2988 519 3436 956 
Q 3884 1394 3884 2338 
Q 3884 3275 3436 3711 
Q 2988 4147 2022 4147 
L 1259 4147 
z
M 628 4666 
L 1925 4666 
Q 3281 4666 3915 4102 
Q 4550 3538 4550 2338 
Q 4550 1131 3912 565 
Q 3275 0 1925 0 
L 628 0 
L 628 4666 
z
" transform="scale(0.015625)"/>
       <path id="DejaVuSans-6e" d="M 3513 2113 
L 3513 0 
L 2938 0 
L 2938 2094 
Q 2938 2591 2744 2837 
Q 2550 3084 2163 3084 
Q 1697 3084 1428 2787 
Q 1159 2491 1159 1978 
L 1159 0 
L 581 0 
L 581 3500 
L 1159 3500 
L 1159 2956 
Q 1366 3272 1645 3428 
Q 1925 3584 2291 3584 
Q 2894 3584 3203 3211 
Q 3513 2838 3513 2113 
z
" transform="scale(0.015625)"/>
       <path id="DejaVuSans-69" d="M 603 3500 
L 1178 3500 
L 1178 0 
L 603 0 
L 603 3500 
z
M 603 4863 
L 1178 4863 
L 1178 4134 
L 603 4134 
L 603 4863 
z
" transform="scale(0.015625)"/>
       <path id="DejaVuSans-74" d="M 1172 4494 
L 1172 3500 
L 2356 3500 
L 2356 3053 
L 1172 3053 
L 1172 1153 
Q 1172 725 1289 603 
Q 1406 481 1766 481 
L 2356 481 
L 2356 0 
L 1766 0 
Q 1100 0 847 248 
Q 594 497 594 1153 
L 594 3053 
L 172 3053 
L 172 3500 
L 594 3500 
L 594 4494 
L 1172 4494 
z
" transform="scale(0.015625)"/>
       <path id="DejaVuSans-79" d="M 2059 -325 
Q 1816 -950 1584 -1140 
Q 1353 -1331 966 -1331 
L 506 -1331 
L 506 -850 
L 844 -850 
Q 1081 -850 1212 -737 
Q 1344 -625 1503 -206 
L 1606 56 
L 191 3500 
L 800 3500 
L 1894 763 
L 2988 3500 
L 3597 3500 
L 2059 -325 
z
" transform="scale(0.015625)"/>
      </defs>
      <use xlink:href="#DejaVuSans-44"/>
      <use xlink:href="#DejaVuSans-65" x="77.001953"/>
      <use xlink:href="#DejaVuSans-6e" x="138.525391"/>
      <use xlink:href="#DejaVuSans-73" x="201.904297"/>
      <use xlink:href="#DejaVuSans-69" x="254.003906"/>
      <use xlink:href="#DejaVuSans-74" x="281.787109"/>
      <use xlink:href="#DejaVuSans-79" x="320.996094"/>
     </g>
    </g>
   </g>
   <g id="line2d_12">
    <path d="M 117.133703 384.422723 
L 129.794638 384.201541 
L 137.3912 383.837136 
L 142.455574 383.408401 
L 147.519948 382.75949 
L 152.584322 381.819491 
L 157.648696 380.51794 
L 162.71307 378.798155 
L 167.777445 376.634317 
L 172.841819 374.049506 
L 177.906193 371.130314 
L 190.567128 363.543599 
L 193.099315 362.220065 
L 195.631503 361.038771 
L 198.16369 360.030656 
L 200.695877 359.223089 
L 203.228064 358.638632 
L 205.760251 358.294 
L 208.292438 358.19926 
L 210.824625 358.357347 
L 213.356812 358.76391 
L 215.888999 359.407515 
L 218.421186 360.270177 
L 220.953373 361.328196 
L 223.485561 362.553244 
L 228.549935 365.375627 
L 243.743057 374.46794 
L 248.807431 377.010198 
L 253.871806 379.11727 
L 258.93618 380.772139 
L 264.000554 382.0046 
L 269.064928 382.872017 
L 274.129302 383.441294 
L 279.193677 383.774845 
L 284.258051 383.921588 
L 291.854612 383.854575 
L 299.451173 383.463563 
L 304.515547 383.004837 
L 309.579922 382.362218 
L 314.644296 381.51104 
L 319.70867 380.429915 
L 324.773044 379.105441 
L 329.837418 377.535837 
L 334.901793 375.73312 
L 339.966167 373.723664 
L 347.562728 370.411744 
L 370.352412 360.054045 
L 377.948973 356.956195 
L 390.609908 351.932827 
L 395.674283 349.623729 
L 398.20647 348.314846 
L 400.738657 346.867352 
L 403.270844 345.253534 
L 405.803031 343.445744 
L 408.335218 341.417037 
L 410.867405 339.141753 
L 413.399592 336.595978 
L 415.931779 333.757881 
L 418.463966 330.607888 
L 420.996154 327.128702 
L 423.528341 323.305189 
L 426.060528 319.124135 
L 428.592715 314.573944 
L 431.124902 309.644306 
L 433.657089 304.325908 
L 436.189276 298.61024 
L 438.721463 292.489543 
L 441.25365 285.956959 
L 443.785837 279.006895 
L 446.318024 271.635626 
L 448.850212 263.842123 
L 451.382399 255.629098 
L 453.914586 247.004205 
L 458.97896 228.582113 
L 464.043334 208.786741 
L 469.107708 187.99118 
L 479.236457 145.859322 
L 484.300831 126.239707 
L 486.833018 117.24708 
L 489.365205 108.989946 
L 491.897392 101.61321 
L 494.429579 95.259175 
L 496.961766 90.063762 
L 499.493953 86.15255 
L 502.02614 83.636768 
L 504.558328 82.609365 
L 507.090515 83.141355 
L 509.622702 85.278572 
L 512.154889 89.039037 
L 514.687076 94.411068 
L 517.219263 101.352292 
L 519.75145 109.789644 
L 522.283637 119.620425 
L 524.815824 130.714427 
L 527.348011 142.917063 
L 529.880198 156.053431 
L 534.944573 184.355604 
L 547.605508 257.597519 
L 550.137695 271.204795 
L 552.669882 284.124672 
L 555.202069 296.257207 
L 557.734256 307.527888 
L 560.266443 317.88734 
L 562.798631 327.310166 
L 565.330818 335.793019 
L 567.863005 343.352107 
L 570.395192 350.020274 
L 572.927379 355.843858 
L 575.459566 360.87948 
L 577.991753 365.190928 
L 580.52394 368.846241 
L 583.056127 371.915117 
L 585.588314 374.46668 
L 588.120501 376.56766 
L 590.652689 378.28099 
L 593.184876 379.6648 
L 595.717063 380.771779 
L 598.24925 381.64886 
L 600.781437 382.337172 
L 603.313624 382.872209 
L 608.377998 383.598326 
L 613.442372 384.013242 
L 621.038934 384.311785 
L 621.038934 384.311785 
" clip-path="url(#p75999764e7)" style="fill: none; stroke: #1f77b4; stroke-width: 1.5; stroke-linecap: square"/>
   </g>
   <g id="line2d_13">
    <path d="M 120.313246 384.418924 
L 130.296038 384.251726 
L 137.783132 383.925321 
L 142.774528 383.524649 
L 147.765924 382.896937 
L 152.75732 381.956436 
L 157.748716 380.610297 
L 160.244414 379.757423 
L 162.740112 378.772379 
L 165.23581 377.648727 
L 167.731508 376.383172 
L 170.227206 374.976336 
L 175.218602 371.764957 
L 180.209998 368.121088 
L 192.688488 358.60663 
L 195.184186 356.94527 
L 197.679884 355.463899 
L 200.175582 354.202112 
L 202.67128 353.194841 
L 205.166978 352.470751 
L 207.662676 352.050881 
L 210.158374 351.947635 
L 212.654072 352.16417 
L 215.14977 352.694236 
L 217.645468 353.52248 
L 220.141166 354.62518 
L 222.636864 355.971382 
L 225.132562 357.524339 
L 230.123957 361.084671 
L 242.602447 370.669246 
L 247.593843 374.04213 
L 250.089541 375.539 
L 252.585239 376.896056 
L 255.080937 378.109633 
L 257.576635 379.180448 
L 260.072333 380.112848 
L 262.568031 380.914022 
L 267.559427 382.160894 
L 272.550823 383.006407 
L 277.542219 383.537197 
L 282.533615 383.827532 
L 287.525011 383.931942 
L 295.012105 383.80493 
L 300.003501 383.540312 
L 304.994897 383.115472 
L 309.986293 382.49995 
L 314.977689 381.651955 
L 319.969085 380.521807 
L 324.960481 379.056529 
L 329.951877 377.206437 
L 334.943273 374.934254 
L 339.934669 372.226498 
L 344.926065 369.105664 
L 349.917461 365.640373 
L 359.900253 358.197992 
L 364.891649 354.577349 
L 369.883045 351.278386 
L 372.378743 349.799402 
L 374.874441 348.452163 
L 377.370139 347.242781 
L 379.865837 346.170175 
L 384.857233 344.390737 
L 392.344327 342.247597 
L 397.335723 340.685144 
L 399.83142 339.702268 
L 402.327118 338.504627 
L 404.822816 337.030827 
L 407.318514 335.22073 
L 409.814212 333.017207 
L 412.30991 330.367741 
L 414.805608 327.225805 
L 417.301306 323.551975 
L 419.797004 319.31473 
L 422.292702 314.490942 
L 424.7884 309.066054 
L 427.284098 303.033988 
L 429.779796 296.396845 
L 432.275494 289.164453 
L 434.771192 281.353851 
L 437.26689 272.988791 
L 439.762588 264.099325 
L 442.258286 254.721549 
L 447.249682 234.675492 
L 452.241078 213.262973 
L 469.710964 136.341489 
L 472.206662 126.455993 
L 474.70236 117.215152 
L 477.198058 108.753676 
L 479.693756 101.20586 
L 482.189454 94.702402 
L 484.685152 89.366961 
L 487.18085 85.312576 
L 489.676548 82.638088 
L 492.172246 81.424732 
L 494.667944 81.733024 
L 497.163642 83.600111 
L 499.65934 87.037699 
L 502.155038 92.030683 
L 504.650736 98.536555 
L 507.146434 106.485647 
L 509.642132 115.782242 
L 512.13783 126.306518 
L 514.633528 137.917304 
L 517.129226 150.455522 
L 522.120622 177.613108 
L 537.09481 262.6109 
L 539.590508 275.561777 
L 542.086206 287.826959 
L 544.581904 299.325473 
L 547.077602 309.998509 
L 549.5733 319.808864 
L 552.068998 328.739723 
L 554.564696 336.792881 
L 557.060394 343.986535 
L 559.556092 350.352781 
L 562.05179 355.93496 
L 564.547488 360.784966 
L 567.043186 364.960656 
L 569.538884 368.523425 
L 572.034581 371.536046 
L 574.530279 374.060809 
L 577.025977 376.157991 
L 579.521675 377.884659 
L 582.017373 379.293802 
L 584.513071 380.433762 
L 587.008769 381.347927 
L 589.504467 382.074654 
L 592.000165 382.64737 
L 596.991561 383.441354 
L 601.982957 383.909985 
L 609.470051 384.261976 
L 616.957145 384.402585 
L 616.957145 384.402585 
" clip-path="url(#p75999764e7)" style="fill: none; stroke: #ff7f0e; stroke-width: 1.5; stroke-linecap: square"/>
   </g>
   <g id="line2d_14">
    <path d="M 136.860493 384.336428 
L 143.864983 384.107736 
L 148.534643 383.812959 
L 153.204303 383.333184 
L 157.873963 382.587892 
L 162.543624 381.483701 
L 164.878454 380.766791 
L 167.213284 379.924986 
L 169.548114 378.948838 
L 171.882944 377.831259 
L 174.217774 376.568317 
L 176.552604 375.160022 
L 181.222264 371.931358 
L 185.891925 368.248298 
L 197.566075 358.533242 
L 199.900905 356.815801 
L 202.235735 355.274287 
L 204.570565 353.949158 
L 206.905395 352.876372 
L 209.240225 352.085775 
L 211.575056 351.599732 
L 213.909886 351.432081 
L 216.244716 351.587484 
L 218.579546 352.061219 
L 220.914376 352.839415 
L 223.249206 353.899721 
L 225.584036 355.212371 
L 227.918866 356.741559 
L 232.588526 360.285904 
L 246.597507 371.796351 
L 251.267167 375.028367 
L 253.601997 376.441152 
L 255.936827 377.710096 
L 258.271657 378.834815 
L 260.606488 379.818814 
L 262.941318 380.668706 
L 267.610978 382.003494 
L 272.280638 382.925428 
L 276.950298 383.525791 
L 281.619958 383.886331 
L 288.624449 384.111554 
L 295.628939 384.063617 
L 302.633429 383.771492 
L 307.303089 383.418527 
L 311.97275 382.904629 
L 316.64241 382.189137 
L 321.31207 381.224146 
L 325.98173 379.957936 
L 330.65139 378.340212 
L 335.321051 376.329816 
L 339.990711 373.904987 
L 344.660371 371.075074 
L 349.330031 367.891157 
L 356.334521 362.679438 
L 363.339012 357.404873 
L 368.008672 354.138321 
L 372.678332 351.23166 
L 377.347992 348.738595 
L 382.017652 346.602829 
L 391.356973 342.564521 
L 393.691803 341.363205 
L 396.026633 339.985304 
L 398.361463 338.378215 
L 400.696293 336.490596 
L 403.031123 334.273994 
L 405.365953 331.684291 
L 407.700783 328.682856 
L 410.035614 325.237396 
L 412.370444 321.322445 
L 414.705274 316.919521 
L 417.040104 312.016969 
L 419.374934 306.609537 
L 421.709764 300.697766 
L 424.044594 294.287259 
L 426.379424 287.387926 
L 428.714254 280.013274 
L 431.049084 272.179825 
L 433.383915 263.906722 
L 438.053575 246.13046 
L 442.723235 226.890012 
L 447.392895 206.448152 
L 454.397385 174.323561 
L 461.401876 142.001501 
L 466.071536 121.526362 
L 468.406366 111.941605 
L 470.741196 102.957605 
L 473.076026 94.704817 
L 475.410856 87.31565 
L 477.745686 80.921351 
L 480.080516 75.648541 
L 482.415347 71.615499 
L 484.750177 68.928344 
L 487.085007 67.677273 
L 489.419837 67.933018 
L 491.754667 69.743711 
L 494.089497 73.132293 
L 496.424327 78.094644 
L 498.759157 84.598527 
L 501.093987 92.583445 
L 503.428817 101.961433 
L 505.763647 112.618801 
L 508.098478 124.418762 
L 510.433308 137.204849 
L 515.102968 165.036082 
L 522.107458 209.621231 
L 526.777118 239.089418 
L 531.446778 266.853643 
L 533.781609 279.781275 
L 536.116439 291.946462 
L 538.451269 303.282349 
L 540.786099 313.744006 
L 543.120929 323.307397 
L 545.455759 331.967789 
L 547.790589 339.737699 
L 550.125419 346.644521 
L 552.460249 352.727956 
L 554.795079 358.037376 
L 557.12991 362.629218 
L 559.46474 366.564522 
L 561.79957 369.906688 
L 564.1344 372.719487 
L 566.46923 375.065395 
L 568.80406 377.004235 
L 571.13889 378.592152 
L 573.47372 379.880878 
L 575.80855 380.91729 
L 578.14338 381.743201 
L 580.47821 382.395354 
L 582.813041 382.905588 
L 587.482701 383.604894 
L 592.152361 384.010291 
L 599.156851 384.307213 
L 601.491681 384.35841 
L 601.491681 384.35841 
" clip-path="url(#p75999764e7)" style="fill: none; stroke: #2ca02c; stroke-width: 1.5; stroke-linecap: square"/>
   </g>
   <g id="line2d_15">
    <path d="M 128.415612 384.281166 
L 135.673533 383.998894 
L 140.512147 383.650494 
L 145.350761 383.099536 
L 150.189375 382.262399 
L 155.027989 381.041091 
L 157.447296 380.253777 
L 159.866603 379.331699 
L 162.28591 378.263317 
L 164.705217 377.038848 
L 167.124524 375.650998 
L 169.543831 374.095718 
L 171.963138 372.372957 
L 174.382446 370.487357 
L 179.22106 366.273077 
L 184.059674 361.602271 
L 193.736902 351.942504 
L 196.156209 349.711194 
L 198.575516 347.647925 
L 200.994823 345.799154 
L 203.41413 344.208141 
L 205.833437 342.913284 
L 208.252744 341.946571 
L 210.672051 341.332276 
L 213.091358 341.085946 
L 215.510665 341.213744 
L 217.929972 341.7122 
L 220.349279 342.568362 
L 222.768586 343.76036 
L 225.187893 345.258326 
L 227.6072 347.025641 
L 230.026507 349.020413 
L 234.865121 353.508309 
L 246.961656 365.488397 
L 251.80027 369.775991 
L 254.219577 371.707337 
L 256.638884 373.479472 
L 259.058191 375.085979 
L 261.477498 376.525222 
L 263.896805 377.799679 
L 266.316112 378.915203 
L 268.735419 379.880269 
L 271.154726 380.705225 
L 273.574033 381.401594 
L 278.412647 382.456855 
L 283.251261 383.139999 
L 288.089875 383.532716 
L 292.928489 383.696986 
L 297.767103 383.672157 
L 302.605717 383.475109 
L 307.444331 383.102199 
L 312.282945 382.532076 
L 317.121559 381.728984 
L 321.960173 380.646626 
L 326.798787 379.233002 
L 331.637401 377.436676 
L 336.476015 375.21471 
L 341.314629 372.541948 
L 346.153243 369.420565 
L 350.991858 365.887973 
L 355.830472 362.020596 
L 363.088393 355.845405 
L 370.346314 349.640618 
L 375.184928 345.704002 
L 380.023542 342.018072 
L 384.862156 338.577086 
L 394.539384 331.925752 
L 399.377998 328.221195 
L 401.797305 326.126929 
L 404.216612 323.806883 
L 406.635919 321.211535 
L 409.055226 318.29207 
L 411.474533 315.001783 
L 413.89384 311.297457 
L 416.313147 307.140674 
L 418.732454 302.499025 
L 421.151761 297.347186 
L 423.571068 291.667838 
L 425.990375 285.452417 
L 428.409682 278.701671 
L 430.828989 271.426031 
L 433.248296 263.645793 
L 435.667603 255.391114 
L 440.506217 237.627127 
L 445.344831 218.561891 
L 459.860673 159.657802 
L 462.27998 150.54852 
L 464.699287 141.905173 
L 467.118594 133.828146 
L 469.537901 126.416088 
L 471.957208 119.764581 
L 474.376515 113.964733 
L 476.795822 109.101702 
L 479.215129 105.253162 
L 481.634436 102.487735 
L 484.053743 100.863423 
L 486.47305 100.42608 
L 488.892357 101.207984 
L 491.311664 103.22656 
L 493.730971 106.483325 
L 496.150278 110.963117 
L 498.569585 116.633658 
L 500.988892 123.445519 
L 503.408199 131.332505 
L 505.827506 140.212498 
L 508.246813 149.988746 
L 510.66612 160.551598 
L 513.085427 171.78062 
L 517.924041 195.716594 
L 530.020577 257.884234 
L 534.859191 281.067278 
L 537.278498 291.895308 
L 539.697805 302.120559 
L 542.117112 311.691793 
L 544.536419 320.573094 
L 546.955726 328.743365 
L 549.375033 336.195448 
L 551.79434 342.9349 
L 554.213647 348.978517 
L 556.632954 354.352684 
L 559.052261 359.091613 
L 561.471568 363.235568 
L 563.890875 366.829121 
L 566.310182 369.919519 
L 568.729489 372.555195 
L 571.148796 374.784456 
L 573.568103 376.654386 
L 575.98741 378.209949 
L 578.406717 379.493315 
L 580.826024 380.543378 
L 583.245331 381.395464 
L 585.664638 382.081197 
L 588.083945 382.628506 
L 592.922559 383.401824 
L 597.761173 383.871053 
L 605.019094 384.236056 
L 609.857708 384.352492 
L 609.857708 384.352492 
" clip-path="url(#p75999764e7)" style="fill: none; stroke: #d62728; stroke-width: 1.5; stroke-linecap: square"/>
   </g>
   <g id="line2d_16">
    <path d="M 127.170298 384.398825 
L 136.619187 384.189276 
L 143.705854 383.792889 
L 148.430298 383.315588 
L 153.154742 382.577803 
L 157.879187 381.484294 
L 160.241409 380.771785 
L 162.603631 379.931542 
L 164.965853 378.951591 
L 167.328075 377.821507 
L 169.690297 376.533156 
L 172.05252 375.081483 
L 174.414742 373.465295 
L 176.776964 371.688012 
L 181.501408 367.690648 
L 186.225853 363.229614 
L 195.674741 353.944211 
L 198.036964 351.795576 
L 200.399186 349.810847 
L 202.761408 348.036752 
L 205.12363 346.516801 
L 207.485852 345.289519 
L 209.848074 344.386835 
L 212.210297 343.832704 
L 214.572519 343.642055 
L 216.934741 343.820125 
L 219.296963 344.362219 
L 221.659185 345.253919 
L 224.021408 346.471714 
L 226.38363 347.984028 
L 228.745852 349.752579 
L 231.108074 351.733979 
L 235.832518 356.146853 
L 245.281407 365.462624 
L 250.005852 369.727985 
L 252.368074 371.663112 
L 254.730296 373.444612 
L 257.092518 375.063333 
L 259.45474 376.515373 
L 261.816962 377.801424 
L 264.179185 378.925998 
L 266.541407 379.896617 
L 268.903629 380.723004 
L 271.265851 381.416307 
L 275.990295 382.451299 
L 280.71474 383.095228 
L 285.439184 383.430415 
L 290.163629 383.520518 
L 294.888073 383.408897 
L 299.612517 383.120936 
L 304.336962 382.668387 
L 309.061406 382.053992 
L 313.78585 381.275043 
L 318.510295 380.325089 
L 323.234739 379.193663 
L 327.959183 377.864635 
L 332.683628 376.314396 
L 337.408072 374.511446 
L 342.132516 372.418738 
L 346.856961 369.999306 
L 351.581405 367.224432 
L 356.305849 364.082157 
L 361.030294 360.58301 
L 365.754738 356.759828 
L 370.479183 352.659752 
L 375.203627 348.328708 
L 379.928071 343.79122 
L 384.652516 339.030368 
L 389.37696 333.9733 
L 394.101404 328.48662 
L 396.463626 325.525463 
L 398.825849 322.383546 
L 401.188071 319.032125 
L 403.550293 315.441792 
L 405.912515 311.583363 
L 408.274737 307.428779 
L 410.63696 302.951972 
L 412.999182 298.129694 
L 415.361404 292.942271 
L 417.723626 287.374274 
L 420.085848 281.415114 
L 422.44807 275.059534 
L 424.810293 268.30803 
L 427.172515 261.167177 
L 431.896959 245.775536 
L 436.621404 229.066283 
L 441.345848 211.326201 
L 457.881403 147.563329 
L 460.243625 139.198062 
L 462.605847 131.268444 
L 464.96807 123.864796 
L 467.330292 117.078569 
L 469.692514 111.001277 
L 472.054736 105.723224 
L 474.416958 101.332017 
L 476.779181 97.910855 
L 479.141403 95.536622 
L 481.503625 94.277817 
L 483.865847 94.192376 
L 486.228069 95.325495 
L 488.590291 97.707523 
L 490.952514 101.35207 
L 493.314736 106.254426 
L 495.676958 112.390414 
L 498.03918 119.715772 
L 500.401402 128.166151 
L 502.763624 137.657761 
L 505.125847 148.0887 
L 507.488069 159.34092 
L 512.212513 183.772209 
L 519.29918 223.020576 
L 524.023624 249.171002 
L 528.748068 274.036327 
L 531.110291 285.706747 
L 533.472513 296.751576 
L 535.834735 307.104843 
L 538.196957 316.718653 
L 540.559179 325.562816 
L 542.921401 333.623943 
L 545.283624 340.904088 
L 547.645846 347.419033 
L 550.008068 353.196322 
L 552.37029 358.273142 
L 554.732512 362.694155 
L 557.094735 366.509371 
L 559.456957 369.772135 
L 561.819179 372.537303 
L 564.181401 374.859638 
L 566.543623 376.79246 
L 568.905845 378.386569 
L 571.268068 379.689428 
L 573.63029 380.744599 
L 575.992512 381.591412 
L 578.354734 382.264828 
L 580.716956 382.795469 
L 585.441401 383.530318 
L 590.165845 383.962623 
L 597.252512 384.285055 
L 597.252512 384.285055 
" clip-path="url(#p75999764e7)" style="fill: none; stroke: #9467bd; stroke-width: 1.5; stroke-linecap: square"/>
   </g>
   <g id="line2d_17">
    <path d="M 127.01772 384.397492 
L 136.536287 384.187099 
L 143.675211 383.790892 
L 148.434495 383.314636 
L 153.193778 382.578788 
L 157.953061 381.487643 
L 160.332703 380.77604 
L 162.712344 379.936086 
L 165.091986 378.955318 
L 167.471627 377.822668 
L 169.851269 376.529193 
L 172.23091 375.068852 
L 174.610552 373.4393 
L 176.990194 371.64265 
L 179.369835 369.686159 
L 184.129118 365.351531 
L 188.888402 360.612406 
L 196.027326 353.36147 
L 200.786609 348.956375 
L 203.166251 347.027922 
L 205.545893 345.344154 
L 207.925534 343.946529 
L 210.305176 342.870453 
L 212.684817 342.143795 
L 215.064459 341.78569 
L 217.444101 341.805703 
L 219.823742 342.20341 
L 222.203384 342.968408 
L 224.583025 344.080768 
L 226.962667 345.511894 
L 229.342308 347.225742 
L 231.72195 349.180325 
L 236.481233 353.62434 
L 250.759083 367.851909 
L 253.138724 369.942492 
L 255.518366 371.883245 
L 257.898007 373.661607 
L 260.277649 375.270664 
L 262.657291 376.708556 
L 265.036932 377.977764 
L 267.416574 379.08432 
L 269.796215 380.036987 
L 272.175857 380.846452 
L 274.555499 381.524577 
L 279.314782 382.53618 
L 284.074065 383.167025 
L 288.833348 383.498507 
L 293.592631 383.591186 
L 298.351914 383.483076 
L 303.111198 383.191585 
L 307.870481 382.717472 
L 312.629764 382.049499 
L 317.389047 381.168831 
L 322.14833 380.052702 
L 326.907613 378.677207 
L 331.666897 377.019447 
L 336.42618 375.059397 
L 341.185463 372.78186 
L 345.944746 370.17858 
L 350.704029 367.250161 
L 355.463312 364.006953 
L 360.222596 360.467937 
L 364.981879 356.65684 
L 369.741162 352.595518 
L 374.500445 348.29558 
L 379.259728 343.75011 
L 384.019011 338.927541 
L 388.778295 333.769211 
L 393.537578 328.190918 
L 398.296861 322.087454 
L 403.056144 315.338256 
L 405.435786 311.680908 
L 407.815427 307.812481 
L 410.195069 303.715653 
L 412.57471 299.372936 
L 414.954352 294.766832 
L 417.333994 289.880071 
L 419.713635 284.695928 
L 422.093277 279.19866 
L 424.472918 273.374074 
L 426.85256 267.210221 
L 429.232202 260.698223 
L 431.611843 253.833203 
L 436.371126 239.050677 
L 441.130409 222.942456 
L 445.889693 205.716263 
L 453.028617 178.610985 
L 460.167542 151.722385 
L 462.547184 143.238957 
L 464.926825 135.171721 
L 467.306467 127.632204 
L 469.686108 120.732781 
L 472.06575 114.584336 
L 474.445392 109.293791 
L 476.825033 104.961573 
L 479.204675 101.679084 
L 481.584316 99.526242 
L 483.963958 98.569183 
L 486.3436 98.858202 
L 488.723241 100.425989 
L 491.102883 103.286273 
L 493.482524 107.432888 
L 495.862166 112.839357 
L 498.241807 119.458996 
L 500.621449 127.22557 
L 503.001091 136.054488 
L 505.380732 145.84452 
L 507.760374 156.479971 
L 510.140015 167.833269 
L 514.899299 192.141317 
L 529.177148 267.687246 
L 533.936431 290.38713 
L 536.316073 300.846003 
L 538.695714 310.634414 
L 541.075356 319.714938 
L 543.454998 328.065494 
L 545.834639 335.678401 
L 548.214281 342.559118 
L 550.593922 348.724723 
L 552.973564 354.20222 
L 555.353205 359.02674 
L 557.732847 363.239717 
L 560.112489 366.887101 
L 562.49213 370.017669 
L 564.871772 372.681487 
L 567.251413 374.928543 
L 569.631055 376.807595 
L 572.010697 378.365229 
L 574.390338 379.645141 
L 576.76998 380.687623 
L 579.149621 381.529241 
L 581.529263 382.202693 
L 583.908904 382.736799 
L 588.668188 383.483658 
L 593.427471 383.929298 
L 600.566396 384.267679 
L 600.566396 384.267679 
" clip-path="url(#p75999764e7)" style="fill: none; stroke: #8c564b; stroke-width: 1.5; stroke-linecap: square"/>
   </g>
   <g id="line2d_18">
    <path d="M 115.363636 384.422369 
L 125.560073 384.268922 
L 133.207401 383.969919 
L 138.305619 383.600707 
L 143.403837 383.016499 
L 148.502056 382.128397 
L 151.051165 381.538289 
L 153.600274 380.832508 
L 156.149383 379.997289 
L 158.698492 379.019493 
L 161.247602 377.887274 
L 163.796711 376.590834 
L 166.34582 375.123236 
L 168.894929 373.481252 
L 171.444038 371.666175 
L 173.993148 369.684578 
L 179.091366 365.278049 
L 184.189584 360.438392 
L 191.836912 352.99687 
L 194.386021 350.651165 
L 196.93513 348.457207 
L 199.484239 346.465725 
L 202.033349 344.724877 
L 204.582458 343.278329 
L 207.131567 342.163432 
L 209.680676 341.409623 
L 212.229785 341.03713 
L 214.778894 341.056072 
L 217.328004 341.465999 
L 219.877113 342.255915 
L 222.426222 343.404767 
L 224.975331 344.882378 
L 227.52444 346.65077 
L 230.07355 348.665785 
L 232.622659 350.878915 
L 237.720877 355.695304 
L 245.368205 363.153134 
L 250.466423 367.787889 
L 253.015532 369.910362 
L 255.564641 371.87609 
L 258.113751 373.672866 
L 260.66286 375.294286 
L 263.211969 376.7391 
L 265.761078 378.010431 
L 268.310187 379.114933 
L 270.859296 380.061924 
L 273.408406 380.862557 
L 275.957515 381.529044 
L 281.055733 382.509781 
L 286.153952 383.100064 
L 291.25217 383.381085 
L 296.350388 383.413545 
L 301.448607 383.237448 
L 306.546825 382.875525 
L 311.645043 382.338335 
L 316.743262 381.629322 
L 321.84148 380.748597 
L 326.939698 379.694714 
L 332.037917 378.46437 
L 337.136135 377.050561 
L 342.234354 375.440168 
L 347.332572 373.612102 
L 352.43079 371.536845 
L 357.529009 369.177592 
L 362.627227 366.492441 
L 367.725445 363.436464 
L 372.823664 359.962361 
L 377.921882 356.018833 
L 383.020101 351.54671 
L 385.56921 349.090525 
L 388.118319 346.47386 
L 390.667428 343.684936 
L 393.216537 340.710747 
L 395.765646 337.537099 
L 398.314756 334.148737 
L 400.863865 330.529563 
L 403.412974 326.662942 
L 405.962083 322.532096 
L 408.511192 318.120572 
L 411.060302 313.412789 
L 413.609411 308.394623 
L 416.15852 303.05403 
L 418.707629 297.381679 
L 421.256738 291.371578 
L 423.805847 285.021659 
L 426.354957 278.334314 
L 431.453175 263.981905 
L 436.551393 248.437938 
L 441.649612 231.916924 
L 449.296939 205.996705 
L 456.944267 179.976466 
L 462.042485 163.430467 
L 464.591594 155.616441 
L 467.140704 148.212797 
L 469.689813 141.30066 
L 472.238922 134.962586 
L 474.788031 129.281644 
L 477.33714 124.340297 
L 479.886249 120.219035 
L 482.435359 116.994768 
L 484.984468 114.739 
L 487.533577 113.515815 
L 490.082686 113.37976 
L 492.631795 114.373692 
L 495.180905 116.526717 
L 497.730014 119.852312 
L 500.279123 124.346781 
L 502.828232 129.988124 
L 505.377341 136.735445 
L 507.92645 144.528955 
L 510.47556 153.290623 
L 513.024669 162.925475 
L 515.573778 173.323524 
L 518.122887 184.362258 
L 523.221106 207.827155 
L 535.966651 268.125249 
L 541.06487 290.264808 
L 543.613979 300.520272 
L 546.163088 310.148038 
L 548.712197 319.104962 
L 551.261307 327.363847 
L 553.810416 334.912517 
L 556.359525 341.752528 
L 558.908634 347.897574 
L 561.457743 353.371705 
L 564.006852 358.207435 
L 566.555962 362.443834 
L 569.105071 366.124679 
L 571.65418 369.296715 
L 574.203289 372.008095 
L 576.752398 374.307008 
L 579.301508 376.240539 
L 581.850617 377.853742 
L 584.399726 379.188948 
L 586.948835 380.285267 
L 589.497944 381.178288 
L 592.047053 381.89994 
L 594.596163 382.478484 
L 599.694381 383.301686 
L 604.792599 383.806569 
L 609.890818 384.106497 
L 617.538145 384.334293 
L 622.636364 384.405161 
L 622.636364 384.405161 
" clip-path="url(#p75999764e7)" style="fill: none; stroke: #e377c2; stroke-width: 1.5; stroke-linecap: square"/>
   </g>
   <g id="line2d_19">
    <path d="M 124.556298 384.346921 
L 131.981098 384.147174 
L 139.405899 383.711132 
L 144.355766 383.194275 
L 149.305633 382.404321 
L 154.2555 381.24478 
L 156.730434 380.493841 
L 159.205367 379.611512 
L 161.680301 378.585808 
L 164.155235 377.406289 
L 166.630168 376.064787 
L 169.105102 374.556157 
L 171.580035 372.879045 
L 174.054969 371.036607 
L 176.529902 369.037146 
L 181.47977 364.628908 
L 186.429637 359.837616 
L 193.854437 352.553646 
L 196.329371 350.275785 
L 198.804304 348.152565 
L 201.279238 346.231262 
L 203.754172 344.556442 
L 206.229105 343.168253 
L 208.704039 342.100819 
L 211.178972 341.380853 
L 213.653906 341.026542 
L 216.128839 341.046789 
L 218.603773 341.440834 
L 221.078707 342.198307 
L 223.55364 343.299673 
L 226.028574 344.717074 
L 228.503507 346.415498 
L 230.978441 348.354206 
L 233.453374 350.488357 
L 238.403241 355.153329 
L 248.302976 364.790235 
L 253.252843 369.155042 
L 255.727776 371.131557 
L 258.20271 372.950979 
L 260.677644 374.605313 
L 263.152577 376.091475 
L 265.627511 377.410648 
L 268.102444 378.567549 
L 270.577378 379.569671 
L 273.052311 380.426528 
L 275.527245 381.148938 
L 280.477112 382.236407 
L 285.426979 382.922289 
L 290.376846 383.28567 
L 295.326713 383.387179 
L 300.276581 383.266807 
L 305.226448 382.945452 
L 310.176315 382.428636 
L 315.126182 381.711081 
L 320.076049 380.78112 
L 325.025916 379.624344 
L 329.975783 378.226225 
L 334.92565 376.573765 
L 339.875518 374.656422 
L 344.825385 372.46661 
L 349.775252 369.999923 
L 354.725119 367.255017 
L 359.674986 364.232755 
L 364.624853 360.934095 
L 369.57472 357.356243 
L 374.524587 353.486981 
L 379.474455 349.297652 
L 384.424322 344.735974 
L 389.374189 339.720339 
L 394.324056 334.137418 
L 396.798989 331.089626 
L 399.273923 327.844617 
L 401.748857 324.381326 
L 404.22379 320.678182 
L 406.698724 316.71365 
L 409.173657 312.466835 
L 411.648591 307.918117 
L 414.123524 303.049821 
L 416.598458 297.846881 
L 419.073392 292.297502 
L 421.548325 286.393779 
L 424.023259 280.132283 
L 426.498192 273.514576 
L 428.973126 266.547665 
L 433.922993 251.623586 
L 438.87286 235.53676 
L 443.822727 218.565336 
L 458.672329 166.583847 
L 463.622196 150.730016 
L 466.097129 143.435743 
L 468.572063 136.675992 
L 471.046996 130.535461 
L 473.52193 125.097553 
L 475.996863 120.443049 
L 478.471797 116.64866 
L 480.946731 113.785452 
L 483.421664 111.917191 
L 485.896598 111.098628 
L 488.371531 111.373787 
L 490.846465 112.774322 
L 493.321398 115.318 
L 495.796332 119.007418 
L 498.271266 123.829002 
L 500.746199 129.752393 
L 503.221133 136.730262 
L 505.696066 144.698607 
L 508.171 153.57757 
L 510.645933 163.272757 
L 513.120867 173.677051 
L 518.070734 196.134722 
L 525.495535 232.005363 
L 530.445402 255.864018 
L 535.395269 278.587322 
L 537.870203 289.283141 
L 540.345136 299.434037 
L 542.82007 308.982684 
L 545.295003 317.886792 
L 547.769937 326.118786 
L 550.24487 333.665071 
L 552.719804 340.524947 
L 555.194737 346.709239 
L 557.669671 352.238742 
L 560.144605 357.142531 
L 562.619538 361.456244 
L 565.094472 365.220382 
L 567.569405 368.478695 
L 570.044339 371.276704 
L 572.519272 373.660383 
L 574.994206 375.675037 
L 577.46914 377.364376 
L 579.944073 378.769791 
L 582.419007 379.929822 
L 584.89394 380.879806 
L 587.368874 381.651684 
L 589.843807 382.273936 
L 594.793674 383.166605 
L 599.743542 383.720513 
L 604.693409 384.053566 
L 612.118209 384.310355 
L 617.068077 384.391643 
L 617.068077 384.391643 
" clip-path="url(#p75999764e7)" style="fill: none; stroke: #7f7f7f; stroke-width: 1.5; stroke-linecap: square"/>
   </g>
   <g id="patch_3">
    <path d="M 90 384.48 
L 90 51.84 
" style="fill: none; stroke: #000000; stroke-width: 0.8; stroke-linejoin: miter; stroke-linecap: square"/>
   </g>
   <g id="patch_4">
    <path d="M 648 384.48 
L 648 51.84 
" style="fill: none; stroke: #000000; stroke-width: 0.8; stroke-linejoin: miter; stroke-linecap: square"/>
   </g>
   <g id="patch_5">
    <path d="M 90 384.48 
L 648 384.48 
" style="fill: none; stroke: #000000; stroke-width: 0.8; stroke-linejoin: miter; stroke-linecap: square"/>
   </g>
   <g id="patch_6">
    <path d="M 90 51.84 
L 648 51.84 
" style="fill: none; stroke: #000000; stroke-width: 0.8; stroke-linejoin: miter; stroke-linecap: square"/>
   </g>
   <g id="text_14">
    <!-- Distribution of average threshold value by Year -->
    <g transform="translate(227.500313 45.84) scale(0.12 -0.12)">
     <defs>
      <path id="DejaVuSans-62" d="M 3116 1747 
Q 3116 2381 2855 2742 
Q 2594 3103 2138 3103 
Q 1681 3103 1420 2742 
Q 1159 2381 1159 1747 
Q 1159 1113 1420 752 
Q 1681 391 2138 391 
Q 2594 391 2855 752 
Q 3116 1113 3116 1747 
z
M 1159 2969 
Q 1341 3281 1617 3432 
Q 1894 3584 2278 3584 
Q 2916 3584 3314 3078 
Q 3713 2572 3713 1747 
Q 3713 922 3314 415 
Q 2916 -91 2278 -91 
Q 1894 -91 1617 61 
Q 1341 213 1159 525 
L 1159 0 
L 581 0 
L 581 4863 
L 1159 4863 
L 1159 2969 
z
" transform="scale(0.015625)"/>
      <path id="DejaVuSans-75" d="M 544 1381 
L 544 3500 
L 1119 3500 
L 1119 1403 
Q 1119 906 1312 657 
Q 1506 409 1894 409 
Q 2359 409 2629 706 
Q 2900 1003 2900 1516 
L 2900 3500 
L 3475 3500 
L 3475 0 
L 2900 0 
L 2900 538 
Q 2691 219 2414 64 
Q 2138 -91 1772 -91 
Q 1169 -91 856 284 
Q 544 659 544 1381 
z
M 1991 3584 
L 1991 3584 
z
" transform="scale(0.015625)"/>
      <path id="DejaVuSans-20" transform="scale(0.015625)"/>
      <path id="DejaVuSans-66" d="M 2375 4863 
L 2375 4384 
L 1825 4384 
Q 1516 4384 1395 4259 
Q 1275 4134 1275 3809 
L 1275 3500 
L 2222 3500 
L 2222 3053 
L 1275 3053 
L 1275 0 
L 697 0 
L 697 3053 
L 147 3053 
L 147 3500 
L 697 3500 
L 697 3744 
Q 697 4328 969 4595 
Q 1241 4863 1831 4863 
L 2375 4863 
z
" transform="scale(0.015625)"/>
      <path id="DejaVuSans-61" d="M 2194 1759 
Q 1497 1759 1228 1600 
Q 959 1441 959 1056 
Q 959 750 1161 570 
Q 1363 391 1709 391 
Q 2188 391 2477 730 
Q 2766 1069 2766 1631 
L 2766 1759 
L 2194 1759 
z
M 3341 1997 
L 3341 0 
L 2766 0 
L 2766 531 
Q 2569 213 2275 61 
Q 1981 -91 1556 -91 
Q 1019 -91 701 211 
Q 384 513 384 1019 
Q 384 1609 779 1909 
Q 1175 2209 1959 2209 
L 2766 2209 
L 2766 2266 
Q 2766 2663 2505 2880 
Q 2244 3097 1772 3097 
Q 1472 3097 1187 3025 
Q 903 2953 641 2809 
L 641 3341 
Q 956 3463 1253 3523 
Q 1550 3584 1831 3584 
Q 2591 3584 2966 3190 
Q 3341 2797 3341 1997 
z
" transform="scale(0.015625)"/>
      <path id="DejaVuSans-76" d="M 191 3500 
L 800 3500 
L 1894 563 
L 2988 3500 
L 3597 3500 
L 2284 0 
L 1503 0 
L 191 3500 
z
" transform="scale(0.015625)"/>
      <path id="DejaVuSans-67" d="M 2906 1791 
Q 2906 2416 2648 2759 
Q 2391 3103 1925 3103 
Q 1463 3103 1205 2759 
Q 947 2416 947 1791 
Q 947 1169 1205 825 
Q 1463 481 1925 481 
Q 2391 481 2648 825 
Q 2906 1169 2906 1791 
z
M 3481 434 
Q 3481 -459 3084 -895 
Q 2688 -1331 1869 -1331 
Q 1566 -1331 1297 -1286 
Q 1028 -1241 775 -1147 
L 775 -588 
Q 1028 -725 1275 -790 
Q 1522 -856 1778 -856 
Q 2344 -856 2625 -561 
Q 2906 -266 2906 331 
L 2906 616 
Q 2728 306 2450 153 
Q 2172 0 1784 0 
Q 1141 0 747 490 
Q 353 981 353 1791 
Q 353 2603 747 3093 
Q 1141 3584 1784 3584 
Q 2172 3584 2450 3431 
Q 2728 3278 2906 2969 
L 2906 3500 
L 3481 3500 
L 3481 434 
z
" transform="scale(0.015625)"/>
      <path id="DejaVuSans-59" d="M -13 4666 
L 666 4666 
L 1959 2747 
L 3244 4666 
L 3922 4666 
L 2272 2222 
L 2272 0 
L 1638 0 
L 1638 2222 
L -13 4666 
z
" transform="scale(0.015625)"/>
     </defs>
     <use xlink:href="#DejaVuSans-44"/>
     <use xlink:href="#DejaVuSans-69" x="77.001953"/>
     <use xlink:href="#DejaVuSans-73" x="104.785156"/>
     <use xlink:href="#DejaVuSans-74" x="156.884766"/>
     <use xlink:href="#DejaVuSans-72" x="196.09375"/>
     <use xlink:href="#DejaVuSans-69" x="237.207031"/>
     <use xlink:href="#DejaVuSans-62" x="264.990234"/>
     <use xlink:href="#DejaVuSans-75" x="328.466797"/>
     <use xlink:href="#DejaVuSans-74" x="391.845703"/>
     <use xlink:href="#DejaVuSans-69" x="431.054688"/>
     <use xlink:href="#DejaVuSans-6f" x="458.837891"/>
     <use xlink:href="#DejaVuSans-6e" x="520.019531"/>
     <use xlink:href="#DejaVuSans-20" x="583.398438"/>
     <use xlink:href="#DejaVuSans-6f" x="615.185547"/>
     <use xlink:href="#DejaVuSans-66" x="676.367188"/>
     <use xlink:href="#DejaVuSans-20" x="711.572266"/>
     <use xlink:href="#DejaVuSans-61" x="743.359375"/>
     <use xlink:href="#DejaVuSans-76" x="804.638672"/>
     <use xlink:href="#DejaVuSans-65" x="863.818359"/>
     <use xlink:href="#DejaVuSans-72" x="925.341797"/>
     <use xlink:href="#DejaVuSans-61" x="966.455078"/>
     <use xlink:href="#DejaVuSans-67" x="1027.734375"/>
     <use xlink:href="#DejaVuSans-65" x="1091.210938"/>
     <use xlink:href="#DejaVuSans-20" x="1152.734375"/>
     <use xlink:href="#DejaVuSans-74" x="1184.521484"/>
     <use xlink:href="#DejaVuSans-68" x="1223.730469"/>
     <use xlink:href="#DejaVuSans-72" x="1287.109375"/>
     <use xlink:href="#DejaVuSans-65" x="1325.972656"/>
     <use xlink:href="#DejaVuSans-73" x="1387.496094"/>
     <use xlink:href="#DejaVuSans-68" x="1439.595703"/>
     <use xlink:href="#DejaVuSans-6f" x="1502.974609"/>
     <use xlink:href="#DejaVuSans-6c" x="1564.15625"/>
     <use xlink:href="#DejaVuSans-64" x="1591.939453"/>
     <use xlink:href="#DejaVuSans-20" x="1655.416016"/>
     <use xlink:href="#DejaVuSans-76" x="1687.203125"/>
     <use xlink:href="#DejaVuSans-61" x="1746.382812"/>
     <use xlink:href="#DejaVuSans-6c" x="1807.662109"/>
     <use xlink:href="#DejaVuSans-75" x="1835.445312"/>
     <use xlink:href="#DejaVuSans-65" x="1898.824219"/>
     <use xlink:href="#DejaVuSans-20" x="1960.347656"/>
     <use xlink:href="#DejaVuSans-62" x="1992.134766"/>
     <use xlink:href="#DejaVuSans-79" x="2055.611328"/>
     <use xlink:href="#DejaVuSans-20" x="2114.791016"/>
     <use xlink:href="#DejaVuSans-59" x="2146.578125"/>
     <use xlink:href="#DejaVuSans-65" x="2194.412109"/>
     <use xlink:href="#DejaVuSans-61" x="2255.935547"/>
     <use xlink:href="#DejaVuSans-72" x="2317.214844"/>
    </g>
   </g>
   <g id="legend_1">
    <g id="patch_7">
     <path d="M 559.196875 177.265 
L 641 177.265 
Q 643 177.265 643 175.265 
L 643 58.84 
Q 643 56.84 641 56.84 
L 559.196875 56.84 
Q 557.196875 56.84 557.196875 58.84 
L 557.196875 175.265 
Q 557.196875 177.265 559.196875 177.265 
z
" style="fill: #ffffff; opacity: 0.8; stroke: #cccccc; stroke-linejoin: miter"/>
    </g>
    <g id="line2d_20">
     <path d="M 561.196875 64.938437 
L 571.196875 64.938437 
L 581.196875 64.938437 
" style="fill: none; stroke: #1f77b4; stroke-width: 1.5; stroke-linecap: square"/>
    </g>
    <g id="text_15">
     <!-- Year 2022 -->
     <g transform="translate(589.196875 68.438437) scale(0.1 -0.1)">
      <use xlink:href="#DejaVuSans-59"/>
      <use xlink:href="#DejaVuSans-65" x="47.833984"/>
      <use xlink:href="#DejaVuSans-61" x="109.357422"/>
      <use xlink:href="#DejaVuSans-72" x="170.636719"/>
      <use xlink:href="#DejaVuSans-20" x="211.75"/>
      <use xlink:href="#DejaVuSans-32" x="243.537109"/>
      <use xlink:href="#DejaVuSans-30" x="307.160156"/>
      <use xlink:href="#DejaVuSans-32" x="370.783203"/>
      <use xlink:href="#DejaVuSans-32" x="434.40625"/>
     </g>
    </g>
    <g id="line2d_21">
     <path d="M 561.196875 79.616562 
L 571.196875 79.616562 
L 581.196875 79.616562 
" style="fill: none; stroke: #ff7f0e; stroke-width: 1.5; stroke-linecap: square"/>
    </g>
    <g id="text_16">
     <!-- Year 2021 -->
     <g transform="translate(589.196875 83.116562) scale(0.1 -0.1)">
      <use xlink:href="#DejaVuSans-59"/>
      <use xlink:href="#DejaVuSans-65" x="47.833984"/>
      <use xlink:href="#DejaVuSans-61" x="109.357422"/>
      <use xlink:href="#DejaVuSans-72" x="170.636719"/>
      <use xlink:href="#DejaVuSans-20" x="211.75"/>
      <use xlink:href="#DejaVuSans-32" x="243.537109"/>
      <use xlink:href="#DejaVuSans-30" x="307.160156"/>
      <use xlink:href="#DejaVuSans-32" x="370.783203"/>
      <use xlink:href="#DejaVuSans-31" x="434.40625"/>
     </g>
    </g>
    <g id="line2d_22">
     <path d="M 561.196875 94.294687 
L 571.196875 94.294687 
L 581.196875 94.294687 
" style="fill: none; stroke: #2ca02c; stroke-width: 1.5; stroke-linecap: square"/>
    </g>
    <g id="text_17">
     <!-- Year 2020 -->
     <g transform="translate(589.196875 97.794687) scale(0.1 -0.1)">
      <use xlink:href="#DejaVuSans-59"/>
      <use xlink:href="#DejaVuSans-65" x="47.833984"/>
      <use xlink:href="#DejaVuSans-61" x="109.357422"/>
      <use xlink:href="#DejaVuSans-72" x="170.636719"/>
      <use xlink:href="#DejaVuSans-20" x="211.75"/>
      <use xlink:href="#DejaVuSans-32" x="243.537109"/>
      <use xlink:href="#DejaVuSans-30" x="307.160156"/>
      <use xlink:href="#DejaVuSans-32" x="370.783203"/>
      <use xlink:href="#DejaVuSans-30" x="434.40625"/>
     </g>
    </g>
    <g id="line2d_23">
     <path d="M 561.196875 108.972812 
L 571.196875 108.972812 
L 581.196875 108.972812 
" style="fill: none; stroke: #d62728; stroke-width: 1.5; stroke-linecap: square"/>
    </g>
    <g id="text_18">
     <!-- Year 2019 -->
     <g transform="translate(589.196875 112.472812) scale(0.1 -0.1)">
      <defs>
       <path id="DejaVuSans-39" d="M 703 97 
L 703 672 
Q 941 559 1184 500 
Q 1428 441 1663 441 
Q 2288 441 2617 861 
Q 2947 1281 2994 2138 
Q 2813 1869 2534 1725 
Q 2256 1581 1919 1581 
Q 1219 1581 811 2004 
Q 403 2428 403 3163 
Q 403 3881 828 4315 
Q 1253 4750 1959 4750 
Q 2769 4750 3195 4129 
Q 3622 3509 3622 2328 
Q 3622 1225 3098 567 
Q 2575 -91 1691 -91 
Q 1453 -91 1209 -44 
Q 966 3 703 97 
z
M 1959 2075 
Q 2384 2075 2632 2365 
Q 2881 2656 2881 3163 
Q 2881 3666 2632 3958 
Q 2384 4250 1959 4250 
Q 1534 4250 1286 3958 
Q 1038 3666 1038 3163 
Q 1038 2656 1286 2365 
Q 1534 2075 1959 2075 
z
" transform="scale(0.015625)"/>
      </defs>
      <use xlink:href="#DejaVuSans-59"/>
      <use xlink:href="#DejaVuSans-65" x="47.833984"/>
      <use xlink:href="#DejaVuSans-61" x="109.357422"/>
      <use xlink:href="#DejaVuSans-72" x="170.636719"/>
      <use xlink:href="#DejaVuSans-20" x="211.75"/>
      <use xlink:href="#DejaVuSans-32" x="243.537109"/>
      <use xlink:href="#DejaVuSans-30" x="307.160156"/>
      <use xlink:href="#DejaVuSans-31" x="370.783203"/>
      <use xlink:href="#DejaVuSans-39" x="434.40625"/>
     </g>
    </g>
    <g id="line2d_24">
     <path d="M 561.196875 123.650937 
L 571.196875 123.650937 
L 581.196875 123.650937 
" style="fill: none; stroke: #9467bd; stroke-width: 1.5; stroke-linecap: square"/>
    </g>
    <g id="text_19">
     <!-- Year 2018 -->
     <g transform="translate(589.196875 127.150937) scale(0.1 -0.1)">
      <use xlink:href="#DejaVuSans-59"/>
      <use xlink:href="#DejaVuSans-65" x="47.833984"/>
      <use xlink:href="#DejaVuSans-61" x="109.357422"/>
      <use xlink:href="#DejaVuSans-72" x="170.636719"/>
      <use xlink:href="#DejaVuSans-20" x="211.75"/>
      <use xlink:href="#DejaVuSans-32" x="243.537109"/>
      <use xlink:href="#DejaVuSans-30" x="307.160156"/>
      <use xlink:href="#DejaVuSans-31" x="370.783203"/>
      <use xlink:href="#DejaVuSans-38" x="434.40625"/>
     </g>
    </g>
    <g id="line2d_25">
     <path d="M 561.196875 138.329062 
L 571.196875 138.329062 
L 581.196875 138.329062 
" style="fill: none; stroke: #8c564b; stroke-width: 1.5; stroke-linecap: square"/>
    </g>
    <g id="text_20">
     <!-- Year 2017 -->
     <g transform="translate(589.196875 141.829062) scale(0.1 -0.1)">
      <defs>
       <path id="DejaVuSans-37" d="M 525 4666 
L 3525 4666 
L 3525 4397 
L 1831 0 
L 1172 0 
L 2766 4134 
L 525 4134 
L 525 4666 
z
" transform="scale(0.015625)"/>
      </defs>
      <use xlink:href="#DejaVuSans-59"/>
      <use xlink:href="#DejaVuSans-65" x="47.833984"/>
      <use xlink:href="#DejaVuSans-61" x="109.357422"/>
      <use xlink:href="#DejaVuSans-72" x="170.636719"/>
      <use xlink:href="#DejaVuSans-20" x="211.75"/>
      <use xlink:href="#DejaVuSans-32" x="243.537109"/>
      <use xlink:href="#DejaVuSans-30" x="307.160156"/>
      <use xlink:href="#DejaVuSans-31" x="370.783203"/>
      <use xlink:href="#DejaVuSans-37" x="434.40625"/>
     </g>
    </g>
    <g id="line2d_26">
     <path d="M 561.196875 153.007187 
L 571.196875 153.007187 
L 581.196875 153.007187 
" style="fill: none; stroke: #e377c2; stroke-width: 1.5; stroke-linecap: square"/>
    </g>
    <g id="text_21">
     <!-- Year 2016 -->
     <g transform="translate(589.196875 156.507187) scale(0.1 -0.1)">
      <use xlink:href="#DejaVuSans-59"/>
      <use xlink:href="#DejaVuSans-65" x="47.833984"/>
      <use xlink:href="#DejaVuSans-61" x="109.357422"/>
      <use xlink:href="#DejaVuSans-72" x="170.636719"/>
      <use xlink:href="#DejaVuSans-20" x="211.75"/>
      <use xlink:href="#DejaVuSans-32" x="243.537109"/>
      <use xlink:href="#DejaVuSans-30" x="307.160156"/>
      <use xlink:href="#DejaVuSans-31" x="370.783203"/>
      <use xlink:href="#DejaVuSans-36" x="434.40625"/>
     </g>
    </g>
    <g id="line2d_27">
     <path d="M 561.196875 167.685312 
L 571.196875 167.685312 
L 581.196875 167.685312 
" style="fill: none; stroke: #7f7f7f; stroke-width: 1.5; stroke-linecap: square"/>
    </g>
    <g id="text_22">
     <!-- Year 2015 -->
     <g transform="translate(589.196875 171.185312) scale(0.1 -0.1)">
      <defs>
       <path id="DejaVuSans-35" d="M 691 4666 
L 3169 4666 
L 3169 4134 
L 1269 4134 
L 1269 2991 
Q 1406 3038 1543 3061 
Q 1681 3084 1819 3084 
Q 2600 3084 3056 2656 
Q 3513 2228 3513 1497 
Q 3513 744 3044 326 
Q 2575 -91 1722 -91 
Q 1428 -91 1123 -41 
Q 819 9 494 109 
L 494 744 
Q 775 591 1075 516 
Q 1375 441 1709 441 
Q 2250 441 2565 725 
Q 2881 1009 2881 1497 
Q 2881 1984 2565 2268 
Q 2250 2553 1709 2553 
Q 1456 2553 1204 2497 
Q 953 2441 691 2322 
L 691 4666 
z
" transform="scale(0.015625)"/>
      </defs>
      <use xlink:href="#DejaVuSans-59"/>
      <use xlink:href="#DejaVuSans-65" x="47.833984"/>
      <use xlink:href="#DejaVuSans-61" x="109.357422"/>
      <use xlink:href="#DejaVuSans-72" x="170.636719"/>
      <use xlink:href="#DejaVuSans-20" x="211.75"/>
      <use xlink:href="#DejaVuSans-32" x="243.537109"/>
      <use xlink:href="#DejaVuSans-30" x="307.160156"/>
      <use xlink:href="#DejaVuSans-31" x="370.783203"/>
      <use xlink:href="#DejaVuSans-35" x="434.40625"/>
     </g>
    </g>
   </g>
  </g>
 </g>
 <defs>
  <clipPath id="p75999764e7">
   <rect x="90" y="51.84" width="558" height="332.64"/>
  </clipPath>
 </defs>
</svg>
