<?xml version="1.0" encoding="utf-8" standalone="no"?>
<!DOCTYPE svg PUBLIC "-//W3C//DTD SVG 1.1//EN"
  "http://www.w3.org/Graphics/SVG/1.1/DTD/svg11.dtd">
<svg xmlns:xlink="http://www.w3.org/1999/xlink" width="720pt" height="432pt" viewBox="0 0 720 432" xmlns="http://www.w3.org/2000/svg" version="1.1">
 <metadata>
  <rdf:RDF xmlns:dc="http://purl.org/dc/elements/1.1/" xmlns:cc="http://creativecommons.org/ns#" xmlns:rdf="http://www.w3.org/1999/02/22-rdf-syntax-ns#">
   <cc:Work>
    <dc:type rdf:resource="http://purl.org/dc/dcmitype/StillImage"/>
    <dc:date>2025-01-11T21:18:01.470989</dc:date>
    <dc:format>image/svg+xml</dc:format>
    <dc:creator>
     <cc:Agent>
      <dc:title>Matplotlib v3.7.2, https://matplotlib.org/</dc:title>
     </cc:Agent>
    </dc:creator>
   </cc:Work>
  </rdf:RDF>
 </metadata>
 <defs>
  <style type="text/css">*{stroke-linejoin: round; stroke-linecap: butt}</style>
 </defs>
 <g id="figure_1">
  <g id="patch_1">
   <path d="M 0 432 
L 720 432 
L 720 0 
L 0 0 
z
" style="fill: #ffffff"/>
  </g>
  <g id="axes_1">
   <g id="patch_2">
    <path d="M 90 384.48 
L 648 384.48 
L 648 51.84 
L 90 51.84 
z
" style="fill: #ffffff"/>
   </g>
   <g id="matplotlib.axis_1">
    <g id="xtick_1">
     <g id="line2d_1">
      <defs>
       <path id="mbe01099ff4" d="M 0 0 
L 0 3.5 
" style="stroke: #000000; stroke-width: 0.8"/>
      </defs>
      <g>
       <use xlink:href="#mbe01099ff4" x="115.363636" y="384.48" style="stroke: #000000; stroke-width: 0.8"/>
      </g>
     </g>
     <g id="text_1">
      <!-- 0 -->
      <g transform="translate(112.182386 399.078438) scale(0.1 -0.1)">
       <defs>
        <path id="DejaVuSans-30" d="M 2034 4250 
Q 1547 4250 1301 3770 
Q 1056 3291 1056 2328 
Q 1056 1369 1301 889 
Q 1547 409 2034 409 
Q 2525 409 2770 889 
Q 3016 1369 3016 2328 
Q 3016 3291 2770 3770 
Q 2525 4250 2034 4250 
z
M 2034 4750 
Q 2819 4750 3233 4129 
Q 3647 3509 3647 2328 
Q 3647 1150 3233 529 
Q 2819 -91 2034 -91 
Q 1250 -91 836 529 
Q 422 1150 422 2328 
Q 422 3509 836 4129 
Q 1250 4750 2034 4750 
z
" transform="scale(0.015625)"/>
       </defs>
       <use xlink:href="#DejaVuSans-30"/>
      </g>
     </g>
    </g>
    <g id="xtick_2">
     <g id="line2d_2">
      <g>
       <use xlink:href="#mbe01099ff4" x="225.120241" y="384.48" style="stroke: #000000; stroke-width: 0.8"/>
      </g>
     </g>
     <g id="text_2">
      <!-- 100 -->
      <g transform="translate(215.576491 399.078438) scale(0.1 -0.1)">
       <defs>
        <path id="DejaVuSans-31" d="M 794 531 
L 1825 531 
L 1825 4091 
L 703 3866 
L 703 4441 
L 1819 4666 
L 2450 4666 
L 2450 531 
L 3481 531 
L 3481 0 
L 794 0 
L 794 531 
z
" transform="scale(0.015625)"/>
       </defs>
       <use xlink:href="#DejaVuSans-31"/>
       <use xlink:href="#DejaVuSans-30" x="63.623047"/>
       <use xlink:href="#DejaVuSans-30" x="127.246094"/>
      </g>
     </g>
    </g>
    <g id="xtick_3">
     <g id="line2d_3">
      <g>
       <use xlink:href="#mbe01099ff4" x="334.876846" y="384.48" style="stroke: #000000; stroke-width: 0.8"/>
      </g>
     </g>
     <g id="text_3">
      <!-- 200 -->
      <g transform="translate(325.333096 399.078438) scale(0.1 -0.1)">
       <defs>
        <path id="DejaVuSans-32" d="M 1228 531 
L 3431 531 
L 3431 0 
L 469 0 
L 469 531 
Q 828 903 1448 1529 
Q 2069 2156 2228 2338 
Q 2531 2678 2651 2914 
Q 2772 3150 2772 3378 
Q 2772 3750 2511 3984 
Q 2250 4219 1831 4219 
Q 1534 4219 1204 4116 
Q 875 4013 500 3803 
L 500 4441 
Q 881 4594 1212 4672 
Q 1544 4750 1819 4750 
Q 2544 4750 2975 4387 
Q 3406 4025 3406 3419 
Q 3406 3131 3298 2873 
Q 3191 2616 2906 2266 
Q 2828 2175 2409 1742 
Q 1991 1309 1228 531 
z
" transform="scale(0.015625)"/>
       </defs>
       <use xlink:href="#DejaVuSans-32"/>
       <use xlink:href="#DejaVuSans-30" x="63.623047"/>
       <use xlink:href="#DejaVuSans-30" x="127.246094"/>
      </g>
     </g>
    </g>
    <g id="xtick_4">
     <g id="line2d_4">
      <g>
       <use xlink:href="#mbe01099ff4" x="444.63345" y="384.48" style="stroke: #000000; stroke-width: 0.8"/>
      </g>
     </g>
     <g id="text_4">
      <!-- 300 -->
      <g transform="translate(435.0897 399.078438) scale(0.1 -0.1)">
       <defs>
        <path id="DejaVuSans-33" d="M 2597 2516 
Q 3050 2419 3304 2112 
Q 3559 1806 3559 1356 
Q 3559 666 3084 287 
Q 2609 -91 1734 -91 
Q 1441 -91 1130 -33 
Q 819 25 488 141 
L 488 750 
Q 750 597 1062 519 
Q 1375 441 1716 441 
Q 2309 441 2620 675 
Q 2931 909 2931 1356 
Q 2931 1769 2642 2001 
Q 2353 2234 1838 2234 
L 1294 2234 
L 1294 2753 
L 1863 2753 
Q 2328 2753 2575 2939 
Q 2822 3125 2822 3475 
Q 2822 3834 2567 4026 
Q 2313 4219 1838 4219 
Q 1578 4219 1281 4162 
Q 984 4106 628 3988 
L 628 4550 
Q 988 4650 1302 4700 
Q 1616 4750 1894 4750 
Q 2613 4750 3031 4423 
Q 3450 4097 3450 3541 
Q 3450 3153 3228 2886 
Q 3006 2619 2597 2516 
z
" transform="scale(0.015625)"/>
       </defs>
       <use xlink:href="#DejaVuSans-33"/>
       <use xlink:href="#DejaVuSans-30" x="63.623047"/>
       <use xlink:href="#DejaVuSans-30" x="127.246094"/>
      </g>
     </g>
    </g>
    <g id="xtick_5">
     <g id="line2d_5">
      <g>
       <use xlink:href="#mbe01099ff4" x="554.390055" y="384.48" style="stroke: #000000; stroke-width: 0.8"/>
      </g>
     </g>
     <g id="text_5">
      <!-- 400 -->
      <g transform="translate(544.846305 399.078438) scale(0.1 -0.1)">
       <defs>
        <path id="DejaVuSans-34" d="M 2419 4116 
L 825 1625 
L 2419 1625 
L 2419 4116 
z
M 2253 4666 
L 3047 4666 
L 3047 1625 
L 3713 1625 
L 3713 1100 
L 3047 1100 
L 3047 0 
L 2419 0 
L 2419 1100 
L 313 1100 
L 313 1709 
L 2253 4666 
z
" transform="scale(0.015625)"/>
       </defs>
       <use xlink:href="#DejaVuSans-34"/>
       <use xlink:href="#DejaVuSans-30" x="63.623047"/>
       <use xlink:href="#DejaVuSans-30" x="127.246094"/>
      </g>
     </g>
    </g>
    <g id="text_6">
     <!-- Nk -->
     <g transform="translate(362.364062 412.756563) scale(0.1 -0.1)">
      <defs>
       <path id="DejaVuSans-4e" d="M 628 4666 
L 1478 4666 
L 3547 763 
L 3547 4666 
L 4159 4666 
L 4159 0 
L 3309 0 
L 1241 3903 
L 1241 0 
L 628 0 
L 628 4666 
z
" transform="scale(0.015625)"/>
       <path id="DejaVuSans-6b" d="M 581 4863 
L 1159 4863 
L 1159 1991 
L 2875 3500 
L 3609 3500 
L 1753 1863 
L 3688 0 
L 2938 0 
L 1159 1709 
L 1159 0 
L 581 0 
L 581 4863 
z
" transform="scale(0.015625)"/>
      </defs>
      <use xlink:href="#DejaVuSans-4e"/>
      <use xlink:href="#DejaVuSans-6b" x="74.804688"/>
     </g>
    </g>
   </g>
   <g id="matplotlib.axis_2">
    <g id="ytick_1">
     <g id="line2d_6">
      <defs>
       <path id="m707a04725f" d="M 0 0 
L -3.5 0 
" style="stroke: #000000; stroke-width: 0.8"/>
      </defs>
      <g>
       <use xlink:href="#m707a04725f" x="90" y="384.48" style="stroke: #000000; stroke-width: 0.8"/>
      </g>
     </g>
     <g id="text_7">
      <!-- 0.0000 -->
      <g transform="translate(48.009375 388.279219) scale(0.1 -0.1)">
       <defs>
        <path id="DejaVuSans-2e" d="M 684 794 
L 1344 794 
L 1344 0 
L 684 0 
L 684 794 
z
" transform="scale(0.015625)"/>
       </defs>
       <use xlink:href="#DejaVuSans-30"/>
       <use xlink:href="#DejaVuSans-2e" x="63.623047"/>
       <use xlink:href="#DejaVuSans-30" x="95.410156"/>
       <use xlink:href="#DejaVuSans-30" x="159.033203"/>
       <use xlink:href="#DejaVuSans-30" x="222.65625"/>
       <use xlink:href="#DejaVuSans-30" x="286.279297"/>
      </g>
     </g>
    </g>
    <g id="ytick_2">
     <g id="line2d_7">
      <g>
       <use xlink:href="#m707a04725f" x="90" y="338.991649" style="stroke: #000000; stroke-width: 0.8"/>
      </g>
     </g>
     <g id="text_8">
      <!-- 0.0025 -->
      <g transform="translate(48.009375 342.790868) scale(0.1 -0.1)">
       <defs>
        <path id="DejaVuSans-35" d="M 691 4666 
L 3169 4666 
L 3169 4134 
L 1269 4134 
L 1269 2991 
Q 1406 3038 1543 3061 
Q 1681 3084 1819 3084 
Q 2600 3084 3056 2656 
Q 3513 2228 3513 1497 
Q 3513 744 3044 326 
Q 2575 -91 1722 -91 
Q 1428 -91 1123 -41 
Q 819 9 494 109 
L 494 744 
Q 775 591 1075 516 
Q 1375 441 1709 441 
Q 2250 441 2565 725 
Q 2881 1009 2881 1497 
Q 2881 1984 2565 2268 
Q 2250 2553 1709 2553 
Q 1456 2553 1204 2497 
Q 953 2441 691 2322 
L 691 4666 
z
" transform="scale(0.015625)"/>
       </defs>
       <use xlink:href="#DejaVuSans-30"/>
       <use xlink:href="#DejaVuSans-2e" x="63.623047"/>
       <use xlink:href="#DejaVuSans-30" x="95.410156"/>
       <use xlink:href="#DejaVuSans-30" x="159.033203"/>
       <use xlink:href="#DejaVuSans-32" x="222.65625"/>
       <use xlink:href="#DejaVuSans-35" x="286.279297"/>
      </g>
     </g>
    </g>
    <g id="ytick_3">
     <g id="line2d_8">
      <g>
       <use xlink:href="#m707a04725f" x="90" y="293.503298" style="stroke: #000000; stroke-width: 0.8"/>
      </g>
     </g>
     <g id="text_9">
      <!-- 0.0050 -->
      <g transform="translate(48.009375 297.302517) scale(0.1 -0.1)">
       <use xlink:href="#DejaVuSans-30"/>
       <use xlink:href="#DejaVuSans-2e" x="63.623047"/>
       <use xlink:href="#DejaVuSans-30" x="95.410156"/>
       <use xlink:href="#DejaVuSans-30" x="159.033203"/>
       <use xlink:href="#DejaVuSans-35" x="222.65625"/>
       <use xlink:href="#DejaVuSans-30" x="286.279297"/>
      </g>
     </g>
    </g>
    <g id="ytick_4">
     <g id="line2d_9">
      <g>
       <use xlink:href="#m707a04725f" x="90" y="248.014947" style="stroke: #000000; stroke-width: 0.8"/>
      </g>
     </g>
     <g id="text_10">
      <!-- 0.0075 -->
      <g transform="translate(48.009375 251.814166) scale(0.1 -0.1)">
       <defs>
        <path id="DejaVuSans-37" d="M 525 4666 
L 3525 4666 
L 3525 4397 
L 1831 0 
L 1172 0 
L 2766 4134 
L 525 4134 
L 525 4666 
z
" transform="scale(0.015625)"/>
       </defs>
       <use xlink:href="#DejaVuSans-30"/>
       <use xlink:href="#DejaVuSans-2e" x="63.623047"/>
       <use xlink:href="#DejaVuSans-30" x="95.410156"/>
       <use xlink:href="#DejaVuSans-30" x="159.033203"/>
       <use xlink:href="#DejaVuSans-37" x="222.65625"/>
       <use xlink:href="#DejaVuSans-35" x="286.279297"/>
      </g>
     </g>
    </g>
    <g id="ytick_5">
     <g id="line2d_10">
      <g>
       <use xlink:href="#m707a04725f" x="90" y="202.526596" style="stroke: #000000; stroke-width: 0.8"/>
      </g>
     </g>
     <g id="text_11">
      <!-- 0.0100 -->
      <g transform="translate(48.009375 206.325815) scale(0.1 -0.1)">
       <use xlink:href="#DejaVuSans-30"/>
       <use xlink:href="#DejaVuSans-2e" x="63.623047"/>
       <use xlink:href="#DejaVuSans-30" x="95.410156"/>
       <use xlink:href="#DejaVuSans-31" x="159.033203"/>
       <use xlink:href="#DejaVuSans-30" x="222.65625"/>
       <use xlink:href="#DejaVuSans-30" x="286.279297"/>
      </g>
     </g>
    </g>
    <g id="ytick_6">
     <g id="line2d_11">
      <g>
       <use xlink:href="#m707a04725f" x="90" y="157.038246" style="stroke: #000000; stroke-width: 0.8"/>
      </g>
     </g>
     <g id="text_12">
      <!-- 0.0125 -->
      <g transform="translate(48.009375 160.837464) scale(0.1 -0.1)">
       <use xlink:href="#DejaVuSans-30"/>
       <use xlink:href="#DejaVuSans-2e" x="63.623047"/>
       <use xlink:href="#DejaVuSans-30" x="95.410156"/>
       <use xlink:href="#DejaVuSans-31" x="159.033203"/>
       <use xlink:href="#DejaVuSans-32" x="222.65625"/>
       <use xlink:href="#DejaVuSans-35" x="286.279297"/>
      </g>
     </g>
    </g>
    <g id="ytick_7">
     <g id="line2d_12">
      <g>
       <use xlink:href="#m707a04725f" x="90" y="111.549895" style="stroke: #000000; stroke-width: 0.8"/>
      </g>
     </g>
     <g id="text_13">
      <!-- 0.0150 -->
      <g transform="translate(48.009375 115.349113) scale(0.1 -0.1)">
       <use xlink:href="#DejaVuSans-30"/>
       <use xlink:href="#DejaVuSans-2e" x="63.623047"/>
       <use xlink:href="#DejaVuSans-30" x="95.410156"/>
       <use xlink:href="#DejaVuSans-31" x="159.033203"/>
       <use xlink:href="#DejaVuSans-35" x="222.65625"/>
       <use xlink:href="#DejaVuSans-30" x="286.279297"/>
      </g>
     </g>
    </g>
    <g id="ytick_8">
     <g id="line2d_13">
      <g>
       <use xlink:href="#m707a04725f" x="90" y="66.061544" style="stroke: #000000; stroke-width: 0.8"/>
      </g>
     </g>
     <g id="text_14">
      <!-- 0.0175 -->
      <g transform="translate(48.009375 69.860762) scale(0.1 -0.1)">
       <use xlink:href="#DejaVuSans-30"/>
       <use xlink:href="#DejaVuSans-2e" x="63.623047"/>
       <use xlink:href="#DejaVuSans-30" x="95.410156"/>
       <use xlink:href="#DejaVuSans-31" x="159.033203"/>
       <use xlink:href="#DejaVuSans-37" x="222.65625"/>
       <use xlink:href="#DejaVuSans-35" x="286.279297"/>
      </g>
     </g>
    </g>
    <g id="text_15">
     <!-- Density -->
     <g transform="translate(41.929688 237.168594) rotate(-90) scale(0.1 -0.1)">
      <defs>
       <path id="DejaVuSans-44" d="M 1259 4147 
L 1259 519 
L 2022 519 
Q 2988 519 3436 956 
Q 3884 1394 3884 2338 
Q 3884 3275 3436 3711 
Q 2988 4147 2022 4147 
L 1259 4147 
z
M 628 4666 
L 1925 4666 
Q 3281 4666 3915 4102 
Q 4550 3538 4550 2338 
Q 4550 1131 3912 565 
Q 3275 0 1925 0 
L 628 0 
L 628 4666 
z
" transform="scale(0.015625)"/>
       <path id="DejaVuSans-65" d="M 3597 1894 
L 3597 1613 
L 953 1613 
Q 991 1019 1311 708 
Q 1631 397 2203 397 
Q 2534 397 2845 478 
Q 3156 559 3463 722 
L 3463 178 
Q 3153 47 2828 -22 
Q 2503 -91 2169 -91 
Q 1331 -91 842 396 
Q 353 884 353 1716 
Q 353 2575 817 3079 
Q 1281 3584 2069 3584 
Q 2775 3584 3186 3129 
Q 3597 2675 3597 1894 
z
M 3022 2063 
Q 3016 2534 2758 2815 
Q 2500 3097 2075 3097 
Q 1594 3097 1305 2825 
Q 1016 2553 972 2059 
L 3022 2063 
z
" transform="scale(0.015625)"/>
       <path id="DejaVuSans-6e" d="M 3513 2113 
L 3513 0 
L 2938 0 
L 2938 2094 
Q 2938 2591 2744 2837 
Q 2550 3084 2163 3084 
Q 1697 3084 1428 2787 
Q 1159 2491 1159 1978 
L 1159 0 
L 581 0 
L 581 3500 
L 1159 3500 
L 1159 2956 
Q 1366 3272 1645 3428 
Q 1925 3584 2291 3584 
Q 2894 3584 3203 3211 
Q 3513 2838 3513 2113 
z
" transform="scale(0.015625)"/>
       <path id="DejaVuSans-73" d="M 2834 3397 
L 2834 2853 
Q 2591 2978 2328 3040 
Q 2066 3103 1784 3103 
Q 1356 3103 1142 2972 
Q 928 2841 928 2578 
Q 928 2378 1081 2264 
Q 1234 2150 1697 2047 
L 1894 2003 
Q 2506 1872 2764 1633 
Q 3022 1394 3022 966 
Q 3022 478 2636 193 
Q 2250 -91 1575 -91 
Q 1294 -91 989 -36 
Q 684 19 347 128 
L 347 722 
Q 666 556 975 473 
Q 1284 391 1588 391 
Q 1994 391 2212 530 
Q 2431 669 2431 922 
Q 2431 1156 2273 1281 
Q 2116 1406 1581 1522 
L 1381 1569 
Q 847 1681 609 1914 
Q 372 2147 372 2553 
Q 372 3047 722 3315 
Q 1072 3584 1716 3584 
Q 2034 3584 2315 3537 
Q 2597 3491 2834 3397 
z
" transform="scale(0.015625)"/>
       <path id="DejaVuSans-69" d="M 603 3500 
L 1178 3500 
L 1178 0 
L 603 0 
L 603 3500 
z
M 603 4863 
L 1178 4863 
L 1178 4134 
L 603 4134 
L 603 4863 
z
" transform="scale(0.015625)"/>
       <path id="DejaVuSans-74" d="M 1172 4494 
L 1172 3500 
L 2356 3500 
L 2356 3053 
L 1172 3053 
L 1172 1153 
Q 1172 725 1289 603 
Q 1406 481 1766 481 
L 2356 481 
L 2356 0 
L 1766 0 
Q 1100 0 847 248 
Q 594 497 594 1153 
L 594 3053 
L 172 3053 
L 172 3500 
L 594 3500 
L 594 4494 
L 1172 4494 
z
" transform="scale(0.015625)"/>
       <path id="DejaVuSans-79" d="M 2059 -325 
Q 1816 -950 1584 -1140 
Q 1353 -1331 966 -1331 
L 506 -1331 
L 506 -850 
L 844 -850 
Q 1081 -850 1212 -737 
Q 1344 -625 1503 -206 
L 1606 56 
L 191 3500 
L 800 3500 
L 1894 763 
L 2988 3500 
L 3597 3500 
L 2059 -325 
z
" transform="scale(0.015625)"/>
      </defs>
      <use xlink:href="#DejaVuSans-44"/>
      <use xlink:href="#DejaVuSans-65" x="77.001953"/>
      <use xlink:href="#DejaVuSans-6e" x="138.525391"/>
      <use xlink:href="#DejaVuSans-73" x="201.904297"/>
      <use xlink:href="#DejaVuSans-69" x="254.003906"/>
      <use xlink:href="#DejaVuSans-74" x="281.787109"/>
      <use xlink:href="#DejaVuSans-79" x="320.996094"/>
     </g>
    </g>
   </g>
   <g id="line2d_14">
    <path d="M 115.363636 262.550772 
L 120.354356 233.345537 
L 127.840435 188.896079 
L 130.335795 174.966388 
L 132.831155 161.959929 
L 135.326515 150.162898 
L 137.821874 139.846067 
L 140.317234 131.25449 
L 142.812594 124.597833 
L 145.307954 120.04185 
L 147.803314 117.701496 
L 150.298673 117.636072 
L 152.794033 119.846694 
L 155.289393 124.276224 
L 157.784753 130.811686 
L 160.280113 139.289002 
L 162.775472 149.499799 
L 165.270832 161.19986 
L 167.766192 174.118776 
L 170.261552 187.970241 
L 175.252271 217.308129 
L 180.242991 246.986647 
L 185.23371 275.110375 
L 187.72907 288.132283 
L 190.22443 300.288203 
L 192.71979 311.493572 
L 195.21515 321.69784 
L 197.710509 330.881514 
L 200.205869 339.052372 
L 202.701229 346.241154 
L 205.196589 352.497006 
L 207.691949 357.882922 
L 210.187308 362.471409 
L 212.682668 366.34053 
L 215.178028 369.570446 
L 217.673388 372.240515 
L 220.168747 374.426997 
L 222.664107 376.201327 
L 225.159467 377.628934 
L 227.654827 378.768543 
L 230.150187 379.671887 
L 232.645546 380.383746 
L 235.140906 380.942251 
L 240.131626 381.721441 
L 245.122345 382.202136 
L 252.608425 382.622396 
L 265.085224 383.004413 
L 297.524901 383.669782 
L 310.0017 383.756611 
L 319.983139 383.632079 
L 329.964578 383.287379 
L 342.441377 382.595135 
L 362.404255 381.449394 
L 372.385695 381.122469 
L 402.330012 380.416501 
L 409.816091 379.842738 
L 414.806811 379.285804 
L 419.797531 378.576458 
L 427.28361 377.228378 
L 434.769689 375.585273 
L 457.227927 370.314852 
L 462.218647 369.471589 
L 467.209367 368.881607 
L 472.200086 368.583868 
L 477.190806 368.595151 
L 482.181525 368.907959 
L 487.172245 369.491929 
L 492.162964 370.298567 
L 499.649044 371.795125 
L 524.602642 377.164233 
L 534.584081 378.97214 
L 544.56552 380.54163 
L 554.546959 381.861266 
L 562.033038 382.664055 
L 569.519118 383.293192 
L 579.500557 383.87157 
L 589.481996 384.204211 
L 601.958795 384.39442 
L 611.940234 384.451079 
L 611.940234 384.451079 
" clip-path="url(#p522f6f562e)" style="fill: none; stroke: #1f77b4; stroke-width: 1.5; stroke-linecap: square"/>
   </g>
   <g id="line2d_15">
    <path d="M 115.363636 296.130999 
L 117.912746 284.274008 
L 120.461855 271.731181 
L 125.560073 245.124762 
L 133.207401 204.152417 
L 135.75651 191.097452 
L 138.305619 178.75263 
L 140.854728 167.367016 
L 143.403837 157.180869 
L 145.952947 148.417269 
L 148.502056 141.274001 
L 151.051165 135.916127 
L 153.600274 132.46962 
L 156.149383 131.016414 
L 158.698492 131.591127 
L 161.247602 134.179665 
L 163.796711 138.719748 
L 166.34582 145.103377 
L 168.894929 153.181062 
L 171.444038 162.767616 
L 173.993148 173.649176 
L 176.542257 185.5911 
L 181.640475 211.663737 
L 191.836912 265.822354 
L 194.386021 278.561167 
L 196.93513 290.659501 
L 199.484239 302.008675 
L 202.033349 312.530098 
L 204.582458 322.173967 
L 207.131567 330.917036 
L 209.680676 338.759691 
L 212.229785 345.72254 
L 214.778894 351.842749 
L 217.328004 357.170319 
L 219.877113 361.764479 
L 222.426222 365.690346 
L 224.975331 369.01593 
L 227.52444 371.809585 
L 230.07355 374.137916 
L 232.622659 376.064154 
L 235.171768 377.646982 
L 237.720877 378.939773 
L 240.269986 379.990177 
L 242.819095 380.840023 
L 245.368205 381.525441 
L 250.466423 382.521024 
L 255.564641 383.16656 
L 260.66286 383.589301 
L 268.310187 383.975365 
L 278.506624 384.241273 
L 293.801279 384.38268 
L 311.645043 384.320779 
L 329.488808 384.022039 
L 352.43079 383.347636 
L 372.823664 382.82204 
L 393.216537 382.3353 
L 400.863865 381.954439 
L 408.511192 381.331253 
L 413.609411 380.742284 
L 418.707629 379.996751 
L 423.805847 379.091085 
L 431.453175 377.457641 
L 441.649612 374.93287 
L 451.846048 372.387677 
L 459.493376 370.752598 
L 464.591594 369.889416 
L 469.689813 369.245882 
L 474.788031 368.834773 
L 479.886249 368.651517 
L 484.984468 368.677531 
L 490.082686 368.885542 
L 497.730014 369.474156 
L 505.377341 370.321321 
L 513.024669 371.378529 
L 520.671996 372.628795 
L 530.868433 374.574201 
L 546.163088 377.847124 
L 556.359525 379.934486 
L 564.006852 381.276185 
L 571.65418 382.354979 
L 579.301508 383.156948 
L 586.948835 383.708197 
L 594.596163 384.058723 
L 604.792599 384.310817 
L 620.087254 384.445729 
L 622.636364 384.454431 
L 622.636364 384.454431 
" clip-path="url(#p522f6f562e)" style="fill: none; stroke: #ff7f0e; stroke-width: 1.5; stroke-linecap: square"/>
   </g>
   <g id="line2d_16">
    <path d="M 115.363636 299.073944 
L 117.664548 285.488327 
L 119.965459 270.786953 
L 122.266371 255.09248 
L 126.868194 221.448722 
L 133.770929 169.220614 
L 136.07184 152.624519 
L 138.372752 137.033176 
L 140.673663 122.810047 
L 142.974575 110.302631 
L 145.275487 99.828423 
L 147.576398 91.66153 
L 149.87731 86.020726 
L 152.178221 83.059671 
L 154.479133 82.859906 
L 156.780044 85.427072 
L 159.080956 90.690595 
L 161.381867 98.506867 
L 163.682779 108.66572 
L 165.983691 120.899784 
L 168.284602 134.896157 
L 170.585514 150.309667 
L 175.187337 183.930505 
L 182.090071 236.042357 
L 186.691895 268.389654 
L 188.992806 283.180865 
L 191.293718 296.863579 
L 193.594629 309.355217 
L 195.895541 320.615497 
L 198.196452 330.641691 
L 200.497364 339.462983 
L 202.798275 347.134354 
L 205.099187 353.730394 
L 207.400099 359.339343 
L 209.70101 364.057638 
L 212.001922 367.985133 
L 214.302833 371.221109 
L 216.603745 373.861105 
L 218.904656 375.994567 
L 221.205568 377.703244 
L 223.506479 379.060254 
L 225.807391 380.129704 
L 228.108303 380.966767 
L 230.409214 381.618083 
L 232.710126 382.122405 
L 237.311949 382.810448 
L 241.913772 383.214544 
L 248.816507 383.517423 
L 258.020153 383.607659 
L 267.223799 383.469962 
L 281.029268 382.995952 
L 297.135649 382.448994 
L 306.339295 382.344202 
L 317.843853 382.463217 
L 331.649323 382.639495 
L 338.552057 382.533353 
L 345.454792 382.192472 
L 352.357527 381.587122 
L 359.260261 380.741742 
L 368.463907 379.366999 
L 391.473023 375.82331 
L 416.78305 372.25206 
L 423.685785 371.452835 
L 430.588519 370.877257 
L 437.491254 370.584289 
L 444.393989 370.585572 
L 451.296723 370.856679 
L 458.199458 371.364237 
L 465.102193 372.087368 
L 472.004927 373.01947 
L 478.907662 374.152723 
L 488.111308 375.923847 
L 511.120424 380.591863 
L 518.023158 381.721667 
L 524.925893 382.630961 
L 531.828628 383.313482 
L 538.731362 383.790033 
L 547.935009 384.171978 
L 559.439566 384.386176 
L 573.245036 384.462956 
L 573.245036 384.462956 
" clip-path="url(#p522f6f562e)" style="fill: none; stroke: #2ca02c; stroke-width: 1.5; stroke-linecap: square"/>
   </g>
   <g id="line2d_17">
    <path d="M 115.363636 299.923007 
L 117.730187 287.362125 
L 120.096738 273.882191 
L 124.82984 244.675844 
L 136.662594 168.248532 
L 139.029145 154.535301 
L 141.395696 142.044781 
L 143.762247 131.064546 
L 146.128798 121.856831 
L 148.495349 114.648112 
L 150.8619 109.619816 
L 153.22845 106.90068 
L 155.595001 106.561212 
L 157.961552 108.610586 
L 160.328103 112.996164 
L 162.694654 119.605679 
L 165.061205 128.271945 
L 167.427756 138.779838 
L 169.794307 150.875109 
L 172.160858 164.27456 
L 174.527408 178.676985 
L 179.26051 209.26232 
L 183.993612 240.270792 
L 188.726714 269.685235 
L 191.093265 283.307066 
L 193.459815 296.020577 
L 195.826366 307.73507 
L 198.192917 318.396108 
L 200.559468 327.982372 
L 202.926019 336.501636 
L 205.29257 343.986159 
L 207.659121 350.487809 
L 210.025672 356.073199 
L 212.392222 360.819049 
L 214.758773 364.807966 
L 217.125324 368.124749 
L 219.491875 370.85331 
L 221.858426 373.074227 
L 224.224977 374.862906 
L 226.591528 376.288329 
L 228.958079 377.41231 
L 231.32463 378.289183 
L 233.69118 378.965842 
L 236.057731 379.482055 
L 240.790833 380.159741 
L 245.523935 380.519815 
L 252.623587 380.722522 
L 262.089791 380.668428 
L 276.289096 380.286099 
L 288.121851 379.998498 
L 297.588054 380.005587 
L 307.054258 380.301446 
L 333.086317 381.431878 
L 340.18597 381.393613 
L 347.285623 381.134246 
L 356.751826 380.532306 
L 380.417335 378.850113 
L 399.349742 377.663885 
L 406.449395 377.010118 
L 413.549047 376.132575 
L 420.6487 375.015881 
L 430.114904 373.243736 
L 441.947658 370.972681 
L 449.047311 369.856952 
L 453.780412 369.310339 
L 458.513514 368.964711 
L 463.246616 368.847505 
L 467.979718 368.975972 
L 472.712819 369.355966 
L 477.445921 369.980984 
L 482.179023 370.831662 
L 486.912125 371.876106 
L 494.011777 373.709899 
L 512.944184 378.907038 
L 520.043837 380.52169 
L 527.14349 381.815156 
L 534.243142 382.780603 
L 541.342795 383.454058 
L 548.442448 383.894101 
L 557.908651 384.225882 
L 569.741406 384.40283 
L 586.307262 384.469152 
L 586.307262 384.469152 
" clip-path="url(#p522f6f562e)" style="fill: none; stroke: #d62728; stroke-width: 1.5; stroke-linecap: square"/>
   </g>
   <g id="line2d_18">
    <path d="M 115.363636 337.607959 
L 117.636237 329.133807 
L 119.908838 319.649704 
L 122.181438 309.147428 
L 124.454039 297.643931 
L 126.72664 285.184871 
L 128.99924 271.847457 
L 133.544442 243.014517 
L 144.907445 167.296052 
L 147.180046 153.521678 
L 149.452647 140.854482 
L 151.725247 129.566844 
L 153.997848 119.91089 
L 156.270449 112.109159 
L 158.543049 106.346068 
L 160.81565 102.760638 
L 163.088251 101.440876 
L 165.360851 102.420128 
L 167.633452 105.675625 
L 169.906053 111.129284 
L 172.178653 118.650763 
L 174.451254 128.062566 
L 176.723855 139.146943 
L 178.996455 151.654205 
L 181.269056 165.312004 
L 185.814257 194.935167 
L 192.632059 240.95613 
L 197.177261 269.869179 
L 199.449861 283.240638 
L 201.722462 295.721938 
L 203.995063 307.23173 
L 206.267664 317.721777 
L 208.540264 327.174131 
L 210.812865 335.597545 
L 213.085466 343.023363 
L 215.358066 349.501162 
L 217.630667 355.094379 
L 219.903268 359.876101 
L 222.175868 363.925206 
L 224.448469 367.322938 
L 226.72107 370.150008 
L 228.99367 372.484244 
L 231.266271 374.398791 
L 233.538872 375.960834 
L 235.811472 377.230793 
L 238.084073 378.26193 
L 240.356674 379.100299 
L 242.629274 379.784967 
L 247.174476 380.817237 
L 251.719677 381.550861 
L 258.537479 382.334212 
L 265.355281 382.89373 
L 274.445684 383.385962 
L 283.536087 383.608145 
L 292.626489 383.589911 
L 303.989493 383.328588 
L 328.9881 382.441146 
L 344.896305 381.746402 
L 353.986708 381.127326 
L 360.80451 380.47185 
L 367.622312 379.626087 
L 376.712714 378.235118 
L 403.983923 373.724615 
L 415.346926 372.208371 
L 428.98253 370.624248 
L 440.345534 369.507734 
L 447.163336 369.017729 
L 453.981138 368.75309 
L 458.526339 368.741022 
L 463.07154 368.884672 
L 467.616742 369.199609 
L 472.161943 369.694762 
L 476.707144 370.370896 
L 481.252346 371.219498 
L 488.070148 372.773087 
L 494.88795 374.570568 
L 510.796155 378.924114 
L 517.613957 380.523844 
L 524.431759 381.827909 
L 531.249561 382.811334 
L 538.067363 383.497113 
L 544.885165 383.939151 
L 553.975567 384.26126 
L 565.338571 384.421019 
L 567.611172 384.435707 
L 567.611172 384.435707 
" clip-path="url(#p522f6f562e)" style="fill: none; stroke: #9467bd; stroke-width: 1.5; stroke-linecap: square"/>
   </g>
   <g id="line2d_19">
    <path d="M 115.363636 319.352291 
L 117.631912 308.067254 
L 119.900188 295.625622 
L 122.168464 282.078076 
L 124.43674 267.514736 
L 128.973292 235.911686 
L 140.314671 153.311881 
L 142.582947 138.580946 
L 144.851223 125.218452 
L 147.119499 113.538033 
L 149.387775 103.822707 
L 151.656051 96.313368 
L 153.924326 91.198719 
L 156.192602 88.607255 
L 158.460878 88.601751 
L 160.729154 91.176611 
L 162.99743 96.258217 
L 165.265706 103.70827 
L 167.533982 113.329897 
L 169.802258 124.876173 
L 172.070534 138.060517 
L 174.338809 152.568385 
L 178.875361 184.230487 
L 185.680189 233.519152 
L 190.216741 264.361749 
L 192.485017 278.561858 
L 194.753292 291.76955 
L 197.021568 303.90233 
L 199.289844 314.915698 
L 201.55812 324.799224 
L 203.826396 333.571823 
L 206.094672 341.276543 
L 208.362948 347.975228 
L 210.631224 353.743305 
L 212.8995 358.664941 
L 215.167775 362.828723 
L 217.436051 366.323963 
L 219.704327 369.237699 
L 221.972603 371.652372 
L 224.240879 373.644159 
L 226.509155 375.281903 
L 228.777431 376.626547 
L 231.045707 377.730999 
L 233.313983 378.640333 
L 235.582258 379.392237 
L 240.11881 380.541402 
L 244.655362 381.358089 
L 249.191914 381.950072 
L 255.996741 382.537632 
L 262.801569 382.837495 
L 269.606397 382.891656 
L 278.6795 382.667606 
L 305.898811 381.662152 
L 333.118122 381.159227 
L 344.459501 380.57873 
L 362.605708 379.375874 
L 373.947088 378.456267 
L 383.020191 377.484248 
L 394.361571 375.990596 
L 403.434674 374.825007 
L 410.239502 374.148785 
L 417.04433 373.712504 
L 426.117433 373.44335 
L 444.26364 373.041629 
L 462.409847 372.445369 
L 469.214675 372.573554 
L 473.751227 372.86271 
L 478.287779 373.331166 
L 482.82433 373.975163 
L 489.629158 375.226558 
L 498.702262 377.245361 
L 512.311917 380.325288 
L 519.116745 381.609958 
L 525.921572 382.625893 
L 532.7264 383.363704 
L 539.531228 383.85549 
L 548.604331 384.224249 
L 559.945711 384.411152 
L 566.750538 384.451856 
L 566.750538 384.451856 
" clip-path="url(#p522f6f562e)" style="fill: none; stroke: #8c564b; stroke-width: 1.5; stroke-linecap: square"/>
   </g>
   <g id="line2d_20">
    <path d="M 115.363636 308.533247 
L 117.516174 297.035506 
L 119.668711 284.590765 
L 121.821249 271.273982 
L 126.126323 242.485363 
L 136.88901 166.564737 
L 139.041548 152.621305 
L 141.194085 139.719104 
L 143.346623 128.122432 
L 145.49916 118.077424 
L 147.651697 109.803343 
L 149.804235 103.484576 
L 151.956772 99.263753 
L 154.109309 97.236336 
L 156.261847 97.446972 
L 158.414384 99.887804 
L 160.566922 104.498827 
L 162.719459 111.170265 
L 164.871996 119.746849 
L 167.024534 130.033751 
L 169.177071 141.803859 
L 171.329609 154.806031 
L 175.634683 183.434732 
L 186.39737 258.169831 
L 188.549908 271.890102 
L 190.702445 284.827209 
L 192.854983 296.883908 
L 195.00752 307.994249 
L 197.160057 318.121556 
L 199.312595 327.255602 
L 201.465132 335.409209 
L 203.61767 342.614495 
L 205.770207 348.918992 
L 207.922744 354.3818 
L 210.075282 359.069963 
L 212.227819 363.055171 
L 214.380357 366.410865 
L 216.532894 369.209825 
L 218.685431 371.522223 
L 220.837969 373.414161 
L 222.990506 374.94665 
L 225.143044 376.174981 
L 227.295581 377.14845 
L 229.448118 377.910346 
L 231.600656 378.498172 
L 233.753193 378.944012 
L 238.058268 379.513888 
L 242.363343 379.787405 
L 248.820955 379.879906 
L 257.431104 379.732271 
L 272.498866 379.217248 
L 281.109016 378.747744 
L 291.871703 377.901105 
L 304.786927 376.83236 
L 311.244539 376.533403 
L 317.702152 376.518301 
L 324.159764 376.804739 
L 330.617376 377.33134 
L 347.837675 378.895055 
L 354.295287 379.140894 
L 358.600362 379.123532 
L 362.905437 378.949503 
L 367.210512 378.620313 
L 373.668124 377.859995 
L 380.125736 376.836435 
L 388.735886 375.199857 
L 412.413797 370.489598 
L 418.871409 369.43937 
L 425.329021 368.601101 
L 431.786634 368.05184 
L 436.091708 367.890657 
L 440.396783 367.925384 
L 444.701858 368.179564 
L 449.006933 368.668683 
L 453.312007 369.396016 
L 457.617082 370.349576 
L 461.922157 371.500989 
L 468.379769 373.500738 
L 483.447531 378.423458 
L 489.905143 380.207878 
L 494.210218 381.204007 
L 498.515293 382.034151 
L 502.820368 382.702746 
L 509.27798 383.434375 
L 515.735592 383.902129 
L 524.345742 384.242553 
L 535.108428 384.413511 
L 543.718578 384.458933 
L 543.718578 384.458933 
" clip-path="url(#p522f6f562e)" style="fill: none; stroke: #e377c2; stroke-width: 1.5; stroke-linecap: square"/>
   </g>
   <g id="line2d_21">
    <path d="M 115.363636 337.308587 
L 117.525765 327.774424 
L 119.687895 316.950977 
L 121.850024 304.81333 
L 124.012153 291.371791 
L 126.174282 276.677723 
L 128.336411 260.828324 
L 132.660669 226.299148 
L 143.471315 135.837757 
L 145.633444 119.802517 
L 147.795573 105.34271 
L 149.957702 92.817949 
L 152.119831 82.55051 
L 154.28196 74.811567 
L 156.44409 69.809283 
L 158.606219 67.679483 
L 160.768348 68.479509 
L 162.930477 72.185613 
L 165.092606 78.694092 
L 167.254735 87.826054 
L 169.416864 99.335537 
L 171.578993 112.920453 
L 173.741122 128.235687 
L 175.903252 144.907565 
L 180.22751 180.773362 
L 186.713897 235.375247 
L 188.876026 252.531121 
L 191.038155 268.764059 
L 193.200284 283.907438 
L 195.362414 297.844314 
L 197.524543 310.504907 
L 199.686672 321.862403 
L 201.848801 331.927521 
L 204.01093 340.742289 
L 206.173059 348.373489 
L 208.335188 354.90613 
L 210.497317 360.43729 
L 212.659446 365.070566 
L 214.821576 368.911298 
L 216.983705 372.06265 
L 219.145834 374.622592 
L 221.307963 376.681727 
L 223.470092 378.321901 
L 225.632221 379.615497 
L 227.79435 380.625289 
L 229.956479 381.404729 
L 232.118608 381.998561 
L 234.280738 382.443647 
L 238.604996 383.001303 
L 242.929254 383.251358 
L 247.253512 383.301565 
L 253.7399 383.140163 
L 262.388416 382.67206 
L 281.847578 381.284321 
L 325.09016 378.021621 
L 331.576548 377.280284 
L 335.900806 376.621766 
L 340.225064 375.809528 
L 346.711452 374.320061 
L 364.008484 369.921503 
L 368.332743 369.073916 
L 372.657001 368.413609 
L 376.981259 367.939618 
L 383.467646 367.519963 
L 389.954034 367.335929 
L 398.60255 367.312139 
L 405.088938 367.495216 
L 409.413196 367.778277 
L 413.737454 368.237838 
L 418.061712 368.901356 
L 422.38597 369.7738 
L 426.710229 370.834056 
L 433.196616 372.67476 
L 446.169391 376.494362 
L 452.655778 378.126385 
L 459.142165 379.468743 
L 465.628553 380.535297 
L 472.11494 381.378132 
L 480.763457 382.254642 
L 491.574102 383.088736 
L 502.384748 383.703617 
L 513.195393 384.111779 
L 526.168168 384.364379 
L 545.62733 384.468939 
L 545.62733 384.468939 
" clip-path="url(#p522f6f562e)" style="fill: none; stroke: #7f7f7f; stroke-width: 1.5; stroke-linecap: square"/>
   </g>
   <g id="patch_3">
    <path d="M 90 384.48 
L 90 51.84 
" style="fill: none; stroke: #000000; stroke-width: 0.8; stroke-linejoin: miter; stroke-linecap: square"/>
   </g>
   <g id="patch_4">
    <path d="M 648 384.48 
L 648 51.84 
" style="fill: none; stroke: #000000; stroke-width: 0.8; stroke-linejoin: miter; stroke-linecap: square"/>
   </g>
   <g id="patch_5">
    <path d="M 90 384.48 
L 648 384.48 
" style="fill: none; stroke: #000000; stroke-width: 0.8; stroke-linejoin: miter; stroke-linecap: square"/>
   </g>
   <g id="patch_6">
    <path d="M 90 51.84 
L 648 51.84 
" style="fill: none; stroke: #000000; stroke-width: 0.8; stroke-linejoin: miter; stroke-linecap: square"/>
   </g>
   <g id="text_16">
    <!-- Distribution of Nk by Year -->
    <g transform="translate(292.558125 45.84) scale(0.12 -0.12)">
     <defs>
      <path id="DejaVuSans-72" d="M 2631 2963 
Q 2534 3019 2420 3045 
Q 2306 3072 2169 3072 
Q 1681 3072 1420 2755 
Q 1159 2438 1159 1844 
L 1159 0 
L 581 0 
L 581 3500 
L 1159 3500 
L 1159 2956 
Q 1341 3275 1631 3429 
Q 1922 3584 2338 3584 
Q 2397 3584 2469 3576 
Q 2541 3569 2628 3553 
L 2631 2963 
z
" transform="scale(0.015625)"/>
      <path id="DejaVuSans-62" d="M 3116 1747 
Q 3116 2381 2855 2742 
Q 2594 3103 2138 3103 
Q 1681 3103 1420 2742 
Q 1159 2381 1159 1747 
Q 1159 1113 1420 752 
Q 1681 391 2138 391 
Q 2594 391 2855 752 
Q 3116 1113 3116 1747 
z
M 1159 2969 
Q 1341 3281 1617 3432 
Q 1894 3584 2278 3584 
Q 2916 3584 3314 3078 
Q 3713 2572 3713 1747 
Q 3713 922 3314 415 
Q 2916 -91 2278 -91 
Q 1894 -91 1617 61 
Q 1341 213 1159 525 
L 1159 0 
L 581 0 
L 581 4863 
L 1159 4863 
L 1159 2969 
z
" transform="scale(0.015625)"/>
      <path id="DejaVuSans-75" d="M 544 1381 
L 544 3500 
L 1119 3500 
L 1119 1403 
Q 1119 906 1312 657 
Q 1506 409 1894 409 
Q 2359 409 2629 706 
Q 2900 1003 2900 1516 
L 2900 3500 
L 3475 3500 
L 3475 0 
L 2900 0 
L 2900 538 
Q 2691 219 2414 64 
Q 2138 -91 1772 -91 
Q 1169 -91 856 284 
Q 544 659 544 1381 
z
M 1991 3584 
L 1991 3584 
z
" transform="scale(0.015625)"/>
      <path id="DejaVuSans-6f" d="M 1959 3097 
Q 1497 3097 1228 2736 
Q 959 2375 959 1747 
Q 959 1119 1226 758 
Q 1494 397 1959 397 
Q 2419 397 2687 759 
Q 2956 1122 2956 1747 
Q 2956 2369 2687 2733 
Q 2419 3097 1959 3097 
z
M 1959 3584 
Q 2709 3584 3137 3096 
Q 3566 2609 3566 1747 
Q 3566 888 3137 398 
Q 2709 -91 1959 -91 
Q 1206 -91 779 398 
Q 353 888 353 1747 
Q 353 2609 779 3096 
Q 1206 3584 1959 3584 
z
" transform="scale(0.015625)"/>
      <path id="DejaVuSans-20" transform="scale(0.015625)"/>
      <path id="DejaVuSans-66" d="M 2375 4863 
L 2375 4384 
L 1825 4384 
Q 1516 4384 1395 4259 
Q 1275 4134 1275 3809 
L 1275 3500 
L 2222 3500 
L 2222 3053 
L 1275 3053 
L 1275 0 
L 697 0 
L 697 3053 
L 147 3053 
L 147 3500 
L 697 3500 
L 697 3744 
Q 697 4328 969 4595 
Q 1241 4863 1831 4863 
L 2375 4863 
z
" transform="scale(0.015625)"/>
      <path id="DejaVuSans-59" d="M -13 4666 
L 666 4666 
L 1959 2747 
L 3244 4666 
L 3922 4666 
L 2272 2222 
L 2272 0 
L 1638 0 
L 1638 2222 
L -13 4666 
z
" transform="scale(0.015625)"/>
      <path id="DejaVuSans-61" d="M 2194 1759 
Q 1497 1759 1228 1600 
Q 959 1441 959 1056 
Q 959 750 1161 570 
Q 1363 391 1709 391 
Q 2188 391 2477 730 
Q 2766 1069 2766 1631 
L 2766 1759 
L 2194 1759 
z
M 3341 1997 
L 3341 0 
L 2766 0 
L 2766 531 
Q 2569 213 2275 61 
Q 1981 -91 1556 -91 
Q 1019 -91 701 211 
Q 384 513 384 1019 
Q 384 1609 779 1909 
Q 1175 2209 1959 2209 
L 2766 2209 
L 2766 2266 
Q 2766 2663 2505 2880 
Q 2244 3097 1772 3097 
Q 1472 3097 1187 3025 
Q 903 2953 641 2809 
L 641 3341 
Q 956 3463 1253 3523 
Q 1550 3584 1831 3584 
Q 2591 3584 2966 3190 
Q 3341 2797 3341 1997 
z
" transform="scale(0.015625)"/>
     </defs>
     <use xlink:href="#DejaVuSans-44"/>
     <use xlink:href="#DejaVuSans-69" x="77.001953"/>
     <use xlink:href="#DejaVuSans-73" x="104.785156"/>
     <use xlink:href="#DejaVuSans-74" x="156.884766"/>
     <use xlink:href="#DejaVuSans-72" x="196.09375"/>
     <use xlink:href="#DejaVuSans-69" x="237.207031"/>
     <use xlink:href="#DejaVuSans-62" x="264.990234"/>
     <use xlink:href="#DejaVuSans-75" x="328.466797"/>
     <use xlink:href="#DejaVuSans-74" x="391.845703"/>
     <use xlink:href="#DejaVuSans-69" x="431.054688"/>
     <use xlink:href="#DejaVuSans-6f" x="458.837891"/>
     <use xlink:href="#DejaVuSans-6e" x="520.019531"/>
     <use xlink:href="#DejaVuSans-20" x="583.398438"/>
     <use xlink:href="#DejaVuSans-6f" x="615.185547"/>
     <use xlink:href="#DejaVuSans-66" x="676.367188"/>
     <use xlink:href="#DejaVuSans-20" x="711.572266"/>
     <use xlink:href="#DejaVuSans-4e" x="743.359375"/>
     <use xlink:href="#DejaVuSans-6b" x="818.164062"/>
     <use xlink:href="#DejaVuSans-20" x="876.074219"/>
     <use xlink:href="#DejaVuSans-62" x="907.861328"/>
     <use xlink:href="#DejaVuSans-79" x="971.337891"/>
     <use xlink:href="#DejaVuSans-20" x="1030.517578"/>
     <use xlink:href="#DejaVuSans-59" x="1062.304688"/>
     <use xlink:href="#DejaVuSans-65" x="1110.138672"/>
     <use xlink:href="#DejaVuSans-61" x="1171.662109"/>
     <use xlink:href="#DejaVuSans-72" x="1232.941406"/>
    </g>
   </g>
   <g id="legend_1">
    <g id="patch_7">
     <path d="M 559.196875 177.265 
L 641 177.265 
Q 643 177.265 643 175.265 
L 643 58.84 
Q 643 56.84 641 56.84 
L 559.196875 56.84 
Q 557.196875 56.84 557.196875 58.84 
L 557.196875 175.265 
Q 557.196875 177.265 559.196875 177.265 
z
" style="fill: #ffffff; opacity: 0.8; stroke: #cccccc; stroke-linejoin: miter"/>
    </g>
    <g id="line2d_22">
     <path d="M 561.196875 64.938437 
L 571.196875 64.938437 
L 581.196875 64.938437 
" style="fill: none; stroke: #1f77b4; stroke-width: 1.5; stroke-linecap: square"/>
    </g>
    <g id="text_17">
     <!-- Year 2022 -->
     <g transform="translate(589.196875 68.438437) scale(0.1 -0.1)">
      <use xlink:href="#DejaVuSans-59"/>
      <use xlink:href="#DejaVuSans-65" x="47.833984"/>
      <use xlink:href="#DejaVuSans-61" x="109.357422"/>
      <use xlink:href="#DejaVuSans-72" x="170.636719"/>
      <use xlink:href="#DejaVuSans-20" x="211.75"/>
      <use xlink:href="#DejaVuSans-32" x="243.537109"/>
      <use xlink:href="#DejaVuSans-30" x="307.160156"/>
      <use xlink:href="#DejaVuSans-32" x="370.783203"/>
      <use xlink:href="#DejaVuSans-32" x="434.40625"/>
     </g>
    </g>
    <g id="line2d_23">
     <path d="M 561.196875 79.616562 
L 571.196875 79.616562 
L 581.196875 79.616562 
" style="fill: none; stroke: #ff7f0e; stroke-width: 1.5; stroke-linecap: square"/>
    </g>
    <g id="text_18">
     <!-- Year 2021 -->
     <g transform="translate(589.196875 83.116562) scale(0.1 -0.1)">
      <use xlink:href="#DejaVuSans-59"/>
      <use xlink:href="#DejaVuSans-65" x="47.833984"/>
      <use xlink:href="#DejaVuSans-61" x="109.357422"/>
      <use xlink:href="#DejaVuSans-72" x="170.636719"/>
      <use xlink:href="#DejaVuSans-20" x="211.75"/>
      <use xlink:href="#DejaVuSans-32" x="243.537109"/>
      <use xlink:href="#DejaVuSans-30" x="307.160156"/>
      <use xlink:href="#DejaVuSans-32" x="370.783203"/>
      <use xlink:href="#DejaVuSans-31" x="434.40625"/>
     </g>
    </g>
    <g id="line2d_24">
     <path d="M 561.196875 94.294687 
L 571.196875 94.294687 
L 581.196875 94.294687 
" style="fill: none; stroke: #2ca02c; stroke-width: 1.5; stroke-linecap: square"/>
    </g>
    <g id="text_19">
     <!-- Year 2020 -->
     <g transform="translate(589.196875 97.794687) scale(0.1 -0.1)">
      <use xlink:href="#DejaVuSans-59"/>
      <use xlink:href="#DejaVuSans-65" x="47.833984"/>
      <use xlink:href="#DejaVuSans-61" x="109.357422"/>
      <use xlink:href="#DejaVuSans-72" x="170.636719"/>
      <use xlink:href="#DejaVuSans-20" x="211.75"/>
      <use xlink:href="#DejaVuSans-32" x="243.537109"/>
      <use xlink:href="#DejaVuSans-30" x="307.160156"/>
      <use xlink:href="#DejaVuSans-32" x="370.783203"/>
      <use xlink:href="#DejaVuSans-30" x="434.40625"/>
     </g>
    </g>
    <g id="line2d_25">
     <path d="M 561.196875 108.972812 
L 571.196875 108.972812 
L 581.196875 108.972812 
" style="fill: none; stroke: #d62728; stroke-width: 1.5; stroke-linecap: square"/>
    </g>
    <g id="text_20">
     <!-- Year 2019 -->
     <g transform="translate(589.196875 112.472812) scale(0.1 -0.1)">
      <defs>
       <path id="DejaVuSans-39" d="M 703 97 
L 703 672 
Q 941 559 1184 500 
Q 1428 441 1663 441 
Q 2288 441 2617 861 
Q 2947 1281 2994 2138 
Q 2813 1869 2534 1725 
Q 2256 1581 1919 1581 
Q 1219 1581 811 2004 
Q 403 2428 403 3163 
Q 403 3881 828 4315 
Q 1253 4750 1959 4750 
Q 2769 4750 3195 4129 
Q 3622 3509 3622 2328 
Q 3622 1225 3098 567 
Q 2575 -91 1691 -91 
Q 1453 -91 1209 -44 
Q 966 3 703 97 
z
M 1959 2075 
Q 2384 2075 2632 2365 
Q 2881 2656 2881 3163 
Q 2881 3666 2632 3958 
Q 2384 4250 1959 4250 
Q 1534 4250 1286 3958 
Q 1038 3666 1038 3163 
Q 1038 2656 1286 2365 
Q 1534 2075 1959 2075 
z
" transform="scale(0.015625)"/>
      </defs>
      <use xlink:href="#DejaVuSans-59"/>
      <use xlink:href="#DejaVuSans-65" x="47.833984"/>
      <use xlink:href="#DejaVuSans-61" x="109.357422"/>
      <use xlink:href="#DejaVuSans-72" x="170.636719"/>
      <use xlink:href="#DejaVuSans-20" x="211.75"/>
      <use xlink:href="#DejaVuSans-32" x="243.537109"/>
      <use xlink:href="#DejaVuSans-30" x="307.160156"/>
      <use xlink:href="#DejaVuSans-31" x="370.783203"/>
      <use xlink:href="#DejaVuSans-39" x="434.40625"/>
     </g>
    </g>
    <g id="line2d_26">
     <path d="M 561.196875 123.650937 
L 571.196875 123.650937 
L 581.196875 123.650937 
" style="fill: none; stroke: #9467bd; stroke-width: 1.5; stroke-linecap: square"/>
    </g>
    <g id="text_21">
     <!-- Year 2018 -->
     <g transform="translate(589.196875 127.150937) scale(0.1 -0.1)">
      <defs>
       <path id="DejaVuSans-38" d="M 2034 2216 
Q 1584 2216 1326 1975 
Q 1069 1734 1069 1313 
Q 1069 891 1326 650 
Q 1584 409 2034 409 
Q 2484 409 2743 651 
Q 3003 894 3003 1313 
Q 3003 1734 2745 1975 
Q 2488 2216 2034 2216 
z
M 1403 2484 
Q 997 2584 770 2862 
Q 544 3141 544 3541 
Q 544 4100 942 4425 
Q 1341 4750 2034 4750 
Q 2731 4750 3128 4425 
Q 3525 4100 3525 3541 
Q 3525 3141 3298 2862 
Q 3072 2584 2669 2484 
Q 3125 2378 3379 2068 
Q 3634 1759 3634 1313 
Q 3634 634 3220 271 
Q 2806 -91 2034 -91 
Q 1263 -91 848 271 
Q 434 634 434 1313 
Q 434 1759 690 2068 
Q 947 2378 1403 2484 
z
M 1172 3481 
Q 1172 3119 1398 2916 
Q 1625 2713 2034 2713 
Q 2441 2713 2670 2916 
Q 2900 3119 2900 3481 
Q 2900 3844 2670 4047 
Q 2441 4250 2034 4250 
Q 1625 4250 1398 4047 
Q 1172 3844 1172 3481 
z
" transform="scale(0.015625)"/>
      </defs>
      <use xlink:href="#DejaVuSans-59"/>
      <use xlink:href="#DejaVuSans-65" x="47.833984"/>
      <use xlink:href="#DejaVuSans-61" x="109.357422"/>
      <use xlink:href="#DejaVuSans-72" x="170.636719"/>
      <use xlink:href="#DejaVuSans-20" x="211.75"/>
      <use xlink:href="#DejaVuSans-32" x="243.537109"/>
      <use xlink:href="#DejaVuSans-30" x="307.160156"/>
      <use xlink:href="#DejaVuSans-31" x="370.783203"/>
      <use xlink:href="#DejaVuSans-38" x="434.40625"/>
     </g>
    </g>
    <g id="line2d_27">
     <path d="M 561.196875 138.329062 
L 571.196875 138.329062 
L 581.196875 138.329062 
" style="fill: none; stroke: #8c564b; stroke-width: 1.5; stroke-linecap: square"/>
    </g>
    <g id="text_22">
     <!-- Year 2017 -->
     <g transform="translate(589.196875 141.829062) scale(0.1 -0.1)">
      <use xlink:href="#DejaVuSans-59"/>
      <use xlink:href="#DejaVuSans-65" x="47.833984"/>
      <use xlink:href="#DejaVuSans-61" x="109.357422"/>
      <use xlink:href="#DejaVuSans-72" x="170.636719"/>
      <use xlink:href="#DejaVuSans-20" x="211.75"/>
      <use xlink:href="#DejaVuSans-32" x="243.537109"/>
      <use xlink:href="#DejaVuSans-30" x="307.160156"/>
      <use xlink:href="#DejaVuSans-31" x="370.783203"/>
      <use xlink:href="#DejaVuSans-37" x="434.40625"/>
     </g>
    </g>
    <g id="line2d_28">
     <path d="M 561.196875 153.007187 
L 571.196875 153.007187 
L 581.196875 153.007187 
" style="fill: none; stroke: #e377c2; stroke-width: 1.5; stroke-linecap: square"/>
    </g>
    <g id="text_23">
     <!-- Year 2016 -->
     <g transform="translate(589.196875 156.507187) scale(0.1 -0.1)">
      <defs>
       <path id="DejaVuSans-36" d="M 2113 2584 
Q 1688 2584 1439 2293 
Q 1191 2003 1191 1497 
Q 1191 994 1439 701 
Q 1688 409 2113 409 
Q 2538 409 2786 701 
Q 3034 994 3034 1497 
Q 3034 2003 2786 2293 
Q 2538 2584 2113 2584 
z
M 3366 4563 
L 3366 3988 
Q 3128 4100 2886 4159 
Q 2644 4219 2406 4219 
Q 1781 4219 1451 3797 
Q 1122 3375 1075 2522 
Q 1259 2794 1537 2939 
Q 1816 3084 2150 3084 
Q 2853 3084 3261 2657 
Q 3669 2231 3669 1497 
Q 3669 778 3244 343 
Q 2819 -91 2113 -91 
Q 1303 -91 875 529 
Q 447 1150 447 2328 
Q 447 3434 972 4092 
Q 1497 4750 2381 4750 
Q 2619 4750 2861 4703 
Q 3103 4656 3366 4563 
z
" transform="scale(0.015625)"/>
      </defs>
      <use xlink:href="#DejaVuSans-59"/>
      <use xlink:href="#DejaVuSans-65" x="47.833984"/>
      <use xlink:href="#DejaVuSans-61" x="109.357422"/>
      <use xlink:href="#DejaVuSans-72" x="170.636719"/>
      <use xlink:href="#DejaVuSans-20" x="211.75"/>
      <use xlink:href="#DejaVuSans-32" x="243.537109"/>
      <use xlink:href="#DejaVuSans-30" x="307.160156"/>
      <use xlink:href="#DejaVuSans-31" x="370.783203"/>
      <use xlink:href="#DejaVuSans-36" x="434.40625"/>
     </g>
    </g>
    <g id="line2d_29">
     <path d="M 561.196875 167.685312 
L 571.196875 167.685312 
L 581.196875 167.685312 
" style="fill: none; stroke: #7f7f7f; stroke-width: 1.5; stroke-linecap: square"/>
    </g>
    <g id="text_24">
     <!-- Year 2015 -->
     <g transform="translate(589.196875 171.185312) scale(0.1 -0.1)">
      <use xlink:href="#DejaVuSans-59"/>
      <use xlink:href="#DejaVuSans-65" x="47.833984"/>
      <use xlink:href="#DejaVuSans-61" x="109.357422"/>
      <use xlink:href="#DejaVuSans-72" x="170.636719"/>
      <use xlink:href="#DejaVuSans-20" x="211.75"/>
      <use xlink:href="#DejaVuSans-32" x="243.537109"/>
      <use xlink:href="#DejaVuSans-30" x="307.160156"/>
      <use xlink:href="#DejaVuSans-31" x="370.783203"/>
      <use xlink:href="#DejaVuSans-35" x="434.40625"/>
     </g>
    </g>
   </g>
  </g>
 </g>
 <defs>
  <clipPath id="p522f6f562e">
   <rect x="90" y="51.84" width="558" height="332.64"/>
  </clipPath>
 </defs>
</svg>
