<?xml version="1.0" encoding="utf-8" standalone="no"?>
<!DOCTYPE svg PUBLIC "-//W3C//DTD SVG 1.1//EN"
  "http://www.w3.org/Graphics/SVG/1.1/DTD/svg11.dtd">
<svg xmlns:xlink="http://www.w3.org/1999/xlink" width="720pt" height="432pt" viewBox="0 0 720 432" xmlns="http://www.w3.org/2000/svg" version="1.1">
 <metadata>
  <rdf:RDF xmlns:dc="http://purl.org/dc/elements/1.1/" xmlns:cc="http://creativecommons.org/ns#" xmlns:rdf="http://www.w3.org/1999/02/22-rdf-syntax-ns#">
   <cc:Work>
    <dc:type rdf:resource="http://purl.org/dc/dcmitype/StillImage"/>
    <dc:date>2025-01-11T21:18:01.198515</dc:date>
    <dc:format>image/svg+xml</dc:format>
    <dc:creator>
     <cc:Agent>
      <dc:title>Matplotlib v3.7.2, https://matplotlib.org/</dc:title>
     </cc:Agent>
    </dc:creator>
   </cc:Work>
  </rdf:RDF>
 </metadata>
 <defs>
  <style type="text/css">*{stroke-linejoin: round; stroke-linecap: butt}</style>
 </defs>
 <g id="figure_1">
  <g id="patch_1">
   <path d="M 0 432 
L 720 432 
L 720 0 
L 0 0 
z
" style="fill: #ffffff"/>
  </g>
  <g id="axes_1">
   <g id="patch_2">
    <path d="M 90 384.48 
L 648 384.48 
L 648 51.84 
L 90 51.84 
z
" style="fill: #ffffff"/>
   </g>
   <g id="matplotlib.axis_1">
    <g id="xtick_1">
     <g id="line2d_1">
      <defs>
       <path id="m3a9822ba14" d="M 0 0 
L 0 3.5 
" style="stroke: #000000; stroke-width: 0.8"/>
      </defs>
      <g>
       <use xlink:href="#m3a9822ba14" x="115.363636" y="384.48" style="stroke: #000000; stroke-width: 0.8"/>
      </g>
     </g>
     <g id="text_1">
      <!-- 0 -->
      <g transform="translate(112.182386 399.078438) scale(0.1 -0.1)">
       <defs>
        <path id="DejaVuSans-30" d="M 2034 4250 
Q 1547 4250 1301 3770 
Q 1056 3291 1056 2328 
Q 1056 1369 1301 889 
Q 1547 409 2034 409 
Q 2525 409 2770 889 
Q 3016 1369 3016 2328 
Q 3016 3291 2770 3770 
Q 2525 4250 2034 4250 
z
M 2034 4750 
Q 2819 4750 3233 4129 
Q 3647 3509 3647 2328 
Q 3647 1150 3233 529 
Q 2819 -91 2034 -91 
Q 1250 -91 836 529 
Q 422 1150 422 2328 
Q 422 3509 836 4129 
Q 1250 4750 2034 4750 
z
" transform="scale(0.015625)"/>
       </defs>
       <use xlink:href="#DejaVuSans-30"/>
      </g>
     </g>
    </g>
    <g id="xtick_2">
     <g id="line2d_2">
      <g>
       <use xlink:href="#m3a9822ba14" x="183.994583" y="384.48" style="stroke: #000000; stroke-width: 0.8"/>
      </g>
     </g>
     <g id="text_2">
      <!-- 50 -->
      <g transform="translate(177.632083 399.078438) scale(0.1 -0.1)">
       <defs>
        <path id="DejaVuSans-35" d="M 691 4666 
L 3169 4666 
L 3169 4134 
L 1269 4134 
L 1269 2991 
Q 1406 3038 1543 3061 
Q 1681 3084 1819 3084 
Q 2600 3084 3056 2656 
Q 3513 2228 3513 1497 
Q 3513 744 3044 326 
Q 2575 -91 1722 -91 
Q 1428 -91 1123 -41 
Q 819 9 494 109 
L 494 744 
Q 775 591 1075 516 
Q 1375 441 1709 441 
Q 2250 441 2565 725 
Q 2881 1009 2881 1497 
Q 2881 1984 2565 2268 
Q 2250 2553 1709 2553 
Q 1456 2553 1204 2497 
Q 953 2441 691 2322 
L 691 4666 
z
" transform="scale(0.015625)"/>
       </defs>
       <use xlink:href="#DejaVuSans-35"/>
       <use xlink:href="#DejaVuSans-30" x="63.623047"/>
      </g>
     </g>
    </g>
    <g id="xtick_3">
     <g id="line2d_3">
      <g>
       <use xlink:href="#m3a9822ba14" x="252.625531" y="384.48" style="stroke: #000000; stroke-width: 0.8"/>
      </g>
     </g>
     <g id="text_3">
      <!-- 100 -->
      <g transform="translate(243.081781 399.078438) scale(0.1 -0.1)">
       <defs>
        <path id="DejaVuSans-31" d="M 794 531 
L 1825 531 
L 1825 4091 
L 703 3866 
L 703 4441 
L 1819 4666 
L 2450 4666 
L 2450 531 
L 3481 531 
L 3481 0 
L 794 0 
L 794 531 
z
" transform="scale(0.015625)"/>
       </defs>
       <use xlink:href="#DejaVuSans-31"/>
       <use xlink:href="#DejaVuSans-30" x="63.623047"/>
       <use xlink:href="#DejaVuSans-30" x="127.246094"/>
      </g>
     </g>
    </g>
    <g id="xtick_4">
     <g id="line2d_4">
      <g>
       <use xlink:href="#m3a9822ba14" x="321.256478" y="384.48" style="stroke: #000000; stroke-width: 0.8"/>
      </g>
     </g>
     <g id="text_4">
      <!-- 150 -->
      <g transform="translate(311.712728 399.078438) scale(0.1 -0.1)">
       <use xlink:href="#DejaVuSans-31"/>
       <use xlink:href="#DejaVuSans-35" x="63.623047"/>
       <use xlink:href="#DejaVuSans-30" x="127.246094"/>
      </g>
     </g>
    </g>
    <g id="xtick_5">
     <g id="line2d_5">
      <g>
       <use xlink:href="#m3a9822ba14" x="389.887425" y="384.48" style="stroke: #000000; stroke-width: 0.8"/>
      </g>
     </g>
     <g id="text_5">
      <!-- 200 -->
      <g transform="translate(380.343675 399.078438) scale(0.1 -0.1)">
       <defs>
        <path id="DejaVuSans-32" d="M 1228 531 
L 3431 531 
L 3431 0 
L 469 0 
L 469 531 
Q 828 903 1448 1529 
Q 2069 2156 2228 2338 
Q 2531 2678 2651 2914 
Q 2772 3150 2772 3378 
Q 2772 3750 2511 3984 
Q 2250 4219 1831 4219 
Q 1534 4219 1204 4116 
Q 875 4013 500 3803 
L 500 4441 
Q 881 4594 1212 4672 
Q 1544 4750 1819 4750 
Q 2544 4750 2975 4387 
Q 3406 4025 3406 3419 
Q 3406 3131 3298 2873 
Q 3191 2616 2906 2266 
Q 2828 2175 2409 1742 
Q 1991 1309 1228 531 
z
" transform="scale(0.015625)"/>
       </defs>
       <use xlink:href="#DejaVuSans-32"/>
       <use xlink:href="#DejaVuSans-30" x="63.623047"/>
       <use xlink:href="#DejaVuSans-30" x="127.246094"/>
      </g>
     </g>
    </g>
    <g id="xtick_6">
     <g id="line2d_6">
      <g>
       <use xlink:href="#m3a9822ba14" x="458.518372" y="384.48" style="stroke: #000000; stroke-width: 0.8"/>
      </g>
     </g>
     <g id="text_6">
      <!-- 250 -->
      <g transform="translate(448.974622 399.078438) scale(0.1 -0.1)">
       <use xlink:href="#DejaVuSans-32"/>
       <use xlink:href="#DejaVuSans-35" x="63.623047"/>
       <use xlink:href="#DejaVuSans-30" x="127.246094"/>
      </g>
     </g>
    </g>
    <g id="xtick_7">
     <g id="line2d_7">
      <g>
       <use xlink:href="#m3a9822ba14" x="527.149319" y="384.48" style="stroke: #000000; stroke-width: 0.8"/>
      </g>
     </g>
     <g id="text_7">
      <!-- 300 -->
      <g transform="translate(517.605569 399.078438) scale(0.1 -0.1)">
       <defs>
        <path id="DejaVuSans-33" d="M 2597 2516 
Q 3050 2419 3304 2112 
Q 3559 1806 3559 1356 
Q 3559 666 3084 287 
Q 2609 -91 1734 -91 
Q 1441 -91 1130 -33 
Q 819 25 488 141 
L 488 750 
Q 750 597 1062 519 
Q 1375 441 1716 441 
Q 2309 441 2620 675 
Q 2931 909 2931 1356 
Q 2931 1769 2642 2001 
Q 2353 2234 1838 2234 
L 1294 2234 
L 1294 2753 
L 1863 2753 
Q 2328 2753 2575 2939 
Q 2822 3125 2822 3475 
Q 2822 3834 2567 4026 
Q 2313 4219 1838 4219 
Q 1578 4219 1281 4162 
Q 984 4106 628 3988 
L 628 4550 
Q 988 4650 1302 4700 
Q 1616 4750 1894 4750 
Q 2613 4750 3031 4423 
Q 3450 4097 3450 3541 
Q 3450 3153 3228 2886 
Q 3006 2619 2597 2516 
z
" transform="scale(0.015625)"/>
       </defs>
       <use xlink:href="#DejaVuSans-33"/>
       <use xlink:href="#DejaVuSans-30" x="63.623047"/>
       <use xlink:href="#DejaVuSans-30" x="127.246094"/>
      </g>
     </g>
    </g>
    <g id="xtick_8">
     <g id="line2d_8">
      <g>
       <use xlink:href="#m3a9822ba14" x="595.780266" y="384.48" style="stroke: #000000; stroke-width: 0.8"/>
      </g>
     </g>
     <g id="text_8">
      <!-- 350 -->
      <g transform="translate(586.236516 399.078438) scale(0.1 -0.1)">
       <use xlink:href="#DejaVuSans-33"/>
       <use xlink:href="#DejaVuSans-35" x="63.623047"/>
       <use xlink:href="#DejaVuSans-30" x="127.246094"/>
      </g>
     </g>
    </g>
    <g id="text_9">
     <!-- Nj -->
     <g transform="translate(363.870313 412.756563) scale(0.1 -0.1)">
      <defs>
       <path id="DejaVuSans-4e" d="M 628 4666 
L 1478 4666 
L 3547 763 
L 3547 4666 
L 4159 4666 
L 4159 0 
L 3309 0 
L 1241 3903 
L 1241 0 
L 628 0 
L 628 4666 
z
" transform="scale(0.015625)"/>
       <path id="DejaVuSans-6a" d="M 603 3500 
L 1178 3500 
L 1178 -63 
Q 1178 -731 923 -1031 
Q 669 -1331 103 -1331 
L -116 -1331 
L -116 -844 
L 38 -844 
Q 366 -844 484 -692 
Q 603 -541 603 -63 
L 603 3500 
z
M 603 4863 
L 1178 4863 
L 1178 4134 
L 603 4134 
L 603 4863 
z
" transform="scale(0.015625)"/>
      </defs>
      <use xlink:href="#DejaVuSans-4e"/>
      <use xlink:href="#DejaVuSans-6a" x="74.804688"/>
     </g>
    </g>
   </g>
   <g id="matplotlib.axis_2">
    <g id="ytick_1">
     <g id="line2d_9">
      <defs>
       <path id="ma063f26ecd" d="M 0 0 
L -3.5 0 
" style="stroke: #000000; stroke-width: 0.8"/>
      </defs>
      <g>
       <use xlink:href="#ma063f26ecd" x="90" y="384.48" style="stroke: #000000; stroke-width: 0.8"/>
      </g>
     </g>
     <g id="text_10">
      <!-- 0.000 -->
      <g transform="translate(54.371875 388.279219) scale(0.1 -0.1)">
       <defs>
        <path id="DejaVuSans-2e" d="M 684 794 
L 1344 794 
L 1344 0 
L 684 0 
L 684 794 
z
" transform="scale(0.015625)"/>
       </defs>
       <use xlink:href="#DejaVuSans-30"/>
       <use xlink:href="#DejaVuSans-2e" x="63.623047"/>
       <use xlink:href="#DejaVuSans-30" x="95.410156"/>
       <use xlink:href="#DejaVuSans-30" x="159.033203"/>
       <use xlink:href="#DejaVuSans-30" x="222.65625"/>
      </g>
     </g>
    </g>
    <g id="ytick_2">
     <g id="line2d_10">
      <g>
       <use xlink:href="#ma063f26ecd" x="90" y="341.581792" style="stroke: #000000; stroke-width: 0.8"/>
      </g>
     </g>
     <g id="text_11">
      <!-- 0.002 -->
      <g transform="translate(54.371875 345.381011) scale(0.1 -0.1)">
       <use xlink:href="#DejaVuSans-30"/>
       <use xlink:href="#DejaVuSans-2e" x="63.623047"/>
       <use xlink:href="#DejaVuSans-30" x="95.410156"/>
       <use xlink:href="#DejaVuSans-30" x="159.033203"/>
       <use xlink:href="#DejaVuSans-32" x="222.65625"/>
      </g>
     </g>
    </g>
    <g id="ytick_3">
     <g id="line2d_11">
      <g>
       <use xlink:href="#ma063f26ecd" x="90" y="298.683584" style="stroke: #000000; stroke-width: 0.8"/>
      </g>
     </g>
     <g id="text_12">
      <!-- 0.004 -->
      <g transform="translate(54.371875 302.482803) scale(0.1 -0.1)">
       <defs>
        <path id="DejaVuSans-34" d="M 2419 4116 
L 825 1625 
L 2419 1625 
L 2419 4116 
z
M 2253 4666 
L 3047 4666 
L 3047 1625 
L 3713 1625 
L 3713 1100 
L 3047 1100 
L 3047 0 
L 2419 0 
L 2419 1100 
L 313 1100 
L 313 1709 
L 2253 4666 
z
" transform="scale(0.015625)"/>
       </defs>
       <use xlink:href="#DejaVuSans-30"/>
       <use xlink:href="#DejaVuSans-2e" x="63.623047"/>
       <use xlink:href="#DejaVuSans-30" x="95.410156"/>
       <use xlink:href="#DejaVuSans-30" x="159.033203"/>
       <use xlink:href="#DejaVuSans-34" x="222.65625"/>
      </g>
     </g>
    </g>
    <g id="ytick_4">
     <g id="line2d_12">
      <g>
       <use xlink:href="#ma063f26ecd" x="90" y="255.785377" style="stroke: #000000; stroke-width: 0.8"/>
      </g>
     </g>
     <g id="text_13">
      <!-- 0.006 -->
      <g transform="translate(54.371875 259.584595) scale(0.1 -0.1)">
       <defs>
        <path id="DejaVuSans-36" d="M 2113 2584 
Q 1688 2584 1439 2293 
Q 1191 2003 1191 1497 
Q 1191 994 1439 701 
Q 1688 409 2113 409 
Q 2538 409 2786 701 
Q 3034 994 3034 1497 
Q 3034 2003 2786 2293 
Q 2538 2584 2113 2584 
z
M 3366 4563 
L 3366 3988 
Q 3128 4100 2886 4159 
Q 2644 4219 2406 4219 
Q 1781 4219 1451 3797 
Q 1122 3375 1075 2522 
Q 1259 2794 1537 2939 
Q 1816 3084 2150 3084 
Q 2853 3084 3261 2657 
Q 3669 2231 3669 1497 
Q 3669 778 3244 343 
Q 2819 -91 2113 -91 
Q 1303 -91 875 529 
Q 447 1150 447 2328 
Q 447 3434 972 4092 
Q 1497 4750 2381 4750 
Q 2619 4750 2861 4703 
Q 3103 4656 3366 4563 
z
" transform="scale(0.015625)"/>
       </defs>
       <use xlink:href="#DejaVuSans-30"/>
       <use xlink:href="#DejaVuSans-2e" x="63.623047"/>
       <use xlink:href="#DejaVuSans-30" x="95.410156"/>
       <use xlink:href="#DejaVuSans-30" x="159.033203"/>
       <use xlink:href="#DejaVuSans-36" x="222.65625"/>
      </g>
     </g>
    </g>
    <g id="ytick_5">
     <g id="line2d_13">
      <g>
       <use xlink:href="#ma063f26ecd" x="90" y="212.887169" style="stroke: #000000; stroke-width: 0.8"/>
      </g>
     </g>
     <g id="text_14">
      <!-- 0.008 -->
      <g transform="translate(54.371875 216.686388) scale(0.1 -0.1)">
       <defs>
        <path id="DejaVuSans-38" d="M 2034 2216 
Q 1584 2216 1326 1975 
Q 1069 1734 1069 1313 
Q 1069 891 1326 650 
Q 1584 409 2034 409 
Q 2484 409 2743 651 
Q 3003 894 3003 1313 
Q 3003 1734 2745 1975 
Q 2488 2216 2034 2216 
z
M 1403 2484 
Q 997 2584 770 2862 
Q 544 3141 544 3541 
Q 544 4100 942 4425 
Q 1341 4750 2034 4750 
Q 2731 4750 3128 4425 
Q 3525 4100 3525 3541 
Q 3525 3141 3298 2862 
Q 3072 2584 2669 2484 
Q 3125 2378 3379 2068 
Q 3634 1759 3634 1313 
Q 3634 634 3220 271 
Q 2806 -91 2034 -91 
Q 1263 -91 848 271 
Q 434 634 434 1313 
Q 434 1759 690 2068 
Q 947 2378 1403 2484 
z
M 1172 3481 
Q 1172 3119 1398 2916 
Q 1625 2713 2034 2713 
Q 2441 2713 2670 2916 
Q 2900 3119 2900 3481 
Q 2900 3844 2670 4047 
Q 2441 4250 2034 4250 
Q 1625 4250 1398 4047 
Q 1172 3844 1172 3481 
z
" transform="scale(0.015625)"/>
       </defs>
       <use xlink:href="#DejaVuSans-30"/>
       <use xlink:href="#DejaVuSans-2e" x="63.623047"/>
       <use xlink:href="#DejaVuSans-30" x="95.410156"/>
       <use xlink:href="#DejaVuSans-30" x="159.033203"/>
       <use xlink:href="#DejaVuSans-38" x="222.65625"/>
      </g>
     </g>
    </g>
    <g id="ytick_6">
     <g id="line2d_14">
      <g>
       <use xlink:href="#ma063f26ecd" x="90" y="169.988961" style="stroke: #000000; stroke-width: 0.8"/>
      </g>
     </g>
     <g id="text_15">
      <!-- 0.010 -->
      <g transform="translate(54.371875 173.78818) scale(0.1 -0.1)">
       <use xlink:href="#DejaVuSans-30"/>
       <use xlink:href="#DejaVuSans-2e" x="63.623047"/>
       <use xlink:href="#DejaVuSans-30" x="95.410156"/>
       <use xlink:href="#DejaVuSans-31" x="159.033203"/>
       <use xlink:href="#DejaVuSans-30" x="222.65625"/>
      </g>
     </g>
    </g>
    <g id="ytick_7">
     <g id="line2d_15">
      <g>
       <use xlink:href="#ma063f26ecd" x="90" y="127.090753" style="stroke: #000000; stroke-width: 0.8"/>
      </g>
     </g>
     <g id="text_16">
      <!-- 0.012 -->
      <g transform="translate(54.371875 130.889972) scale(0.1 -0.1)">
       <use xlink:href="#DejaVuSans-30"/>
       <use xlink:href="#DejaVuSans-2e" x="63.623047"/>
       <use xlink:href="#DejaVuSans-30" x="95.410156"/>
       <use xlink:href="#DejaVuSans-31" x="159.033203"/>
       <use xlink:href="#DejaVuSans-32" x="222.65625"/>
      </g>
     </g>
    </g>
    <g id="ytick_8">
     <g id="line2d_16">
      <g>
       <use xlink:href="#ma063f26ecd" x="90" y="84.192545" style="stroke: #000000; stroke-width: 0.8"/>
      </g>
     </g>
     <g id="text_17">
      <!-- 0.014 -->
      <g transform="translate(54.371875 87.991764) scale(0.1 -0.1)">
       <use xlink:href="#DejaVuSans-30"/>
       <use xlink:href="#DejaVuSans-2e" x="63.623047"/>
       <use xlink:href="#DejaVuSans-30" x="95.410156"/>
       <use xlink:href="#DejaVuSans-31" x="159.033203"/>
       <use xlink:href="#DejaVuSans-34" x="222.65625"/>
      </g>
     </g>
    </g>
    <g id="text_18">
     <!-- Density -->
     <g transform="translate(48.292187 237.168594) rotate(-90) scale(0.1 -0.1)">
      <defs>
       <path id="DejaVuSans-44" d="M 1259 4147 
L 1259 519 
L 2022 519 
Q 2988 519 3436 956 
Q 3884 1394 3884 2338 
Q 3884 3275 3436 3711 
Q 2988 4147 2022 4147 
L 1259 4147 
z
M 628 4666 
L 1925 4666 
Q 3281 4666 3915 4102 
Q 4550 3538 4550 2338 
Q 4550 1131 3912 565 
Q 3275 0 1925 0 
L 628 0 
L 628 4666 
z
" transform="scale(0.015625)"/>
       <path id="DejaVuSans-65" d="M 3597 1894 
L 3597 1613 
L 953 1613 
Q 991 1019 1311 708 
Q 1631 397 2203 397 
Q 2534 397 2845 478 
Q 3156 559 3463 722 
L 3463 178 
Q 3153 47 2828 -22 
Q 2503 -91 2169 -91 
Q 1331 -91 842 396 
Q 353 884 353 1716 
Q 353 2575 817 3079 
Q 1281 3584 2069 3584 
Q 2775 3584 3186 3129 
Q 3597 2675 3597 1894 
z
M 3022 2063 
Q 3016 2534 2758 2815 
Q 2500 3097 2075 3097 
Q 1594 3097 1305 2825 
Q 1016 2553 972 2059 
L 3022 2063 
z
" transform="scale(0.015625)"/>
       <path id="DejaVuSans-6e" d="M 3513 2113 
L 3513 0 
L 2938 0 
L 2938 2094 
Q 2938 2591 2744 2837 
Q 2550 3084 2163 3084 
Q 1697 3084 1428 2787 
Q 1159 2491 1159 1978 
L 1159 0 
L 581 0 
L 581 3500 
L 1159 3500 
L 1159 2956 
Q 1366 3272 1645 3428 
Q 1925 3584 2291 3584 
Q 2894 3584 3203 3211 
Q 3513 2838 3513 2113 
z
" transform="scale(0.015625)"/>
       <path id="DejaVuSans-73" d="M 2834 3397 
L 2834 2853 
Q 2591 2978 2328 3040 
Q 2066 3103 1784 3103 
Q 1356 3103 1142 2972 
Q 928 2841 928 2578 
Q 928 2378 1081 2264 
Q 1234 2150 1697 2047 
L 1894 2003 
Q 2506 1872 2764 1633 
Q 3022 1394 3022 966 
Q 3022 478 2636 193 
Q 2250 -91 1575 -91 
Q 1294 -91 989 -36 
Q 684 19 347 128 
L 347 722 
Q 666 556 975 473 
Q 1284 391 1588 391 
Q 1994 391 2212 530 
Q 2431 669 2431 922 
Q 2431 1156 2273 1281 
Q 2116 1406 1581 1522 
L 1381 1569 
Q 847 1681 609 1914 
Q 372 2147 372 2553 
Q 372 3047 722 3315 
Q 1072 3584 1716 3584 
Q 2034 3584 2315 3537 
Q 2597 3491 2834 3397 
z
" transform="scale(0.015625)"/>
       <path id="DejaVuSans-69" d="M 603 3500 
L 1178 3500 
L 1178 0 
L 603 0 
L 603 3500 
z
M 603 4863 
L 1178 4863 
L 1178 4134 
L 603 4134 
L 603 4863 
z
" transform="scale(0.015625)"/>
       <path id="DejaVuSans-74" d="M 1172 4494 
L 1172 3500 
L 2356 3500 
L 2356 3053 
L 1172 3053 
L 1172 1153 
Q 1172 725 1289 603 
Q 1406 481 1766 481 
L 2356 481 
L 2356 0 
L 1766 0 
Q 1100 0 847 248 
Q 594 497 594 1153 
L 594 3053 
L 172 3053 
L 172 3500 
L 594 3500 
L 594 4494 
L 1172 4494 
z
" transform="scale(0.015625)"/>
       <path id="DejaVuSans-79" d="M 2059 -325 
Q 1816 -950 1584 -1140 
Q 1353 -1331 966 -1331 
L 506 -1331 
L 506 -850 
L 844 -850 
Q 1081 -850 1212 -737 
Q 1344 -625 1503 -206 
L 1606 56 
L 191 3500 
L 800 3500 
L 1894 763 
L 2988 3500 
L 3597 3500 
L 2059 -325 
z
" transform="scale(0.015625)"/>
      </defs>
      <use xlink:href="#DejaVuSans-44"/>
      <use xlink:href="#DejaVuSans-65" x="77.001953"/>
      <use xlink:href="#DejaVuSans-6e" x="138.525391"/>
      <use xlink:href="#DejaVuSans-73" x="201.904297"/>
      <use xlink:href="#DejaVuSans-69" x="254.003906"/>
      <use xlink:href="#DejaVuSans-74" x="281.787109"/>
      <use xlink:href="#DejaVuSans-79" x="320.996094"/>
     </g>
    </g>
   </g>
   <g id="line2d_17">
    <path d="M 115.363636 383.337143 
L 120.341559 382.776322 
L 125.319482 382.028923 
L 130.297404 381.073872 
L 135.275327 379.903224 
L 140.25325 378.525636 
L 145.231172 376.966963 
L 152.698056 374.379265 
L 182.565592 363.624429 
L 190.032476 361.297416 
L 195.010399 359.974036 
L 199.988322 358.934938 
L 204.966244 358.279442 
L 207.455206 358.124454 
L 209.944167 358.096892 
L 212.433128 358.202827 
L 214.92209 358.445192 
L 217.411051 358.823428 
L 219.900012 359.333306 
L 224.877935 360.713053 
L 229.855858 362.482911 
L 237.322742 365.55841 
L 244.789626 368.680848 
L 249.767548 370.573081 
L 254.745471 372.217664 
L 259.723394 373.581432 
L 264.701316 374.66947 
L 269.679239 375.513467 
L 274.657162 376.157475 
L 282.124046 376.838378 
L 289.59093 377.244194 
L 294.568853 377.353804 
L 299.546775 377.296074 
L 304.524698 377.018016 
L 309.502621 376.457898 
L 314.480543 375.556135 
L 319.458466 374.267311 
L 324.436389 372.571557 
L 329.414311 370.483207 
L 334.392234 368.054669 
L 339.370157 365.373946 
L 356.792886 355.692376 
L 361.770809 353.257723 
L 366.748731 351.042953 
L 374.215615 348.003838 
L 381.682499 344.925922 
L 386.660422 342.56529 
L 389.149383 341.220336 
L 391.638345 339.733402 
L 394.127306 338.080921 
L 396.616267 336.240019 
L 399.105229 334.188556 
L 401.59419 331.905059 
L 404.083151 329.368578 
L 406.572113 326.558506 
L 409.061074 323.454396 
L 411.550035 320.035829 
L 414.038997 316.282376 
L 416.527958 312.173694 
L 419.016919 307.689786 
L 421.505881 302.811457 
L 423.994842 297.520959 
L 426.483803 291.802837 
L 428.972765 285.644954 
L 431.461726 279.039653 
L 433.950687 271.985029 
L 436.439649 264.486242 
L 438.92861 256.556829 
L 443.906533 239.509317 
L 448.884455 221.160494 
L 463.818223 164.332597 
L 466.307185 155.701201 
L 468.796146 147.637698 
L 471.285107 140.270303 
L 473.774069 133.723881 
L 476.26303 128.116839 
L 478.751991 123.558028 
L 481.240953 120.143768 
L 483.729914 117.955102 
L 486.218875 117.055369 
L 488.707837 117.48819 
L 491.196798 119.275936 
L 493.685759 122.418742 
L 496.174721 126.894102 
L 498.663682 132.65707 
L 501.152643 139.641066 
L 503.641605 147.759274 
L 506.130566 156.906576 
L 508.619527 166.961993 
L 511.108489 177.791538 
L 516.086411 201.191335 
L 531.020179 274.569711 
L 533.509141 285.844935 
L 535.998102 296.56502 
L 538.487063 306.659437 
L 540.976025 316.074965 
L 543.464986 324.775469 
L 545.953947 332.741186 
L 548.442909 339.967578 
L 550.93187 346.463818 
L 553.420831 352.251023 
L 555.909793 357.360297 
L 558.398754 361.830701 
L 560.887715 365.707225 
L 563.376677 369.038841 
L 565.865638 371.876699 
L 568.354599 374.272526 
L 570.843561 376.277244 
L 573.332522 377.939844 
L 575.821483 379.306511 
L 578.310445 380.419983 
L 580.799406 381.319152 
L 583.288367 382.038848 
L 585.777329 382.60981 
L 590.755251 383.4087 
L 595.733174 383.886019 
L 603.200058 384.249431 
L 610.666942 384.396928 
L 610.666942 384.396928 
" clip-path="url(#p17ba9becd1)" style="fill: none; stroke: #1f77b4; stroke-width: 1.5; stroke-linecap: square"/>
   </g>
   <g id="line2d_18">
    <path d="M 115.363636 384.35161 
L 125.560073 384.091109 
L 133.207401 383.666316 
L 138.305619 383.205408 
L 143.403837 382.550277 
L 148.502056 381.654482 
L 153.600274 380.476089 
L 158.698492 378.984711 
L 163.796711 377.168865 
L 168.894929 375.042329 
L 173.993148 372.648176 
L 181.640475 368.722303 
L 191.836912 363.436472 
L 196.93513 361.0568 
L 202.033349 359.018762 
L 204.582458 358.161315 
L 207.131567 357.426144 
L 209.680676 356.821643 
L 212.229785 356.353937 
L 214.778894 356.026748 
L 217.328004 355.841326 
L 219.877113 355.796455 
L 222.426222 355.888529 
L 224.975331 356.111701 
L 227.52444 356.458106 
L 232.622659 357.480794 
L 237.720877 358.865115 
L 242.819095 360.50921 
L 250.466423 363.246061 
L 263.211969 367.88462 
L 270.859296 370.453254 
L 278.506624 372.76657 
L 286.153952 374.772662 
L 291.25217 375.903298 
L 296.350388 376.829955 
L 301.448607 377.507478 
L 306.546825 377.88091 
L 311.645043 377.88888 
L 314.194153 377.736345 
L 316.743262 377.469797 
L 319.292371 377.083013 
L 321.84148 376.571052 
L 324.390589 375.930641 
L 326.939698 375.160572 
L 329.488808 374.262051 
L 334.587026 372.09826 
L 339.685244 369.506164 
L 344.783463 366.599215 
L 357.529009 358.990802 
L 362.627227 356.240946 
L 367.725445 353.840285 
L 372.823664 351.822704 
L 377.921882 350.140558 
L 393.216537 345.550843 
L 395.765646 344.568745 
L 398.314756 343.448468 
L 400.863865 342.164314 
L 403.412974 340.69306 
L 405.962083 339.014187 
L 408.511192 337.109873 
L 411.060302 334.964763 
L 413.609411 332.565524 
L 416.15852 329.900243 
L 418.707629 326.957724 
L 421.256738 323.726733 
L 423.805847 320.195294 
L 426.354957 316.350086 
L 428.904066 312.176028 
L 431.453175 307.656127 
L 434.002284 302.771607 
L 436.551393 297.502397 
L 439.100503 291.827957 
L 441.649612 285.728455 
L 444.198721 279.186256 
L 446.74783 272.187679 
L 449.296939 264.724939 
L 451.846048 256.798206 
L 454.395158 248.417667 
L 459.493376 230.397592 
L 464.591594 211.015182 
L 477.33714 161.20819 
L 479.886249 152.020738 
L 482.435359 143.443747 
L 484.984468 135.638506 
L 487.533577 128.764028 
L 490.082686 122.972326 
L 492.631795 118.403561 
L 495.180905 115.181264 
L 497.730014 113.407836 
L 500.279123 113.160532 
L 502.828232 114.488139 
L 505.377341 117.408523 
L 507.92645 121.907188 
L 510.47556 127.936961 
L 513.024669 135.418837 
L 515.573778 144.243985 
L 518.122887 154.276836 
L 520.671996 165.359126 
L 523.221106 177.31472 
L 528.319324 203.084509 
L 538.515761 256.662471 
L 543.613979 281.713268 
L 546.163088 293.335062 
L 548.712197 304.234229 
L 551.261307 314.349716 
L 553.810416 323.642948 
L 556.359525 332.096316 
L 558.908634 339.711129 
L 561.457743 346.505154 
L 564.006852 352.509919 
L 566.555962 357.76792 
L 569.105071 362.329852 
L 571.65418 366.251983 
L 574.203289 369.59376 
L 576.752398 372.415691 
L 579.301508 374.777568 
L 581.850617 376.737017 
L 584.399726 378.348396 
L 586.948835 379.662004 
L 589.497944 380.723587 
L 592.047053 381.574087 
L 594.596163 382.249606 
L 597.145272 382.781532 
L 602.24349 383.518197 
L 607.341709 383.952458 
L 614.989036 384.278269 
L 622.636364 384.408317 
L 622.636364 384.408317 
" clip-path="url(#p17ba9becd1)" style="fill: none; stroke: #ff7f0e; stroke-width: 1.5; stroke-linecap: square"/>
   </g>
   <g id="line2d_19">
    <path d="M 115.363636 384.426236 
L 127.427359 384.248151 
L 134.665593 383.979595 
L 141.903826 383.481224 
L 146.729315 382.962058 
L 151.554804 382.247085 
L 156.380293 381.297254 
L 161.205782 380.078608 
L 166.031271 378.566582 
L 170.85676 376.749813 
L 175.682249 374.633046 
L 180.507738 372.239092 
L 185.333227 369.610125 
L 192.571461 365.368485 
L 202.222439 359.648174 
L 207.047928 357.028494 
L 211.873417 354.748958 
L 214.286162 353.778604 
L 216.698906 352.941663 
L 219.111651 352.251488 
L 221.524395 351.719277 
L 223.93714 351.35368 
L 226.349884 351.16049 
L 228.762629 351.142435 
L 231.175373 351.299096 
L 233.588118 351.626946 
L 236.000862 352.11951 
L 238.413607 352.767631 
L 240.826351 353.55982 
L 245.65184 355.521301 
L 250.47733 357.881591 
L 255.302819 360.508033 
L 269.779286 368.696428 
L 274.604775 371.140104 
L 279.430264 373.26811 
L 284.255753 374.989168 
L 286.668497 375.671215 
L 289.081242 376.221995 
L 291.493986 376.633477 
L 293.906731 376.898755 
L 296.319475 377.012202 
L 298.73222 376.969622 
L 301.144964 376.768394 
L 303.557709 376.407597 
L 305.970453 375.888105 
L 308.383198 375.212659 
L 310.795943 374.385898 
L 313.208687 373.414347 
L 315.621432 372.306368 
L 320.446921 369.723111 
L 325.27241 366.734865 
L 330.097899 363.459017 
L 346.98711 351.543481 
L 351.812599 348.461582 
L 356.638088 345.648621 
L 361.463577 343.110327 
L 366.289067 340.804408 
L 380.765534 334.161884 
L 385.591023 331.497077 
L 388.003767 329.9775 
L 390.416512 328.303913 
L 392.829256 326.456027 
L 395.242001 324.415103 
L 397.654745 322.163996 
L 400.06749 319.687036 
L 402.480234 316.969782 
L 404.892979 313.998658 
L 407.305723 310.76054 
L 409.718468 307.242318 
L 412.131212 303.43052 
L 414.543957 299.311036 
L 416.956701 294.86902 
L 419.369446 290.089017 
L 421.78219 284.955335 
L 424.194935 279.452715 
L 426.60768 273.567267 
L 429.020424 267.287671 
L 431.433169 260.606594 
L 433.845913 253.522267 
L 436.258658 246.040142 
L 441.084147 229.950237 
L 445.909636 212.584631 
L 460.386103 158.429205 
L 462.798847 150.208451 
L 465.211592 142.564729 
L 467.624336 135.639084 
L 470.037081 129.571004 
L 472.449825 124.49462 
L 474.86257 120.53476 
L 477.275314 117.802974 
L 479.688059 116.393694 
L 482.100803 116.380678 
L 484.513548 117.813905 
L 486.926293 120.717076 
L 489.339037 125.085864 
L 491.751782 130.887046 
L 494.164526 138.058578 
L 496.577271 146.510686 
L 498.990015 156.127945 
L 501.40276 166.77229 
L 503.815504 178.286865 
L 508.640993 203.232859 
L 520.704716 268.362127 
L 523.11746 280.540425 
L 525.530205 292.128971 
L 527.942949 303.036853 
L 530.355694 313.19562 
L 532.768438 322.55899 
L 535.181183 331.101801 
L 537.593927 338.818319 
L 540.006672 345.720058 
L 542.419417 351.833257 
L 544.832161 357.196169 
L 547.244906 361.856303 
L 549.65765 365.867735 
L 552.070395 369.288613 
L 554.483139 372.178908 
L 556.895884 374.598481 
L 559.308628 376.605494 
L 561.721373 378.255159 
L 564.134117 379.598826 
L 566.546862 380.683383 
L 568.959606 381.550922 
L 571.372351 382.23864 
L 573.785095 382.778927 
L 578.610584 383.524184 
L 583.436073 383.960542 
L 590.674307 384.284628 
L 595.499796 384.382453 
L 595.499796 384.382453 
" clip-path="url(#p17ba9becd1)" style="fill: none; stroke: #2ca02c; stroke-width: 1.5; stroke-linecap: square"/>
   </g>
   <g id="line2d_20">
    <path d="M 120.408378 384.423357 
L 132.777449 384.235329 
L 140.198892 383.956953 
L 147.620335 383.454867 
L 152.567964 382.948481 
L 157.515592 382.274352 
L 162.463221 381.414168 
L 167.41085 380.360591 
L 172.358478 379.118943 
L 177.306107 377.705914 
L 184.72755 375.316901 
L 192.148993 372.669153 
L 199.570436 369.79564 
L 206.991879 366.687421 
L 214.413322 363.349814 
L 229.256208 356.555133 
L 234.203836 354.591299 
L 239.151465 352.975077 
L 241.625279 352.331619 
L 244.099094 351.812776 
L 246.572908 351.42678 
L 249.046722 351.179213 
L 251.520537 351.072896 
L 253.994351 351.107914 
L 256.468165 351.281757 
L 258.94198 351.589583 
L 261.415794 352.024544 
L 266.363423 353.240773 
L 271.311051 354.850226 
L 276.25868 356.764124 
L 283.680123 360.009717 
L 298.523009 366.748374 
L 303.470638 368.718718 
L 308.418266 370.37366 
L 310.892081 371.047706 
L 313.365895 371.601186 
L 315.839709 372.021256 
L 318.313523 372.296216 
L 320.787338 372.41591 
L 323.261152 372.372115 
L 325.734966 372.158907 
L 328.208781 371.772993 
L 330.682595 371.213972 
L 333.156409 370.484522 
L 335.630224 369.590495 
L 338.104038 368.540901 
L 340.577852 367.347784 
L 345.525481 364.592746 
L 350.47311 361.470431 
L 367.78981 350.035637 
L 372.737439 347.189862 
L 377.685067 344.656733 
L 382.632696 342.411929 
L 390.054139 339.385681 
L 397.475582 336.293798 
L 402.423211 333.83921 
L 404.897025 332.398912 
L 407.370839 330.770814 
L 409.844654 328.919412 
L 412.318468 326.808816 
L 414.792282 324.403247 
L 417.266096 321.667612 
L 419.739911 318.568123 
L 422.213725 315.072992 
L 424.687539 311.153185 
L 427.161354 306.783223 
L 429.635168 301.942041 
L 432.108982 296.61387 
L 434.582797 290.789135 
L 437.056611 284.465344 
L 439.530425 277.647932 
L 442.00424 270.351041 
L 444.478054 262.598191 
L 449.425683 245.868602 
L 454.373311 227.850512 
L 469.216197 172.3277 
L 471.690012 163.908257 
L 474.163826 156.025104 
L 476.63764 148.792143 
L 479.111455 142.320274 
L 481.585269 136.715257 
L 484.059083 132.075549 
L 486.532898 128.490152 
L 489.006712 126.0365 
L 491.480526 124.778439 
L 493.954341 124.764349 
L 496.428155 126.025467 
L 498.901969 128.574476 
L 501.375784 132.404433 
L 503.849598 137.488114 
L 506.323412 143.77783 
L 508.797227 151.205787 
L 511.271041 159.685013 
L 513.744855 169.110886 
L 516.218669 179.363228 
L 518.692484 190.30894 
L 523.640112 213.702411 
L 536.009184 273.998682 
L 538.482998 285.271022 
L 540.956813 296.020926 
L 543.430627 306.168831 
L 545.904441 315.653217 
L 548.378256 324.430686 
L 550.85207 332.47542 
L 553.325884 339.778106 
L 555.799699 346.34441 
L 558.273513 352.193118 
L 560.747327 357.354041 
L 563.221142 361.865813 
L 565.694956 365.773678 
L 568.16877 369.12736 
L 570.642585 371.979091 
L 573.116399 374.381859 
L 575.590213 376.387908 
L 578.064028 378.04752 
L 580.537842 379.408064 
L 583.011656 380.513325 
L 585.485471 381.403073 
L 587.959285 382.112848 
L 590.433099 382.673932 
L 595.380728 383.454649 
L 600.328357 383.917162 
L 607.749799 384.265265 
L 612.697428 384.371806 
L 612.697428 384.371806 
" clip-path="url(#p17ba9becd1)" style="fill: none; stroke: #d62728; stroke-width: 1.5; stroke-linecap: square"/>
   </g>
   <g id="line2d_21">
    <path d="M 115.363636 384.461293 
L 132.528804 384.326896 
L 142.337471 384.064691 
L 149.693972 383.678451 
L 157.050472 383.042588 
L 161.954806 382.438509 
L 166.85914 381.663421 
L 171.763473 380.698356 
L 176.667807 379.529095 
L 181.572141 378.14622 
L 186.476474 376.54458 
L 191.380808 374.723064 
L 196.285142 372.685968 
L 201.189475 370.446993 
L 208.545976 366.781485 
L 220.80681 360.453818 
L 225.711144 358.176142 
L 230.615477 356.24401 
L 233.067644 355.444923 
L 235.519811 354.772473 
L 237.971978 354.23417 
L 240.424145 353.833849 
L 242.876311 353.571508 
L 245.328478 353.443377 
L 247.780645 353.442228 
L 252.684979 353.777936 
L 257.589312 354.475283 
L 262.493646 355.422114 
L 269.850147 357.111721 
L 277.206647 358.993353 
L 284.563148 361.093742 
L 289.467481 362.674033 
L 294.371815 364.428935 
L 301.728315 367.360341 
L 313.98915 372.402946 
L 318.893483 374.0933 
L 321.34565 374.789736 
L 323.797817 375.360833 
L 326.249984 375.78828 
L 328.70215 376.055389 
L 331.154317 376.147511 
L 333.606484 376.05241 
L 336.058651 375.760589 
L 338.510818 375.265571 
L 340.962985 374.564119 
L 343.415151 373.656401 
L 345.867318 372.546088 
L 348.319485 371.240367 
L 350.771652 369.749874 
L 353.223819 368.088515 
L 358.128152 364.323398 
L 363.032486 360.108363 
L 370.388987 353.351779 
L 377.745487 346.611895 
L 382.649821 342.352472 
L 387.554154 338.348768 
L 394.910655 332.737072 
L 402.267155 327.166419 
L 407.171489 323.071581 
L 409.623656 320.790689 
L 412.075823 318.293845 
L 414.52799 315.533307 
L 416.980156 312.46039 
L 419.432323 309.026517 
L 421.88449 305.184394 
L 424.336657 300.889318 
L 426.788824 296.100592 
L 429.24099 290.78303 
L 431.693157 284.908502 
L 434.145324 278.457483 
L 436.597491 271.420544 
L 439.049658 263.799735 
L 441.501825 255.609798 
L 443.953991 246.879141 
L 446.406158 237.650553 
L 451.310492 217.944633 
L 458.666992 186.562664 
L 463.571326 165.740289 
L 466.023493 155.759999 
L 468.47566 146.261723 
L 470.927827 137.39541 
L 473.379993 129.310656 
L 475.83216 122.153554 
L 478.284327 116.063328 
L 480.736494 111.168849 
L 483.188661 107.585088 
L 485.640828 105.409623 
L 488.092994 104.719319 
L 490.545161 105.567339 
L 492.997328 107.980621 
L 495.449495 111.957995 
L 497.901662 117.469081 
L 500.353829 124.454074 
L 502.805995 132.82451 
L 505.258162 142.465044 
L 507.710329 153.236202 
L 510.162496 164.978037 
L 512.614663 177.514551 
L 517.518996 204.217657 
L 527.327664 258.845942 
L 532.231997 284.085093 
L 534.684164 295.73402 
L 537.136331 306.622332 
L 539.588498 316.693987 
L 542.040665 325.915345 
L 544.492831 334.273619 
L 546.944998 341.77476 
L 549.397165 348.440956 
L 551.849332 354.30788 
L 554.301499 359.421848 
L 556.753666 363.837012 
L 559.205832 367.612706 
L 561.657999 370.811023 
L 564.110166 373.494696 
L 566.562333 375.72531 
L 569.0145 377.561872 
L 571.466667 379.059722 
L 573.918833 380.269775 
L 576.371 381.23806 
L 578.823167 382.00551 
L 581.275334 382.607971 
L 586.179668 383.437049 
L 591.084001 383.919751 
L 598.440502 384.274281 
L 603.344835 384.379391 
L 603.344835 384.379391 
" clip-path="url(#p17ba9becd1)" style="fill: none; stroke: #9467bd; stroke-width: 1.5; stroke-linecap: square"/>
   </g>
   <g id="line2d_22">
    <path d="M 115.363636 384.439233 
L 130.087351 384.253592 
L 139.903161 383.881895 
L 147.265019 383.340752 
L 152.172924 382.794983 
L 157.080829 382.059798 
L 161.988734 381.100855 
L 166.896639 379.88891 
L 171.804543 378.403976 
L 176.712448 376.639471 
L 181.620353 374.606008 
L 186.528258 372.334505 
L 193.890116 368.603894 
L 206.159878 362.264675 
L 211.067783 360.012926 
L 215.975688 358.094635 
L 220.883593 356.597894 
L 223.337546 356.024822 
L 225.791498 355.571895 
L 228.245451 355.237554 
L 233.153356 354.902684 
L 238.061261 354.949324 
L 242.969165 355.275687 
L 250.331023 356.052707 
L 267.50869 358.181174 
L 272.416595 358.943771 
L 277.3245 359.903049 
L 282.232405 361.126329 
L 287.14031 362.646007 
L 292.048215 364.44584 
L 299.410073 367.508538 
L 306.77193 370.627737 
L 311.679835 372.477806 
L 316.58774 373.954217 
L 319.041692 374.504229 
L 321.495645 374.905319 
L 323.949597 375.14162 
L 326.40355 375.198846 
L 328.857502 375.064475 
L 331.311455 374.72794 
L 333.765407 374.180854 
L 336.21936 373.417269 
L 338.673312 372.433959 
L 341.127265 371.230716 
L 343.581217 369.810627 
L 346.03517 368.180312 
L 348.489122 366.350081 
L 350.943075 364.333976 
L 355.85098 359.818237 
L 360.758885 354.812201 
L 377.936552 336.520976 
L 382.844457 331.796649 
L 387.752362 327.410985 
L 402.476077 314.849914 
L 404.930029 312.489607 
L 407.383982 309.932775 
L 409.837934 307.126928 
L 412.291887 304.017629 
L 414.745839 300.54931 
L 417.199792 296.666246 
L 419.653744 292.313746 
L 422.107697 287.43961 
L 424.561649 281.995881 
L 427.015602 275.940904 
L 429.469554 269.24168 
L 431.923507 261.876448 
L 434.377459 253.837394 
L 436.831412 245.133382 
L 439.285364 235.792508 
L 441.739317 225.864311 
L 446.647222 204.560642 
L 458.916984 148.970485 
L 461.370936 138.848827 
L 463.824889 129.527175 
L 466.278841 121.20707 
L 468.732794 114.078831 
L 471.186746 108.314942 
L 473.640699 104.063899 
L 476.094651 101.444828 
L 478.548604 100.543127 
L 481.002556 101.407375 
L 483.456509 104.04762 
L 485.910461 108.435138 
L 488.364414 114.503626 
L 490.818366 122.15176 
L 493.272319 131.246929 
L 495.726271 141.629968 
L 498.180224 153.120611 
L 500.634176 165.523412 
L 505.542081 192.244376 
L 515.357891 247.734854 
L 520.265796 273.721767 
L 522.719749 285.811949 
L 525.173701 297.181831 
L 527.627653 307.770874 
L 530.081606 317.539909 
L 532.535558 326.469598 
L 534.989511 334.558491 
L 537.443463 341.82079 
L 539.897416 348.283928 
L 542.351368 353.986085 
L 544.805321 358.973722 
L 547.259273 363.299229 
L 549.713226 367.018743 
L 552.167178 370.190196 
L 554.621131 372.871611 
L 557.075083 375.11969 
L 559.529036 376.988674 
L 561.982988 378.529482 
L 564.436941 379.789103 
L 566.890893 380.810226 
L 569.344846 381.631068 
L 571.798798 382.285372 
L 576.706703 383.207865 
L 581.614608 383.765562 
L 586.522513 384.091443 
L 593.884371 384.333414 
L 603.70018 384.444456 
L 603.70018 384.444456 
" clip-path="url(#p17ba9becd1)" style="fill: none; stroke: #8c564b; stroke-width: 1.5; stroke-linecap: square"/>
   </g>
   <g id="line2d_23">
    <path d="M 140.044386 384.425722 
L 151.047356 384.238263 
L 157.649138 383.951809 
L 164.250921 383.41833 
L 168.652109 382.863602 
L 173.053297 382.103589 
L 177.454485 381.102639 
L 181.855673 379.834438 
L 186.256862 378.287354 
L 190.65805 376.468673 
L 195.059238 374.406867 
L 201.66102 370.97173 
L 214.864585 363.815305 
L 219.265773 361.65784 
L 223.666961 359.737488 
L 228.06815 358.098081 
L 232.469338 356.754329 
L 236.870526 355.690452 
L 241.271714 354.864504 
L 247.873496 353.943669 
L 256.675873 353.031163 
L 265.478249 352.363451 
L 269.879438 352.206608 
L 274.280626 352.26032 
L 278.681814 352.600972 
L 283.083002 353.291396 
L 287.48419 354.366477 
L 291.885379 355.822659 
L 296.286567 357.612674 
L 300.687755 359.646024 
L 311.690725 364.894092 
L 316.091914 366.634299 
L 318.292508 367.346411 
L 320.493102 367.929233 
L 322.693696 368.367105 
L 324.89429 368.646603 
L 327.094884 368.756794 
L 329.295478 368.689415 
L 331.496072 368.438999 
L 333.696666 368.002924 
L 335.897261 367.381407 
L 338.097855 366.577449 
L 340.298449 365.596717 
L 342.499043 364.447389 
L 344.699637 363.139949 
L 349.100825 360.102697 
L 353.502013 356.604612 
L 357.903202 352.782247 
L 368.906172 342.691592 
L 375.507954 336.770358 
L 390.912113 323.268043 
L 395.313301 318.868158 
L 397.513895 316.423708 
L 399.71449 313.760964 
L 401.915084 310.834355 
L 404.115678 307.595541 
L 406.316272 303.99402 
L 408.516866 299.977908 
L 410.71746 295.494954 
L 412.918054 290.493798 
L 415.118648 284.925512 
L 417.319242 278.745412 
L 419.519836 271.915145 
L 421.720431 264.404995 
L 423.921025 256.196359 
L 426.121619 247.284295 
L 428.322213 237.680027 
L 430.522807 227.413272 
L 434.923995 205.115181 
L 439.325183 181.060454 
L 448.12756 132.128318 
L 450.328154 120.774088 
L 452.528748 110.175772 
L 454.729342 100.539058 
L 456.929936 92.06214 
L 459.13053 84.929509 
L 461.331124 79.305942 
L 463.531718 75.330955 
L 465.732313 73.113965 
L 467.932907 72.730396 
L 470.133501 74.218904 
L 472.334095 77.579854 
L 474.534689 82.775119 
L 476.735283 89.729209 
L 478.935877 98.331666 
L 481.136471 108.440629 
L 483.337065 119.887373 
L 485.53766 132.481649 
L 487.738254 146.017553 
L 492.139442 175.049374 
L 500.941818 235.034715 
L 505.343006 263.054011 
L 507.543601 276.083111 
L 509.744195 288.335685 
L 511.944789 299.749686 
L 514.145383 310.285881 
L 516.345977 319.926091 
L 518.546571 328.670974 
L 520.747165 336.5375 
L 522.947759 343.556257 
L 525.148353 349.768712 
L 527.348947 355.224552 
L 529.549542 359.979184 
L 531.750136 364.091462 
L 533.95073 367.621703 
L 536.151324 370.629997 
L 538.351918 373.174835 
L 540.552512 375.31204 
L 542.753106 377.093971 
L 544.9537 378.569001 
L 547.154294 379.781195 
L 549.354888 380.770192 
L 551.555483 381.571225 
L 553.756077 382.215266 
L 558.157265 383.136377 
L 562.558453 383.706054 
L 566.959641 384.047613 
L 573.561424 384.309887 
L 577.962612 384.392351 
L 577.962612 384.392351 
" clip-path="url(#p17ba9becd1)" style="fill: none; stroke: #e377c2; stroke-width: 1.5; stroke-linecap: square"/>
   </g>
   <g id="line2d_24">
    <path d="M 144.267625 384.437087 
L 154.816957 384.271902 
L 161.146556 384.000898 
L 167.476156 383.465641 
L 171.695888 382.882597 
L 175.915621 382.053947 
L 180.135354 380.924714 
L 184.355087 379.449639 
L 188.57482 377.603367 
L 192.794552 375.390263 
L 197.014285 372.851552 
L 203.343884 368.618609 
L 211.78335 362.849904 
L 216.003083 360.241291 
L 220.222816 357.996554 
L 222.332682 357.042908 
L 224.442548 356.21378 
L 226.552415 355.514511 
L 228.662281 354.947354 
L 230.772148 354.511468 
L 232.882014 354.203028 
L 234.991881 354.015426 
L 239.211613 353.964246 
L 243.431346 354.262629 
L 247.651079 354.797272 
L 268.749743 357.920611 
L 277.189209 359.122607 
L 281.408941 359.91753 
L 285.628674 360.914798 
L 289.848407 362.130536 
L 294.06814 363.540011 
L 308.837205 368.776074 
L 313.056937 369.851344 
L 315.166804 370.234357 
L 317.27667 370.49304 
L 319.386537 370.612757 
L 321.496403 370.580219 
L 323.606269 370.383712 
L 325.716136 370.013324 
L 327.826002 369.461146 
L 329.935869 368.721467 
L 332.045735 367.790939 
L 334.155602 366.66871 
L 336.265468 365.35652 
L 338.375334 363.858753 
L 340.485201 362.182417 
L 342.595067 360.337067 
L 346.8148 356.189275 
L 351.034533 351.534883 
L 355.254266 346.516146 
L 363.693731 335.97465 
L 372.133197 325.53977 
L 380.572662 315.535397 
L 386.902262 307.985092 
L 391.121994 302.610066 
L 395.341727 296.666661 
L 397.451594 293.38578 
L 399.56146 289.84187 
L 401.671326 285.989562 
L 403.781193 281.782195 
L 405.891059 277.172763 
L 408.000926 272.115069 
L 410.110792 266.565125 
L 412.220658 260.482761 
L 414.330525 253.833454 
L 416.440391 246.590329 
L 418.550258 238.736283 
L 420.660124 230.266171 
L 422.76999 221.188964 
L 424.879857 211.529777 
L 429.09959 190.657113 
L 433.319322 168.230704 
L 441.758788 122.658648 
L 443.868655 112.067011 
L 445.978521 102.171257 
L 448.088387 93.167497 
L 450.198254 85.248299 
L 452.30812 78.596866 
L 454.417987 73.381097 
L 456.527853 69.747816 
L 458.637719 67.817404 
L 460.747586 67.679109 
L 462.857452 69.387273 
L 464.967319 72.958679 
L 467.077185 78.371186 
L 469.187051 85.563745 
L 471.296918 94.437828 
L 473.406784 104.860227 
L 475.516651 116.667103 
L 477.626517 129.669116 
L 479.736383 143.657377 
L 483.956116 173.69869 
L 492.395582 235.796019 
L 496.615315 264.711402 
L 498.725181 278.110855 
L 500.835047 290.673022 
L 502.944914 302.332229 
L 505.05478 313.048083 
L 507.164647 322.803536 
L 509.274513 331.602403 
L 511.384379 339.466493 
L 513.494246 346.432531 
L 515.604112 352.549026 
L 517.713979 357.873224 
L 519.823845 362.468251 
L 521.933711 366.400527 
L 524.043578 369.737519 
L 526.153444 372.545847 
L 528.263311 374.889764 
L 530.373177 376.829991 
L 532.483043 378.422884 
L 534.59291 379.719909 
L 536.702776 380.767363 
L 538.812643 381.606322 
L 540.922509 382.272752 
L 543.032376 382.797754 
L 547.252108 383.525652 
L 551.471841 383.955659 
L 557.80144 384.279197 
L 564.13104 384.408709 
L 564.13104 384.408709 
" clip-path="url(#p17ba9becd1)" style="fill: none; stroke: #7f7f7f; stroke-width: 1.5; stroke-linecap: square"/>
   </g>
   <g id="patch_3">
    <path d="M 90 384.48 
L 90 51.84 
" style="fill: none; stroke: #000000; stroke-width: 0.8; stroke-linejoin: miter; stroke-linecap: square"/>
   </g>
   <g id="patch_4">
    <path d="M 648 384.48 
L 648 51.84 
" style="fill: none; stroke: #000000; stroke-width: 0.8; stroke-linejoin: miter; stroke-linecap: square"/>
   </g>
   <g id="patch_5">
    <path d="M 90 384.48 
L 648 384.48 
" style="fill: none; stroke: #000000; stroke-width: 0.8; stroke-linejoin: miter; stroke-linecap: square"/>
   </g>
   <g id="patch_6">
    <path d="M 90 51.84 
L 648 51.84 
" style="fill: none; stroke: #000000; stroke-width: 0.8; stroke-linejoin: miter; stroke-linecap: square"/>
   </g>
   <g id="text_19">
    <!-- Distribution of Nj by Year -->
    <g transform="translate(294.365625 45.84) scale(0.12 -0.12)">
     <defs>
      <path id="DejaVuSans-72" d="M 2631 2963 
Q 2534 3019 2420 3045 
Q 2306 3072 2169 3072 
Q 1681 3072 1420 2755 
Q 1159 2438 1159 1844 
L 1159 0 
L 581 0 
L 581 3500 
L 1159 3500 
L 1159 2956 
Q 1341 3275 1631 3429 
Q 1922 3584 2338 3584 
Q 2397 3584 2469 3576 
Q 2541 3569 2628 3553 
L 2631 2963 
z
" transform="scale(0.015625)"/>
      <path id="DejaVuSans-62" d="M 3116 1747 
Q 3116 2381 2855 2742 
Q 2594 3103 2138 3103 
Q 1681 3103 1420 2742 
Q 1159 2381 1159 1747 
Q 1159 1113 1420 752 
Q 1681 391 2138 391 
Q 2594 391 2855 752 
Q 3116 1113 3116 1747 
z
M 1159 2969 
Q 1341 3281 1617 3432 
Q 1894 3584 2278 3584 
Q 2916 3584 3314 3078 
Q 3713 2572 3713 1747 
Q 3713 922 3314 415 
Q 2916 -91 2278 -91 
Q 1894 -91 1617 61 
Q 1341 213 1159 525 
L 1159 0 
L 581 0 
L 581 4863 
L 1159 4863 
L 1159 2969 
z
" transform="scale(0.015625)"/>
      <path id="DejaVuSans-75" d="M 544 1381 
L 544 3500 
L 1119 3500 
L 1119 1403 
Q 1119 906 1312 657 
Q 1506 409 1894 409 
Q 2359 409 2629 706 
Q 2900 1003 2900 1516 
L 2900 3500 
L 3475 3500 
L 3475 0 
L 2900 0 
L 2900 538 
Q 2691 219 2414 64 
Q 2138 -91 1772 -91 
Q 1169 -91 856 284 
Q 544 659 544 1381 
z
M 1991 3584 
L 1991 3584 
z
" transform="scale(0.015625)"/>
      <path id="DejaVuSans-6f" d="M 1959 3097 
Q 1497 3097 1228 2736 
Q 959 2375 959 1747 
Q 959 1119 1226 758 
Q 1494 397 1959 397 
Q 2419 397 2687 759 
Q 2956 1122 2956 1747 
Q 2956 2369 2687 2733 
Q 2419 3097 1959 3097 
z
M 1959 3584 
Q 2709 3584 3137 3096 
Q 3566 2609 3566 1747 
Q 3566 888 3137 398 
Q 2709 -91 1959 -91 
Q 1206 -91 779 398 
Q 353 888 353 1747 
Q 353 2609 779 3096 
Q 1206 3584 1959 3584 
z
" transform="scale(0.015625)"/>
      <path id="DejaVuSans-20" transform="scale(0.015625)"/>
      <path id="DejaVuSans-66" d="M 2375 4863 
L 2375 4384 
L 1825 4384 
Q 1516 4384 1395 4259 
Q 1275 4134 1275 3809 
L 1275 3500 
L 2222 3500 
L 2222 3053 
L 1275 3053 
L 1275 0 
L 697 0 
L 697 3053 
L 147 3053 
L 147 3500 
L 697 3500 
L 697 3744 
Q 697 4328 969 4595 
Q 1241 4863 1831 4863 
L 2375 4863 
z
" transform="scale(0.015625)"/>
      <path id="DejaVuSans-59" d="M -13 4666 
L 666 4666 
L 1959 2747 
L 3244 4666 
L 3922 4666 
L 2272 2222 
L 2272 0 
L 1638 0 
L 1638 2222 
L -13 4666 
z
" transform="scale(0.015625)"/>
      <path id="DejaVuSans-61" d="M 2194 1759 
Q 1497 1759 1228 1600 
Q 959 1441 959 1056 
Q 959 750 1161 570 
Q 1363 391 1709 391 
Q 2188 391 2477 730 
Q 2766 1069 2766 1631 
L 2766 1759 
L 2194 1759 
z
M 3341 1997 
L 3341 0 
L 2766 0 
L 2766 531 
Q 2569 213 2275 61 
Q 1981 -91 1556 -91 
Q 1019 -91 701 211 
Q 384 513 384 1019 
Q 384 1609 779 1909 
Q 1175 2209 1959 2209 
L 2766 2209 
L 2766 2266 
Q 2766 2663 2505 2880 
Q 2244 3097 1772 3097 
Q 1472 3097 1187 3025 
Q 903 2953 641 2809 
L 641 3341 
Q 956 3463 1253 3523 
Q 1550 3584 1831 3584 
Q 2591 3584 2966 3190 
Q 3341 2797 3341 1997 
z
" transform="scale(0.015625)"/>
     </defs>
     <use xlink:href="#DejaVuSans-44"/>
     <use xlink:href="#DejaVuSans-69" x="77.001953"/>
     <use xlink:href="#DejaVuSans-73" x="104.785156"/>
     <use xlink:href="#DejaVuSans-74" x="156.884766"/>
     <use xlink:href="#DejaVuSans-72" x="196.09375"/>
     <use xlink:href="#DejaVuSans-69" x="237.207031"/>
     <use xlink:href="#DejaVuSans-62" x="264.990234"/>
     <use xlink:href="#DejaVuSans-75" x="328.466797"/>
     <use xlink:href="#DejaVuSans-74" x="391.845703"/>
     <use xlink:href="#DejaVuSans-69" x="431.054688"/>
     <use xlink:href="#DejaVuSans-6f" x="458.837891"/>
     <use xlink:href="#DejaVuSans-6e" x="520.019531"/>
     <use xlink:href="#DejaVuSans-20" x="583.398438"/>
     <use xlink:href="#DejaVuSans-6f" x="615.185547"/>
     <use xlink:href="#DejaVuSans-66" x="676.367188"/>
     <use xlink:href="#DejaVuSans-20" x="711.572266"/>
     <use xlink:href="#DejaVuSans-4e" x="743.359375"/>
     <use xlink:href="#DejaVuSans-6a" x="818.164062"/>
     <use xlink:href="#DejaVuSans-20" x="845.947266"/>
     <use xlink:href="#DejaVuSans-62" x="877.734375"/>
     <use xlink:href="#DejaVuSans-79" x="941.210938"/>
     <use xlink:href="#DejaVuSans-20" x="1000.390625"/>
     <use xlink:href="#DejaVuSans-59" x="1032.177734"/>
     <use xlink:href="#DejaVuSans-65" x="1080.011719"/>
     <use xlink:href="#DejaVuSans-61" x="1141.535156"/>
     <use xlink:href="#DejaVuSans-72" x="1202.814453"/>
    </g>
   </g>
   <g id="legend_1">
    <g id="patch_7">
     <path d="M 559.196875 177.265 
L 641 177.265 
Q 643 177.265 643 175.265 
L 643 58.84 
Q 643 56.84 641 56.84 
L 559.196875 56.84 
Q 557.196875 56.84 557.196875 58.84 
L 557.196875 175.265 
Q 557.196875 177.265 559.196875 177.265 
z
" style="fill: #ffffff; opacity: 0.8; stroke: #cccccc; stroke-linejoin: miter"/>
    </g>
    <g id="line2d_25">
     <path d="M 561.196875 64.938437 
L 571.196875 64.938437 
L 581.196875 64.938437 
" style="fill: none; stroke: #1f77b4; stroke-width: 1.5; stroke-linecap: square"/>
    </g>
    <g id="text_20">
     <!-- Year 2022 -->
     <g transform="translate(589.196875 68.438437) scale(0.1 -0.1)">
      <use xlink:href="#DejaVuSans-59"/>
      <use xlink:href="#DejaVuSans-65" x="47.833984"/>
      <use xlink:href="#DejaVuSans-61" x="109.357422"/>
      <use xlink:href="#DejaVuSans-72" x="170.636719"/>
      <use xlink:href="#DejaVuSans-20" x="211.75"/>
      <use xlink:href="#DejaVuSans-32" x="243.537109"/>
      <use xlink:href="#DejaVuSans-30" x="307.160156"/>
      <use xlink:href="#DejaVuSans-32" x="370.783203"/>
      <use xlink:href="#DejaVuSans-32" x="434.40625"/>
     </g>
    </g>
    <g id="line2d_26">
     <path d="M 561.196875 79.616562 
L 571.196875 79.616562 
L 581.196875 79.616562 
" style="fill: none; stroke: #ff7f0e; stroke-width: 1.5; stroke-linecap: square"/>
    </g>
    <g id="text_21">
     <!-- Year 2021 -->
     <g transform="translate(589.196875 83.116562) scale(0.1 -0.1)">
      <use xlink:href="#DejaVuSans-59"/>
      <use xlink:href="#DejaVuSans-65" x="47.833984"/>
      <use xlink:href="#DejaVuSans-61" x="109.357422"/>
      <use xlink:href="#DejaVuSans-72" x="170.636719"/>
      <use xlink:href="#DejaVuSans-20" x="211.75"/>
      <use xlink:href="#DejaVuSans-32" x="243.537109"/>
      <use xlink:href="#DejaVuSans-30" x="307.160156"/>
      <use xlink:href="#DejaVuSans-32" x="370.783203"/>
      <use xlink:href="#DejaVuSans-31" x="434.40625"/>
     </g>
    </g>
    <g id="line2d_27">
     <path d="M 561.196875 94.294687 
L 571.196875 94.294687 
L 581.196875 94.294687 
" style="fill: none; stroke: #2ca02c; stroke-width: 1.5; stroke-linecap: square"/>
    </g>
    <g id="text_22">
     <!-- Year 2020 -->
     <g transform="translate(589.196875 97.794687) scale(0.1 -0.1)">
      <use xlink:href="#DejaVuSans-59"/>
      <use xlink:href="#DejaVuSans-65" x="47.833984"/>
      <use xlink:href="#DejaVuSans-61" x="109.357422"/>
      <use xlink:href="#DejaVuSans-72" x="170.636719"/>
      <use xlink:href="#DejaVuSans-20" x="211.75"/>
      <use xlink:href="#DejaVuSans-32" x="243.537109"/>
      <use xlink:href="#DejaVuSans-30" x="307.160156"/>
      <use xlink:href="#DejaVuSans-32" x="370.783203"/>
      <use xlink:href="#DejaVuSans-30" x="434.40625"/>
     </g>
    </g>
    <g id="line2d_28">
     <path d="M 561.196875 108.972812 
L 571.196875 108.972812 
L 581.196875 108.972812 
" style="fill: none; stroke: #d62728; stroke-width: 1.5; stroke-linecap: square"/>
    </g>
    <g id="text_23">
     <!-- Year 2019 -->
     <g transform="translate(589.196875 112.472812) scale(0.1 -0.1)">
      <defs>
       <path id="DejaVuSans-39" d="M 703 97 
L 703 672 
Q 941 559 1184 500 
Q 1428 441 1663 441 
Q 2288 441 2617 861 
Q 2947 1281 2994 2138 
Q 2813 1869 2534 1725 
Q 2256 1581 1919 1581 
Q 1219 1581 811 2004 
Q 403 2428 403 3163 
Q 403 3881 828 4315 
Q 1253 4750 1959 4750 
Q 2769 4750 3195 4129 
Q 3622 3509 3622 2328 
Q 3622 1225 3098 567 
Q 2575 -91 1691 -91 
Q 1453 -91 1209 -44 
Q 966 3 703 97 
z
M 1959 2075 
Q 2384 2075 2632 2365 
Q 2881 2656 2881 3163 
Q 2881 3666 2632 3958 
Q 2384 4250 1959 4250 
Q 1534 4250 1286 3958 
Q 1038 3666 1038 3163 
Q 1038 2656 1286 2365 
Q 1534 2075 1959 2075 
z
" transform="scale(0.015625)"/>
      </defs>
      <use xlink:href="#DejaVuSans-59"/>
      <use xlink:href="#DejaVuSans-65" x="47.833984"/>
      <use xlink:href="#DejaVuSans-61" x="109.357422"/>
      <use xlink:href="#DejaVuSans-72" x="170.636719"/>
      <use xlink:href="#DejaVuSans-20" x="211.75"/>
      <use xlink:href="#DejaVuSans-32" x="243.537109"/>
      <use xlink:href="#DejaVuSans-30" x="307.160156"/>
      <use xlink:href="#DejaVuSans-31" x="370.783203"/>
      <use xlink:href="#DejaVuSans-39" x="434.40625"/>
     </g>
    </g>
    <g id="line2d_29">
     <path d="M 561.196875 123.650937 
L 571.196875 123.650937 
L 581.196875 123.650937 
" style="fill: none; stroke: #9467bd; stroke-width: 1.5; stroke-linecap: square"/>
    </g>
    <g id="text_24">
     <!-- Year 2018 -->
     <g transform="translate(589.196875 127.150937) scale(0.1 -0.1)">
      <use xlink:href="#DejaVuSans-59"/>
      <use xlink:href="#DejaVuSans-65" x="47.833984"/>
      <use xlink:href="#DejaVuSans-61" x="109.357422"/>
      <use xlink:href="#DejaVuSans-72" x="170.636719"/>
      <use xlink:href="#DejaVuSans-20" x="211.75"/>
      <use xlink:href="#DejaVuSans-32" x="243.537109"/>
      <use xlink:href="#DejaVuSans-30" x="307.160156"/>
      <use xlink:href="#DejaVuSans-31" x="370.783203"/>
      <use xlink:href="#DejaVuSans-38" x="434.40625"/>
     </g>
    </g>
    <g id="line2d_30">
     <path d="M 561.196875 138.329062 
L 571.196875 138.329062 
L 581.196875 138.329062 
" style="fill: none; stroke: #8c564b; stroke-width: 1.5; stroke-linecap: square"/>
    </g>
    <g id="text_25">
     <!-- Year 2017 -->
     <g transform="translate(589.196875 141.829062) scale(0.1 -0.1)">
      <defs>
       <path id="DejaVuSans-37" d="M 525 4666 
L 3525 4666 
L 3525 4397 
L 1831 0 
L 1172 0 
L 2766 4134 
L 525 4134 
L 525 4666 
z
" transform="scale(0.015625)"/>
      </defs>
      <use xlink:href="#DejaVuSans-59"/>
      <use xlink:href="#DejaVuSans-65" x="47.833984"/>
      <use xlink:href="#DejaVuSans-61" x="109.357422"/>
      <use xlink:href="#DejaVuSans-72" x="170.636719"/>
      <use xlink:href="#DejaVuSans-20" x="211.75"/>
      <use xlink:href="#DejaVuSans-32" x="243.537109"/>
      <use xlink:href="#DejaVuSans-30" x="307.160156"/>
      <use xlink:href="#DejaVuSans-31" x="370.783203"/>
      <use xlink:href="#DejaVuSans-37" x="434.40625"/>
     </g>
    </g>
    <g id="line2d_31">
     <path d="M 561.196875 153.007187 
L 571.196875 153.007187 
L 581.196875 153.007187 
" style="fill: none; stroke: #e377c2; stroke-width: 1.5; stroke-linecap: square"/>
    </g>
    <g id="text_26">
     <!-- Year 2016 -->
     <g transform="translate(589.196875 156.507187) scale(0.1 -0.1)">
      <use xlink:href="#DejaVuSans-59"/>
      <use xlink:href="#DejaVuSans-65" x="47.833984"/>
      <use xlink:href="#DejaVuSans-61" x="109.357422"/>
      <use xlink:href="#DejaVuSans-72" x="170.636719"/>
      <use xlink:href="#DejaVuSans-20" x="211.75"/>
      <use xlink:href="#DejaVuSans-32" x="243.537109"/>
      <use xlink:href="#DejaVuSans-30" x="307.160156"/>
      <use xlink:href="#DejaVuSans-31" x="370.783203"/>
      <use xlink:href="#DejaVuSans-36" x="434.40625"/>
     </g>
    </g>
    <g id="line2d_32">
     <path d="M 561.196875 167.685312 
L 571.196875 167.685312 
L 581.196875 167.685312 
" style="fill: none; stroke: #7f7f7f; stroke-width: 1.5; stroke-linecap: square"/>
    </g>
    <g id="text_27">
     <!-- Year 2015 -->
     <g transform="translate(589.196875 171.185312) scale(0.1 -0.1)">
      <use xlink:href="#DejaVuSans-59"/>
      <use xlink:href="#DejaVuSans-65" x="47.833984"/>
      <use xlink:href="#DejaVuSans-61" x="109.357422"/>
      <use xlink:href="#DejaVuSans-72" x="170.636719"/>
      <use xlink:href="#DejaVuSans-20" x="211.75"/>
      <use xlink:href="#DejaVuSans-32" x="243.537109"/>
      <use xlink:href="#DejaVuSans-30" x="307.160156"/>
      <use xlink:href="#DejaVuSans-31" x="370.783203"/>
      <use xlink:href="#DejaVuSans-35" x="434.40625"/>
     </g>
    </g>
   </g>
  </g>
 </g>
 <defs>
  <clipPath id="p17ba9becd1">
   <rect x="90" y="51.84" width="558" height="332.64"/>
  </clipPath>
 </defs>
</svg>
