<?xml version="1.0" encoding="utf-8" standalone="no"?>
<!DOCTYPE svg PUBLIC "-//W3C//DTD SVG 1.1//EN"
  "http://www.w3.org/Graphics/SVG/1.1/DTD/svg11.dtd">
<svg xmlns:xlink="http://www.w3.org/1999/xlink" width="720pt" height="432pt" viewBox="0 0 720 432" xmlns="http://www.w3.org/2000/svg" version="1.1">
 <metadata>
  <rdf:RDF xmlns:dc="http://purl.org/dc/elements/1.1/" xmlns:cc="http://creativecommons.org/ns#" xmlns:rdf="http://www.w3.org/1999/02/22-rdf-syntax-ns#">
   <cc:Work>
    <dc:type rdf:resource="http://purl.org/dc/dcmitype/StillImage"/>
    <dc:date>2025-01-11T21:18:01.755526</dc:date>
    <dc:format>image/svg+xml</dc:format>
    <dc:creator>
     <cc:Agent>
      <dc:title>Matplotlib v3.7.2, https://matplotlib.org/</dc:title>
     </cc:Agent>
    </dc:creator>
   </cc:Work>
  </rdf:RDF>
 </metadata>
 <defs>
  <style type="text/css">*{stroke-linejoin: round; stroke-linecap: butt}</style>
 </defs>
 <g id="figure_1">
  <g id="patch_1">
   <path d="M 0 432 
L 720 432 
L 720 0 
L 0 0 
z
" style="fill: #ffffff"/>
  </g>
  <g id="axes_1">
   <g id="patch_2">
    <path d="M 90 384.48 
L 648 384.48 
L 648 51.84 
L 90 51.84 
z
" style="fill: #ffffff"/>
   </g>
   <g id="matplotlib.axis_1">
    <g id="xtick_1">
     <g id="line2d_1">
      <defs>
       <path id="md45659db4b" d="M 0 0 
L 0 3.5 
" style="stroke: #000000; stroke-width: 0.8"/>
      </defs>
      <g>
       <use xlink:href="#md45659db4b" x="115.363636" y="384.48" style="stroke: #000000; stroke-width: 0.8"/>
      </g>
     </g>
     <g id="text_1">
      <!-- 0.0 -->
      <g transform="translate(107.412074 399.078438) scale(0.1 -0.1)">
       <defs>
        <path id="DejaVuSans-30" d="M 2034 4250 
Q 1547 4250 1301 3770 
Q 1056 3291 1056 2328 
Q 1056 1369 1301 889 
Q 1547 409 2034 409 
Q 2525 409 2770 889 
Q 3016 1369 3016 2328 
Q 3016 3291 2770 3770 
Q 2525 4250 2034 4250 
z
M 2034 4750 
Q 2819 4750 3233 4129 
Q 3647 3509 3647 2328 
Q 3647 1150 3233 529 
Q 2819 -91 2034 -91 
Q 1250 -91 836 529 
Q 422 1150 422 2328 
Q 422 3509 836 4129 
Q 1250 4750 2034 4750 
z
" transform="scale(0.015625)"/>
        <path id="DejaVuSans-2e" d="M 684 794 
L 1344 794 
L 1344 0 
L 684 0 
L 684 794 
z
" transform="scale(0.015625)"/>
       </defs>
       <use xlink:href="#DejaVuSans-30"/>
       <use xlink:href="#DejaVuSans-2e" x="63.623047"/>
       <use xlink:href="#DejaVuSans-30" x="95.410156"/>
      </g>
     </g>
    </g>
    <g id="xtick_2">
     <g id="line2d_2">
      <g>
       <use xlink:href="#md45659db4b" x="183.103686" y="384.48" style="stroke: #000000; stroke-width: 0.8"/>
      </g>
     </g>
     <g id="text_2">
      <!-- 0.1 -->
      <g transform="translate(175.152124 399.078438) scale(0.1 -0.1)">
       <defs>
        <path id="DejaVuSans-31" d="M 794 531 
L 1825 531 
L 1825 4091 
L 703 3866 
L 703 4441 
L 1819 4666 
L 2450 4666 
L 2450 531 
L 3481 531 
L 3481 0 
L 794 0 
L 794 531 
z
" transform="scale(0.015625)"/>
       </defs>
       <use xlink:href="#DejaVuSans-30"/>
       <use xlink:href="#DejaVuSans-2e" x="63.623047"/>
       <use xlink:href="#DejaVuSans-31" x="95.410156"/>
      </g>
     </g>
    </g>
    <g id="xtick_3">
     <g id="line2d_3">
      <g>
       <use xlink:href="#md45659db4b" x="250.843737" y="384.48" style="stroke: #000000; stroke-width: 0.8"/>
      </g>
     </g>
     <g id="text_3">
      <!-- 0.2 -->
      <g transform="translate(242.892174 399.078438) scale(0.1 -0.1)">
       <defs>
        <path id="DejaVuSans-32" d="M 1228 531 
L 3431 531 
L 3431 0 
L 469 0 
L 469 531 
Q 828 903 1448 1529 
Q 2069 2156 2228 2338 
Q 2531 2678 2651 2914 
Q 2772 3150 2772 3378 
Q 2772 3750 2511 3984 
Q 2250 4219 1831 4219 
Q 1534 4219 1204 4116 
Q 875 4013 500 3803 
L 500 4441 
Q 881 4594 1212 4672 
Q 1544 4750 1819 4750 
Q 2544 4750 2975 4387 
Q 3406 4025 3406 3419 
Q 3406 3131 3298 2873 
Q 3191 2616 2906 2266 
Q 2828 2175 2409 1742 
Q 1991 1309 1228 531 
z
" transform="scale(0.015625)"/>
       </defs>
       <use xlink:href="#DejaVuSans-30"/>
       <use xlink:href="#DejaVuSans-2e" x="63.623047"/>
       <use xlink:href="#DejaVuSans-32" x="95.410156"/>
      </g>
     </g>
    </g>
    <g id="xtick_4">
     <g id="line2d_4">
      <g>
       <use xlink:href="#md45659db4b" x="318.583787" y="384.48" style="stroke: #000000; stroke-width: 0.8"/>
      </g>
     </g>
     <g id="text_4">
      <!-- 0.3 -->
      <g transform="translate(310.632224 399.078438) scale(0.1 -0.1)">
       <defs>
        <path id="DejaVuSans-33" d="M 2597 2516 
Q 3050 2419 3304 2112 
Q 3559 1806 3559 1356 
Q 3559 666 3084 287 
Q 2609 -91 1734 -91 
Q 1441 -91 1130 -33 
Q 819 25 488 141 
L 488 750 
Q 750 597 1062 519 
Q 1375 441 1716 441 
Q 2309 441 2620 675 
Q 2931 909 2931 1356 
Q 2931 1769 2642 2001 
Q 2353 2234 1838 2234 
L 1294 2234 
L 1294 2753 
L 1863 2753 
Q 2328 2753 2575 2939 
Q 2822 3125 2822 3475 
Q 2822 3834 2567 4026 
Q 2313 4219 1838 4219 
Q 1578 4219 1281 4162 
Q 984 4106 628 3988 
L 628 4550 
Q 988 4650 1302 4700 
Q 1616 4750 1894 4750 
Q 2613 4750 3031 4423 
Q 3450 4097 3450 3541 
Q 3450 3153 3228 2886 
Q 3006 2619 2597 2516 
z
" transform="scale(0.015625)"/>
       </defs>
       <use xlink:href="#DejaVuSans-30"/>
       <use xlink:href="#DejaVuSans-2e" x="63.623047"/>
       <use xlink:href="#DejaVuSans-33" x="95.410156"/>
      </g>
     </g>
    </g>
    <g id="xtick_5">
     <g id="line2d_5">
      <g>
       <use xlink:href="#md45659db4b" x="386.323837" y="384.48" style="stroke: #000000; stroke-width: 0.8"/>
      </g>
     </g>
     <g id="text_5">
      <!-- 0.4 -->
      <g transform="translate(378.372274 399.078438) scale(0.1 -0.1)">
       <defs>
        <path id="DejaVuSans-34" d="M 2419 4116 
L 825 1625 
L 2419 1625 
L 2419 4116 
z
M 2253 4666 
L 3047 4666 
L 3047 1625 
L 3713 1625 
L 3713 1100 
L 3047 1100 
L 3047 0 
L 2419 0 
L 2419 1100 
L 313 1100 
L 313 1709 
L 2253 4666 
z
" transform="scale(0.015625)"/>
       </defs>
       <use xlink:href="#DejaVuSans-30"/>
       <use xlink:href="#DejaVuSans-2e" x="63.623047"/>
       <use xlink:href="#DejaVuSans-34" x="95.410156"/>
      </g>
     </g>
    </g>
    <g id="xtick_6">
     <g id="line2d_6">
      <g>
       <use xlink:href="#md45659db4b" x="454.063887" y="384.48" style="stroke: #000000; stroke-width: 0.8"/>
      </g>
     </g>
     <g id="text_6">
      <!-- 0.5 -->
      <g transform="translate(446.112324 399.078438) scale(0.1 -0.1)">
       <defs>
        <path id="DejaVuSans-35" d="M 691 4666 
L 3169 4666 
L 3169 4134 
L 1269 4134 
L 1269 2991 
Q 1406 3038 1543 3061 
Q 1681 3084 1819 3084 
Q 2600 3084 3056 2656 
Q 3513 2228 3513 1497 
Q 3513 744 3044 326 
Q 2575 -91 1722 -91 
Q 1428 -91 1123 -41 
Q 819 9 494 109 
L 494 744 
Q 775 591 1075 516 
Q 1375 441 1709 441 
Q 2250 441 2565 725 
Q 2881 1009 2881 1497 
Q 2881 1984 2565 2268 
Q 2250 2553 1709 2553 
Q 1456 2553 1204 2497 
Q 953 2441 691 2322 
L 691 4666 
z
" transform="scale(0.015625)"/>
       </defs>
       <use xlink:href="#DejaVuSans-30"/>
       <use xlink:href="#DejaVuSans-2e" x="63.623047"/>
       <use xlink:href="#DejaVuSans-35" x="95.410156"/>
      </g>
     </g>
    </g>
    <g id="xtick_7">
     <g id="line2d_7">
      <g>
       <use xlink:href="#md45659db4b" x="521.803937" y="384.48" style="stroke: #000000; stroke-width: 0.8"/>
      </g>
     </g>
     <g id="text_7">
      <!-- 0.6 -->
      <g transform="translate(513.852374 399.078438) scale(0.1 -0.1)">
       <defs>
        <path id="DejaVuSans-36" d="M 2113 2584 
Q 1688 2584 1439 2293 
Q 1191 2003 1191 1497 
Q 1191 994 1439 701 
Q 1688 409 2113 409 
Q 2538 409 2786 701 
Q 3034 994 3034 1497 
Q 3034 2003 2786 2293 
Q 2538 2584 2113 2584 
z
M 3366 4563 
L 3366 3988 
Q 3128 4100 2886 4159 
Q 2644 4219 2406 4219 
Q 1781 4219 1451 3797 
Q 1122 3375 1075 2522 
Q 1259 2794 1537 2939 
Q 1816 3084 2150 3084 
Q 2853 3084 3261 2657 
Q 3669 2231 3669 1497 
Q 3669 778 3244 343 
Q 2819 -91 2113 -91 
Q 1303 -91 875 529 
Q 447 1150 447 2328 
Q 447 3434 972 4092 
Q 1497 4750 2381 4750 
Q 2619 4750 2861 4703 
Q 3103 4656 3366 4563 
z
" transform="scale(0.015625)"/>
       </defs>
       <use xlink:href="#DejaVuSans-30"/>
       <use xlink:href="#DejaVuSans-2e" x="63.623047"/>
       <use xlink:href="#DejaVuSans-36" x="95.410156"/>
      </g>
     </g>
    </g>
    <g id="xtick_8">
     <g id="line2d_8">
      <g>
       <use xlink:href="#md45659db4b" x="589.543987" y="384.48" style="stroke: #000000; stroke-width: 0.8"/>
      </g>
     </g>
     <g id="text_8">
      <!-- 0.7 -->
      <g transform="translate(581.592425 399.078438) scale(0.1 -0.1)">
       <defs>
        <path id="DejaVuSans-37" d="M 525 4666 
L 3525 4666 
L 3525 4397 
L 1831 0 
L 1172 0 
L 2766 4134 
L 525 4134 
L 525 4666 
z
" transform="scale(0.015625)"/>
       </defs>
       <use xlink:href="#DejaVuSans-30"/>
       <use xlink:href="#DejaVuSans-2e" x="63.623047"/>
       <use xlink:href="#DejaVuSans-37" x="95.410156"/>
      </g>
     </g>
    </g>
    <g id="text_9">
     <!-- PDI -->
     <g transform="translate(360.660156 412.756563) scale(0.1 -0.1)">
      <defs>
       <path id="DejaVuSans-50" d="M 1259 4147 
L 1259 2394 
L 2053 2394 
Q 2494 2394 2734 2622 
Q 2975 2850 2975 3272 
Q 2975 3691 2734 3919 
Q 2494 4147 2053 4147 
L 1259 4147 
z
M 628 4666 
L 2053 4666 
Q 2838 4666 3239 4311 
Q 3641 3956 3641 3272 
Q 3641 2581 3239 2228 
Q 2838 1875 2053 1875 
L 1259 1875 
L 1259 0 
L 628 0 
L 628 4666 
z
" transform="scale(0.015625)"/>
       <path id="DejaVuSans-44" d="M 1259 4147 
L 1259 519 
L 2022 519 
Q 2988 519 3436 956 
Q 3884 1394 3884 2338 
Q 3884 3275 3436 3711 
Q 2988 4147 2022 4147 
L 1259 4147 
z
M 628 4666 
L 1925 4666 
Q 3281 4666 3915 4102 
Q 4550 3538 4550 2338 
Q 4550 1131 3912 565 
Q 3275 0 1925 0 
L 628 0 
L 628 4666 
z
" transform="scale(0.015625)"/>
       <path id="DejaVuSans-49" d="M 628 4666 
L 1259 4666 
L 1259 0 
L 628 0 
L 628 4666 
z
" transform="scale(0.015625)"/>
      </defs>
      <use xlink:href="#DejaVuSans-50"/>
      <use xlink:href="#DejaVuSans-44" x="60.302734"/>
      <use xlink:href="#DejaVuSans-49" x="137.304688"/>
     </g>
    </g>
   </g>
   <g id="matplotlib.axis_2">
    <g id="ytick_1">
     <g id="line2d_9">
      <defs>
       <path id="m057ac54846" d="M 0 0 
L -3.5 0 
" style="stroke: #000000; stroke-width: 0.8"/>
      </defs>
      <g>
       <use xlink:href="#m057ac54846" x="90" y="384.48" style="stroke: #000000; stroke-width: 0.8"/>
      </g>
     </g>
     <g id="text_10">
      <!-- 0.0 -->
      <g transform="translate(67.096875 388.279219) scale(0.1 -0.1)">
       <use xlink:href="#DejaVuSans-30"/>
       <use xlink:href="#DejaVuSans-2e" x="63.623047"/>
       <use xlink:href="#DejaVuSans-30" x="95.410156"/>
      </g>
     </g>
    </g>
    <g id="ytick_2">
     <g id="line2d_10">
      <g>
       <use xlink:href="#m057ac54846" x="90" y="340.319907" style="stroke: #000000; stroke-width: 0.8"/>
      </g>
     </g>
     <g id="text_11">
      <!-- 0.1 -->
      <g transform="translate(67.096875 344.119126) scale(0.1 -0.1)">
       <use xlink:href="#DejaVuSans-30"/>
       <use xlink:href="#DejaVuSans-2e" x="63.623047"/>
       <use xlink:href="#DejaVuSans-31" x="95.410156"/>
      </g>
     </g>
    </g>
    <g id="ytick_3">
     <g id="line2d_11">
      <g>
       <use xlink:href="#m057ac54846" x="90" y="296.159814" style="stroke: #000000; stroke-width: 0.8"/>
      </g>
     </g>
     <g id="text_12">
      <!-- 0.2 -->
      <g transform="translate(67.096875 299.959032) scale(0.1 -0.1)">
       <use xlink:href="#DejaVuSans-30"/>
       <use xlink:href="#DejaVuSans-2e" x="63.623047"/>
       <use xlink:href="#DejaVuSans-32" x="95.410156"/>
      </g>
     </g>
    </g>
    <g id="ytick_4">
     <g id="line2d_12">
      <g>
       <use xlink:href="#m057ac54846" x="90" y="251.99972" style="stroke: #000000; stroke-width: 0.8"/>
      </g>
     </g>
     <g id="text_13">
      <!-- 0.3 -->
      <g transform="translate(67.096875 255.798939) scale(0.1 -0.1)">
       <use xlink:href="#DejaVuSans-30"/>
       <use xlink:href="#DejaVuSans-2e" x="63.623047"/>
       <use xlink:href="#DejaVuSans-33" x="95.410156"/>
      </g>
     </g>
    </g>
    <g id="ytick_5">
     <g id="line2d_13">
      <g>
       <use xlink:href="#m057ac54846" x="90" y="207.839627" style="stroke: #000000; stroke-width: 0.8"/>
      </g>
     </g>
     <g id="text_14">
      <!-- 0.4 -->
      <g transform="translate(67.096875 211.638846) scale(0.1 -0.1)">
       <use xlink:href="#DejaVuSans-30"/>
       <use xlink:href="#DejaVuSans-2e" x="63.623047"/>
       <use xlink:href="#DejaVuSans-34" x="95.410156"/>
      </g>
     </g>
    </g>
    <g id="ytick_6">
     <g id="line2d_14">
      <g>
       <use xlink:href="#m057ac54846" x="90" y="163.679534" style="stroke: #000000; stroke-width: 0.8"/>
      </g>
     </g>
     <g id="text_15">
      <!-- 0.5 -->
      <g transform="translate(67.096875 167.478753) scale(0.1 -0.1)">
       <use xlink:href="#DejaVuSans-30"/>
       <use xlink:href="#DejaVuSans-2e" x="63.623047"/>
       <use xlink:href="#DejaVuSans-35" x="95.410156"/>
      </g>
     </g>
    </g>
    <g id="ytick_7">
     <g id="line2d_15">
      <g>
       <use xlink:href="#m057ac54846" x="90" y="119.519441" style="stroke: #000000; stroke-width: 0.8"/>
      </g>
     </g>
     <g id="text_16">
      <!-- 0.6 -->
      <g transform="translate(67.096875 123.318659) scale(0.1 -0.1)">
       <use xlink:href="#DejaVuSans-30"/>
       <use xlink:href="#DejaVuSans-2e" x="63.623047"/>
       <use xlink:href="#DejaVuSans-36" x="95.410156"/>
      </g>
     </g>
    </g>
    <g id="ytick_8">
     <g id="line2d_16">
      <g>
       <use xlink:href="#m057ac54846" x="90" y="75.359347" style="stroke: #000000; stroke-width: 0.8"/>
      </g>
     </g>
     <g id="text_17">
      <!-- 0.7 -->
      <g transform="translate(67.096875 79.158566) scale(0.1 -0.1)">
       <use xlink:href="#DejaVuSans-30"/>
       <use xlink:href="#DejaVuSans-2e" x="63.623047"/>
       <use xlink:href="#DejaVuSans-37" x="95.410156"/>
      </g>
     </g>
    </g>
    <g id="text_18">
     <!-- Density -->
     <g transform="translate(61.017187 237.168594) rotate(-90) scale(0.1 -0.1)">
      <defs>
       <path id="DejaVuSans-65" d="M 3597 1894 
L 3597 1613 
L 953 1613 
Q 991 1019 1311 708 
Q 1631 397 2203 397 
Q 2534 397 2845 478 
Q 3156 559 3463 722 
L 3463 178 
Q 3153 47 2828 -22 
Q 2503 -91 2169 -91 
Q 1331 -91 842 396 
Q 353 884 353 1716 
Q 353 2575 817 3079 
Q 1281 3584 2069 3584 
Q 2775 3584 3186 3129 
Q 3597 2675 3597 1894 
z
M 3022 2063 
Q 3016 2534 2758 2815 
Q 2500 3097 2075 3097 
Q 1594 3097 1305 2825 
Q 1016 2553 972 2059 
L 3022 2063 
z
" transform="scale(0.015625)"/>
       <path id="DejaVuSans-6e" d="M 3513 2113 
L 3513 0 
L 2938 0 
L 2938 2094 
Q 2938 2591 2744 2837 
Q 2550 3084 2163 3084 
Q 1697 3084 1428 2787 
Q 1159 2491 1159 1978 
L 1159 0 
L 581 0 
L 581 3500 
L 1159 3500 
L 1159 2956 
Q 1366 3272 1645 3428 
Q 1925 3584 2291 3584 
Q 2894 3584 3203 3211 
Q 3513 2838 3513 2113 
z
" transform="scale(0.015625)"/>
       <path id="DejaVuSans-73" d="M 2834 3397 
L 2834 2853 
Q 2591 2978 2328 3040 
Q 2066 3103 1784 3103 
Q 1356 3103 1142 2972 
Q 928 2841 928 2578 
Q 928 2378 1081 2264 
Q 1234 2150 1697 2047 
L 1894 2003 
Q 2506 1872 2764 1633 
Q 3022 1394 3022 966 
Q 3022 478 2636 193 
Q 2250 -91 1575 -91 
Q 1294 -91 989 -36 
Q 684 19 347 128 
L 347 722 
Q 666 556 975 473 
Q 1284 391 1588 391 
Q 1994 391 2212 530 
Q 2431 669 2431 922 
Q 2431 1156 2273 1281 
Q 2116 1406 1581 1522 
L 1381 1569 
Q 847 1681 609 1914 
Q 372 2147 372 2553 
Q 372 3047 722 3315 
Q 1072 3584 1716 3584 
Q 2034 3584 2315 3537 
Q 2597 3491 2834 3397 
z
" transform="scale(0.015625)"/>
       <path id="DejaVuSans-69" d="M 603 3500 
L 1178 3500 
L 1178 0 
L 603 0 
L 603 3500 
z
M 603 4863 
L 1178 4863 
L 1178 4134 
L 603 4134 
L 603 4863 
z
" transform="scale(0.015625)"/>
       <path id="DejaVuSans-74" d="M 1172 4494 
L 1172 3500 
L 2356 3500 
L 2356 3053 
L 1172 3053 
L 1172 1153 
Q 1172 725 1289 603 
Q 1406 481 1766 481 
L 2356 481 
L 2356 0 
L 1766 0 
Q 1100 0 847 248 
Q 594 497 594 1153 
L 594 3053 
L 172 3053 
L 172 3500 
L 594 3500 
L 594 4494 
L 1172 4494 
z
" transform="scale(0.015625)"/>
       <path id="DejaVuSans-79" d="M 2059 -325 
Q 1816 -950 1584 -1140 
Q 1353 -1331 966 -1331 
L 506 -1331 
L 506 -850 
L 844 -850 
Q 1081 -850 1212 -737 
Q 1344 -625 1503 -206 
L 1606 56 
L 191 3500 
L 800 3500 
L 1894 763 
L 2988 3500 
L 3597 3500 
L 2059 -325 
z
" transform="scale(0.015625)"/>
      </defs>
      <use xlink:href="#DejaVuSans-44"/>
      <use xlink:href="#DejaVuSans-65" x="77.001953"/>
      <use xlink:href="#DejaVuSans-6e" x="138.525391"/>
      <use xlink:href="#DejaVuSans-73" x="201.904297"/>
      <use xlink:href="#DejaVuSans-69" x="254.003906"/>
      <use xlink:href="#DejaVuSans-74" x="281.787109"/>
      <use xlink:href="#DejaVuSans-79" x="320.996094"/>
     </g>
    </g>
   </g>
   <g id="line2d_17">
    <path d="M 115.363636 202.067438 
L 117.466904 202.902364 
L 119.570172 203.542208 
L 121.67344 204.021167 
L 125.879976 204.631303 
L 138.499583 205.904274 
L 140.60285 206.316622 
L 142.706118 206.844797 
L 144.809386 207.506206 
L 146.912654 208.316252 
L 149.015922 209.288384 
L 151.11919 210.434158 
L 153.222457 211.763295 
L 155.325725 213.283741 
L 157.428993 215.001726 
L 159.532261 216.921801 
L 161.635529 219.046874 
L 163.738797 221.378234 
L 165.842064 223.915558 
L 167.945332 226.656913 
L 170.0486 229.598749 
L 174.255136 236.061537 
L 178.461671 243.242891 
L 182.668207 251.055726 
L 186.874743 259.387827 
L 193.184546 272.558754 
L 205.804153 299.311161 
L 210.010689 307.724085 
L 214.217225 315.619675 
L 218.42376 322.868311 
L 222.630296 329.369641 
L 224.733564 332.317852 
L 226.836832 335.057033 
L 228.9401 337.584465 
L 231.043367 339.899663 
L 233.146635 342.004305 
L 235.249903 343.902131 
L 237.353171 345.598808 
L 239.456439 347.101771 
L 241.559707 348.420039 
L 243.662974 349.564023 
L 245.766242 350.545307 
L 247.86951 351.376436 
L 249.972778 352.070696 
L 254.179314 353.104172 
L 258.385849 353.758834 
L 262.592385 354.146827 
L 268.902189 354.458206 
L 277.31526 354.838709 
L 281.521796 355.172752 
L 285.728331 355.668882 
L 289.934867 356.357687 
L 294.141403 357.255123 
L 298.347938 358.363428 
L 302.554474 359.6723 
L 306.76101 361.160306 
L 313.070813 363.658456 
L 323.587152 368.184614 
L 332.000224 371.709541 
L 338.310027 374.057736 
L 342.516563 375.409719 
L 346.723098 376.555342 
L 350.929634 377.471996 
L 355.13617 378.144403 
L 359.342706 378.564613 
L 363.549241 378.731864 
L 367.755777 378.652364 
L 371.962313 378.339084 
L 376.168848 377.811563 
L 380.375384 377.095699 
L 386.685187 375.740222 
L 395.098259 373.616639 
L 405.614598 370.972791 
L 411.924401 369.677152 
L 416.130937 369.022997 
L 420.337473 368.574726 
L 424.544008 368.354685 
L 428.750544 368.374515 
L 432.95708 368.634554 
L 437.163616 369.12402 
L 441.370151 369.821939 
L 445.576687 370.698777 
L 451.88649 372.269719 
L 462.40283 375.232891 
L 470.815901 377.569655 
L 477.125704 379.145696 
L 483.435508 380.50301 
L 489.745311 381.616693 
L 496.055115 382.48954 
L 502.364918 383.144186 
L 510.77799 383.737153 
L 519.191061 384.092213 
L 531.810668 384.350185 
L 533.913936 384.37333 
L 533.913936 384.37333 
" clip-path="url(#pd537af0669)" style="fill: none; stroke: #1f77b4; stroke-width: 1.5; stroke-linecap: square"/>
   </g>
   <g id="line2d_18">
    <path d="M 115.363636 228.066386 
L 117.023696 227.643456 
L 118.683755 227.020273 
L 120.343814 226.213086 
L 122.003873 225.238221 
L 123.663933 224.112019 
L 126.984051 221.47075 
L 130.30417 218.418608 
L 135.284347 213.347931 
L 143.584644 204.61369 
L 146.904762 201.371665 
L 150.224881 198.448424 
L 153.544999 195.956114 
L 155.205058 194.905284 
L 156.865118 194.001865 
L 158.525177 193.258125 
L 160.185236 192.685736 
L 161.845295 192.295678 
L 163.505355 192.098153 
L 165.165414 192.102486 
L 166.825473 192.317032 
L 168.485533 192.749084 
L 170.145592 193.404789 
L 171.805651 194.289065 
L 173.46571 195.405528 
L 175.12577 196.75644 
L 176.785829 198.342654 
L 178.445888 200.163581 
L 180.105947 202.217178 
L 181.766007 204.499942 
L 183.426066 207.006922 
L 186.746184 212.666728 
L 190.066303 219.129754 
L 193.386421 226.309781 
L 196.70654 234.104417 
L 200.026658 242.399002 
L 205.006836 255.509047 
L 221.607429 300.061944 
L 226.587606 312.332321 
L 229.907725 319.994581 
L 233.227843 327.189567 
L 236.547962 333.887489 
L 239.86808 340.071076 
L 243.188199 345.734105 
L 246.508317 350.87979 
L 249.828436 355.519142 
L 253.148554 359.669369 
L 256.468673 363.352404 
L 259.788792 366.593562 
L 263.10891 369.420373 
L 266.429029 371.86158 
L 269.749147 373.946291 
L 273.069266 375.703302 
L 276.389384 377.160542 
L 279.709503 378.344674 
L 283.029621 379.280818 
L 286.34974 379.992401 
L 289.669858 380.501128 
L 292.989977 380.827073 
L 296.310095 380.988865 
L 301.290273 380.961732 
L 306.270451 380.660191 
L 311.250628 380.138693 
L 317.890865 379.197722 
L 339.471636 375.85897 
L 344.451813 375.384538 
L 349.431991 375.121731 
L 354.412169 375.092827 
L 359.392347 375.301496 
L 364.372525 375.732777 
L 369.352702 376.355235 
L 375.992939 377.405559 
L 400.893828 381.679075 
L 407.534065 382.517531 
L 414.174302 383.166495 
L 422.474598 383.734372 
L 430.774895 384.08594 
L 442.395309 384.336895 
L 445.715428 384.375579 
L 445.715428 384.375579 
" clip-path="url(#pd537af0669)" style="fill: none; stroke: #ff7f0e; stroke-width: 1.5; stroke-linecap: square"/>
   </g>
   <g id="line2d_19">
    <path d="M 115.363636 124.450356 
L 120.461855 129.170619 
L 125.560073 133.516338 
L 140.854728 146.182435 
L 145.952947 150.879319 
L 151.051165 156.050673 
L 156.149383 161.784969 
L 161.247602 168.133802 
L 166.34582 175.117107 
L 171.444038 182.730827 
L 176.542257 190.955037 
L 181.640475 199.760652 
L 186.738693 209.113407 
L 191.836912 218.974454 
L 196.93513 229.297822 
L 202.033349 240.025665 
L 209.680676 256.705351 
L 227.52444 296.307021 
L 232.622659 307.10718 
L 237.720877 317.366194 
L 242.819095 326.924522 
L 247.917314 335.646163 
L 250.466423 339.659489 
L 253.015532 343.427872 
L 255.564641 346.944544 
L 258.113751 350.205365 
L 260.66286 353.208815 
L 263.211969 355.955936 
L 265.761078 358.450218 
L 268.310187 360.697437 
L 270.859296 362.705458 
L 273.408406 364.484005 
L 275.957515 366.044407 
L 278.506624 367.399325 
L 281.055733 368.562477 
L 283.604842 369.548354 
L 286.153952 370.371953 
L 288.703061 371.048513 
L 291.25217 371.593273 
L 296.350388 372.34706 
L 301.448607 372.747538 
L 306.546825 372.897686 
L 314.194153 372.843473 
L 334.587026 372.464416 
L 342.234354 372.564134 
L 349.881681 372.8803 
L 357.529009 373.428444 
L 365.176336 374.203106 
L 372.823664 375.177325 
L 383.020101 376.699044 
L 403.412974 379.832748 
L 411.060302 380.779045 
L 418.707629 381.479167 
L 426.354957 381.871016 
L 431.453175 381.936146 
L 436.551393 381.830873 
L 441.649612 381.547051 
L 446.74783 381.08043 
L 451.846048 380.431826 
L 456.944267 379.608562 
L 464.591594 378.082201 
L 472.238922 376.290988 
L 490.082686 371.947685 
L 495.180905 370.922647 
L 500.279123 370.099879 
L 505.377341 369.526448 
L 510.47556 369.236218 
L 515.573778 369.246766 
L 520.671996 369.557764 
L 525.770215 370.151084 
L 530.868433 370.992617 
L 535.966651 372.035556 
L 543.613979 373.855813 
L 561.457743 378.311254 
L 569.105071 379.945752 
L 576.752398 381.293531 
L 584.399726 382.339034 
L 592.047053 383.104674 
L 599.694381 383.63531 
L 609.890818 384.068775 
L 622.636364 384.330533 
L 622.636364 384.330533 
" clip-path="url(#pd537af0669)" style="fill: none; stroke: #2ca02c; stroke-width: 1.5; stroke-linecap: square"/>
   </g>
   <g id="line2d_20">
    <path d="M 115.363636 156.883875 
L 119.704242 162.710756 
L 124.044847 168.171162 
L 128.385453 173.266398 
L 132.726059 178.01403 
L 137.066664 182.449221 
L 141.40727 186.625389 
L 147.918178 192.564705 
L 158.769692 202.39517 
L 163.110297 206.622315 
L 167.450903 211.183067 
L 171.791508 216.173579 
L 176.132114 221.669557 
L 180.47272 227.71914 
L 184.813325 234.337443 
L 189.153931 241.503438 
L 193.494536 249.159603 
L 197.835142 257.214495 
L 204.34605 269.77579 
L 215.197564 290.757923 
L 219.538169 298.72077 
L 223.878775 306.228526 
L 228.219381 313.167924 
L 232.559986 319.450865 
L 234.730289 322.326005 
L 236.900592 325.016227 
L 239.070894 327.518051 
L 241.241197 329.829547 
L 243.4115 331.950232 
L 245.581803 333.88096 
L 247.752105 335.623801 
L 249.922408 337.181912 
L 252.092711 338.559407 
L 254.263014 339.761238 
L 256.433317 340.793067 
L 258.603619 341.661164 
L 260.773922 342.37231 
L 262.944225 342.933706 
L 265.114528 343.352912 
L 267.28483 343.637784 
L 269.455133 343.79644 
L 273.795739 343.768716 
L 278.136344 343.3391 
L 282.47695 342.580386 
L 286.817555 341.569032 
L 293.328464 339.755028 
L 304.179978 336.653993 
L 308.520583 335.642284 
L 312.861189 334.888104 
L 317.201794 334.466476 
L 321.5424 334.440278 
L 323.712703 334.590811 
L 325.883005 334.85629 
L 328.053308 335.239486 
L 330.223611 335.741789 
L 332.393914 336.363157 
L 336.734519 337.955626 
L 341.075125 339.987521 
L 345.41573 342.407379 
L 349.756336 345.144254 
L 356.267244 349.651743 
L 369.289061 358.882928 
L 373.629666 361.666929 
L 377.970272 364.166941 
L 382.310877 366.323659 
L 386.651483 368.096973 
L 390.992088 369.46706 
L 395.332694 370.43434 
L 399.6733 371.018388 
L 404.013905 371.255942 
L 408.354511 371.198172 
L 412.695116 370.907366 
L 419.206025 370.187663 
L 432.227841 368.616235 
L 436.568447 368.288392 
L 440.909052 368.139228 
L 445.249658 368.197375 
L 449.590263 368.476713 
L 453.930869 368.976573 
L 458.271474 369.682915 
L 462.61208 370.570343 
L 469.122988 372.16482 
L 479.974502 375.183322 
L 488.655713 377.564663 
L 495.166622 379.166491 
L 501.67753 380.540332 
L 508.188438 381.661371 
L 514.699347 382.534144 
L 521.210255 383.183792 
L 529.891466 383.766655 
L 538.572677 384.111576 
L 547.253888 384.301425 
L 547.253888 384.301425 
" clip-path="url(#pd537af0669)" style="fill: none; stroke: #d62728; stroke-width: 1.5; stroke-linecap: square"/>
   </g>
   <g id="line2d_21">
    <path d="M 115.363636 171.364677 
L 119.981752 178.827606 
L 124.599867 185.767607 
L 140.76327 209.297651 
L 145.381385 216.494288 
L 149.9995 224.054986 
L 154.617615 231.982534 
L 161.544788 244.473163 
L 170.781018 261.845157 
L 182.326306 283.618274 
L 189.253479 296.127615 
L 193.871594 304.062589 
L 198.489709 311.598739 
L 203.107824 318.687304 
L 207.725939 325.29304 
L 212.344054 331.393121 
L 216.96217 336.975728 
L 221.580285 342.038608 
L 226.1984 346.587908 
L 230.816515 350.637418 
L 235.43463 354.208248 
L 240.052745 357.328794 
L 244.67086 360.034725 
L 249.288976 362.368681 
L 253.907091 364.379374 
L 258.525206 366.119919 
L 263.143321 367.645368 
L 270.070494 369.647048 
L 279.306724 372.020259 
L 297.779185 376.482226 
L 307.015415 378.561858 
L 313.942588 379.947457 
L 320.86976 381.112746 
L 327.796933 382.008112 
L 334.724106 382.598822 
L 339.342221 382.81037 
L 343.960336 382.86742 
L 348.578451 382.761532 
L 353.196566 382.483044 
L 357.814682 382.021626 
L 362.432797 381.367754 
L 367.050912 380.514981 
L 371.669027 379.462796 
L 376.287142 378.219633 
L 383.214315 376.044307 
L 392.450545 372.775212 
L 401.686775 369.521242 
L 406.304891 368.074918 
L 410.923006 366.838172 
L 415.541121 365.86384 
L 420.159236 365.186792 
L 424.777351 364.820468 
L 429.395466 364.756034 
L 434.013582 364.964369 
L 438.631697 365.400614 
L 445.558869 366.363046 
L 457.104157 368.350619 
L 496.358136 375.386 
L 521.757769 380.45782 
L 528.684942 381.564407 
L 535.612115 382.462582 
L 542.539287 383.1489 
L 549.46646 383.643113 
L 558.70269 384.062169 
L 570.247978 384.324909 
L 574.866093 384.379594 
L 574.866093 384.379594 
" clip-path="url(#pd537af0669)" style="fill: none; stroke: #9467bd; stroke-width: 1.5; stroke-linecap: square"/>
   </g>
   <g id="line2d_22">
    <path d="M 115.363636 67.675219 
L 117.82551 72.251629 
L 120.287384 77.196003 
L 122.749258 82.499101 
L 125.211132 88.148882 
L 127.673006 94.130831 
L 132.596754 107.022658 
L 137.520502 121.020181 
L 142.44425 135.946291 
L 147.367998 151.606394 
L 154.75362 176.012469 
L 169.524864 225.296743 
L 174.448612 240.989229 
L 179.37236 255.920955 
L 184.296108 269.87787 
L 189.219856 282.675029 
L 191.68173 288.591483 
L 194.143604 294.167133 
L 196.605478 299.391486 
L 199.067352 304.257509 
L 201.529226 308.761741 
L 203.9911 312.904342 
L 206.452974 316.689084 
L 208.914848 320.123268 
L 211.376722 323.217578 
L 213.838596 325.985873 
L 216.30047 328.444924 
L 218.762344 330.614096 
L 221.224218 332.514986 
L 223.686092 334.171031 
L 226.147966 335.607085 
L 228.60984 336.848984 
L 231.071714 337.923104 
L 235.995462 339.673593 
L 240.91921 341.064127 
L 255.690454 344.81705 
L 260.614202 346.348605 
L 265.53795 348.137378 
L 270.461698 350.198478 
L 275.385446 352.515755 
L 280.309194 355.048106 
L 287.694816 359.118156 
L 302.46606 367.363665 
L 307.389808 369.901311 
L 312.313556 372.248364 
L 317.237304 374.372747 
L 322.161052 376.255703 
L 327.0848 377.890808 
L 332.008548 379.28224 
L 336.932296 380.442557 
L 341.856044 381.390257 
L 346.779792 382.147309 
L 351.70354 382.736832 
L 359.089162 383.354814 
L 366.474784 383.706792 
L 373.860406 383.829685 
L 381.246028 383.727163 
L 388.63165 383.363512 
L 393.555398 382.93906 
L 398.479146 382.330919 
L 403.402894 381.498064 
L 408.326642 380.393897 
L 413.25039 378.969071 
L 418.174138 377.175438 
L 423.097886 374.971091 
L 428.021634 372.326285 
L 432.945382 369.229808 
L 437.86913 365.695188 
L 442.792878 361.765938 
L 447.716626 357.518977 
L 457.564121 348.548076 
L 462.487869 344.13542 
L 467.411617 340.012077 
L 469.873491 338.118021 
L 472.335365 336.366513 
L 474.797239 334.779401 
L 477.259113 333.37699 
L 479.720987 332.177607 
L 482.182861 331.197204 
L 484.644735 330.449008 
L 487.106609 329.943219 
L 489.568483 329.686783 
L 492.030357 329.683231 
L 494.492231 329.932601 
L 496.954105 330.431432 
L 499.415979 331.172851 
L 501.877853 332.146723 
L 504.339727 333.339889 
L 506.801601 334.736455 
L 509.263475 336.318148 
L 511.725349 338.064714 
L 516.649097 341.964126 
L 521.572845 346.249751 
L 536.344089 359.604605 
L 541.267837 363.707524 
L 546.191585 367.45171 
L 551.115333 370.776939 
L 556.039081 373.65502 
L 560.962829 376.085427 
L 565.886577 378.089558 
L 570.810325 379.704456 
L 575.734073 380.976734 
L 580.657821 381.957216 
L 585.581569 382.696627 
L 590.505317 383.242464 
L 597.890939 383.789061 
L 605.276561 384.109996 
L 605.276561 384.109996 
" clip-path="url(#pd537af0669)" style="fill: none; stroke: #8c564b; stroke-width: 1.5; stroke-linecap: square"/>
   </g>
   <g id="line2d_23">
    <path d="M 115.363636 107.495757 
L 119.665756 109.697474 
L 121.816817 111.000648 
L 123.967877 112.46759 
L 126.118937 114.118578 
L 128.269997 115.972316 
L 130.421057 118.045539 
L 132.572117 120.352618 
L 134.723177 122.905198 
L 136.874237 125.711855 
L 139.025297 128.777799 
L 141.176357 132.104635 
L 143.327417 135.690193 
L 145.478477 139.528426 
L 149.780597 147.919412 
L 154.082717 157.15377 
L 158.384837 167.05491 
L 164.838018 182.677061 
L 173.442258 203.694622 
L 177.744378 213.789988 
L 182.046498 223.387866 
L 186.348618 232.393091 
L 190.650738 240.77475 
L 194.952858 248.563411 
L 199.254978 255.841128 
L 203.557099 262.725587 
L 210.010279 272.606847 
L 227.218759 298.704764 
L 235.822999 311.793033 
L 240.12512 318.062031 
L 244.42724 323.966255 
L 248.72936 329.369928 
L 253.03148 334.156874 
L 255.18254 336.291457 
L 257.3336 338.243703 
L 259.48466 340.009779 
L 261.63572 341.588749 
L 263.78678 342.982574 
L 265.93784 344.196037 
L 268.0889 345.23659 
L 270.23996 346.114142 
L 272.39102 346.840782 
L 274.54208 347.430464 
L 278.844201 348.261922 
L 283.146321 348.743388 
L 289.599501 349.115233 
L 296.052681 349.451793 
L 300.354801 349.829285 
L 304.656921 350.411604 
L 308.959041 351.236894 
L 313.261161 352.315874 
L 317.563282 353.635394 
L 321.865402 355.163302 
L 328.318582 357.743364 
L 345.527062 364.978707 
L 349.829182 366.577567 
L 354.131302 368.005279 
L 358.433423 369.232328 
L 362.735543 370.238907 
L 367.037663 371.01557 
L 371.339783 371.563483 
L 375.641903 371.894148 
L 379.944023 372.02846 
L 386.397203 371.926034 
L 392.850383 371.564872 
L 416.512044 369.895779 
L 422.965224 369.710325 
L 429.418404 369.727412 
L 435.871585 369.972112 
L 442.324765 370.464333 
L 448.777945 371.21579 
L 455.231125 372.222415 
L 461.684305 373.456582 
L 470.288545 375.358485 
L 487.497026 379.304632 
L 493.950206 380.581383 
L 500.403386 381.660558 
L 506.856566 382.524384 
L 513.309746 383.179951 
L 521.913987 383.774585 
L 530.518227 384.125722 
L 541.273527 384.345769 
L 543.424587 384.371062 
L 543.424587 384.371062 
" clip-path="url(#pd537af0669)" style="fill: none; stroke: #e377c2; stroke-width: 1.5; stroke-linecap: square"/>
   </g>
   <g id="line2d_24">
    <path d="M 115.363636 100.396163 
L 118.963678 108.864318 
L 122.56372 118.176038 
L 126.163761 128.355464 
L 129.763803 139.387231 
L 133.363845 151.214918 
L 136.963887 163.742268 
L 142.363949 183.547537 
L 158.564137 244.583091 
L 162.164179 257.243278 
L 165.76422 269.203851 
L 169.364262 280.338748 
L 172.964304 290.554586 
L 176.564345 299.792704 
L 180.164387 308.029295 
L 183.764429 315.273774 
L 185.56445 318.535248 
L 187.36447 321.565626 
L 189.164491 324.373818 
L 190.964512 326.97002 
L 192.764533 329.365521 
L 196.364575 333.603954 
L 199.964616 337.194251 
L 203.564658 340.247033 
L 207.1647 342.872617 
L 210.764742 345.175748 
L 216.164804 348.229263 
L 223.364888 351.934316 
L 246.765159 363.56953 
L 252.165221 365.937594 
L 255.765263 367.341224 
L 259.365305 368.574616 
L 262.965346 369.619772 
L 266.565388 370.467118 
L 270.16543 371.115932 
L 273.765471 371.573983 
L 277.365513 371.856469 
L 282.765576 371.998048 
L 288.165638 371.877292 
L 295.365722 371.457291 
L 307.965868 370.429469 
L 322.366034 369.052697 
L 331.366139 367.981658 
L 354.76641 364.958834 
L 360.166472 364.605751 
L 365.566535 364.54938 
L 369.166577 364.705324 
L 372.766618 365.027879 
L 376.36666 365.519703 
L 379.966702 366.176548 
L 385.366764 367.445692 
L 390.766827 368.999048 
L 397.96691 371.366734 
L 414.167098 376.853028 
L 419.56716 378.44624 
L 424.967223 379.836366 
L 430.367286 381.004631 
L 435.767348 381.951466 
L 441.167411 382.692175 
L 448.367494 383.403339 
L 455.567578 383.864428 
L 464.567682 384.195745 
L 473.567786 384.359181 
L 473.567786 384.359181 
" clip-path="url(#pd537af0669)" style="fill: none; stroke: #7f7f7f; stroke-width: 1.5; stroke-linecap: square"/>
   </g>
   <g id="patch_3">
    <path d="M 90 384.48 
L 90 51.84 
" style="fill: none; stroke: #000000; stroke-width: 0.8; stroke-linejoin: miter; stroke-linecap: square"/>
   </g>
   <g id="patch_4">
    <path d="M 648 384.48 
L 648 51.84 
" style="fill: none; stroke: #000000; stroke-width: 0.8; stroke-linejoin: miter; stroke-linecap: square"/>
   </g>
   <g id="patch_5">
    <path d="M 90 384.48 
L 648 384.48 
" style="fill: none; stroke: #000000; stroke-width: 0.8; stroke-linejoin: miter; stroke-linecap: square"/>
   </g>
   <g id="patch_6">
    <path d="M 90 51.84 
L 648 51.84 
" style="fill: none; stroke: #000000; stroke-width: 0.8; stroke-linejoin: miter; stroke-linecap: square"/>
   </g>
   <g id="text_19">
    <!-- Distribution of PDI by Year -->
    <g transform="translate(290.513438 45.84) scale(0.12 -0.12)">
     <defs>
      <path id="DejaVuSans-72" d="M 2631 2963 
Q 2534 3019 2420 3045 
Q 2306 3072 2169 3072 
Q 1681 3072 1420 2755 
Q 1159 2438 1159 1844 
L 1159 0 
L 581 0 
L 581 3500 
L 1159 3500 
L 1159 2956 
Q 1341 3275 1631 3429 
Q 1922 3584 2338 3584 
Q 2397 3584 2469 3576 
Q 2541 3569 2628 3553 
L 2631 2963 
z
" transform="scale(0.015625)"/>
      <path id="DejaVuSans-62" d="M 3116 1747 
Q 3116 2381 2855 2742 
Q 2594 3103 2138 3103 
Q 1681 3103 1420 2742 
Q 1159 2381 1159 1747 
Q 1159 1113 1420 752 
Q 1681 391 2138 391 
Q 2594 391 2855 752 
Q 3116 1113 3116 1747 
z
M 1159 2969 
Q 1341 3281 1617 3432 
Q 1894 3584 2278 3584 
Q 2916 3584 3314 3078 
Q 3713 2572 3713 1747 
Q 3713 922 3314 415 
Q 2916 -91 2278 -91 
Q 1894 -91 1617 61 
Q 1341 213 1159 525 
L 1159 0 
L 581 0 
L 581 4863 
L 1159 4863 
L 1159 2969 
z
" transform="scale(0.015625)"/>
      <path id="DejaVuSans-75" d="M 544 1381 
L 544 3500 
L 1119 3500 
L 1119 1403 
Q 1119 906 1312 657 
Q 1506 409 1894 409 
Q 2359 409 2629 706 
Q 2900 1003 2900 1516 
L 2900 3500 
L 3475 3500 
L 3475 0 
L 2900 0 
L 2900 538 
Q 2691 219 2414 64 
Q 2138 -91 1772 -91 
Q 1169 -91 856 284 
Q 544 659 544 1381 
z
M 1991 3584 
L 1991 3584 
z
" transform="scale(0.015625)"/>
      <path id="DejaVuSans-6f" d="M 1959 3097 
Q 1497 3097 1228 2736 
Q 959 2375 959 1747 
Q 959 1119 1226 758 
Q 1494 397 1959 397 
Q 2419 397 2687 759 
Q 2956 1122 2956 1747 
Q 2956 2369 2687 2733 
Q 2419 3097 1959 3097 
z
M 1959 3584 
Q 2709 3584 3137 3096 
Q 3566 2609 3566 1747 
Q 3566 888 3137 398 
Q 2709 -91 1959 -91 
Q 1206 -91 779 398 
Q 353 888 353 1747 
Q 353 2609 779 3096 
Q 1206 3584 1959 3584 
z
" transform="scale(0.015625)"/>
      <path id="DejaVuSans-20" transform="scale(0.015625)"/>
      <path id="DejaVuSans-66" d="M 2375 4863 
L 2375 4384 
L 1825 4384 
Q 1516 4384 1395 4259 
Q 1275 4134 1275 3809 
L 1275 3500 
L 2222 3500 
L 2222 3053 
L 1275 3053 
L 1275 0 
L 697 0 
L 697 3053 
L 147 3053 
L 147 3500 
L 697 3500 
L 697 3744 
Q 697 4328 969 4595 
Q 1241 4863 1831 4863 
L 2375 4863 
z
" transform="scale(0.015625)"/>
      <path id="DejaVuSans-59" d="M -13 4666 
L 666 4666 
L 1959 2747 
L 3244 4666 
L 3922 4666 
L 2272 2222 
L 2272 0 
L 1638 0 
L 1638 2222 
L -13 4666 
z
" transform="scale(0.015625)"/>
      <path id="DejaVuSans-61" d="M 2194 1759 
Q 1497 1759 1228 1600 
Q 959 1441 959 1056 
Q 959 750 1161 570 
Q 1363 391 1709 391 
Q 2188 391 2477 730 
Q 2766 1069 2766 1631 
L 2766 1759 
L 2194 1759 
z
M 3341 1997 
L 3341 0 
L 2766 0 
L 2766 531 
Q 2569 213 2275 61 
Q 1981 -91 1556 -91 
Q 1019 -91 701 211 
Q 384 513 384 1019 
Q 384 1609 779 1909 
Q 1175 2209 1959 2209 
L 2766 2209 
L 2766 2266 
Q 2766 2663 2505 2880 
Q 2244 3097 1772 3097 
Q 1472 3097 1187 3025 
Q 903 2953 641 2809 
L 641 3341 
Q 956 3463 1253 3523 
Q 1550 3584 1831 3584 
Q 2591 3584 2966 3190 
Q 3341 2797 3341 1997 
z
" transform="scale(0.015625)"/>
     </defs>
     <use xlink:href="#DejaVuSans-44"/>
     <use xlink:href="#DejaVuSans-69" x="77.001953"/>
     <use xlink:href="#DejaVuSans-73" x="104.785156"/>
     <use xlink:href="#DejaVuSans-74" x="156.884766"/>
     <use xlink:href="#DejaVuSans-72" x="196.09375"/>
     <use xlink:href="#DejaVuSans-69" x="237.207031"/>
     <use xlink:href="#DejaVuSans-62" x="264.990234"/>
     <use xlink:href="#DejaVuSans-75" x="328.466797"/>
     <use xlink:href="#DejaVuSans-74" x="391.845703"/>
     <use xlink:href="#DejaVuSans-69" x="431.054688"/>
     <use xlink:href="#DejaVuSans-6f" x="458.837891"/>
     <use xlink:href="#DejaVuSans-6e" x="520.019531"/>
     <use xlink:href="#DejaVuSans-20" x="583.398438"/>
     <use xlink:href="#DejaVuSans-6f" x="615.185547"/>
     <use xlink:href="#DejaVuSans-66" x="676.367188"/>
     <use xlink:href="#DejaVuSans-20" x="711.572266"/>
     <use xlink:href="#DejaVuSans-50" x="743.359375"/>
     <use xlink:href="#DejaVuSans-44" x="803.662109"/>
     <use xlink:href="#DejaVuSans-49" x="880.664062"/>
     <use xlink:href="#DejaVuSans-20" x="910.15625"/>
     <use xlink:href="#DejaVuSans-62" x="941.943359"/>
     <use xlink:href="#DejaVuSans-79" x="1005.419922"/>
     <use xlink:href="#DejaVuSans-20" x="1064.599609"/>
     <use xlink:href="#DejaVuSans-59" x="1096.386719"/>
     <use xlink:href="#DejaVuSans-65" x="1144.220703"/>
     <use xlink:href="#DejaVuSans-61" x="1205.744141"/>
     <use xlink:href="#DejaVuSans-72" x="1267.023438"/>
    </g>
   </g>
   <g id="legend_1">
    <g id="patch_7">
     <path d="M 559.196875 177.265 
L 641 177.265 
Q 643 177.265 643 175.265 
L 643 58.84 
Q 643 56.84 641 56.84 
L 559.196875 56.84 
Q 557.196875 56.84 557.196875 58.84 
L 557.196875 175.265 
Q 557.196875 177.265 559.196875 177.265 
z
" style="fill: #ffffff; opacity: 0.8; stroke: #cccccc; stroke-linejoin: miter"/>
    </g>
    <g id="line2d_25">
     <path d="M 561.196875 64.938437 
L 571.196875 64.938437 
L 581.196875 64.938437 
" style="fill: none; stroke: #1f77b4; stroke-width: 1.5; stroke-linecap: square"/>
    </g>
    <g id="text_20">
     <!-- Year 2022 -->
     <g transform="translate(589.196875 68.438437) scale(0.1 -0.1)">
      <use xlink:href="#DejaVuSans-59"/>
      <use xlink:href="#DejaVuSans-65" x="47.833984"/>
      <use xlink:href="#DejaVuSans-61" x="109.357422"/>
      <use xlink:href="#DejaVuSans-72" x="170.636719"/>
      <use xlink:href="#DejaVuSans-20" x="211.75"/>
      <use xlink:href="#DejaVuSans-32" x="243.537109"/>
      <use xlink:href="#DejaVuSans-30" x="307.160156"/>
      <use xlink:href="#DejaVuSans-32" x="370.783203"/>
      <use xlink:href="#DejaVuSans-32" x="434.40625"/>
     </g>
    </g>
    <g id="line2d_26">
     <path d="M 561.196875 79.616562 
L 571.196875 79.616562 
L 581.196875 79.616562 
" style="fill: none; stroke: #ff7f0e; stroke-width: 1.5; stroke-linecap: square"/>
    </g>
    <g id="text_21">
     <!-- Year 2021 -->
     <g transform="translate(589.196875 83.116562) scale(0.1 -0.1)">
      <use xlink:href="#DejaVuSans-59"/>
      <use xlink:href="#DejaVuSans-65" x="47.833984"/>
      <use xlink:href="#DejaVuSans-61" x="109.357422"/>
      <use xlink:href="#DejaVuSans-72" x="170.636719"/>
      <use xlink:href="#DejaVuSans-20" x="211.75"/>
      <use xlink:href="#DejaVuSans-32" x="243.537109"/>
      <use xlink:href="#DejaVuSans-30" x="307.160156"/>
      <use xlink:href="#DejaVuSans-32" x="370.783203"/>
      <use xlink:href="#DejaVuSans-31" x="434.40625"/>
     </g>
    </g>
    <g id="line2d_27">
     <path d="M 561.196875 94.294687 
L 571.196875 94.294687 
L 581.196875 94.294687 
" style="fill: none; stroke: #2ca02c; stroke-width: 1.5; stroke-linecap: square"/>
    </g>
    <g id="text_22">
     <!-- Year 2020 -->
     <g transform="translate(589.196875 97.794687) scale(0.1 -0.1)">
      <use xlink:href="#DejaVuSans-59"/>
      <use xlink:href="#DejaVuSans-65" x="47.833984"/>
      <use xlink:href="#DejaVuSans-61" x="109.357422"/>
      <use xlink:href="#DejaVuSans-72" x="170.636719"/>
      <use xlink:href="#DejaVuSans-20" x="211.75"/>
      <use xlink:href="#DejaVuSans-32" x="243.537109"/>
      <use xlink:href="#DejaVuSans-30" x="307.160156"/>
      <use xlink:href="#DejaVuSans-32" x="370.783203"/>
      <use xlink:href="#DejaVuSans-30" x="434.40625"/>
     </g>
    </g>
    <g id="line2d_28">
     <path d="M 561.196875 108.972812 
L 571.196875 108.972812 
L 581.196875 108.972812 
" style="fill: none; stroke: #d62728; stroke-width: 1.5; stroke-linecap: square"/>
    </g>
    <g id="text_23">
     <!-- Year 2019 -->
     <g transform="translate(589.196875 112.472812) scale(0.1 -0.1)">
      <defs>
       <path id="DejaVuSans-39" d="M 703 97 
L 703 672 
Q 941 559 1184 500 
Q 1428 441 1663 441 
Q 2288 441 2617 861 
Q 2947 1281 2994 2138 
Q 2813 1869 2534 1725 
Q 2256 1581 1919 1581 
Q 1219 1581 811 2004 
Q 403 2428 403 3163 
Q 403 3881 828 4315 
Q 1253 4750 1959 4750 
Q 2769 4750 3195 4129 
Q 3622 3509 3622 2328 
Q 3622 1225 3098 567 
Q 2575 -91 1691 -91 
Q 1453 -91 1209 -44 
Q 966 3 703 97 
z
M 1959 2075 
Q 2384 2075 2632 2365 
Q 2881 2656 2881 3163 
Q 2881 3666 2632 3958 
Q 2384 4250 1959 4250 
Q 1534 4250 1286 3958 
Q 1038 3666 1038 3163 
Q 1038 2656 1286 2365 
Q 1534 2075 1959 2075 
z
" transform="scale(0.015625)"/>
      </defs>
      <use xlink:href="#DejaVuSans-59"/>
      <use xlink:href="#DejaVuSans-65" x="47.833984"/>
      <use xlink:href="#DejaVuSans-61" x="109.357422"/>
      <use xlink:href="#DejaVuSans-72" x="170.636719"/>
      <use xlink:href="#DejaVuSans-20" x="211.75"/>
      <use xlink:href="#DejaVuSans-32" x="243.537109"/>
      <use xlink:href="#DejaVuSans-30" x="307.160156"/>
      <use xlink:href="#DejaVuSans-31" x="370.783203"/>
      <use xlink:href="#DejaVuSans-39" x="434.40625"/>
     </g>
    </g>
    <g id="line2d_29">
     <path d="M 561.196875 123.650937 
L 571.196875 123.650937 
L 581.196875 123.650937 
" style="fill: none; stroke: #9467bd; stroke-width: 1.5; stroke-linecap: square"/>
    </g>
    <g id="text_24">
     <!-- Year 2018 -->
     <g transform="translate(589.196875 127.150937) scale(0.1 -0.1)">
      <defs>
       <path id="DejaVuSans-38" d="M 2034 2216 
Q 1584 2216 1326 1975 
Q 1069 1734 1069 1313 
Q 1069 891 1326 650 
Q 1584 409 2034 409 
Q 2484 409 2743 651 
Q 3003 894 3003 1313 
Q 3003 1734 2745 1975 
Q 2488 2216 2034 2216 
z
M 1403 2484 
Q 997 2584 770 2862 
Q 544 3141 544 3541 
Q 544 4100 942 4425 
Q 1341 4750 2034 4750 
Q 2731 4750 3128 4425 
Q 3525 4100 3525 3541 
Q 3525 3141 3298 2862 
Q 3072 2584 2669 2484 
Q 3125 2378 3379 2068 
Q 3634 1759 3634 1313 
Q 3634 634 3220 271 
Q 2806 -91 2034 -91 
Q 1263 -91 848 271 
Q 434 634 434 1313 
Q 434 1759 690 2068 
Q 947 2378 1403 2484 
z
M 1172 3481 
Q 1172 3119 1398 2916 
Q 1625 2713 2034 2713 
Q 2441 2713 2670 2916 
Q 2900 3119 2900 3481 
Q 2900 3844 2670 4047 
Q 2441 4250 2034 4250 
Q 1625 4250 1398 4047 
Q 1172 3844 1172 3481 
z
" transform="scale(0.015625)"/>
      </defs>
      <use xlink:href="#DejaVuSans-59"/>
      <use xlink:href="#DejaVuSans-65" x="47.833984"/>
      <use xlink:href="#DejaVuSans-61" x="109.357422"/>
      <use xlink:href="#DejaVuSans-72" x="170.636719"/>
      <use xlink:href="#DejaVuSans-20" x="211.75"/>
      <use xlink:href="#DejaVuSans-32" x="243.537109"/>
      <use xlink:href="#DejaVuSans-30" x="307.160156"/>
      <use xlink:href="#DejaVuSans-31" x="370.783203"/>
      <use xlink:href="#DejaVuSans-38" x="434.40625"/>
     </g>
    </g>
    <g id="line2d_30">
     <path d="M 561.196875 138.329062 
L 571.196875 138.329062 
L 581.196875 138.329062 
" style="fill: none; stroke: #8c564b; stroke-width: 1.5; stroke-linecap: square"/>
    </g>
    <g id="text_25">
     <!-- Year 2017 -->
     <g transform="translate(589.196875 141.829062) scale(0.1 -0.1)">
      <use xlink:href="#DejaVuSans-59"/>
      <use xlink:href="#DejaVuSans-65" x="47.833984"/>
      <use xlink:href="#DejaVuSans-61" x="109.357422"/>
      <use xlink:href="#DejaVuSans-72" x="170.636719"/>
      <use xlink:href="#DejaVuSans-20" x="211.75"/>
      <use xlink:href="#DejaVuSans-32" x="243.537109"/>
      <use xlink:href="#DejaVuSans-30" x="307.160156"/>
      <use xlink:href="#DejaVuSans-31" x="370.783203"/>
      <use xlink:href="#DejaVuSans-37" x="434.40625"/>
     </g>
    </g>
    <g id="line2d_31">
     <path d="M 561.196875 153.007187 
L 571.196875 153.007187 
L 581.196875 153.007187 
" style="fill: none; stroke: #e377c2; stroke-width: 1.5; stroke-linecap: square"/>
    </g>
    <g id="text_26">
     <!-- Year 2016 -->
     <g transform="translate(589.196875 156.507187) scale(0.1 -0.1)">
      <use xlink:href="#DejaVuSans-59"/>
      <use xlink:href="#DejaVuSans-65" x="47.833984"/>
      <use xlink:href="#DejaVuSans-61" x="109.357422"/>
      <use xlink:href="#DejaVuSans-72" x="170.636719"/>
      <use xlink:href="#DejaVuSans-20" x="211.75"/>
      <use xlink:href="#DejaVuSans-32" x="243.537109"/>
      <use xlink:href="#DejaVuSans-30" x="307.160156"/>
      <use xlink:href="#DejaVuSans-31" x="370.783203"/>
      <use xlink:href="#DejaVuSans-36" x="434.40625"/>
     </g>
    </g>
    <g id="line2d_32">
     <path d="M 561.196875 167.685312 
L 571.196875 167.685312 
L 581.196875 167.685312 
" style="fill: none; stroke: #7f7f7f; stroke-width: 1.5; stroke-linecap: square"/>
    </g>
    <g id="text_27">
     <!-- Year 2015 -->
     <g transform="translate(589.196875 171.185312) scale(0.1 -0.1)">
      <use xlink:href="#DejaVuSans-59"/>
      <use xlink:href="#DejaVuSans-65" x="47.833984"/>
      <use xlink:href="#DejaVuSans-61" x="109.357422"/>
      <use xlink:href="#DejaVuSans-72" x="170.636719"/>
      <use xlink:href="#DejaVuSans-20" x="211.75"/>
      <use xlink:href="#DejaVuSans-32" x="243.537109"/>
      <use xlink:href="#DejaVuSans-30" x="307.160156"/>
      <use xlink:href="#DejaVuSans-31" x="370.783203"/>
      <use xlink:href="#DejaVuSans-35" x="434.40625"/>
     </g>
    </g>
   </g>
  </g>
 </g>
 <defs>
  <clipPath id="pd537af0669">
   <rect x="90" y="51.84" width="558" height="332.64"/>
  </clipPath>
 </defs>
</svg>
