<?xml version="1.0" encoding="utf-8" standalone="no"?>
<!DOCTYPE svg PUBLIC "-//W3C//DTD SVG 1.1//EN"
  "http://www.w3.org/Graphics/SVG/1.1/DTD/svg11.dtd">
<svg xmlns:xlink="http://www.w3.org/1999/xlink" width="720pt" height="432pt" viewBox="0 0 720 432" xmlns="http://www.w3.org/2000/svg" version="1.1">
 <metadata>
  <rdf:RDF xmlns:dc="http://purl.org/dc/elements/1.1/" xmlns:cc="http://creativecommons.org/ns#" xmlns:rdf="http://www.w3.org/1999/02/22-rdf-syntax-ns#">
   <cc:Work>
    <dc:type rdf:resource="http://purl.org/dc/dcmitype/StillImage"/>
    <dc:date>2025-01-11T21:18:00.920767</dc:date>
    <dc:format>image/svg+xml</dc:format>
    <dc:creator>
     <cc:Agent>
      <dc:title>Matplotlib v3.7.2, https://matplotlib.org/</dc:title>
     </cc:Agent>
    </dc:creator>
   </cc:Work>
  </rdf:RDF>
 </metadata>
 <defs>
  <style type="text/css">*{stroke-linejoin: round; stroke-linecap: butt}</style>
 </defs>
 <g id="figure_1">
  <g id="patch_1">
   <path d="M 0 432 
L 720 432 
L 720 0 
L 0 0 
z
" style="fill: #ffffff"/>
  </g>
  <g id="axes_1">
   <g id="patch_2">
    <path d="M 90 384.48 
L 648 384.48 
L 648 51.84 
L 90 51.84 
z
" style="fill: #ffffff"/>
   </g>
   <g id="matplotlib.axis_1">
    <g id="xtick_1">
     <g id="line2d_1">
      <defs>
       <path id="m24e42787c8" d="M 0 0 
L 0 3.5 
" style="stroke: #000000; stroke-width: 0.8"/>
      </defs>
      <g>
       <use xlink:href="#m24e42787c8" x="115.363636" y="384.48" style="stroke: #000000; stroke-width: 0.8"/>
      </g>
     </g>
     <g id="text_1">
      <!-- 0 -->
      <g transform="translate(112.182386 399.078438) scale(0.1 -0.1)">
       <defs>
        <path id="DejaVuSans-30" d="M 2034 4250 
Q 1547 4250 1301 3770 
Q 1056 3291 1056 2328 
Q 1056 1369 1301 889 
Q 1547 409 2034 409 
Q 2525 409 2770 889 
Q 3016 1369 3016 2328 
Q 3016 3291 2770 3770 
Q 2525 4250 2034 4250 
z
M 2034 4750 
Q 2819 4750 3233 4129 
Q 3647 3509 3647 2328 
Q 3647 1150 3233 529 
Q 2819 -91 2034 -91 
Q 1250 -91 836 529 
Q 422 1150 422 2328 
Q 422 3509 836 4129 
Q 1250 4750 2034 4750 
z
" transform="scale(0.015625)"/>
       </defs>
       <use xlink:href="#DejaVuSans-30"/>
      </g>
     </g>
    </g>
    <g id="xtick_2">
     <g id="line2d_2">
      <g>
       <use xlink:href="#m24e42787c8" x="190.164433" y="384.48" style="stroke: #000000; stroke-width: 0.8"/>
      </g>
     </g>
     <g id="text_2">
      <!-- 50 -->
      <g transform="translate(183.801933 399.078438) scale(0.1 -0.1)">
       <defs>
        <path id="DejaVuSans-35" d="M 691 4666 
L 3169 4666 
L 3169 4134 
L 1269 4134 
L 1269 2991 
Q 1406 3038 1543 3061 
Q 1681 3084 1819 3084 
Q 2600 3084 3056 2656 
Q 3513 2228 3513 1497 
Q 3513 744 3044 326 
Q 2575 -91 1722 -91 
Q 1428 -91 1123 -41 
Q 819 9 494 109 
L 494 744 
Q 775 591 1075 516 
Q 1375 441 1709 441 
Q 2250 441 2565 725 
Q 2881 1009 2881 1497 
Q 2881 1984 2565 2268 
Q 2250 2553 1709 2553 
Q 1456 2553 1204 2497 
Q 953 2441 691 2322 
L 691 4666 
z
" transform="scale(0.015625)"/>
       </defs>
       <use xlink:href="#DejaVuSans-35"/>
       <use xlink:href="#DejaVuSans-30" x="63.623047"/>
      </g>
     </g>
    </g>
    <g id="xtick_3">
     <g id="line2d_3">
      <g>
       <use xlink:href="#m24e42787c8" x="264.965229" y="384.48" style="stroke: #000000; stroke-width: 0.8"/>
      </g>
     </g>
     <g id="text_3">
      <!-- 100 -->
      <g transform="translate(255.421479 399.078438) scale(0.1 -0.1)">
       <defs>
        <path id="DejaVuSans-31" d="M 794 531 
L 1825 531 
L 1825 4091 
L 703 3866 
L 703 4441 
L 1819 4666 
L 2450 4666 
L 2450 531 
L 3481 531 
L 3481 0 
L 794 0 
L 794 531 
z
" transform="scale(0.015625)"/>
       </defs>
       <use xlink:href="#DejaVuSans-31"/>
       <use xlink:href="#DejaVuSans-30" x="63.623047"/>
       <use xlink:href="#DejaVuSans-30" x="127.246094"/>
      </g>
     </g>
    </g>
    <g id="xtick_4">
     <g id="line2d_4">
      <g>
       <use xlink:href="#m24e42787c8" x="339.766026" y="384.48" style="stroke: #000000; stroke-width: 0.8"/>
      </g>
     </g>
     <g id="text_4">
      <!-- 150 -->
      <g transform="translate(330.222276 399.078438) scale(0.1 -0.1)">
       <use xlink:href="#DejaVuSans-31"/>
       <use xlink:href="#DejaVuSans-35" x="63.623047"/>
       <use xlink:href="#DejaVuSans-30" x="127.246094"/>
      </g>
     </g>
    </g>
    <g id="xtick_5">
     <g id="line2d_5">
      <g>
       <use xlink:href="#m24e42787c8" x="414.566822" y="384.48" style="stroke: #000000; stroke-width: 0.8"/>
      </g>
     </g>
     <g id="text_5">
      <!-- 200 -->
      <g transform="translate(405.023072 399.078438) scale(0.1 -0.1)">
       <defs>
        <path id="DejaVuSans-32" d="M 1228 531 
L 3431 531 
L 3431 0 
L 469 0 
L 469 531 
Q 828 903 1448 1529 
Q 2069 2156 2228 2338 
Q 2531 2678 2651 2914 
Q 2772 3150 2772 3378 
Q 2772 3750 2511 3984 
Q 2250 4219 1831 4219 
Q 1534 4219 1204 4116 
Q 875 4013 500 3803 
L 500 4441 
Q 881 4594 1212 4672 
Q 1544 4750 1819 4750 
Q 2544 4750 2975 4387 
Q 3406 4025 3406 3419 
Q 3406 3131 3298 2873 
Q 3191 2616 2906 2266 
Q 2828 2175 2409 1742 
Q 1991 1309 1228 531 
z
" transform="scale(0.015625)"/>
       </defs>
       <use xlink:href="#DejaVuSans-32"/>
       <use xlink:href="#DejaVuSans-30" x="63.623047"/>
       <use xlink:href="#DejaVuSans-30" x="127.246094"/>
      </g>
     </g>
    </g>
    <g id="xtick_6">
     <g id="line2d_6">
      <g>
       <use xlink:href="#m24e42787c8" x="489.367619" y="384.48" style="stroke: #000000; stroke-width: 0.8"/>
      </g>
     </g>
     <g id="text_6">
      <!-- 250 -->
      <g transform="translate(479.823869 399.078438) scale(0.1 -0.1)">
       <use xlink:href="#DejaVuSans-32"/>
       <use xlink:href="#DejaVuSans-35" x="63.623047"/>
       <use xlink:href="#DejaVuSans-30" x="127.246094"/>
      </g>
     </g>
    </g>
    <g id="xtick_7">
     <g id="line2d_7">
      <g>
       <use xlink:href="#m24e42787c8" x="564.168415" y="384.48" style="stroke: #000000; stroke-width: 0.8"/>
      </g>
     </g>
     <g id="text_7">
      <!-- 300 -->
      <g transform="translate(554.624665 399.078438) scale(0.1 -0.1)">
       <defs>
        <path id="DejaVuSans-33" d="M 2597 2516 
Q 3050 2419 3304 2112 
Q 3559 1806 3559 1356 
Q 3559 666 3084 287 
Q 2609 -91 1734 -91 
Q 1441 -91 1130 -33 
Q 819 25 488 141 
L 488 750 
Q 750 597 1062 519 
Q 1375 441 1716 441 
Q 2309 441 2620 675 
Q 2931 909 2931 1356 
Q 2931 1769 2642 2001 
Q 2353 2234 1838 2234 
L 1294 2234 
L 1294 2753 
L 1863 2753 
Q 2328 2753 2575 2939 
Q 2822 3125 2822 3475 
Q 2822 3834 2567 4026 
Q 2313 4219 1838 4219 
Q 1578 4219 1281 4162 
Q 984 4106 628 3988 
L 628 4550 
Q 988 4650 1302 4700 
Q 1616 4750 1894 4750 
Q 2613 4750 3031 4423 
Q 3450 4097 3450 3541 
Q 3450 3153 3228 2886 
Q 3006 2619 2597 2516 
z
" transform="scale(0.015625)"/>
       </defs>
       <use xlink:href="#DejaVuSans-33"/>
       <use xlink:href="#DejaVuSans-30" x="63.623047"/>
       <use xlink:href="#DejaVuSans-30" x="127.246094"/>
      </g>
     </g>
    </g>
    <g id="xtick_8">
     <g id="line2d_8">
      <g>
       <use xlink:href="#m24e42787c8" x="638.969212" y="384.48" style="stroke: #000000; stroke-width: 0.8"/>
      </g>
     </g>
     <g id="text_8">
      <!-- 350 -->
      <g transform="translate(629.425462 399.078438) scale(0.1 -0.1)">
       <use xlink:href="#DejaVuSans-33"/>
       <use xlink:href="#DejaVuSans-35" x="63.623047"/>
       <use xlink:href="#DejaVuSans-30" x="127.246094"/>
      </g>
     </g>
    </g>
    <g id="text_9">
     <!-- Ni -->
     <g transform="translate(363.870313 412.756563) scale(0.1 -0.1)">
      <defs>
       <path id="DejaVuSans-4e" d="M 628 4666 
L 1478 4666 
L 3547 763 
L 3547 4666 
L 4159 4666 
L 4159 0 
L 3309 0 
L 1241 3903 
L 1241 0 
L 628 0 
L 628 4666 
z
" transform="scale(0.015625)"/>
       <path id="DejaVuSans-69" d="M 603 3500 
L 1178 3500 
L 1178 0 
L 603 0 
L 603 3500 
z
M 603 4863 
L 1178 4863 
L 1178 4134 
L 603 4134 
L 603 4863 
z
" transform="scale(0.015625)"/>
      </defs>
      <use xlink:href="#DejaVuSans-4e"/>
      <use xlink:href="#DejaVuSans-69" x="74.804688"/>
     </g>
    </g>
   </g>
   <g id="matplotlib.axis_2">
    <g id="ytick_1">
     <g id="line2d_9">
      <defs>
       <path id="mfea1a86e76" d="M 0 0 
L -3.5 0 
" style="stroke: #000000; stroke-width: 0.8"/>
      </defs>
      <g>
       <use xlink:href="#mfea1a86e76" x="90" y="384.48" style="stroke: #000000; stroke-width: 0.8"/>
      </g>
     </g>
     <g id="text_10">
      <!-- 0.000 -->
      <g transform="translate(54.371875 388.279219) scale(0.1 -0.1)">
       <defs>
        <path id="DejaVuSans-2e" d="M 684 794 
L 1344 794 
L 1344 0 
L 684 0 
L 684 794 
z
" transform="scale(0.015625)"/>
       </defs>
       <use xlink:href="#DejaVuSans-30"/>
       <use xlink:href="#DejaVuSans-2e" x="63.623047"/>
       <use xlink:href="#DejaVuSans-30" x="95.410156"/>
       <use xlink:href="#DejaVuSans-30" x="159.033203"/>
       <use xlink:href="#DejaVuSans-30" x="222.65625"/>
      </g>
     </g>
    </g>
    <g id="ytick_2">
     <g id="line2d_10">
      <g>
       <use xlink:href="#mfea1a86e76" x="90" y="344.874438" style="stroke: #000000; stroke-width: 0.8"/>
      </g>
     </g>
     <g id="text_11">
      <!-- 0.002 -->
      <g transform="translate(54.371875 348.673657) scale(0.1 -0.1)">
       <use xlink:href="#DejaVuSans-30"/>
       <use xlink:href="#DejaVuSans-2e" x="63.623047"/>
       <use xlink:href="#DejaVuSans-30" x="95.410156"/>
       <use xlink:href="#DejaVuSans-30" x="159.033203"/>
       <use xlink:href="#DejaVuSans-32" x="222.65625"/>
      </g>
     </g>
    </g>
    <g id="ytick_3">
     <g id="line2d_11">
      <g>
       <use xlink:href="#mfea1a86e76" x="90" y="305.268876" style="stroke: #000000; stroke-width: 0.8"/>
      </g>
     </g>
     <g id="text_12">
      <!-- 0.004 -->
      <g transform="translate(54.371875 309.068095) scale(0.1 -0.1)">
       <defs>
        <path id="DejaVuSans-34" d="M 2419 4116 
L 825 1625 
L 2419 1625 
L 2419 4116 
z
M 2253 4666 
L 3047 4666 
L 3047 1625 
L 3713 1625 
L 3713 1100 
L 3047 1100 
L 3047 0 
L 2419 0 
L 2419 1100 
L 313 1100 
L 313 1709 
L 2253 4666 
z
" transform="scale(0.015625)"/>
       </defs>
       <use xlink:href="#DejaVuSans-30"/>
       <use xlink:href="#DejaVuSans-2e" x="63.623047"/>
       <use xlink:href="#DejaVuSans-30" x="95.410156"/>
       <use xlink:href="#DejaVuSans-30" x="159.033203"/>
       <use xlink:href="#DejaVuSans-34" x="222.65625"/>
      </g>
     </g>
    </g>
    <g id="ytick_4">
     <g id="line2d_12">
      <g>
       <use xlink:href="#mfea1a86e76" x="90" y="265.663314" style="stroke: #000000; stroke-width: 0.8"/>
      </g>
     </g>
     <g id="text_13">
      <!-- 0.006 -->
      <g transform="translate(54.371875 269.462533) scale(0.1 -0.1)">
       <defs>
        <path id="DejaVuSans-36" d="M 2113 2584 
Q 1688 2584 1439 2293 
Q 1191 2003 1191 1497 
Q 1191 994 1439 701 
Q 1688 409 2113 409 
Q 2538 409 2786 701 
Q 3034 994 3034 1497 
Q 3034 2003 2786 2293 
Q 2538 2584 2113 2584 
z
M 3366 4563 
L 3366 3988 
Q 3128 4100 2886 4159 
Q 2644 4219 2406 4219 
Q 1781 4219 1451 3797 
Q 1122 3375 1075 2522 
Q 1259 2794 1537 2939 
Q 1816 3084 2150 3084 
Q 2853 3084 3261 2657 
Q 3669 2231 3669 1497 
Q 3669 778 3244 343 
Q 2819 -91 2113 -91 
Q 1303 -91 875 529 
Q 447 1150 447 2328 
Q 447 3434 972 4092 
Q 1497 4750 2381 4750 
Q 2619 4750 2861 4703 
Q 3103 4656 3366 4563 
z
" transform="scale(0.015625)"/>
       </defs>
       <use xlink:href="#DejaVuSans-30"/>
       <use xlink:href="#DejaVuSans-2e" x="63.623047"/>
       <use xlink:href="#DejaVuSans-30" x="95.410156"/>
       <use xlink:href="#DejaVuSans-30" x="159.033203"/>
       <use xlink:href="#DejaVuSans-36" x="222.65625"/>
      </g>
     </g>
    </g>
    <g id="ytick_5">
     <g id="line2d_13">
      <g>
       <use xlink:href="#mfea1a86e76" x="90" y="226.057752" style="stroke: #000000; stroke-width: 0.8"/>
      </g>
     </g>
     <g id="text_14">
      <!-- 0.008 -->
      <g transform="translate(54.371875 229.856971) scale(0.1 -0.1)">
       <defs>
        <path id="DejaVuSans-38" d="M 2034 2216 
Q 1584 2216 1326 1975 
Q 1069 1734 1069 1313 
Q 1069 891 1326 650 
Q 1584 409 2034 409 
Q 2484 409 2743 651 
Q 3003 894 3003 1313 
Q 3003 1734 2745 1975 
Q 2488 2216 2034 2216 
z
M 1403 2484 
Q 997 2584 770 2862 
Q 544 3141 544 3541 
Q 544 4100 942 4425 
Q 1341 4750 2034 4750 
Q 2731 4750 3128 4425 
Q 3525 4100 3525 3541 
Q 3525 3141 3298 2862 
Q 3072 2584 2669 2484 
Q 3125 2378 3379 2068 
Q 3634 1759 3634 1313 
Q 3634 634 3220 271 
Q 2806 -91 2034 -91 
Q 1263 -91 848 271 
Q 434 634 434 1313 
Q 434 1759 690 2068 
Q 947 2378 1403 2484 
z
M 1172 3481 
Q 1172 3119 1398 2916 
Q 1625 2713 2034 2713 
Q 2441 2713 2670 2916 
Q 2900 3119 2900 3481 
Q 2900 3844 2670 4047 
Q 2441 4250 2034 4250 
Q 1625 4250 1398 4047 
Q 1172 3844 1172 3481 
z
" transform="scale(0.015625)"/>
       </defs>
       <use xlink:href="#DejaVuSans-30"/>
       <use xlink:href="#DejaVuSans-2e" x="63.623047"/>
       <use xlink:href="#DejaVuSans-30" x="95.410156"/>
       <use xlink:href="#DejaVuSans-30" x="159.033203"/>
       <use xlink:href="#DejaVuSans-38" x="222.65625"/>
      </g>
     </g>
    </g>
    <g id="ytick_6">
     <g id="line2d_14">
      <g>
       <use xlink:href="#mfea1a86e76" x="90" y="186.45219" style="stroke: #000000; stroke-width: 0.8"/>
      </g>
     </g>
     <g id="text_15">
      <!-- 0.010 -->
      <g transform="translate(54.371875 190.251409) scale(0.1 -0.1)">
       <use xlink:href="#DejaVuSans-30"/>
       <use xlink:href="#DejaVuSans-2e" x="63.623047"/>
       <use xlink:href="#DejaVuSans-30" x="95.410156"/>
       <use xlink:href="#DejaVuSans-31" x="159.033203"/>
       <use xlink:href="#DejaVuSans-30" x="222.65625"/>
      </g>
     </g>
    </g>
    <g id="ytick_7">
     <g id="line2d_15">
      <g>
       <use xlink:href="#mfea1a86e76" x="90" y="146.846628" style="stroke: #000000; stroke-width: 0.8"/>
      </g>
     </g>
     <g id="text_16">
      <!-- 0.012 -->
      <g transform="translate(54.371875 150.645847) scale(0.1 -0.1)">
       <use xlink:href="#DejaVuSans-30"/>
       <use xlink:href="#DejaVuSans-2e" x="63.623047"/>
       <use xlink:href="#DejaVuSans-30" x="95.410156"/>
       <use xlink:href="#DejaVuSans-31" x="159.033203"/>
       <use xlink:href="#DejaVuSans-32" x="222.65625"/>
      </g>
     </g>
    </g>
    <g id="ytick_8">
     <g id="line2d_16">
      <g>
       <use xlink:href="#mfea1a86e76" x="90" y="107.241066" style="stroke: #000000; stroke-width: 0.8"/>
      </g>
     </g>
     <g id="text_17">
      <!-- 0.014 -->
      <g transform="translate(54.371875 111.040285) scale(0.1 -0.1)">
       <use xlink:href="#DejaVuSans-30"/>
       <use xlink:href="#DejaVuSans-2e" x="63.623047"/>
       <use xlink:href="#DejaVuSans-30" x="95.410156"/>
       <use xlink:href="#DejaVuSans-31" x="159.033203"/>
       <use xlink:href="#DejaVuSans-34" x="222.65625"/>
      </g>
     </g>
    </g>
    <g id="ytick_9">
     <g id="line2d_17">
      <g>
       <use xlink:href="#mfea1a86e76" x="90" y="67.635504" style="stroke: #000000; stroke-width: 0.8"/>
      </g>
     </g>
     <g id="text_18">
      <!-- 0.016 -->
      <g transform="translate(54.371875 71.434723) scale(0.1 -0.1)">
       <use xlink:href="#DejaVuSans-30"/>
       <use xlink:href="#DejaVuSans-2e" x="63.623047"/>
       <use xlink:href="#DejaVuSans-30" x="95.410156"/>
       <use xlink:href="#DejaVuSans-31" x="159.033203"/>
       <use xlink:href="#DejaVuSans-36" x="222.65625"/>
      </g>
     </g>
    </g>
    <g id="text_19">
     <!-- Density -->
     <g transform="translate(48.292187 237.168594) rotate(-90) scale(0.1 -0.1)">
      <defs>
       <path id="DejaVuSans-44" d="M 1259 4147 
L 1259 519 
L 2022 519 
Q 2988 519 3436 956 
Q 3884 1394 3884 2338 
Q 3884 3275 3436 3711 
Q 2988 4147 2022 4147 
L 1259 4147 
z
M 628 4666 
L 1925 4666 
Q 3281 4666 3915 4102 
Q 4550 3538 4550 2338 
Q 4550 1131 3912 565 
Q 3275 0 1925 0 
L 628 0 
L 628 4666 
z
" transform="scale(0.015625)"/>
       <path id="DejaVuSans-65" d="M 3597 1894 
L 3597 1613 
L 953 1613 
Q 991 1019 1311 708 
Q 1631 397 2203 397 
Q 2534 397 2845 478 
Q 3156 559 3463 722 
L 3463 178 
Q 3153 47 2828 -22 
Q 2503 -91 2169 -91 
Q 1331 -91 842 396 
Q 353 884 353 1716 
Q 353 2575 817 3079 
Q 1281 3584 2069 3584 
Q 2775 3584 3186 3129 
Q 3597 2675 3597 1894 
z
M 3022 2063 
Q 3016 2534 2758 2815 
Q 2500 3097 2075 3097 
Q 1594 3097 1305 2825 
Q 1016 2553 972 2059 
L 3022 2063 
z
" transform="scale(0.015625)"/>
       <path id="DejaVuSans-6e" d="M 3513 2113 
L 3513 0 
L 2938 0 
L 2938 2094 
Q 2938 2591 2744 2837 
Q 2550 3084 2163 3084 
Q 1697 3084 1428 2787 
Q 1159 2491 1159 1978 
L 1159 0 
L 581 0 
L 581 3500 
L 1159 3500 
L 1159 2956 
Q 1366 3272 1645 3428 
Q 1925 3584 2291 3584 
Q 2894 3584 3203 3211 
Q 3513 2838 3513 2113 
z
" transform="scale(0.015625)"/>
       <path id="DejaVuSans-73" d="M 2834 3397 
L 2834 2853 
Q 2591 2978 2328 3040 
Q 2066 3103 1784 3103 
Q 1356 3103 1142 2972 
Q 928 2841 928 2578 
Q 928 2378 1081 2264 
Q 1234 2150 1697 2047 
L 1894 2003 
Q 2506 1872 2764 1633 
Q 3022 1394 3022 966 
Q 3022 478 2636 193 
Q 2250 -91 1575 -91 
Q 1294 -91 989 -36 
Q 684 19 347 128 
L 347 722 
Q 666 556 975 473 
Q 1284 391 1588 391 
Q 1994 391 2212 530 
Q 2431 669 2431 922 
Q 2431 1156 2273 1281 
Q 2116 1406 1581 1522 
L 1381 1569 
Q 847 1681 609 1914 
Q 372 2147 372 2553 
Q 372 3047 722 3315 
Q 1072 3584 1716 3584 
Q 2034 3584 2315 3537 
Q 2597 3491 2834 3397 
z
" transform="scale(0.015625)"/>
       <path id="DejaVuSans-74" d="M 1172 4494 
L 1172 3500 
L 2356 3500 
L 2356 3053 
L 1172 3053 
L 1172 1153 
Q 1172 725 1289 603 
Q 1406 481 1766 481 
L 2356 481 
L 2356 0 
L 1766 0 
Q 1100 0 847 248 
Q 594 497 594 1153 
L 594 3053 
L 172 3053 
L 172 3500 
L 594 3500 
L 594 4494 
L 1172 4494 
z
" transform="scale(0.015625)"/>
       <path id="DejaVuSans-79" d="M 2059 -325 
Q 1816 -950 1584 -1140 
Q 1353 -1331 966 -1331 
L 506 -1331 
L 506 -850 
L 844 -850 
Q 1081 -850 1212 -737 
Q 1344 -625 1503 -206 
L 1606 56 
L 191 3500 
L 800 3500 
L 1894 763 
L 2988 3500 
L 3597 3500 
L 2059 -325 
z
" transform="scale(0.015625)"/>
      </defs>
      <use xlink:href="#DejaVuSans-44"/>
      <use xlink:href="#DejaVuSans-65" x="77.001953"/>
      <use xlink:href="#DejaVuSans-6e" x="138.525391"/>
      <use xlink:href="#DejaVuSans-73" x="201.904297"/>
      <use xlink:href="#DejaVuSans-69" x="254.003906"/>
      <use xlink:href="#DejaVuSans-74" x="281.787109"/>
      <use xlink:href="#DejaVuSans-79" x="320.996094"/>
     </g>
    </g>
   </g>
   <g id="line2d_18">
    <path d="M 115.363636 350.127032 
L 117.457985 349.636048 
L 119.552333 349.474804 
L 121.646681 349.633049 
L 123.74103 350.089045 
L 125.835378 350.811034 
L 127.929726 351.759317 
L 130.024075 352.888768 
L 134.212771 355.500206 
L 142.590164 360.940749 
L 146.778861 363.315179 
L 150.967558 365.365281 
L 155.156254 367.151831 
L 163.533648 370.372738 
L 180.288434 376.708056 
L 184.477131 377.966295 
L 188.665827 378.881762 
L 190.760176 379.176709 
L 192.854524 379.344949 
L 194.948872 379.372167 
L 197.043221 379.242771 
L 199.137569 378.939175 
L 201.231917 378.441067 
L 203.326265 377.724716 
L 205.420614 376.762392 
L 207.514962 375.52196 
L 209.60931 373.966703 
L 211.703659 372.055446 
L 213.798007 369.742999 
L 215.892355 366.980975 
L 217.986704 363.718973 
L 220.081052 359.906118 
L 222.1754 355.492936 
L 224.269749 350.433476 
L 226.364097 344.687615 
L 228.458445 338.223428 
L 230.552793 331.019488 
L 232.647142 323.066972 
L 234.74149 314.371436 
L 236.835838 304.954132 
L 238.930187 294.852773 
L 243.118883 272.831263 
L 247.30758 248.927314 
L 259.87367 174.810739 
L 264.062366 152.618984 
L 266.156715 142.53144 
L 268.251063 133.254304 
L 270.345411 124.879936 
L 272.43976 117.490668 
L 274.534108 111.158035 
L 276.628456 105.941999 
L 278.722805 101.890122 
L 280.817153 99.036678 
L 282.911501 97.401746 
L 285.00585 96.990338 
L 287.100198 97.791661 
L 289.194546 99.778625 
L 291.288895 102.9077 
L 293.383243 107.119228 
L 295.477591 112.338261 
L 297.571939 118.475957 
L 299.666288 125.431528 
L 301.760636 133.094694 
L 303.854984 141.348521 
L 308.043681 159.145956 
L 320.609771 214.847127 
L 324.798468 231.888835 
L 328.987164 247.496172 
L 333.175861 261.535517 
L 335.270209 267.961707 
L 337.364557 274.001433 
L 339.458906 279.66697 
L 341.553254 284.973667 
L 343.647602 289.939158 
L 345.741951 294.582738 
L 347.836299 298.924884 
L 349.930647 302.98686 
L 352.024996 306.790361 
L 356.213692 313.708602 
L 360.402389 319.846546 
L 364.591085 325.349301 
L 368.779782 330.32312 
L 372.968479 334.822385 
L 377.157175 338.846713 
L 381.345872 342.351846 
L 383.44022 343.889531 
L 385.534569 345.273319 
L 387.628917 346.497055 
L 389.723265 347.557142 
L 391.817613 348.453277 
L 393.911962 349.188971 
L 396.00631 349.771834 
L 398.100658 350.213601 
L 402.289355 350.739848 
L 406.478052 350.930413 
L 414.855445 351.091188 
L 419.044142 351.443674 
L 423.232838 352.178584 
L 425.327186 352.71884 
L 427.421535 353.38254 
L 429.515883 354.171089 
L 433.70458 356.109835 
L 437.893276 358.47541 
L 442.081973 361.162141 
L 456.742411 371.079962 
L 460.931108 373.535628 
L 465.119804 375.679139 
L 469.308501 377.494221 
L 473.497198 378.995762 
L 477.685894 380.218311 
L 481.874591 381.204402 
L 486.063287 381.995518 
L 492.346332 382.891939 
L 498.629377 383.516801 
L 504.912422 383.933412 
L 513.289816 384.252949 
L 523.761557 384.419446 
L 532.13895 384.462646 
L 532.13895 384.462646 
" clip-path="url(#pf7718ddba7)" style="fill: none; stroke: #1f77b4; stroke-width: 1.5; stroke-linecap: square"/>
   </g>
   <g id="line2d_19">
    <path d="M 115.363636 351.859784 
L 117.504747 351.665422 
L 119.645858 351.787019 
L 121.786969 352.210326 
L 123.92808 352.910465 
L 126.06919 353.853206 
L 128.210301 354.996752 
L 132.492523 357.694368 
L 138.915855 362.018897 
L 143.198077 364.574351 
L 145.339188 365.658689 
L 147.480299 366.590603 
L 149.621409 367.363086 
L 151.76252 367.977164 
L 153.903631 368.441075 
L 156.044742 368.769183 
L 160.326963 369.098253 
L 166.750296 369.136224 
L 173.173628 369.19282 
L 177.45585 369.471262 
L 181.738071 370.009746 
L 186.020293 370.785155 
L 196.725847 373.030315 
L 201.008069 373.57447 
L 203.14918 373.654083 
L 205.29029 373.559447 
L 207.431401 373.253036 
L 209.572512 372.69469 
L 211.713623 371.841483 
L 213.854734 370.647641 
L 215.995844 369.064585 
L 218.136955 367.041132 
L 220.278066 364.523918 
L 222.419177 361.458083 
L 224.560288 357.788248 
L 226.701398 353.45981 
L 228.842509 348.420551 
L 230.98362 342.622548 
L 233.124731 336.024341 
L 235.265842 328.593306 
L 237.406953 320.308138 
L 239.548063 311.16136 
L 241.689174 301.16172 
L 243.830285 290.336364 
L 245.971396 278.732626 
L 250.253617 253.487372 
L 254.535839 226.240392 
L 263.100282 170.575132 
L 265.241393 157.476471 
L 267.382504 145.089772 
L 269.523615 133.600086 
L 271.664725 123.179337 
L 273.805836 113.981098 
L 275.946947 106.135943 
L 278.088058 99.747641 
L 280.229169 94.890373 
L 282.37028 91.607091 
L 284.51139 89.909115 
L 286.652501 89.776917 
L 288.793612 91.162034 
L 290.934723 93.98994 
L 293.075834 98.163681 
L 295.216944 103.568025 
L 297.358055 110.073875 
L 299.499166 117.542702 
L 301.640277 125.83077 
L 303.781388 134.792981 
L 308.063609 154.172041 
L 320.910274 215.011881 
L 325.192496 233.597219 
L 327.333607 242.266747 
L 329.474717 250.466672 
L 331.615828 258.169809 
L 333.756939 265.35952 
L 335.89805 272.029429 
L 338.039161 278.182995 
L 340.180271 283.832902 
L 342.321382 289.00027 
L 344.462493 293.71366 
L 346.603604 298.007892 
L 348.744715 301.922705 
L 350.885825 305.501285 
L 353.026936 308.788718 
L 355.168047 311.830421 
L 359.450269 317.350839 
L 363.73249 322.376936 
L 370.155823 329.477666 
L 378.720266 338.5579 
L 383.002488 342.820283 
L 387.284709 346.71318 
L 389.42582 348.46994 
L 391.566931 350.074775 
L 393.708042 351.511486 
L 395.849152 352.767157 
L 397.990263 353.832735 
L 400.131374 354.703408 
L 402.272485 355.378777 
L 404.413596 355.862834 
L 406.554707 356.163784 
L 408.695817 356.293724 
L 410.836928 356.268228 
L 412.978039 356.105867 
L 417.260261 355.456728 
L 423.683593 354.036245 
L 427.965815 353.091152 
L 432.248036 352.383117 
L 434.389147 352.1755 
L 436.530258 352.09216 
L 438.671369 352.149705 
L 440.812479 352.361412 
L 442.95359 352.736759 
L 445.094701 353.281037 
L 447.235812 353.995073 
L 449.376923 354.875102 
L 451.518034 355.912812 
L 453.659144 357.095576 
L 457.941366 359.826912 
L 462.223588 362.902098 
L 472.929142 370.836442 
L 477.211363 373.666717 
L 481.493585 376.134682 
L 485.775806 378.19938 
L 490.058028 379.86371 
L 494.34025 381.161767 
L 498.622471 382.145138 
L 502.904693 382.871193 
L 507.186915 383.394929 
L 513.610247 383.904167 
L 520.033579 384.191413 
L 530.739133 384.401367 
L 541.444688 384.462736 
L 541.444688 384.462736 
" clip-path="url(#pf7718ddba7)" style="fill: none; stroke: #ff7f0e; stroke-width: 1.5; stroke-linecap: square"/>
   </g>
   <g id="line2d_20">
    <path d="M 115.363636 364.482423 
L 117.880177 364.342928 
L 120.396717 364.486936 
L 122.913258 364.893378 
L 125.429798 365.527155 
L 127.946339 366.34167 
L 132.97942 368.289475 
L 138.012501 370.268955 
L 140.529041 371.134161 
L 143.045582 371.857785 
L 145.562122 372.408325 
L 148.078663 372.765419 
L 150.595203 372.92004 
L 153.111744 372.874106 
L 155.628284 372.639623 
L 158.144825 372.237466 
L 163.177906 371.048655 
L 175.760608 367.537774 
L 180.793689 366.575789 
L 185.82677 365.978518 
L 193.376391 365.21034 
L 195.892932 364.73181 
L 198.409472 363.990506 
L 200.926013 362.876366 
L 203.442553 361.270156 
L 205.959094 359.046872 
L 208.475634 356.079764 
L 210.992175 352.244971 
L 213.508715 347.426733 
L 216.025256 341.523104 
L 218.541796 334.452009 
L 221.058337 326.157404 
L 223.574877 316.615214 
L 226.091418 305.83862 
L 228.607958 293.882232 
L 231.124499 280.844653 
L 233.641039 266.869005 
L 238.67412 236.884968 
L 246.223742 190.603856 
L 248.740282 175.95951 
L 251.256823 162.177453 
L 253.773363 149.512857 
L 256.289904 138.188815 
L 258.806444 128.389199 
L 261.322984 120.254181 
L 263.839525 113.878509 
L 266.356065 109.312366 
L 268.872606 106.564362 
L 271.389146 105.606027 
L 273.905687 106.377083 
L 276.422227 108.790802 
L 278.938768 112.738895 
L 281.455308 118.095574 
L 283.971849 124.72068 
L 286.488389 132.461982 
L 289.00493 141.156977 
L 291.52147 150.634583 
L 296.554551 171.223024 
L 306.620713 213.924682 
L 309.137254 223.966367 
L 311.653794 233.495128 
L 314.170335 242.424036 
L 316.686875 250.694887 
L 319.203416 258.278747 
L 321.719956 265.174911 
L 324.236497 271.408388 
L 326.753037 277.0261 
L 329.269578 282.092073 
L 331.786118 286.681992 
L 334.302659 290.877457 
L 336.819199 294.760366 
L 341.85228 301.887391 
L 346.885361 308.549562 
L 354.434982 318.17641 
L 359.468063 324.316062 
L 364.501144 330.002416 
L 367.017685 332.594161 
L 369.534225 334.977075 
L 372.050766 337.125516 
L 374.567306 339.019963 
L 377.083847 340.648092 
L 379.600387 342.005463 
L 382.116928 343.095876 
L 384.633468 343.93142 
L 387.150009 344.53221 
L 389.666549 344.925792 
L 392.18309 345.146177 
L 397.216171 345.227179 
L 404.765792 345.093243 
L 409.798873 345.285166 
L 412.315414 345.549005 
L 414.831954 345.944725 
L 417.348495 346.478171 
L 419.865035 347.149112 
L 422.381575 347.952804 
L 427.414656 349.927312 
L 432.447737 352.336074 
L 437.480818 355.126289 
L 442.513899 358.257476 
L 447.54698 361.674492 
L 462.646223 372.383758 
L 467.679304 375.510814 
L 470.195845 376.898379 
L 472.712385 378.15266 
L 475.228926 379.26787 
L 477.745466 380.243083 
L 480.262007 381.081754 
L 482.778547 381.791004 
L 487.811628 382.862697 
L 492.844709 383.554289 
L 497.87779 383.96519 
L 502.910871 384.179183 
L 510.460492 384.252564 
L 518.010114 384.104303 
L 525.559735 383.748933 
L 535.625897 382.984873 
L 548.2086 381.960801 
L 553.241681 381.722691 
L 558.274762 381.659715 
L 563.307843 381.78423 
L 570.857464 382.261254 
L 590.989788 383.853434 
L 598.539409 384.185092 
L 608.605571 384.394819 
L 616.155193 384.451906 
L 616.155193 384.451906 
" clip-path="url(#pf7718ddba7)" style="fill: none; stroke: #2ca02c; stroke-width: 1.5; stroke-linecap: square"/>
   </g>
   <g id="line2d_21">
    <path d="M 115.363636 362.015958 
L 117.676151 361.396492 
L 119.988666 360.993102 
L 122.301181 360.807642 
L 124.613696 360.833714 
L 126.926211 361.057089 
L 129.238726 361.456562 
L 131.551241 362.005171 
L 136.176271 363.42218 
L 145.426331 366.585736 
L 150.051361 367.859836 
L 154.676391 368.727822 
L 159.301421 369.14746 
L 163.926451 369.159199 
L 168.551481 368.868637 
L 182.426571 367.667587 
L 187.051601 367.590377 
L 191.676631 367.763961 
L 205.551721 368.654114 
L 207.864236 368.542802 
L 210.176751 368.244255 
L 212.489266 367.707448 
L 214.801781 366.878939 
L 217.114296 365.703715 
L 219.426811 364.126124 
L 221.739326 362.090895 
L 224.051841 359.544268 
L 226.364356 356.435225 
L 228.676871 352.716843 
L 230.989386 348.347741 
L 233.3019 343.29361 
L 235.614415 337.528772 
L 237.92693 331.037736 
L 240.239445 323.816669 
L 242.55196 315.87471 
L 244.864475 307.23507 
L 247.17699 297.935814 
L 249.489505 288.030282 
L 254.114535 266.689578 
L 258.739565 243.932867 
L 267.989625 197.955061 
L 270.30214 187.136843 
L 272.614655 176.856956 
L 274.92717 167.241079 
L 277.239685 158.40562 
L 279.5522 150.455244 
L 281.864715 143.480784 
L 284.17723 137.557585 
L 286.489745 132.744316 
L 288.80226 129.082237 
L 291.114775 126.594919 
L 293.42729 125.288353 
L 295.739805 125.151431 
L 298.05232 126.156711 
L 300.364835 128.261445 
L 302.67735 131.40881 
L 304.989865 135.529333 
L 307.30238 140.542473 
L 309.614895 146.358373 
L 311.92741 152.87975 
L 314.239925 160.003944 
L 316.55244 167.625065 
L 321.17747 183.931839 
L 335.05256 234.437581 
L 339.67759 249.823155 
L 344.30262 263.896295 
L 346.615135 270.396084 
L 348.92765 276.528554 
L 351.240165 282.293194 
L 353.55268 287.693187 
L 355.865195 292.73426 
L 358.17771 297.423744 
L 360.490225 301.769873 
L 362.80274 305.781331 
L 365.115255 309.467029 
L 367.427769 312.83609 
L 369.740284 315.897984 
L 372.052799 318.66277 
L 374.365314 321.141396 
L 376.677829 323.346014 
L 378.990344 325.290263 
L 381.302859 326.989492 
L 383.615374 328.460912 
L 385.927889 329.723645 
L 388.240404 330.798669 
L 390.552919 331.708661 
L 395.177949 333.131033 
L 399.802979 334.193401 
L 411.365554 336.554455 
L 415.990584 337.786625 
L 420.615614 339.318697 
L 425.240644 341.173219 
L 429.865674 343.337141 
L 434.490704 345.779074 
L 439.115734 348.463855 
L 443.740764 351.358903 
L 450.678309 356.02085 
L 469.178429 368.834472 
L 473.803459 371.617048 
L 478.428489 374.041998 
L 483.053519 376.055065 
L 487.678549 377.640433 
L 492.303579 378.821376 
L 496.928609 379.654895 
L 501.553638 380.221594 
L 508.491183 380.769731 
L 524.678788 381.870174 
L 547.803938 383.754628 
L 557.053998 384.171353 
L 568.616573 384.400567 
L 575.554118 384.449884 
L 575.554118 384.449884 
" clip-path="url(#pf7718ddba7)" style="fill: none; stroke: #d62728; stroke-width: 1.5; stroke-linecap: square"/>
   </g>
   <g id="line2d_22">
    <path d="M 115.363636 358.592104 
L 117.777795 358.327721 
L 120.191954 358.399855 
L 122.606114 358.786806 
L 125.020273 359.451506 
L 127.434432 360.344306 
L 132.26275 362.574942 
L 139.505227 366.095105 
L 141.919386 367.095471 
L 144.333545 367.943615 
L 146.747704 368.616949 
L 149.161863 369.104406 
L 151.576022 369.405676 
L 153.990181 369.529933 
L 156.40434 369.494224 
L 161.232659 369.039715 
L 166.060977 368.268276 
L 173.303454 367.042147 
L 178.131772 366.477127 
L 182.96009 366.268639 
L 187.788408 366.447601 
L 192.616726 366.930409 
L 199.859204 367.709386 
L 202.273363 367.793701 
L 204.687522 367.685679 
L 207.101681 367.311067 
L 209.51584 366.589676 
L 211.929999 365.437033 
L 214.344158 363.766302 
L 216.758317 361.490438 
L 219.172476 358.524533 
L 221.586635 354.788304 
L 224.000794 350.208705 
L 226.414953 344.722618 
L 228.829112 338.279585 
L 231.243271 330.844538 
L 233.657431 322.400442 
L 236.07159 312.950756 
L 238.485749 302.52158 
L 240.899908 291.163357 
L 243.314067 278.951945 
L 245.728226 265.988942 
L 250.556544 238.338878 
L 260.21318 181.013145 
L 262.627339 167.434367 
L 265.041498 154.578281 
L 267.455657 142.646331 
L 269.869817 131.82567 
L 272.283976 122.284136 
L 274.698135 114.165878 
L 277.112294 107.587754 
L 279.526453 102.636606 
L 281.940612 99.367452 
L 284.354771 97.802605 
L 286.76893 97.931715 
L 289.183089 99.712671 
L 291.597248 103.07333 
L 294.011407 107.913986 
L 296.425566 114.110518 
L 298.839725 121.51811 
L 301.253884 129.975481 
L 303.668043 139.309494 
L 306.082203 149.340026 
L 310.910521 170.765174 
L 318.152998 203.765974 
L 322.981316 224.681906 
L 325.395475 234.499572 
L 327.809634 243.798689 
L 330.223793 252.535297 
L 332.637952 260.68312 
L 335.052111 268.231128 
L 337.46627 275.180869 
L 339.880429 281.543857 
L 342.294588 287.339261 
L 344.708748 292.592057 
L 347.122907 297.33174 
L 349.537066 301.591566 
L 351.951225 305.408209 
L 354.365384 308.821649 
L 356.779543 311.875073 
L 359.193702 314.614552 
L 361.607861 317.08834 
L 364.02202 319.345669 
L 368.850338 323.402263 
L 376.092815 328.939136 
L 385.749452 336.081085 
L 390.57777 339.425305 
L 395.406088 342.397363 
L 400.234406 344.884502 
L 405.062724 346.911535 
L 417.13352 351.358252 
L 419.547679 352.423126 
L 421.961838 353.613013 
L 424.375997 354.940275 
L 426.790156 356.40683 
L 431.618474 359.714781 
L 438.860951 365.242622 
L 443.689269 368.917184 
L 448.517587 372.277437 
L 450.931746 373.777146 
L 453.345905 375.134723 
L 455.760065 376.341372 
L 458.174224 377.393961 
L 460.588383 378.294331 
L 463.002542 379.048416 
L 465.416701 379.665317 
L 470.245019 380.53451 
L 475.073337 381.006977 
L 479.901655 381.194849 
L 487.144132 381.180094 
L 499.214928 381.105747 
L 506.457405 381.296882 
L 578.882177 384.322101 
L 593.367131 384.456399 
L 595.78129 384.463746 
L 595.78129 384.463746 
" clip-path="url(#pf7718ddba7)" style="fill: none; stroke: #9467bd; stroke-width: 1.5; stroke-linecap: square"/>
   </g>
   <g id="line2d_23">
    <path d="M 115.363636 362.509776 
L 117.912746 362.34314 
L 120.461855 362.467399 
L 123.010964 362.865651 
L 125.560073 363.508156 
L 128.109182 364.354531 
L 133.207401 366.462232 
L 140.854728 369.883318 
L 145.952947 371.826788 
L 148.502056 372.613924 
L 151.051165 373.263271 
L 153.600274 373.774961 
L 156.149383 374.156465 
L 161.247602 374.584519 
L 166.34582 374.682474 
L 173.993148 374.489795 
L 181.640475 374.080723 
L 186.738693 373.664314 
L 191.836912 373.049267 
L 196.93513 372.140863 
L 202.033349 370.836513 
L 204.582458 369.999651 
L 207.131567 369.015834 
L 209.680676 367.862279 
L 212.229785 366.510707 
L 214.778894 364.92619 
L 217.328004 363.06632 
L 219.877113 360.880846 
L 222.426222 358.311925 
L 224.975331 355.295051 
L 227.52444 351.760682 
L 230.07355 347.636541 
L 232.622659 342.850482 
L 235.171768 337.333797 
L 237.720877 331.024791 
L 240.269986 323.872439 
L 242.819095 315.839954 
L 245.368205 306.908101 
L 247.917314 297.078114 
L 250.466423 286.374109 
L 253.015532 274.844905 
L 255.564641 262.565199 
L 260.66286 236.184549 
L 273.408406 167.170245 
L 275.957515 154.482775 
L 278.506624 142.703025 
L 281.055733 132.060192 
L 283.604842 122.770857 
L 286.153952 115.031393 
L 288.703061 109.010369 
L 291.25217 104.841301 
L 293.801279 102.616189 
L 296.350388 102.380266 
L 298.899497 104.128427 
L 301.448607 107.803697 
L 303.997716 113.298048 
L 306.546825 120.4557 
L 309.095934 129.078887 
L 311.645043 138.935845 
L 314.194153 149.770602 
L 319.292371 173.29507 
L 326.939698 209.356907 
L 329.488808 220.710754 
L 332.037917 231.464363 
L 334.587026 241.515364 
L 337.136135 250.799247 
L 339.685244 259.286055 
L 342.234354 266.975555 
L 344.783463 273.891465 
L 347.332572 280.075339 
L 349.881681 285.58065 
L 352.43079 290.467514 
L 354.979899 294.798338 
L 357.529009 298.634554 
L 360.078118 302.034436 
L 362.627227 305.051891 
L 365.176336 307.73604 
L 367.725445 310.131358 
L 370.274555 312.278147 
L 372.823664 314.213139 
L 375.372773 315.970088 
L 380.470991 319.072738 
L 385.56921 321.811484 
L 400.863865 329.668867 
L 405.962083 332.651386 
L 411.060302 335.997249 
L 416.15852 339.766881 
L 421.256738 343.968069 
L 426.354957 348.541786 
L 444.198721 365.22402 
L 449.296939 369.387964 
L 451.846048 371.270927 
L 454.395158 373.0076 
L 456.944267 374.592856 
L 459.493376 376.025338 
L 462.042485 377.30702 
L 464.591594 378.442679 
L 467.140704 379.439312 
L 469.689813 380.305558 
L 474.788031 381.686417 
L 479.886249 382.667736 
L 484.984468 383.32916 
L 490.082686 383.73835 
L 495.180905 383.944878 
L 500.279123 383.976724 
L 505.377341 383.839607 
L 510.47556 383.520052 
L 515.573778 382.993263 
L 520.671996 382.236281 
L 525.770215 381.245224 
L 530.868433 380.053005 
L 543.613979 376.848051 
L 548.712197 375.876991 
L 551.261307 375.538777 
L 553.810416 375.319279 
L 556.359525 375.228335 
L 558.908634 375.270414 
L 561.457743 375.444257 
L 564.006852 375.742929 
L 569.105071 376.661751 
L 574.203289 377.883813 
L 586.948835 381.153924 
L 592.047053 382.202134 
L 597.145272 383.011102 
L 602.24349 383.58826 
L 607.341709 383.970438 
L 614.989036 384.283568 
L 622.636364 384.413965 
L 622.636364 384.413965 
" clip-path="url(#pf7718ddba7)" style="fill: none; stroke: #8c564b; stroke-width: 1.5; stroke-linecap: square"/>
   </g>
   <g id="line2d_24">
    <path d="M 115.363636 354.062476 
L 117.778936 353.784494 
L 120.194235 353.931593 
L 122.609535 354.485195 
L 125.024834 355.408308 
L 127.440133 356.648491 
L 129.855433 358.141862 
L 134.686032 361.603338 
L 141.93193 366.950865 
L 144.347229 368.550068 
L 146.762529 369.995375 
L 149.177828 371.267275 
L 151.593128 372.357257 
L 154.008427 373.266319 
L 156.423726 374.00315 
L 158.839026 374.582171 
L 161.254325 375.021618 
L 166.084924 375.563609 
L 170.915523 375.791647 
L 178.161421 375.841749 
L 204.729715 375.606276 
L 209.560314 375.285206 
L 214.390912 374.623782 
L 216.806212 374.104595 
L 219.221511 373.42048 
L 221.636811 372.537805 
L 224.05211 371.419738 
L 226.467409 370.026391 
L 228.882709 368.314963 
L 231.298008 366.239886 
L 233.713308 363.753015 
L 236.128607 360.803889 
L 238.543906 357.340132 
L 240.959206 353.308064 
L 243.374505 348.653559 
L 245.789805 343.323227 
L 248.205104 337.265914 
L 250.620404 330.434546 
L 253.035703 322.788285 
L 255.451002 314.294951 
L 257.866302 304.933667 
L 260.281601 294.697645 
L 262.696901 283.59704 
L 265.1122 271.661772 
L 267.527499 258.944203 
L 272.358098 231.497722 
L 277.188697 202.202961 
L 284.434595 157.945241 
L 286.849895 144.01754 
L 289.265194 130.92477 
L 291.680494 118.924775 
L 294.095793 108.264828 
L 296.511092 99.171014 
L 298.926392 91.837727 
L 301.341691 86.418067 
L 303.756991 83.015912 
L 306.17229 81.680405 
L 308.587589 82.403368 
L 311.002889 85.119938 
L 313.418188 89.712442 
L 315.833488 96.017179 
L 318.248787 103.833561 
L 320.664087 112.934818 
L 323.079386 123.079373 
L 325.494685 134.021977 
L 330.325284 157.360821 
L 337.571182 192.981661 
L 342.401781 215.379726 
L 344.817081 225.877425 
L 347.23238 235.828304 
L 349.64768 245.195345 
L 352.062979 253.956054 
L 354.478278 262.099998 
L 356.893578 269.626774 
L 359.308877 276.544386 
L 361.724177 282.867949 
L 364.139476 288.618629 
L 366.554775 293.822729 
L 368.970075 298.51086 
L 371.385374 302.71716 
L 373.800674 306.478567 
L 376.215973 309.834164 
L 378.631272 312.824607 
L 381.046572 315.491664 
L 383.461871 317.877834 
L 385.877171 320.026047 
L 388.29247 321.979371 
L 393.123069 325.47229 
L 405.199566 333.643662 
L 410.030165 337.360907 
L 414.860764 341.550041 
L 419.691363 346.205845 
L 424.521961 351.212942 
L 434.183159 361.419664 
L 439.013758 366.112507 
L 441.429057 368.255535 
L 443.844357 370.234809 
L 446.259656 372.035963 
L 448.674955 373.650473 
L 451.090255 375.075632 
L 453.505554 376.314211 
L 455.920854 377.373871 
L 458.336153 378.266352 
L 460.751453 379.006549 
L 463.166752 379.611521 
L 467.997351 380.489091 
L 472.82795 381.044123 
L 480.073848 381.545213 
L 504.226842 382.726041 
L 513.88804 382.988932 
L 523.549237 382.971807 
L 538.041034 382.854701 
L 545.286932 382.990104 
L 554.94813 383.392533 
L 571.855226 384.135264 
L 583.931723 384.385856 
L 596.00822 384.462763 
L 596.00822 384.462763 
" clip-path="url(#pf7718ddba7)" style="fill: none; stroke: #e377c2; stroke-width: 1.5; stroke-linecap: square"/>
   </g>
   <g id="line2d_25">
    <path d="M 115.363636 358.278372 
L 117.476333 357.827702 
L 119.58903 357.732925 
L 121.701726 357.988553 
L 123.814423 358.572987 
L 125.92712 359.449986 
L 128.039816 360.57114 
L 132.265209 363.31116 
L 138.603299 367.724177 
L 140.715996 369.04709 
L 142.828693 370.222194 
L 144.941389 371.220147 
L 147.054086 372.022194 
L 149.166783 372.619748 
L 151.279479 373.0135 
L 153.392176 373.212199 
L 155.504873 373.231261 
L 157.617569 373.091324 
L 161.842962 372.434856 
L 166.068356 371.462155 
L 172.406446 369.899023 
L 176.631839 369.069403 
L 180.857232 368.564399 
L 185.082625 368.425832 
L 189.308019 368.588439 
L 195.646109 368.932641 
L 197.758805 368.894586 
L 199.871502 368.677334 
L 201.984199 368.20511 
L 204.096895 367.393569 
L 206.209592 366.150921 
L 208.322288 364.379542 
L 210.434985 361.978125 
L 212.547682 358.844398 
L 214.660378 354.878396 
L 216.773075 349.986237 
L 218.885772 344.084276 
L 220.998468 337.103475 
L 223.111165 328.993758 
L 225.223862 319.728105 
L 227.336558 309.3061 
L 229.449255 297.756676 
L 231.561952 285.139841 
L 233.674648 271.547208 
L 237.900041 241.953375 
L 244.238131 194.170825 
L 248.463525 162.523599 
L 252.688918 133.168155 
L 254.801615 119.896274 
L 256.914311 107.823905 
L 259.027008 97.121272 
L 261.139704 87.932867 
L 263.252401 80.374632 
L 265.365098 74.532027 
L 267.477794 70.458984 
L 269.590491 68.177704 
L 271.703188 67.679226 
L 273.815884 68.924646 
L 275.928581 71.846877 
L 278.041278 76.352814 
L 280.153974 82.32582 
L 282.266671 89.628454 
L 284.379367 98.105435 
L 286.492064 107.58685 
L 288.604761 117.891646 
L 292.830154 140.214759 
L 301.280941 186.499239 
L 305.506334 207.865081 
L 307.619031 217.686809 
L 309.731727 226.842639 
L 311.844424 235.297656 
L 313.95712 243.042816 
L 316.069817 250.092435 
L 318.182514 256.480623 
L 320.29521 262.256937 
L 322.407907 267.4816 
L 324.520604 272.220625 
L 326.6333 276.54122 
L 328.745997 280.507758 
L 330.858694 284.178579 
L 335.084087 290.823893 
L 339.30948 296.763573 
L 343.534873 302.144339 
L 347.760267 307.018194 
L 351.98566 311.400738 
L 356.211053 315.318282 
L 360.436446 318.831409 
L 364.66184 322.036685 
L 379.450716 332.724217 
L 383.67611 336.2118 
L 387.901503 340.113229 
L 392.126896 344.471625 
L 396.352289 349.244289 
L 411.141166 366.666937 
L 415.366559 370.887701 
L 417.479256 372.749228 
L 419.591952 374.427967 
L 421.704649 375.917994 
L 423.817346 377.218554 
L 425.930042 378.333619 
L 428.042739 379.271294 
L 430.155436 380.043113 
L 432.268132 380.66329 
L 434.380829 381.147961 
L 438.606222 381.780474 
L 442.831615 382.080822 
L 449.169705 382.182646 
L 476.634762 382.128168 
L 485.085548 382.324269 
L 493.536335 382.758045 
L 514.663301 384.084392 
L 523.114088 384.334778 
L 535.790268 384.459626 
L 535.790268 384.459626 
" clip-path="url(#pf7718ddba7)" style="fill: none; stroke: #7f7f7f; stroke-width: 1.5; stroke-linecap: square"/>
   </g>
   <g id="patch_3">
    <path d="M 90 384.48 
L 90 51.84 
" style="fill: none; stroke: #000000; stroke-width: 0.8; stroke-linejoin: miter; stroke-linecap: square"/>
   </g>
   <g id="patch_4">
    <path d="M 648 384.48 
L 648 51.84 
" style="fill: none; stroke: #000000; stroke-width: 0.8; stroke-linejoin: miter; stroke-linecap: square"/>
   </g>
   <g id="patch_5">
    <path d="M 90 384.48 
L 648 384.48 
" style="fill: none; stroke: #000000; stroke-width: 0.8; stroke-linejoin: miter; stroke-linecap: square"/>
   </g>
   <g id="patch_6">
    <path d="M 90 51.84 
L 648 51.84 
" style="fill: none; stroke: #000000; stroke-width: 0.8; stroke-linejoin: miter; stroke-linecap: square"/>
   </g>
   <g id="text_20">
    <!-- Distribution of Ni by Year -->
    <g transform="translate(294.365625 45.84) scale(0.12 -0.12)">
     <defs>
      <path id="DejaVuSans-72" d="M 2631 2963 
Q 2534 3019 2420 3045 
Q 2306 3072 2169 3072 
Q 1681 3072 1420 2755 
Q 1159 2438 1159 1844 
L 1159 0 
L 581 0 
L 581 3500 
L 1159 3500 
L 1159 2956 
Q 1341 3275 1631 3429 
Q 1922 3584 2338 3584 
Q 2397 3584 2469 3576 
Q 2541 3569 2628 3553 
L 2631 2963 
z
" transform="scale(0.015625)"/>
      <path id="DejaVuSans-62" d="M 3116 1747 
Q 3116 2381 2855 2742 
Q 2594 3103 2138 3103 
Q 1681 3103 1420 2742 
Q 1159 2381 1159 1747 
Q 1159 1113 1420 752 
Q 1681 391 2138 391 
Q 2594 391 2855 752 
Q 3116 1113 3116 1747 
z
M 1159 2969 
Q 1341 3281 1617 3432 
Q 1894 3584 2278 3584 
Q 2916 3584 3314 3078 
Q 3713 2572 3713 1747 
Q 3713 922 3314 415 
Q 2916 -91 2278 -91 
Q 1894 -91 1617 61 
Q 1341 213 1159 525 
L 1159 0 
L 581 0 
L 581 4863 
L 1159 4863 
L 1159 2969 
z
" transform="scale(0.015625)"/>
      <path id="DejaVuSans-75" d="M 544 1381 
L 544 3500 
L 1119 3500 
L 1119 1403 
Q 1119 906 1312 657 
Q 1506 409 1894 409 
Q 2359 409 2629 706 
Q 2900 1003 2900 1516 
L 2900 3500 
L 3475 3500 
L 3475 0 
L 2900 0 
L 2900 538 
Q 2691 219 2414 64 
Q 2138 -91 1772 -91 
Q 1169 -91 856 284 
Q 544 659 544 1381 
z
M 1991 3584 
L 1991 3584 
z
" transform="scale(0.015625)"/>
      <path id="DejaVuSans-6f" d="M 1959 3097 
Q 1497 3097 1228 2736 
Q 959 2375 959 1747 
Q 959 1119 1226 758 
Q 1494 397 1959 397 
Q 2419 397 2687 759 
Q 2956 1122 2956 1747 
Q 2956 2369 2687 2733 
Q 2419 3097 1959 3097 
z
M 1959 3584 
Q 2709 3584 3137 3096 
Q 3566 2609 3566 1747 
Q 3566 888 3137 398 
Q 2709 -91 1959 -91 
Q 1206 -91 779 398 
Q 353 888 353 1747 
Q 353 2609 779 3096 
Q 1206 3584 1959 3584 
z
" transform="scale(0.015625)"/>
      <path id="DejaVuSans-20" transform="scale(0.015625)"/>
      <path id="DejaVuSans-66" d="M 2375 4863 
L 2375 4384 
L 1825 4384 
Q 1516 4384 1395 4259 
Q 1275 4134 1275 3809 
L 1275 3500 
L 2222 3500 
L 2222 3053 
L 1275 3053 
L 1275 0 
L 697 0 
L 697 3053 
L 147 3053 
L 147 3500 
L 697 3500 
L 697 3744 
Q 697 4328 969 4595 
Q 1241 4863 1831 4863 
L 2375 4863 
z
" transform="scale(0.015625)"/>
      <path id="DejaVuSans-59" d="M -13 4666 
L 666 4666 
L 1959 2747 
L 3244 4666 
L 3922 4666 
L 2272 2222 
L 2272 0 
L 1638 0 
L 1638 2222 
L -13 4666 
z
" transform="scale(0.015625)"/>
      <path id="DejaVuSans-61" d="M 2194 1759 
Q 1497 1759 1228 1600 
Q 959 1441 959 1056 
Q 959 750 1161 570 
Q 1363 391 1709 391 
Q 2188 391 2477 730 
Q 2766 1069 2766 1631 
L 2766 1759 
L 2194 1759 
z
M 3341 1997 
L 3341 0 
L 2766 0 
L 2766 531 
Q 2569 213 2275 61 
Q 1981 -91 1556 -91 
Q 1019 -91 701 211 
Q 384 513 384 1019 
Q 384 1609 779 1909 
Q 1175 2209 1959 2209 
L 2766 2209 
L 2766 2266 
Q 2766 2663 2505 2880 
Q 2244 3097 1772 3097 
Q 1472 3097 1187 3025 
Q 903 2953 641 2809 
L 641 3341 
Q 956 3463 1253 3523 
Q 1550 3584 1831 3584 
Q 2591 3584 2966 3190 
Q 3341 2797 3341 1997 
z
" transform="scale(0.015625)"/>
     </defs>
     <use xlink:href="#DejaVuSans-44"/>
     <use xlink:href="#DejaVuSans-69" x="77.001953"/>
     <use xlink:href="#DejaVuSans-73" x="104.785156"/>
     <use xlink:href="#DejaVuSans-74" x="156.884766"/>
     <use xlink:href="#DejaVuSans-72" x="196.09375"/>
     <use xlink:href="#DejaVuSans-69" x="237.207031"/>
     <use xlink:href="#DejaVuSans-62" x="264.990234"/>
     <use xlink:href="#DejaVuSans-75" x="328.466797"/>
     <use xlink:href="#DejaVuSans-74" x="391.845703"/>
     <use xlink:href="#DejaVuSans-69" x="431.054688"/>
     <use xlink:href="#DejaVuSans-6f" x="458.837891"/>
     <use xlink:href="#DejaVuSans-6e" x="520.019531"/>
     <use xlink:href="#DejaVuSans-20" x="583.398438"/>
     <use xlink:href="#DejaVuSans-6f" x="615.185547"/>
     <use xlink:href="#DejaVuSans-66" x="676.367188"/>
     <use xlink:href="#DejaVuSans-20" x="711.572266"/>
     <use xlink:href="#DejaVuSans-4e" x="743.359375"/>
     <use xlink:href="#DejaVuSans-69" x="818.164062"/>
     <use xlink:href="#DejaVuSans-20" x="845.947266"/>
     <use xlink:href="#DejaVuSans-62" x="877.734375"/>
     <use xlink:href="#DejaVuSans-79" x="941.210938"/>
     <use xlink:href="#DejaVuSans-20" x="1000.390625"/>
     <use xlink:href="#DejaVuSans-59" x="1032.177734"/>
     <use xlink:href="#DejaVuSans-65" x="1080.011719"/>
     <use xlink:href="#DejaVuSans-61" x="1141.535156"/>
     <use xlink:href="#DejaVuSans-72" x="1202.814453"/>
    </g>
   </g>
   <g id="legend_1">
    <g id="patch_7">
     <path d="M 559.196875 177.265 
L 641 177.265 
Q 643 177.265 643 175.265 
L 643 58.84 
Q 643 56.84 641 56.84 
L 559.196875 56.84 
Q 557.196875 56.84 557.196875 58.84 
L 557.196875 175.265 
Q 557.196875 177.265 559.196875 177.265 
z
" style="fill: #ffffff; opacity: 0.8; stroke: #cccccc; stroke-linejoin: miter"/>
    </g>
    <g id="line2d_26">
     <path d="M 561.196875 64.938437 
L 571.196875 64.938437 
L 581.196875 64.938437 
" style="fill: none; stroke: #1f77b4; stroke-width: 1.5; stroke-linecap: square"/>
    </g>
    <g id="text_21">
     <!-- Year 2022 -->
     <g transform="translate(589.196875 68.438437) scale(0.1 -0.1)">
      <use xlink:href="#DejaVuSans-59"/>
      <use xlink:href="#DejaVuSans-65" x="47.833984"/>
      <use xlink:href="#DejaVuSans-61" x="109.357422"/>
      <use xlink:href="#DejaVuSans-72" x="170.636719"/>
      <use xlink:href="#DejaVuSans-20" x="211.75"/>
      <use xlink:href="#DejaVuSans-32" x="243.537109"/>
      <use xlink:href="#DejaVuSans-30" x="307.160156"/>
      <use xlink:href="#DejaVuSans-32" x="370.783203"/>
      <use xlink:href="#DejaVuSans-32" x="434.40625"/>
     </g>
    </g>
    <g id="line2d_27">
     <path d="M 561.196875 79.616562 
L 571.196875 79.616562 
L 581.196875 79.616562 
" style="fill: none; stroke: #ff7f0e; stroke-width: 1.5; stroke-linecap: square"/>
    </g>
    <g id="text_22">
     <!-- Year 2021 -->
     <g transform="translate(589.196875 83.116562) scale(0.1 -0.1)">
      <use xlink:href="#DejaVuSans-59"/>
      <use xlink:href="#DejaVuSans-65" x="47.833984"/>
      <use xlink:href="#DejaVuSans-61" x="109.357422"/>
      <use xlink:href="#DejaVuSans-72" x="170.636719"/>
      <use xlink:href="#DejaVuSans-20" x="211.75"/>
      <use xlink:href="#DejaVuSans-32" x="243.537109"/>
      <use xlink:href="#DejaVuSans-30" x="307.160156"/>
      <use xlink:href="#DejaVuSans-32" x="370.783203"/>
      <use xlink:href="#DejaVuSans-31" x="434.40625"/>
     </g>
    </g>
    <g id="line2d_28">
     <path d="M 561.196875 94.294687 
L 571.196875 94.294687 
L 581.196875 94.294687 
" style="fill: none; stroke: #2ca02c; stroke-width: 1.5; stroke-linecap: square"/>
    </g>
    <g id="text_23">
     <!-- Year 2020 -->
     <g transform="translate(589.196875 97.794687) scale(0.1 -0.1)">
      <use xlink:href="#DejaVuSans-59"/>
      <use xlink:href="#DejaVuSans-65" x="47.833984"/>
      <use xlink:href="#DejaVuSans-61" x="109.357422"/>
      <use xlink:href="#DejaVuSans-72" x="170.636719"/>
      <use xlink:href="#DejaVuSans-20" x="211.75"/>
      <use xlink:href="#DejaVuSans-32" x="243.537109"/>
      <use xlink:href="#DejaVuSans-30" x="307.160156"/>
      <use xlink:href="#DejaVuSans-32" x="370.783203"/>
      <use xlink:href="#DejaVuSans-30" x="434.40625"/>
     </g>
    </g>
    <g id="line2d_29">
     <path d="M 561.196875 108.972812 
L 571.196875 108.972812 
L 581.196875 108.972812 
" style="fill: none; stroke: #d62728; stroke-width: 1.5; stroke-linecap: square"/>
    </g>
    <g id="text_24">
     <!-- Year 2019 -->
     <g transform="translate(589.196875 112.472812) scale(0.1 -0.1)">
      <defs>
       <path id="DejaVuSans-39" d="M 703 97 
L 703 672 
Q 941 559 1184 500 
Q 1428 441 1663 441 
Q 2288 441 2617 861 
Q 2947 1281 2994 2138 
Q 2813 1869 2534 1725 
Q 2256 1581 1919 1581 
Q 1219 1581 811 2004 
Q 403 2428 403 3163 
Q 403 3881 828 4315 
Q 1253 4750 1959 4750 
Q 2769 4750 3195 4129 
Q 3622 3509 3622 2328 
Q 3622 1225 3098 567 
Q 2575 -91 1691 -91 
Q 1453 -91 1209 -44 
Q 966 3 703 97 
z
M 1959 2075 
Q 2384 2075 2632 2365 
Q 2881 2656 2881 3163 
Q 2881 3666 2632 3958 
Q 2384 4250 1959 4250 
Q 1534 4250 1286 3958 
Q 1038 3666 1038 3163 
Q 1038 2656 1286 2365 
Q 1534 2075 1959 2075 
z
" transform="scale(0.015625)"/>
      </defs>
      <use xlink:href="#DejaVuSans-59"/>
      <use xlink:href="#DejaVuSans-65" x="47.833984"/>
      <use xlink:href="#DejaVuSans-61" x="109.357422"/>
      <use xlink:href="#DejaVuSans-72" x="170.636719"/>
      <use xlink:href="#DejaVuSans-20" x="211.75"/>
      <use xlink:href="#DejaVuSans-32" x="243.537109"/>
      <use xlink:href="#DejaVuSans-30" x="307.160156"/>
      <use xlink:href="#DejaVuSans-31" x="370.783203"/>
      <use xlink:href="#DejaVuSans-39" x="434.40625"/>
     </g>
    </g>
    <g id="line2d_30">
     <path d="M 561.196875 123.650937 
L 571.196875 123.650937 
L 581.196875 123.650937 
" style="fill: none; stroke: #9467bd; stroke-width: 1.5; stroke-linecap: square"/>
    </g>
    <g id="text_25">
     <!-- Year 2018 -->
     <g transform="translate(589.196875 127.150937) scale(0.1 -0.1)">
      <use xlink:href="#DejaVuSans-59"/>
      <use xlink:href="#DejaVuSans-65" x="47.833984"/>
      <use xlink:href="#DejaVuSans-61" x="109.357422"/>
      <use xlink:href="#DejaVuSans-72" x="170.636719"/>
      <use xlink:href="#DejaVuSans-20" x="211.75"/>
      <use xlink:href="#DejaVuSans-32" x="243.537109"/>
      <use xlink:href="#DejaVuSans-30" x="307.160156"/>
      <use xlink:href="#DejaVuSans-31" x="370.783203"/>
      <use xlink:href="#DejaVuSans-38" x="434.40625"/>
     </g>
    </g>
    <g id="line2d_31">
     <path d="M 561.196875 138.329062 
L 571.196875 138.329062 
L 581.196875 138.329062 
" style="fill: none; stroke: #8c564b; stroke-width: 1.5; stroke-linecap: square"/>
    </g>
    <g id="text_26">
     <!-- Year 2017 -->
     <g transform="translate(589.196875 141.829062) scale(0.1 -0.1)">
      <defs>
       <path id="DejaVuSans-37" d="M 525 4666 
L 3525 4666 
L 3525 4397 
L 1831 0 
L 1172 0 
L 2766 4134 
L 525 4134 
L 525 4666 
z
" transform="scale(0.015625)"/>
      </defs>
      <use xlink:href="#DejaVuSans-59"/>
      <use xlink:href="#DejaVuSans-65" x="47.833984"/>
      <use xlink:href="#DejaVuSans-61" x="109.357422"/>
      <use xlink:href="#DejaVuSans-72" x="170.636719"/>
      <use xlink:href="#DejaVuSans-20" x="211.75"/>
      <use xlink:href="#DejaVuSans-32" x="243.537109"/>
      <use xlink:href="#DejaVuSans-30" x="307.160156"/>
      <use xlink:href="#DejaVuSans-31" x="370.783203"/>
      <use xlink:href="#DejaVuSans-37" x="434.40625"/>
     </g>
    </g>
    <g id="line2d_32">
     <path d="M 561.196875 153.007187 
L 571.196875 153.007187 
L 581.196875 153.007187 
" style="fill: none; stroke: #e377c2; stroke-width: 1.5; stroke-linecap: square"/>
    </g>
    <g id="text_27">
     <!-- Year 2016 -->
     <g transform="translate(589.196875 156.507187) scale(0.1 -0.1)">
      <use xlink:href="#DejaVuSans-59"/>
      <use xlink:href="#DejaVuSans-65" x="47.833984"/>
      <use xlink:href="#DejaVuSans-61" x="109.357422"/>
      <use xlink:href="#DejaVuSans-72" x="170.636719"/>
      <use xlink:href="#DejaVuSans-20" x="211.75"/>
      <use xlink:href="#DejaVuSans-32" x="243.537109"/>
      <use xlink:href="#DejaVuSans-30" x="307.160156"/>
      <use xlink:href="#DejaVuSans-31" x="370.783203"/>
      <use xlink:href="#DejaVuSans-36" x="434.40625"/>
     </g>
    </g>
    <g id="line2d_33">
     <path d="M 561.196875 167.685312 
L 571.196875 167.685312 
L 581.196875 167.685312 
" style="fill: none; stroke: #7f7f7f; stroke-width: 1.5; stroke-linecap: square"/>
    </g>
    <g id="text_28">
     <!-- Year 2015 -->
     <g transform="translate(589.196875 171.185312) scale(0.1 -0.1)">
      <use xlink:href="#DejaVuSans-59"/>
      <use xlink:href="#DejaVuSans-65" x="47.833984"/>
      <use xlink:href="#DejaVuSans-61" x="109.357422"/>
      <use xlink:href="#DejaVuSans-72" x="170.636719"/>
      <use xlink:href="#DejaVuSans-20" x="211.75"/>
      <use xlink:href="#DejaVuSans-32" x="243.537109"/>
      <use xlink:href="#DejaVuSans-30" x="307.160156"/>
      <use xlink:href="#DejaVuSans-31" x="370.783203"/>
      <use xlink:href="#DejaVuSans-35" x="434.40625"/>
     </g>
    </g>
   </g>
  </g>
 </g>
 <defs>
  <clipPath id="pf7718ddba7">
   <rect x="90" y="51.84" width="558" height="332.64"/>
  </clipPath>
 </defs>
</svg>
