<svg width="554" height="267" xmlns="http://www.w3.org/2000/svg" xmlns:xlink="http://www.w3.org/1999/xlink" xml:space="preserve" overflow="hidden"><g><path d="M276.465 240.567 372.953 120.607 461.367 215.431Z" stroke="#4472C4" stroke-width="0.761038" stroke-miterlimit="8" stroke-dasharray="3.04415 2.28312" fill="#99CCFF" fill-rule="evenodd" fill-opacity="0.898039" transform="matrix(1.00073 0 0 1 -126.121 -72.8937)"/><path d="M346.12 158.739 371.94 132.919 397.76 158.739 371.94 184.559Z" stroke="#172C51" stroke-width="0.761038" stroke-miterlimit="8" fill="#4472C4" fill-rule="evenodd" transform="matrix(1.00073 0 0 1 -126.121 -72.8937)"/><path d="M295.809 89.4981C295.809 84.7753 299.414 80.9468 303.862 80.9468 308.31 80.9468 311.915 84.7753 311.915 89.4981 311.915 94.2209 308.31 98.0494 303.862 98.0494 299.414 98.0494 295.809 94.2209 295.809 89.4981Z" stroke="#434343" stroke-width="0.761038" stroke-miterlimit="8" fill="#A5A5A5" fill-rule="evenodd" transform="matrix(1.00073 0 0 1 -126.121 -72.8937)"/><path d="M295.809 158.241C295.809 153.518 299.414 149.689 303.862 149.689 308.31 149.689 311.915 153.518 311.915 158.241 311.915 162.963 308.31 166.792 303.862 166.792 299.414 166.792 295.809 162.963 295.809 158.241Z" stroke="#434343" stroke-width="0.761038" stroke-miterlimit="8" fill="#A5A5A5" fill-rule="evenodd" transform="matrix(1.00073 0 0 1 -126.121 -72.8937)"/><path d="M295.643 226.651C295.643 221.929 299.248 218.1 303.696 218.1 308.144 218.1 311.749 221.929 311.749 226.651 311.749 231.373 308.144 235.202 303.696 235.202 299.248 235.202 295.643 231.373 295.643 226.651Z" stroke="#434343" stroke-width="0.761038" stroke-miterlimit="8" fill="#A5A5A5" fill-rule="evenodd" transform="matrix(1.00073 0 0 1 -126.121 -72.8937)"/><path d="M420.176 96.7211 436.283 96.7211 436.283 113.824 420.176 113.824Z" stroke="#2B4719" stroke-width="0.761038" stroke-miterlimit="8" fill="#70AD47" transform="matrix(1.00073 0 0 1 -126.121 -72.8937)"/><path d="M420.176 196.514 436.283 196.514 436.283 213.451 420.176 213.451Z" stroke="#2B4719" stroke-width="0.761038" stroke-miterlimit="8" fill="#70AD47" transform="matrix(1.00073 0 0 1 -126.121 -72.8937)"/><path d="M420.004 204.869 397.677 158.573" stroke="#A5A5A5" stroke-width="0.38052" stroke-miterlimit="8" stroke-dasharray="1.52208 1.14156" fill="none" fill-rule="evenodd" transform="matrix(1.00073 0 0 1 -126.121 -72.8937)"/><path d="M0 0 22.327 53.41" stroke="#A5A5A5" stroke-width="0.38052" stroke-miterlimit="8" stroke-dasharray="1.52208 1.14156" fill="none" fill-rule="evenodd" transform="matrix(-1.00073 0 0 1 294.192 32.3787)"/><path d="M0 0 36.6632 61.8565" stroke="#A5A5A5" stroke-width="0.38052" stroke-miterlimit="8" stroke-dasharray="1.52208 1.14156" fill="none" fill-rule="evenodd" transform="matrix(-1.00073 0 0 1 220.138 85.6791)"/><path d="M345.898 158.661 311.832 158.241" stroke="#A5A5A5" stroke-width="0.38052" stroke-miterlimit="8" stroke-dasharray="1.52208 1.14156" fill="none" fill-rule="evenodd" transform="matrix(1.00073 0 0 1 -126.121 -72.8937)"/><path d="M345.934 158.563 309.507 95.4757" stroke="#A5A5A5" stroke-width="0.38052" stroke-miterlimit="8" stroke-dasharray="1.52208 1.14156" fill="none" fill-rule="evenodd" transform="matrix(1.00073 0 0 1 -126.121 -72.8937)"/><path d="M420.03 204.886C361.946 204.886 303.862 185.797 303.862 166.709" stroke="#A5A5A5" stroke-width="0.38052" stroke-miterlimit="8" stroke-dasharray="1.52208 1.14156" fill="none" fill-rule="evenodd" transform="matrix(1.00073 0 0 1 -126.121 -72.8937)"/><path d="M0 0C58.0843 0 116.168 22.2251 116.168 44.4503" stroke="#A5A5A5" stroke-width="0.38052" stroke-miterlimit="8" stroke-dasharray="1.52208 1.14156" fill="none" fill-rule="evenodd" transform="matrix(-1.00073 1.22465e-16 1.22555e-16 1 294.218 32.3787)"/><path d="M428.07 113.741C428.07 170.123 369.868 226.507 311.666 226.507" stroke="#A5A5A5" stroke-width="0.38052" stroke-miterlimit="8" stroke-dasharray="1.52208 1.14156" fill="none" fill-rule="evenodd" transform="matrix(1.00073 0 0 1 -126.121 -72.8937)"/><path d="M0 0C53.4418 0 106.884 58.0843 106.884 116.169" stroke="#A5A5A5" stroke-width="0.38052" stroke-miterlimit="8" stroke-dasharray="1.52208 1.14156" fill="none" fill-rule="evenodd" transform="matrix(-1.83832e-16 -1 -1.00073 1.83697e-16 302.194 123.488)"/><path d="M267.332 286.07 465.628 286.07 465.628 286.452 267.332 286.452ZM464.866 283.978 469.432 286.261 464.866 288.544Z" fill="#FF0000" transform="matrix(1.00073 0 0 1 -126.121 -72.8937)"/><path d="M309.175 272.812 309.175 286.333" stroke="#FF0000" stroke-width="0.38052" stroke-miterlimit="8" fill="none" fill-rule="evenodd" transform="matrix(1.00073 0 0 1 -126.121 -72.8937)"/><path d="M367.955 272.812 367.955 286.333" stroke="#FF0000" stroke-width="0.38052" stroke-miterlimit="8" fill="none" fill-rule="evenodd" transform="matrix(1.00073 0 0 1 -126.121 -72.8937)"/><path d="M426.569 272.812 426.569 286.333" stroke="#FF0000" stroke-width="0.38052" stroke-miterlimit="8" fill="none" fill-rule="evenodd" transform="matrix(1.00073 0 0 1 -126.121 -72.8937)"/><text fill="#FF0000" font-family="DengXian,DengXian_MSFontService,sans-serif" font-weight="400" font-size="83" transform="matrix(0.166167 0 0 0.166045 239.207 236)">t</text><text fill="#FF0000" font-family="DengXian,DengXian_MSFontService,sans-serif" font-weight="400" font-size="83" transform="matrix(0.166167 0 0 0.166045 295.586 236)">t</text><text fill="#FF0000" font-family="DengXian,DengXian_MSFontService,sans-serif" font-weight="400" font-size="83" transform="matrix(0.166167 0 0 0.166045 299.906 236)">+</text><text fill="#FF0000" font-family="DengXian,DengXian_MSFontService,sans-serif" font-weight="400" font-size="83" transform="matrix(0.166167 0 0 0.166045 309.045 236)">1</text><text fill="#FF0000" font-family="DengXian,DengXian_MSFontService,sans-serif" font-weight="400" font-size="83" transform="matrix(0.166167 0 0 0.166045 168.187 236)">t</text><text fill="#FF0000" font-family="DengXian,DengXian_MSFontService,sans-serif" font-weight="400" font-size="83" transform="matrix(0.166167 0 0 0.166045 172.568 236)">-</text><text fill="#FF0000" font-family="DengXian,DengXian_MSFontService,sans-serif" font-weight="400" font-size="83" transform="matrix(0.166167 0 0 0.166045 179.422 236)">1</text><path d="M131.923 129.349C131.923 126.369 134.339 123.952 137.319 123.952 140.299 123.952 142.715 126.369 142.715 129.349 142.715 132.329 140.299 134.745 137.319 134.745 134.339 134.745 131.923 132.329 131.923 129.349Z" stroke="#434343" stroke-width="0.761038" stroke-miterlimit="8" fill="#A5A5A5" fill-rule="evenodd" transform="matrix(1.00073 0 0 1 -126.121 -72.8937)"/><path d="M131.923 159.818 142.715 159.818 142.715 170.611 131.923 170.611Z" stroke="#2B4719" stroke-width="0.761038" stroke-miterlimit="8" fill="#70AD47" transform="matrix(1.00073 0 0 1 -126.121 -72.8937)"/><path d="M131.923 200.997 137.319 195.684 142.715 200.997 137.319 206.311Z" stroke="#172C51" stroke-width="0.761038" stroke-miterlimit="8" fill="#4472C4" fill-rule="evenodd" transform="matrix(1.00073 0 0 1 -126.121 -72.8937)"/><text font-family="DengXian,DengXian_MSFontService,sans-serif" font-weight="400" font-size="83" transform="matrix(0.166167 0 0 0.166045 36.1237 60)">Ancestor</text><text font-family="DengXian,DengXian_MSFontService,sans-serif" font-weight="400" font-size="83" transform="matrix(0.166167 0 0 0.166045 36.1237 96)">Descendent</text><text font-family="DengXian,DengXian_MSFontService,sans-serif" font-weight="400" font-size="83" transform="matrix(0.166167 0 0 0.166045 36.1237 133)">Focal product</text><text font-family="DengXian,DengXian_MSFontService,sans-serif" font-weight="400" font-size="83" transform="matrix(0.166167 0 0 0.166045 35.8467 164)">Product </text><text font-family="DengXian,DengXian_MSFontService,sans-serif" font-weight="400" font-size="83" transform="matrix(0.166167 0 0 0.166045 35.8467 180)">family</text><text font-family="DengXian,DengXian_MSFontService,sans-serif" font-weight="400" font-size="83" transform="matrix(0.166167 0 0 0.166045 35.8467 197)">triangle</text><path d="M495.561 73.3088 526.058 73.3088 526.058 73.3088 571.803 73.3088 678.542 73.3088 678.542 149.15 678.542 149.15 678.542 181.653 678.542 203.322 571.803 203.322 526.058 203.322 526.058 203.322 495.561 203.322 495.561 181.653 456.852 210.94 495.561 149.15Z" stroke="#172C51" stroke-width="0.761038" stroke-miterlimit="8" stroke-dasharray="0.761038 0.761038" fill="none" fill-rule="evenodd" transform="matrix(1.00073 0 0 1 -126.121 -72.8937)"/><path d="M558.326 103.363 582.236 81.1129 606.146 103.363 582.236 125.613Z" stroke="#172C51" stroke-width="0.761038" stroke-miterlimit="8" fill="#4472C4" fill-rule="evenodd" transform="matrix(1.00073 0 0 1 -126.121 -72.8937)"/><text fill="#FFFFFF" font-family="DengXian,DengXian_MSFontService,sans-serif" font-weight="400" font-size="83" transform="matrix(0.166167 0 0 0.166045 454.906 35)">j</text><path d="M502.202 177.668C502.202 173.587 505.548 170.279 509.674 170.279 513.801 170.279 517.146 173.587 517.146 177.668 517.146 181.749 513.801 185.057 509.674 185.057 505.548 185.057 502.202 181.749 502.202 177.668Z" stroke="#434343" stroke-width="0.761038" stroke-miterlimit="8" fill="#A5A5A5" fill-rule="evenodd" transform="matrix(1.00073 0 0 1 -126.121 -72.8937)"/><text fill="#FFFFFF" font-family="DengXian,DengXian_MSFontService,sans-serif" font-weight="400" font-size="83" transform="matrix(0.166167 0 0 0.166045 380.575 109)">k</text><path d="M654.632 168.951 666.753 168.951 666.753 183.729 654.632 183.729Z" stroke="#2B4719" stroke-width="0.761038" stroke-miterlimit="8" fill="#70AD47" transform="matrix(1.00073 0 0 1 -126.121 -72.8937)"/><text fill="#FFFFFF" font-family="DengXian,DengXian_MSFontService,sans-serif" font-weight="400" font-size="83" transform="matrix(0.166167 0 0 0.166045 533.468 108)">i</text><path d="M515.773 121.012 516.17 121.012 515.202 125.332C515.102 125.772 515.053 126.104 515.053 126.328 515.053 126.508 515.083 126.638 515.141 126.719 515.199 126.799 515.292 126.84 515.416 126.84 515.551 126.84 515.695 126.785 515.848 126.675 515.999 126.565 516.215 126.355 516.494 126.046L516.877 126.422C516.437 126.884 516.08 127.198 515.806 127.364 515.532 127.531 515.225 127.614 514.885 127.614 514.593 127.614 514.36 127.507 514.186 127.294 514.01 127.081 513.924 126.808 513.924 126.476 513.924 126.135 513.985 125.7 514.111 125.171L514.616 122.97C514.719 122.522 514.77 122.185 514.77 121.961 514.77 121.759 514.722 121.622 514.626 121.55 514.53 121.479 514.34 121.438 514.058 121.429L514.131 121.073ZM510.427 120.965C510.843 120.965 511.224 120.99 511.567 121.039 511.909 121.088 512.251 121.173 512.594 121.295L512.29 122.708 511.745 122.708C511.695 122.309 511.564 122.006 511.352 121.799 511.137 121.593 510.804 121.49 510.345 121.49 509.992 121.49 509.704 121.581 509.483 121.762 509.264 121.944 509.155 122.183 509.155 122.479 509.155 122.641 509.183 122.783 509.238 122.906 509.294 123.03 509.407 123.165 509.578 123.313 509.749 123.461 510.013 123.643 510.372 123.858 510.654 124.029 510.882 124.185 511.051 124.326 511.222 124.467 511.356 124.608 511.456 124.747 511.554 124.886 511.625 125.033 511.67 125.188 511.715 125.342 511.738 125.53 511.738 125.75 511.738 126.149 511.632 126.491 511.418 126.776 511.205 127.061 510.916 127.272 510.551 127.412 510.184 127.551 509.769 127.62 509.302 127.62 508.931 127.62 508.564 127.592 508.205 127.536 507.846 127.48 507.448 127.385 507.008 127.25L507.33 125.783 507.855 125.783C507.873 126.214 507.994 126.539 508.218 126.759 508.442 126.979 508.799 127.089 509.289 127.089 509.714 127.089 510.048 126.993 510.289 126.803 510.528 126.612 510.647 126.342 510.647 125.992 510.647 125.79 510.614 125.616 510.548 125.47 510.48 125.324 510.37 125.184 510.217 125.05 510.065 124.915 509.822 124.747 509.49 124.545 509.141 124.334 508.867 124.143 508.673 123.973 508.477 123.802 508.331 123.617 508.232 123.418 508.134 123.218 508.084 122.988 508.084 122.728 508.084 122.374 508.18 122.063 508.369 121.796 508.56 121.529 508.833 121.324 509.188 121.18 509.542 121.037 509.955 120.965 510.427 120.965ZM519.584 120.958C519.866 120.958 520.089 121.051 520.253 121.237 520.418 121.424 520.499 121.667 520.499 121.968 520.499 122.214 520.447 122.477 520.344 122.755L520.424 122.782C520.838 122.167 521.248 121.711 521.656 121.412 522.065 121.114 522.477 120.965 522.895 120.965 523.325 120.965 523.652 121.087 523.876 121.332 524.102 121.576 524.213 121.93 524.213 122.391L524.213 122.486C524.213 122.517 524.212 122.551 524.207 122.587 524.592 122.039 524.977 121.632 525.361 121.365 525.744 121.098 526.143 120.965 526.555 120.965 526.968 120.965 527.287 121.084 527.511 121.322 527.735 121.559 527.848 121.893 527.848 122.324 527.848 122.607 527.782 123.008 527.652 123.529L527.215 125.292C527.094 125.781 527.033 126.126 527.033 126.328 527.033 126.508 527.063 126.638 527.121 126.719 527.179 126.799 527.27 126.84 527.396 126.84 527.531 126.84 527.675 126.785 527.826 126.675 527.979 126.565 528.195 126.355 528.472 126.046L528.856 126.422C528.471 126.831 528.134 127.131 527.848 127.324 527.561 127.517 527.232 127.614 526.865 127.614 526.573 127.614 526.34 127.509 526.164 127.301 525.99 127.092 525.902 126.826 525.902 126.503 525.902 126.212 525.977 125.783 526.125 125.218L526.42 124.054C526.528 123.632 526.599 123.32 526.633 123.118 526.666 122.916 526.682 122.753 526.682 122.627 526.682 122.318 526.631 122.094 526.528 121.957 526.425 121.821 526.257 121.752 526.023 121.752 525.836 121.752 525.633 121.823 525.417 121.964 525.203 122.106 524.975 122.325 524.738 122.624 524.501 122.922 524.306 123.216 524.157 123.505 524.006 123.795 523.886 124.148 523.797 124.565L523.184 127.506 522.02 127.506 522.794 124.087C522.888 123.67 522.951 123.362 522.985 123.162 523.019 122.962 523.036 122.791 523.036 122.647 523.036 122.324 522.978 122.094 522.863 121.957 522.75 121.821 522.571 121.752 522.329 121.752 522.159 121.752 521.965 121.823 521.748 121.964 521.53 122.106 521.298 122.332 521.05 122.644 520.804 122.956 520.61 123.255 520.472 123.542 520.333 123.829 520.217 124.179 520.122 124.592L519.483 127.506 518.319 127.506 519.302 123.239C519.4 122.809 519.45 122.477 519.45 122.243 519.45 122.064 519.42 121.934 519.362 121.853 519.303 121.772 519.212 121.732 519.086 121.732 518.946 121.732 518.8 121.789 518.644 121.904 518.49 122.018 518.279 122.226 518.008 122.526L517.625 122.149C518.02 121.737 518.36 121.435 518.644 121.244 518.93 121.053 519.242 120.958 519.584 120.958ZM515.592 118.435 516.783 118.435 516.474 119.74 515.282 119.74Z" fill="#7F7F7F" fill-rule="evenodd" transform="matrix(1.00073 0 0 1 -126.121 -72.8937)"/><path d="M531.602 123.552 531.958 123.552 531.088 127.4 531.225 127.4C531.352 127.4 531.486 127.373 531.632 127.32 531.777 127.268 531.921 127.199 532.064 127.115 532.208 127.031 532.346 126.936 532.477 126.831 532.609 126.725 532.725 126.619 532.826 126.512 532.927 126.405 533.007 126.303 533.065 126.208 533.125 126.112 533.155 126.031 533.155 125.965 533.155 125.886 533.128 125.822 533.075 125.772 533.024 125.723 532.927 125.69 532.789 125.673L532.848 125.357 534.629 125.357 534.752 125.664C534.545 125.842 534.345 126.007 534.154 126.158 533.963 126.31 533.776 126.456 533.593 126.596 533.409 126.736 533.226 126.874 533.044 127.009 532.861 127.144 532.673 127.284 532.482 127.429 532.562 127.68 532.642 127.935 532.725 128.193 532.808 128.452 532.889 128.708 532.972 128.962 533.012 129.097 533.049 129.214 533.083 129.311 533.118 129.408 533.155 129.487 533.195 129.548 533.234 129.609 533.278 129.655 533.323 129.684 533.369 129.714 533.425 129.729 533.492 129.729 533.537 129.729 533.585 129.721 533.635 129.704 533.685 129.688 533.739 129.658 533.801 129.615 533.862 129.572 533.93 129.514 534.008 129.44 534.086 129.365 534.174 129.272 534.272 129.16L534.609 129.482C534.453 129.64 534.31 129.777 534.176 129.892 534.043 130.008 533.915 130.102 533.796 130.176 533.675 130.251 533.558 130.305 533.447 130.34 533.334 130.374 533.221 130.392 533.105 130.392 532.897 130.392 532.73 130.34 532.604 130.236 532.477 130.132 532.368 129.984 532.28 129.791 532.19 129.598 532.109 129.365 532.034 129.091 531.961 128.817 531.875 128.512 531.775 128.176 531.752 128.097 531.73 128.033 531.709 127.986 531.687 127.938 531.66 127.901 531.627 127.877 531.594 127.852 531.552 127.836 531.503 127.83 531.453 127.823 531.391 127.82 531.315 127.82L530.998 127.82 530.455 130.303 529.505 130.303 530.702 124.991C530.742 124.816 530.769 124.679 530.785 124.578 530.802 124.477 530.81 124.388 530.81 124.308 530.81 124.246 530.8 124.192 530.779 124.145 530.757 124.099 530.722 124.062 530.672 124.034 530.623 124.006 530.556 123.985 530.475 123.972 530.392 123.959 530.291 123.951 530.168 123.947L530.242 123.611Z" fill="#7F7F7F" fill-rule="evenodd" transform="matrix(1.00073 0 0 1 -126.121 -72.8937)"/><path d="M535.976 129.155 536.841 129.155C536.888 129.386 536.911 129.614 536.911 129.838 536.911 130.069 536.871 130.28 536.791 130.471 536.711 130.662 536.587 130.852 536.413 131.042 536.24 131.232 536.003 131.44 535.699 131.668L535.431 131.366C535.599 131.208 535.722 131.065 535.797 130.938 535.873 130.811 535.928 130.667 535.961 130.505 535.994 130.344 536.011 130.141 536.011 129.897 536.011 129.647 535.999 129.399 535.976 129.155Z" fill="#7F7F7F" fill-rule="evenodd" transform="matrix(1.00073 0 0 1 -126.121 -72.8937)"/><path d="M540.99 125.303 541.333 125.303 540.303 130.149C540.222 130.525 540.115 130.847 539.984 131.116 539.855 131.385 539.695 131.605 539.508 131.776 539.32 131.948 539.101 132.074 538.85 132.155 538.599 132.236 538.312 132.276 537.988 132.276 537.904 132.276 537.821 132.272 537.743 132.264 537.663 132.255 537.591 132.243 537.528 132.226L537.653 131.707C537.693 131.724 537.744 131.734 537.811 131.739 537.877 131.744 537.953 131.747 538.038 131.747 538.201 131.747 538.344 131.725 538.472 131.682 538.598 131.64 538.712 131.562 538.812 131.45 538.913 131.338 539.005 131.184 539.084 130.988 539.166 130.791 539.24 130.54 539.31 130.233 539.425 129.699 539.536 129.198 539.641 128.73 539.747 128.262 539.833 127.869 539.901 127.553 539.968 127.236 540.022 126.984 540.061 126.796 540.1 126.608 540.13 126.463 540.149 126.361 540.165 126.259 540.177 126.186 540.18 126.143 540.183 126.101 540.185 126.066 540.185 126.039 540.185 125.924 540.142 125.839 540.054 125.785 539.966 125.73 539.813 125.7 539.591 125.693L539.665 125.357ZM540.808 123.309 541.802 123.309 541.56 124.373 540.565 124.373Z" fill="#7F7F7F" fill-rule="evenodd" transform="matrix(1.00073 0 0 1 -126.121 -72.8937)"/><path d="M644.739 126.366 645.135 126.366 644.167 130.687C644.068 131.126 644.02 131.458 644.02 131.682 644.02 131.862 644.048 131.992 644.106 132.073 644.164 132.154 644.257 132.194 644.382 132.194 644.518 132.194 644.661 132.139 644.813 132.029 644.966 131.919 645.18 131.709 645.459 131.4L645.843 131.777C645.403 132.239 645.046 132.553 644.773 132.719 644.499 132.885 644.192 132.968 643.85 132.968 643.56 132.968 643.326 132.861 643.151 132.648 642.975 132.435 642.889 132.163 642.889 131.831 642.889 131.49 642.952 131.054 643.076 130.525L643.581 128.325C643.684 127.876 643.736 127.539 643.736 127.315 643.736 127.113 643.688 126.976 643.591 126.905 643.495 126.833 643.306 126.792 643.023 126.783L643.096 126.427ZM639.392 126.319C639.809 126.319 640.189 126.344 640.533 126.393 640.875 126.443 641.217 126.528 641.559 126.649L641.255 128.062 640.71 128.062C640.661 127.663 640.529 127.36 640.317 127.154 640.104 126.947 639.769 126.844 639.311 126.844 638.957 126.844 638.67 126.935 638.449 127.117 638.23 127.298 638.12 127.537 638.12 127.833 638.12 127.995 638.148 128.137 638.203 128.261 638.259 128.384 638.372 128.52 638.543 128.668 638.714 128.816 638.978 128.998 639.337 129.213 639.621 129.383 639.847 129.539 640.018 129.68 640.187 129.822 640.322 129.962 640.421 130.101 640.519 130.24 640.592 130.387 640.637 130.542 640.682 130.697 640.704 130.884 640.704 131.104 640.704 131.503 640.597 131.845 640.385 132.13 640.171 132.415 639.882 132.627 639.516 132.766 639.151 132.905 638.734 132.974 638.268 132.974 637.896 132.974 637.531 132.946 637.17 132.89 636.812 132.834 636.413 132.739 635.973 132.604L636.297 131.137 636.822 131.137C636.838 131.568 636.959 131.893 637.185 132.113 637.409 132.333 637.765 132.443 638.255 132.443 638.681 132.443 639.013 132.348 639.254 132.157 639.493 131.966 639.614 131.696 639.614 131.346 639.614 131.144 639.58 130.97 639.513 130.825 639.445 130.679 639.335 130.538 639.183 130.404 639.03 130.269 638.788 130.101 638.455 129.899 638.107 129.688 637.834 129.498 637.638 129.327 637.444 129.157 637.296 128.972 637.198 128.772 637.099 128.572 637.049 128.342 637.049 128.082 637.049 127.728 637.145 127.417 637.336 127.15 637.527 126.883 637.8 126.678 638.153 126.535 638.509 126.391 638.92 126.319 639.392 126.319ZM648.549 126.312C648.832 126.312 649.056 126.406 649.218 126.592 649.383 126.778 649.464 127.021 649.464 127.322 649.464 127.569 649.413 127.831 649.31 128.109L649.391 128.136C649.803 127.522 650.213 127.065 650.622 126.767 651.03 126.468 651.443 126.319 651.86 126.319 652.29 126.319 652.619 126.441 652.843 126.686 653.067 126.93 653.179 127.284 653.179 127.746L653.179 127.84C653.179 127.871 653.177 127.905 653.172 127.941 653.559 127.394 653.942 126.987 654.326 126.72 654.71 126.453 655.108 126.319 655.522 126.319 655.933 126.319 656.252 126.438 656.476 126.676 656.7 126.914 656.813 127.248 656.813 127.678 656.813 127.961 656.749 128.363 656.617 128.883L656.181 130.646C656.06 131.135 655.998 131.481 655.998 131.682 655.998 131.862 656.028 131.992 656.086 132.073 656.144 132.154 656.237 132.194 656.362 132.194 656.496 132.194 656.641 132.139 656.793 132.029 656.945 131.919 657.16 131.709 657.439 131.4L657.823 131.777C657.436 132.185 657.101 132.485 656.813 132.678 656.526 132.871 656.199 132.968 655.83 132.968 655.538 132.968 655.306 132.864 655.131 132.655 654.955 132.446 654.869 132.18 654.869 131.857 654.869 131.566 654.942 131.137 655.09 130.572L655.387 129.408C655.493 128.986 655.565 128.674 655.598 128.473 655.631 128.271 655.649 128.107 655.649 127.981 655.649 127.672 655.598 127.449 655.493 127.312 655.39 127.175 655.223 127.106 654.988 127.106 654.801 127.106 654.598 127.177 654.384 127.318 654.168 127.46 653.942 127.68 653.703 127.978 653.466 128.276 653.272 128.57 653.122 128.86 652.971 129.149 652.852 129.502 652.762 129.919L652.149 132.86 650.985 132.86 651.759 129.442C651.854 129.024 651.917 128.716 651.952 128.516 651.985 128.317 652.001 128.145 652.001 128.002 652.001 127.678 651.945 127.449 651.83 127.312 651.716 127.175 651.536 127.106 651.296 127.106 651.125 127.106 650.93 127.177 650.713 127.318 650.495 127.46 650.263 127.686 650.015 127.998 649.77 128.31 649.577 128.609 649.438 128.897 649.298 129.184 649.182 129.534 649.087 129.946L648.448 132.86 647.284 132.86 648.267 128.594C648.365 128.163 648.415 127.831 648.415 127.598 648.415 127.418 648.385 127.288 648.327 127.207 648.269 127.127 648.177 127.086 648.051 127.086 647.912 127.086 647.766 127.143 647.611 127.258 647.455 127.372 647.244 127.58 646.975 127.88L646.592 127.504C646.985 127.091 647.326 126.789 647.611 126.599 647.895 126.408 648.209 126.312 648.549 126.312ZM644.558 123.789 645.748 123.789 645.439 125.094 644.247 125.094Z" fill="#7F7F7F" fill-rule="evenodd" transform="matrix(1.00073 0 0 1 -126.121 -72.8937)"/><path d="M660.27 130.657 660.513 130.657 659.781 133.951C659.736 134.145 659.703 134.3 659.684 134.416 659.666 134.531 659.658 134.635 659.658 134.727 659.658 134.852 659.683 134.943 659.734 134.999 659.786 135.055 659.862 135.083 659.965 135.083 660.023 135.083 660.083 135.072 660.143 135.049 660.202 135.026 660.265 134.989 660.333 134.94 660.4 134.89 660.475 134.827 660.556 134.749 660.636 134.672 660.725 134.579 660.825 134.47L661.16 134.796C660.989 134.971 660.833 135.119 660.694 135.239 660.554 135.359 660.422 135.458 660.295 135.533 660.171 135.609 660.048 135.664 659.927 135.696 659.807 135.729 659.679 135.746 659.543 135.746 659.419 135.746 659.306 135.723 659.204 135.677 659.105 135.631 659.018 135.567 658.945 135.486 658.872 135.406 658.818 135.309 658.778 135.197 658.738 135.085 658.718 134.961 658.718 134.826 658.718 134.717 658.731 134.582 658.758 134.421 658.784 134.259 658.818 134.083 658.859 133.894 658.901 133.704 658.945 133.506 658.995 133.298 659.045 133.09 659.093 132.884 659.141 132.68 659.189 132.475 659.231 132.278 659.269 132.089 659.307 131.899 659.334 131.727 659.35 131.572 659.357 131.545 659.36 131.52 659.36 131.495 659.36 131.47 659.36 131.448 659.36 131.428 659.354 131.3 659.309 131.206 659.224 131.146 659.141 131.087 658.992 131.054 658.778 131.048L658.837 130.711ZM659.985 128.664 660.973 128.664 660.73 129.727 659.752 129.727Z" fill="#7F7F7F" fill-rule="evenodd" transform="matrix(1.00073 0 0 1 -126.121 -72.8937)"/><path d="M662.422 134.51 663.287 134.51C663.334 134.74 663.357 134.968 663.357 135.192 663.357 135.423 663.317 135.634 663.238 135.825 663.16 136.016 663.033 136.207 662.859 136.396 662.686 136.586 662.449 136.794 662.145 137.022L661.878 136.72C662.045 136.562 662.168 136.419 662.245 136.293 662.319 136.166 662.374 136.021 662.407 135.86 662.441 135.698 662.457 135.495 662.457 135.251 662.457 135.001 662.446 134.753 662.422 134.51Z" fill="#7F7F7F" fill-rule="evenodd" transform="matrix(1.00073 0 0 1 -126.121 -72.8937)"/><path d="M667.437 130.657 667.779 130.657 666.749 135.504C666.668 135.879 666.562 136.202 666.431 136.471 666.301 136.739 666.142 136.959 665.954 137.131 665.766 137.302 665.547 137.428 665.297 137.509 665.046 137.59 664.759 137.63 664.436 137.63 664.35 137.63 664.267 137.626 664.189 137.618 664.109 137.61 664.038 137.597 663.977 137.581L664.099 137.061C664.139 137.078 664.192 137.089 664.257 137.094 664.324 137.099 664.4 137.101 664.485 137.101 664.647 137.101 664.792 137.08 664.918 137.037 665.044 136.994 665.159 136.916 665.258 136.804 665.36 136.692 665.451 136.538 665.531 136.342 665.612 136.146 665.687 135.894 665.757 135.588 665.871 135.054 665.982 134.552 666.087 134.084 666.193 133.616 666.28 133.224 666.348 132.907 666.414 132.591 666.469 132.338 666.509 132.15 666.547 131.963 666.577 131.817 666.595 131.715 666.613 131.613 666.623 131.54 666.627 131.498 666.63 131.455 666.632 131.42 666.632 131.394 666.632 131.278 666.588 131.193 666.5 131.139 666.412 131.085 666.26 131.054 666.039 131.048L666.112 130.711ZM667.254 128.664 668.249 128.664 668.006 129.727 667.012 129.727Z" fill="#7F7F7F" fill-rule="evenodd" transform="matrix(1.00073 0 0 1 -126.121 -72.8937)"/><path d="M588.121 185.9 588.517 185.9 587.548 190.221C587.45 190.661 587.4 190.993 587.4 191.217 587.4 191.396 587.43 191.528 587.488 191.607 587.546 191.689 587.637 191.729 587.764 191.729 587.898 191.729 588.043 191.674 588.194 191.564 588.346 191.455 588.562 191.244 588.841 190.935L589.225 191.312C588.785 191.773 588.428 192.087 588.154 192.253 587.88 192.419 587.573 192.502 587.232 192.502 586.94 192.502 586.708 192.396 586.532 192.184 586.357 191.969 586.269 191.697 586.269 191.365 586.269 191.025 586.332 190.59 586.458 190.06L586.963 187.86C587.066 187.411 587.118 187.074 587.118 186.85 587.118 186.648 587.07 186.511 586.973 186.44 586.877 186.367 586.688 186.327 586.404 186.319L586.478 185.962ZM582.772 185.854C583.191 185.854 583.571 185.879 583.913 185.929 584.257 185.977 584.599 186.063 584.939 186.184L584.637 187.597 584.092 187.597C584.043 187.197 583.911 186.895 583.699 186.689 583.485 186.482 583.149 186.379 582.693 186.379 582.337 186.379 582.05 186.47 581.831 186.651 581.612 186.834 581.5 187.073 581.5 187.368 581.5 187.529 581.529 187.672 581.585 187.795 581.642 187.92 581.754 188.054 581.925 188.203 582.095 188.351 582.361 188.532 582.719 188.748 583.001 188.917 583.229 189.074 583.398 189.215 583.569 189.357 583.704 189.497 583.802 189.636 583.901 189.776 583.973 189.922 584.018 190.076 584.062 190.231 584.086 190.418 584.086 190.639 584.086 191.038 583.979 191.38 583.765 191.665 583.553 191.949 583.264 192.162 582.897 192.301 582.532 192.439 582.116 192.509 581.65 192.509 581.276 192.509 580.911 192.481 580.552 192.426 580.194 192.37 579.793 192.273 579.355 192.139L579.677 190.673 580.202 190.673C580.22 191.103 580.341 191.428 580.566 191.649 580.79 191.868 581.147 191.978 581.637 191.978 582.062 191.978 582.395 191.883 582.634 191.692 582.875 191.501 582.995 191.23 582.995 190.882 582.995 190.679 582.962 190.505 582.893 190.359 582.827 190.214 582.718 190.073 582.565 189.939 582.412 189.804 582.17 189.636 581.838 189.434 581.487 189.223 581.215 189.032 581.021 188.863 580.825 188.692 580.679 188.507 580.579 188.306 580.481 188.107 580.431 187.878 580.431 187.617 580.431 187.262 580.526 186.951 580.717 186.686 580.908 186.418 581.18 186.213 581.535 186.07 581.889 185.925 582.302 185.854 582.772 185.854ZM591.931 185.847C592.214 185.847 592.436 185.94 592.6 186.126 592.763 186.312 592.846 186.556 592.846 186.857 592.846 187.104 592.795 187.367 592.692 187.644L592.772 187.67C593.185 187.056 593.595 186.599 594.004 186.302 594.412 186.003 594.824 185.854 595.242 185.854 595.672 185.854 595.999 185.977 596.224 186.221 596.448 186.465 596.561 186.819 596.561 187.28L596.561 187.375C596.561 187.406 596.559 187.44 596.554 187.476 596.939 186.928 597.325 186.521 597.708 186.254 598.092 185.987 598.49 185.854 598.902 185.854 599.315 185.854 599.634 185.973 599.858 186.211 600.082 186.448 600.194 186.782 600.194 187.214 600.194 187.496 600.129 187.898 599.999 188.418L599.561 190.181C599.44 190.671 599.38 191.016 599.38 191.217 599.38 191.396 599.41 191.528 599.468 191.607 599.526 191.689 599.618 191.729 599.744 191.729 599.878 191.729 600.021 191.674 600.174 191.564 600.327 191.455 600.542 191.244 600.82 190.935L601.203 191.312C600.818 191.72 600.481 192.021 600.194 192.213 599.906 192.406 599.579 192.502 599.212 192.502 598.92 192.502 598.688 192.398 598.512 192.19 598.337 191.981 598.249 191.715 598.249 191.393 598.249 191.101 598.324 190.673 598.472 190.106L598.767 188.942C598.875 188.521 598.947 188.21 598.98 188.008 599.013 187.805 599.03 187.642 599.03 187.516 599.03 187.207 598.978 186.983 598.875 186.847 598.772 186.709 598.605 186.641 598.371 186.641 598.183 186.641 597.98 186.712 597.765 186.854 597.55 186.995 597.323 187.214 597.085 187.513 596.848 187.812 596.654 188.105 596.503 188.394 596.353 188.683 596.234 189.037 596.144 189.454L595.531 192.394 594.367 192.394 595.141 188.977C595.234 188.559 595.299 188.252 595.332 188.051 595.367 187.851 595.383 187.68 595.383 187.536 595.383 187.214 595.325 186.983 595.211 186.847 595.096 186.709 594.918 186.641 594.676 186.641 594.505 186.641 594.312 186.712 594.095 186.854 593.877 186.995 593.645 187.22 593.398 187.533 593.15 187.845 592.958 188.144 592.82 188.431 592.68 188.718 592.564 189.069 592.469 189.482L591.83 192.394 590.666 192.394 591.647 188.129C591.747 187.699 591.797 187.367 591.797 187.132 591.797 186.953 591.767 186.824 591.709 186.742 591.651 186.661 591.558 186.621 591.433 186.621 591.294 186.621 591.146 186.679 590.992 186.792 590.837 186.907 590.625 187.114 590.356 187.415L589.972 187.038C590.367 186.626 590.708 186.324 590.992 186.133 591.277 185.942 591.589 185.847 591.931 185.847ZM587.938 183.323 589.13 183.323 588.82 184.63 587.629 184.63Z" fill="#7F7F7F" fill-rule="evenodd" transform="matrix(1.00073 0 0 1 -126.121 -72.8937)"/><path d="M603.95 188.441 604.305 188.441 603.435 192.288 603.573 192.288C603.699 192.288 603.833 192.262 603.98 192.21 604.124 192.157 604.268 192.089 604.411 192.004 604.556 191.92 604.692 191.825 604.825 191.72 604.956 191.614 605.072 191.508 605.173 191.401 605.273 191.294 605.354 191.192 605.413 191.098 605.472 191.001 605.502 190.92 605.502 190.855 605.502 190.775 605.476 190.711 605.422 190.661 605.369 190.613 605.275 190.58 605.135 190.563L605.195 190.246 606.975 190.246 607.1 190.553C606.892 190.731 606.693 190.895 606.502 191.048 606.309 191.199 606.123 191.345 605.939 191.484 605.756 191.626 605.574 191.763 605.391 191.898 605.208 192.032 605.021 192.174 604.83 192.318 604.908 192.569 604.989 192.824 605.072 193.082 605.154 193.341 605.237 193.598 605.32 193.852 605.359 193.987 605.396 194.103 605.431 194.201 605.466 194.297 605.502 194.377 605.542 194.438 605.582 194.498 605.623 194.545 605.67 194.573 605.716 194.603 605.773 194.618 605.838 194.618 605.884 194.618 605.932 194.609 605.982 194.593 606.032 194.576 606.087 194.548 606.148 194.505 606.208 194.462 606.278 194.404 606.356 194.329 606.432 194.254 606.52 194.161 606.62 194.05L606.957 194.37C606.801 194.53 606.656 194.666 606.523 194.782 606.391 194.897 606.263 194.991 606.143 195.066 606.022 195.139 605.906 195.194 605.794 195.229 605.682 195.264 605.569 195.28 605.452 195.28 605.245 195.28 605.077 195.229 604.951 195.126 604.823 195.021 604.715 194.873 604.627 194.679 604.537 194.487 604.456 194.254 604.381 193.98 604.308 193.706 604.22 193.402 604.122 193.065 604.099 192.986 604.078 192.922 604.056 192.874 604.034 192.828 604.006 192.791 603.975 192.766 603.941 192.741 603.9 192.725 603.85 192.718 603.8 192.713 603.739 192.71 603.662 192.71L603.345 192.71 602.802 195.192 601.852 195.192 603.05 189.881C603.088 189.706 603.116 189.568 603.133 189.467 603.149 189.367 603.158 189.276 603.158 189.198 603.158 189.135 603.148 189.08 603.126 189.034 603.104 188.989 603.068 188.951 603.02 188.922 602.97 188.896 602.904 188.874 602.822 188.861 602.739 188.848 602.636 188.839 602.515 188.836L602.59 188.501Z" fill="#7F7F7F" fill-rule="evenodd" transform="matrix(1.00073 0 0 1 -126.121 -72.8937)"/><path d="M608.322 194.045 609.188 194.045C609.235 194.276 609.256 194.503 609.256 194.727 609.256 194.958 609.218 195.169 609.139 195.36 609.059 195.551 608.933 195.742 608.76 195.931 608.587 196.12 608.348 196.33 608.046 196.557L607.779 196.255C607.946 196.097 608.069 195.954 608.144 195.827 608.22 195.7 608.275 195.556 608.308 195.395 608.34 195.234 608.357 195.03 608.357 194.787 608.357 194.536 608.345 194.289 608.322 194.045Z" fill="#7F7F7F" fill-rule="evenodd" transform="matrix(1.00073 0 0 1 -126.121 -72.8937)"/><path d="M612.126 190.191 612.368 190.191 611.638 193.485C611.591 193.68 611.558 193.836 611.541 193.95 611.523 194.066 611.513 194.169 611.513 194.262 611.513 194.387 611.54 194.478 611.589 194.535 611.641 194.59 611.717 194.618 611.82 194.618 611.88 194.618 611.938 194.606 611.998 194.583 612.058 194.56 612.121 194.525 612.189 194.475 612.255 194.425 612.33 194.362 612.411 194.284 612.491 194.208 612.581 194.113 612.68 194.005L613.017 194.33C612.845 194.507 612.69 194.654 612.549 194.774 612.41 194.895 612.277 194.993 612.151 195.068 612.026 195.144 611.903 195.199 611.782 195.232 611.662 195.264 611.535 195.28 611.4 195.28 611.274 195.28 611.161 195.257 611.061 195.212 610.96 195.166 610.874 195.103 610.801 195.021 610.729 194.94 610.673 194.844 610.633 194.732 610.593 194.619 610.573 194.497 610.573 194.36 610.573 194.252 610.586 194.116 610.613 193.955 610.64 193.794 610.673 193.618 610.714 193.429 610.756 193.24 610.801 193.04 610.851 192.833 610.9 192.625 610.948 192.419 610.997 192.215 611.045 192.011 611.086 191.813 611.124 191.624 611.163 191.435 611.191 191.262 611.206 191.106 611.212 191.081 611.216 191.054 611.216 191.03 611.216 191.005 611.216 190.983 611.216 190.963 611.209 190.835 611.164 190.741 611.081 190.681 610.997 190.623 610.847 190.59 610.633 190.583L610.693 190.246ZM611.84 188.198 612.828 188.198 612.586 189.263 611.608 189.263Z" fill="#7F7F7F" fill-rule="evenodd" transform="matrix(1.00073 0 0 1 -126.121 -72.8937)"/><path d="M127.061 253.851 138.788 240.4 149.282 250.831Z" stroke="#4472C4" stroke-width="0.761038" stroke-miterlimit="8" stroke-dasharray="3.04415 2.28312" fill="#99CCFF" fill-rule="evenodd" fill-opacity="0.898039" transform="matrix(1.00073 0 0 1 -126.121 -72.8937)"/><path d="M0 0 110.701 27.6362" stroke="#A5A5A5" stroke-width="0.38052" stroke-miterlimit="8" stroke-dasharray="1.52208 1.14156" fill="none" fill-rule="evenodd" transform="matrix(-1.00073 0 0 1 294.232 132.006)"/><path d="M419.974 105.275 309.507 83.5205" stroke="#A5A5A5" stroke-width="0.38052" stroke-miterlimit="8" stroke-dasharray="1.52208 1.14156" fill="none" fill-rule="evenodd" transform="matrix(1.00073 0 0 1 -126.121 -72.8937)"/><path d="M567.624 246.66 591.451 224.41 615.279 246.66 591.451 268.91Z" stroke="#172C51" stroke-width="0.761038" stroke-miterlimit="8" fill="#4472C4" fill-rule="evenodd" transform="matrix(1.00073 0 0 1 -126.121 -72.8937)"/><text fill="#FFFFFF" font-family="DengXian,DengXian_MSFontService,sans-serif" font-weight="400" font-size="83" transform="matrix(0.166167 0 0 0.166045 464.134 178)">j</text><path d="M511.501 320.965C511.501 316.883 514.809 313.576 518.89 313.576 522.971 313.576 526.279 316.883 526.279 320.965 526.279 325.046 522.971 328.354 518.89 328.354 514.809 328.354 511.501 325.046 511.501 320.965Z" stroke="#434343" stroke-width="0.761038" stroke-miterlimit="8" fill="#A5A5A5" fill-rule="evenodd" transform="matrix(1.00073 0 0 1 -126.121 -72.8937)"/><text fill="#FFFFFF" font-family="DengXian,DengXian_MSFontService,sans-serif" font-weight="400" font-size="83" transform="matrix(0.166167 0 0 0.166045 389.804 253)">k</text><path d="M663.764 312.247 676.051 312.247 676.051 327.025 663.764 327.025Z" stroke="#2B4719" stroke-width="0.761038" stroke-miterlimit="8" fill="#70AD47" transform="matrix(1.00073 0 0 1 -126.121 -72.8937)"/><text fill="#FFFFFF" font-family="DengXian,DengXian_MSFontService,sans-serif" font-weight="400" font-size="83" transform="matrix(0.166167 0 0 0.166045 542.696 251)">i</text><path d="M669.693 312.355 617.484 249.623 617.776 249.379 669.986 312.113ZM616.362 251.546 615.196 246.576 619.872 248.625Z" transform="matrix(1.00073 0 0 1 -126.121 -72.8937)"/><path d="M0.161104-0.101214 41.5771 65.821 41.255 66.0234-0.161104 0.101214ZM42.9445 64.0632 43.4403 69.1442 39.078 66.4923Z" transform="matrix(-1.00073 0 0 1 441.774 173.683)"/><path d="M528.004 264.214C527.543 264.214 527.127 264.4 526.759 264.773 526.392 265.145 526.105 265.643 525.897 266.269 525.691 266.895 525.588 267.521 525.588 268.144 525.588 268.611 525.651 268.959 525.779 269.19 525.907 269.421 526.121 269.537 526.422 269.537 526.719 269.537 527.009 269.409 527.293 269.154 527.579 268.898 527.873 268.533 528.175 268.059 528.479 267.586 528.693 267.04 528.818 266.422L528.879 266.132C528.919 265.949 528.946 265.79 528.959 265.655 528.972 265.521 528.98 265.374 528.98 265.217 528.98 264.871 528.906 264.617 528.758 264.456 528.61 264.295 528.358 264.214 528.004 264.214ZM527.87 263.682C528.16 263.682 528.434 263.716 528.687 263.78 528.941 263.845 529.201 263.961 529.47 264.127L530.09 263.682 530.521 263.79 529.532 268.056C529.432 268.483 529.384 268.815 529.384 269.052 529.384 269.232 529.412 269.363 529.47 269.443 529.528 269.524 529.621 269.564 529.748 269.564 529.882 269.564 530.025 269.509 530.178 269.399 530.33 269.29 530.545 269.079 530.824 268.77L531.207 269.147C530.804 269.577 530.458 269.884 530.174 270.065 529.889 270.248 529.582 270.337 529.249 270.337 528.97 270.337 528.748 270.246 528.582 270.062 528.416 269.878 528.333 269.633 528.333 269.328 528.333 269.082 528.386 268.82 528.489 268.541L528.401 268.514C527.971 269.142 527.562 269.602 527.176 269.894 526.79 270.185 526.382 270.331 525.952 270.331 525.459 270.331 525.075 270.145 524.804 269.773 524.532 269.401 524.398 268.878 524.398 268.205 524.398 267.433 524.549 266.691 524.851 265.98 525.155 265.27 525.57 264.709 526.1 264.298 526.629 263.888 527.219 263.682 527.87 263.682Z" fill-rule="evenodd" transform="matrix(1.00073 0 0 1 -126.121 -72.8937)"/><path d="M533.972 266.276 534.327 266.276 533.457 270.123 533.595 270.123C533.721 270.123 533.856 270.098 534.002 270.045 534.146 269.992 534.291 269.924 534.433 269.839 534.578 269.756 534.716 269.66 534.847 269.555 534.978 269.449 535.094 269.343 535.195 269.237 535.297 269.129 535.377 269.027 535.435 268.933 535.494 268.836 535.524 268.755 535.524 268.69 535.524 268.611 535.498 268.546 535.445 268.496 535.393 268.448 535.297 268.415 535.159 268.398L535.217 268.081 536.999 268.081 537.122 268.388C536.914 268.566 536.715 268.73 536.524 268.883 536.333 269.034 536.145 269.18 535.963 269.32 535.778 269.461 535.596 269.599 535.413 269.733 535.23 269.869 535.043 270.009 534.852 270.153 534.932 270.404 535.011 270.66 535.094 270.917 535.177 271.176 535.259 271.433 535.342 271.687 535.381 271.822 535.418 271.938 535.453 272.036 535.488 272.132 535.524 272.212 535.564 272.274 535.604 272.333 535.647 272.38 535.692 272.408 535.738 272.438 535.795 272.453 535.861 272.453 535.906 272.453 535.954 272.445 536.004 272.428 536.054 272.411 536.109 272.383 536.17 272.34 536.23 272.297 536.3 272.239 536.378 272.164 536.454 272.089 536.544 271.996 536.642 271.885L536.979 272.206C536.823 272.365 536.68 272.501 536.545 272.617 536.413 272.732 536.285 272.827 536.165 272.901 536.044 272.976 535.928 273.029 535.817 273.064 535.704 273.099 535.591 273.115 535.474 273.115 535.267 273.115 535.099 273.064 534.973 272.961 534.845 272.856 534.737 272.709 534.649 272.516 534.56 272.322 534.478 272.089 534.403 271.815 534.33 271.541 534.244 271.237 534.144 270.9 534.121 270.821 534.1 270.758 534.078 270.709 534.056 270.663 534.03 270.626 533.997 270.602 533.963 270.577 533.922 270.562 533.872 270.555 533.822 270.548 533.761 270.545 533.685 270.545L533.367 270.545 532.824 273.027 531.875 273.027 533.072 267.716C533.112 267.541 533.138 267.404 533.155 267.302 533.171 267.203 533.18 267.111 533.18 267.033 533.18 266.97 533.17 266.915 533.148 266.87 533.127 266.824 533.092 266.786 533.042 266.759 532.992 266.731 532.926 266.709 532.844 266.696 532.761 266.683 532.658 266.675 532.537 266.671L532.612 266.336Z" fill-rule="evenodd" transform="matrix(1.00073 0 0 1 -126.121 -72.8937)"/><path d="M538.345 271.88 539.21 271.88C539.257 272.111 539.28 272.338 539.28 272.562 539.28 272.793 539.24 273.004 539.161 273.195 539.081 273.386 538.955 273.577 538.782 273.766 538.609 273.956 538.372 274.165 538.068 274.392L537.801 274.09C537.968 273.932 538.091 273.79 538.166 273.663 538.242 273.536 538.297 273.391 538.33 273.23 538.364 273.069 538.379 272.865 538.379 272.622 538.379 272.372 538.369 272.124 538.345 271.88Z" fill-rule="evenodd" transform="matrix(1.00073 0 0 1 -126.121 -72.8937)"/><path d="M543.36 268.028 543.702 268.028 542.672 272.873C542.591 273.25 542.485 273.572 542.354 273.841 542.224 274.11 542.065 274.329 541.877 274.5 541.69 274.673 541.47 274.799 541.22 274.879 540.969 274.96 540.682 275 540.358 275 540.273 275 540.19 274.997 540.11 274.988 540.032 274.98 539.961 274.967 539.898 274.95L540.022 274.432C540.062 274.449 540.114 274.459 540.18 274.464 540.247 274.469 540.323 274.472 540.408 274.472 540.569 274.472 540.713 274.45 540.841 274.407 540.967 274.364 541.082 274.286 541.181 274.175 541.283 274.062 541.372 273.907 541.454 273.712 541.535 273.516 541.61 273.265 541.68 272.958 541.794 272.423 541.905 271.923 542.01 271.455 542.116 270.987 542.203 270.593 542.271 270.278 542.337 269.961 542.392 269.708 542.43 269.521 542.47 269.333 542.5 269.187 542.518 269.086 542.535 268.983 542.546 268.911 542.55 268.868 542.553 268.825 542.555 268.79 542.555 268.763 542.555 268.649 542.511 268.564 542.423 268.509 542.335 268.455 542.181 268.425 541.96 268.418L542.035 268.081ZM543.177 266.034 544.172 266.034 543.929 267.098 542.935 267.098Z" fill-rule="evenodd" transform="matrix(1.00073 0 0 1 -126.121 -72.8937)"/><path d="M660.808 267.008C661.248 267.008 661.627 267.045 661.946 267.116L661.683 268.26 661.091 268.26C661.029 268.005 660.946 267.82 660.847 267.709 660.745 267.596 660.596 267.541 660.398 267.541 660.143 267.541 659.927 267.611 659.749 267.752 659.571 267.893 659.42 268.104 659.294 268.381 659.17 268.66 659.052 269.034 658.945 269.506L658.776 270.24 660.506 270.24 660.358 270.919 658.622 270.919 657.37 276.787C657.164 277.76 656.848 278.485 656.422 278.964 655.995 279.442 655.458 279.681 654.812 279.681 654.625 279.681 654.477 279.669 654.369 279.648L654.484 279.055C654.529 279.068 654.633 279.075 654.799 279.075 655.002 279.075 655.174 279.023 655.317 278.92 655.462 278.817 655.595 278.638 655.717 278.382 655.842 278.127 655.955 277.771 656.058 277.318L657.504 270.919 656.367 270.919 656.468 270.454C656.769 270.437 656.986 270.412 657.117 270.381 657.25 270.349 657.353 270.303 657.428 270.24 657.501 270.176 657.564 270.095 657.615 269.994 657.667 269.892 657.733 269.708 657.815 269.439 658.052 268.631 658.419 268.025 658.914 267.618 659.41 267.213 660.041 267.008 660.808 267.008Z" fill-rule="evenodd" transform="matrix(1.00073 0 0 1 -126.121 -72.8937)"/><path d="M662.22 274.469 662.462 274.469 661.732 277.763C661.685 277.957 661.652 278.112 661.634 278.228 661.617 278.343 661.607 278.447 661.607 278.54 661.607 278.665 661.632 278.756 661.683 278.811 661.735 278.867 661.811 278.895 661.914 278.895 661.972 278.895 662.032 278.884 662.092 278.861 662.152 278.837 662.215 278.801 662.283 278.753 662.349 278.703 662.424 278.64 662.505 278.562 662.585 278.484 662.675 278.391 662.774 278.283L663.111 278.608C662.939 278.784 662.783 278.93 662.643 279.052 662.504 279.171 662.371 279.269 662.245 279.345 662.12 279.422 661.997 279.477 661.876 279.508 661.756 279.541 661.629 279.558 661.494 279.558 661.368 279.558 661.255 279.535 661.155 279.488 661.054 279.443 660.968 279.379 660.895 279.299 660.822 279.218 660.767 279.121 660.727 279.01 660.687 278.897 660.667 278.774 660.667 278.638 660.667 278.53 660.681 278.394 660.707 278.233 660.734 278.072 660.767 277.896 660.808 277.707 660.85 277.517 660.895 277.318 660.945 277.11 660.994 276.903 661.043 276.697 661.091 276.493 661.139 276.287 661.18 276.091 661.219 275.902 661.257 275.711 661.283 275.54 661.3 275.384 661.307 275.357 661.31 275.332 661.31 275.307 661.31 275.282 661.31 275.261 661.31 275.241 661.303 275.111 661.258 275.018 661.174 274.959 661.091 274.899 660.941 274.867 660.727 274.861L660.787 274.523ZM661.934 272.476 662.922 272.476 662.68 273.539 661.702 273.539Z" fill-rule="evenodd" transform="matrix(1.00073 0 0 1 -126.121 -72.8937)"/><path d="M664.372 278.323 665.237 278.323C665.283 278.553 665.307 278.781 665.307 279.005 665.307 279.236 665.267 279.447 665.187 279.638 665.109 279.829 664.983 280.02 664.808 280.209 664.636 280.398 664.398 280.607 664.094 280.835L663.827 280.533C663.996 280.375 664.118 280.232 664.194 280.104 664.269 279.978 664.324 279.834 664.357 279.673 664.39 279.51 664.407 279.307 664.407 279.063 664.407 278.812 664.395 278.565 664.372 278.323Z" fill-rule="evenodd" transform="matrix(1.00073 0 0 1 -126.121 -72.8937)"/><path d="M669.388 274.469 669.728 274.469 668.701 279.316C668.617 279.692 668.511 280.015 668.38 280.284 668.25 280.551 668.091 280.772 667.903 280.943 667.716 281.114 667.497 281.24 667.246 281.321 666.995 281.403 666.708 281.443 666.386 281.443 666.299 281.443 666.216 281.439 666.138 281.431 666.059 281.423 665.987 281.409 665.926 281.393L666.049 280.873C666.089 280.89 666.142 280.901 666.206 280.906 666.273 280.911 666.349 280.913 666.434 280.913 666.597 280.913 666.741 280.891 666.867 280.85 666.994 280.807 667.108 280.729 667.209 280.617 667.309 280.504 667.4 280.35 667.48 280.154 667.561 279.958 667.636 279.707 667.706 279.4 667.82 278.866 667.932 278.364 668.036 277.896 668.143 277.428 668.229 277.036 668.297 276.72 668.365 276.403 668.418 276.151 668.458 275.963 668.496 275.775 668.526 275.629 668.544 275.528 668.563 275.425 668.573 275.352 668.576 275.311 668.579 275.267 668.581 275.232 668.581 275.206 668.581 275.091 668.538 275.005 668.45 274.952 668.363 274.897 668.209 274.867 667.988 274.861L668.061 274.523ZM669.204 272.476 670.198 272.476 669.956 273.539 668.961 273.539Z" fill-rule="evenodd" transform="matrix(1.00073 0 0 1 -126.121 -72.8937)"/><path d="M591.53 329.933C591.314 329.933 591.103 330.001 590.894 330.137 590.684 330.275 590.454 330.501 590.198 330.816 589.942 331.133 589.733 331.457 589.572 331.789 589.409 332.121 589.273 332.544 589.16 333.061L589.1 333.343C589.032 333.657 588.999 333.963 588.999 334.258 588.999 334.613 589.077 334.869 589.231 335.025 589.386 335.183 589.643 335.261 590.002 335.261 590.186 335.261 590.361 335.231 590.527 335.171 590.693 335.11 590.862 335.01 591.035 334.871 591.207 334.731 591.372 334.549 591.526 334.323 591.681 334.097 591.823 333.816 591.953 333.484 592.084 333.152 592.184 332.797 592.257 332.418 592.328 332.04 592.363 331.678 592.363 331.332 592.363 330.866 592.298 330.515 592.165 330.281 592.033 330.049 591.822 329.933 591.53 329.933ZM590.352 326.062 590.742 326.062 589.557 330.773 589.645 330.799C590.08 330.217 590.488 329.795 590.87 329.534 591.251 329.275 591.633 329.144 592.014 329.144 592.503 329.144 592.883 329.33 593.155 329.703 593.426 330.075 593.562 330.6 593.562 331.278 593.562 332.018 593.412 332.745 593.114 333.461 592.816 334.177 592.401 334.745 591.873 335.165 591.344 335.583 590.751 335.792 590.097 335.792 589.499 335.792 588.971 335.648 588.508 335.356L587.888 335.792 587.458 335.686 589.202 327.993C589.305 327.537 589.356 327.204 589.356 326.999 589.356 326.809 589.298 326.676 589.185 326.6 589.07 326.524 588.865 326.482 588.569 326.472L588.649 326.124Z" fill-rule="evenodd" transform="matrix(1.00073 0 0 1 -126.121 -72.8937)"/><path d="M596.496 331.731 596.853 331.731 595.981 335.58 596.121 335.58C596.245 335.58 596.381 335.553 596.526 335.5 596.67 335.447 596.815 335.379 596.959 335.294 597.102 335.211 597.24 335.117 597.371 335.01 597.504 334.906 597.62 334.799 597.72 334.691 597.821 334.584 597.901 334.482 597.96 334.388 598.019 334.291 598.048 334.212 598.048 334.145 598.048 334.065 598.022 334.001 597.97 333.953 597.917 333.903 597.821 333.87 597.683 333.853L597.743 333.536 599.523 333.536 599.646 333.843C599.438 334.021 599.239 334.187 599.048 334.338 598.857 334.489 598.669 334.635 598.487 334.776 598.304 334.916 598.121 335.053 597.937 335.188 597.755 335.324 597.567 335.464 597.376 335.608 597.456 335.859 597.537 336.114 597.618 336.374 597.701 336.633 597.784 336.888 597.866 337.142 597.906 337.277 597.942 337.393 597.977 337.491 598.012 337.587 598.048 337.667 598.088 337.728 598.128 337.79 598.171 337.835 598.218 337.865 598.263 337.894 598.319 337.908 598.385 337.908 598.432 337.908 598.479 337.901 598.528 337.885 598.578 337.868 598.633 337.838 598.694 337.795 598.756 337.752 598.824 337.694 598.902 337.619 598.98 337.546 599.068 337.451 599.166 337.34L599.503 337.662C599.349 337.82 599.204 337.956 599.07 338.072 598.937 338.187 598.811 338.281 598.689 338.356 598.57 338.431 598.454 338.484 598.341 338.519 598.229 338.554 598.115 338.572 598 338.572 597.791 338.572 597.625 338.519 597.497 338.416 597.371 338.311 597.263 338.163 597.173 337.971 597.085 337.778 597.002 337.544 596.929 337.27 596.855 336.996 596.768 336.692 596.669 336.355 596.645 336.277 596.624 336.212 596.602 336.166 596.581 336.118 596.554 336.081 596.521 336.056 596.488 336.031 596.446 336.017 596.398 336.01 596.348 336.003 596.285 336 596.209 336L595.893 336 595.349 338.482 594.399 338.482 595.596 333.171C595.636 332.996 595.664 332.858 595.681 332.757 595.697 332.657 595.706 332.568 595.706 332.488 595.706 332.425 595.694 332.372 595.672 332.325 595.651 332.279 595.616 332.242 595.566 332.214 595.516 332.186 595.452 332.164 595.368 332.153 595.285 332.139 595.184 332.131 595.061 332.128L595.136 331.791Z" fill-rule="evenodd" transform="matrix(1.00073 0 0 1 -126.121 -72.8937)"/><path d="M600.87 337.335 601.735 337.335C601.781 337.566 601.804 337.793 601.804 338.017 601.804 338.248 601.765 338.459 601.685 338.65 601.607 338.841 601.481 339.032 601.308 339.221 601.134 339.41 600.896 339.62 600.592 339.847L600.325 339.545C600.494 339.387 600.615 339.244 600.692 339.118 600.767 338.99 600.821 338.846 600.855 338.685 600.888 338.524 600.904 338.321 600.904 338.077 600.904 337.826 600.893 337.579 600.87 337.335Z" fill-rule="evenodd" transform="matrix(1.00073 0 0 1 -126.121 -72.8937)"/><path d="M604.674 333.483 604.916 333.483 604.184 336.775C604.137 336.971 604.106 337.126 604.088 337.24 604.069 337.356 604.061 337.459 604.061 337.552 604.061 337.677 604.086 337.768 604.137 337.825 604.189 337.881 604.265 337.908 604.366 337.908 604.426 337.908 604.486 337.898 604.544 337.875 604.604 337.851 604.667 337.815 604.735 337.765 604.803 337.715 604.878 337.652 604.958 337.574 605.039 337.498 605.129 337.405 605.228 337.295L605.564 337.622C605.393 337.797 605.237 337.944 605.097 338.064 604.956 338.185 604.823 338.283 604.699 338.359 604.572 338.434 604.449 338.489 604.33 338.522 604.209 338.555 604.081 338.572 603.946 338.572 603.822 338.572 603.709 338.549 603.608 338.502 603.506 338.456 603.42 338.393 603.349 338.311 603.276 338.232 603.219 338.135 603.179 338.022 603.141 337.909 603.121 337.787 603.121 337.652 603.121 337.542 603.134 337.408 603.159 337.245 603.186 337.084 603.221 336.908 603.262 336.719 603.302 336.53 603.349 336.33 603.397 336.123 603.447 335.915 603.496 335.709 603.543 335.505 603.591 335.301 603.634 335.103 603.672 334.914 603.711 334.725 603.737 334.552 603.754 334.398 603.76 334.371 603.764 334.344 603.764 334.321 603.764 334.296 603.764 334.273 603.764 334.253 603.757 334.125 603.712 334.031 603.628 333.972 603.543 333.913 603.393 333.88 603.179 333.873L603.239 333.536ZM604.386 331.488 605.376 331.488 605.134 332.553 604.154 332.553Z" fill-rule="evenodd" transform="matrix(1.00073 0 0 1 -126.121 -72.8937)"/><path d="M0.00184851-0.190251 133.713 1.10891 133.709 1.48941-0.00184851 0.190251ZM132.972-0.991241 137.516 1.33613 132.928 3.57478Z" transform="matrix(-1.00073 0 0 1 538.08 246.743)"/><path d="M0 0 43.4403 69.1442" stroke="#A5A5A5" stroke-width="0.38052" stroke-miterlimit="8" stroke-dasharray="1.52208 1.14156" fill="none" fill-rule="evenodd" transform="matrix(-1.00073 0 0 1 432.469 30.3862)"/><path d="M606.063 103.28 660.707 168.937" stroke="#A5A5A5" stroke-width="0.38052" stroke-miterlimit="8" stroke-dasharray="1.52208 1.14156" fill="none" fill-rule="evenodd" transform="matrix(1.00073 0 0 1 -126.121 -72.8937)"/><path d="M0 0 137.516 1.33613" stroke="#A5A5A5" stroke-width="0.38052" stroke-miterlimit="8" stroke-dasharray="1.52208 1.14156" fill="none" fill-rule="evenodd" transform="matrix(1.00073 0 0 -1 391.323 104.783)"/><path d="M584.229 215.277 587.798 215.277 587.798 204.65 594.938 204.65 594.938 215.277 598.508 215.277 591.368 222.417Z" stroke="#A5A5A5" stroke-width="0.761038" stroke-miterlimit="8" fill="#FFFFFF" fill-rule="evenodd" transform="matrix(1.00073 0 0 1 -126.121 -72.8937)"/><text font-family="DengXian,DengXian_MSFontService,sans-serif" font-weight="400" font-size="83" transform="matrix(0.166167 0 0 0.166045 420.806 76)">Triangle </text><path d="M598.396 139.838 605.421 139.838 604.896 142.207 604.25 142.207C604.25 141.772 604.239 141.446 604.217 141.228 604.194 141.01 604.152 140.844 604.089 140.73 604.026 140.616 603.948 140.537 603.857 140.494 603.765 140.452 603.603 140.431 603.369 140.431L602.372 140.431 600.913 147.066C600.873 147.241 600.845 147.38 600.828 147.483 600.813 147.586 600.8 147.695 600.788 147.809 600.777 147.924 600.772 148.026 600.772 148.115 600.772 148.255 600.793 148.363 600.838 148.442 600.883 148.52 600.951 148.578 601.041 148.613 601.13 148.649 601.285 148.676 601.505 148.694L601.431 149.024 598.598 149.024 598.671 148.694C598.85 148.667 598.983 148.631 599.068 148.586 599.154 148.542 599.229 148.472 599.294 148.378 599.359 148.284 599.425 148.136 599.49 147.934 599.554 147.732 599.633 147.427 599.722 147.019L601.162 140.431 600.307 140.431C600.029 140.431 599.807 140.471 599.641 140.552 599.475 140.632 599.309 140.783 599.143 141.003 598.977 141.222 598.774 141.59 598.537 142.106L597.891 142.106Z" fill-rule="evenodd" transform="matrix(1.00073 0 0 1 -126.121 -72.8937)"/><path d="M606.799 145.07 607.156 145.07 606.284 148.918 606.424 148.918C606.548 148.918 606.684 148.891 606.829 148.839 606.973 148.786 607.118 148.717 607.262 148.633 607.405 148.549 607.543 148.454 607.674 148.349 607.807 148.243 607.923 148.137 608.023 148.03 608.124 147.923 608.204 147.821 608.263 147.726 608.322 147.63 608.352 147.549 608.352 147.483 608.352 147.404 608.325 147.34 608.273 147.291 608.22 147.241 608.124 147.208 607.986 147.192L608.046 146.875 609.826 146.875 609.949 147.182C609.741 147.36 609.542 147.525 609.351 147.676 609.16 147.828 608.973 147.974 608.79 148.114 608.607 148.254 608.425 148.392 608.24 148.527 608.058 148.662 607.87 148.802 607.679 148.947 607.759 149.198 607.84 149.453 607.921 149.711 608.004 149.97 608.087 150.227 608.169 150.48 608.209 150.616 608.245 150.732 608.28 150.829 608.315 150.926 608.352 151.006 608.391 151.067 608.431 151.127 608.474 151.173 608.521 151.203 608.566 151.232 608.622 151.247 608.689 151.247 608.735 151.247 608.783 151.239 608.831 151.222 608.881 151.206 608.936 151.176 608.997 151.133 609.059 151.09 609.129 151.032 609.205 150.958 609.283 150.884 609.371 150.79 609.471 150.678L609.806 151C609.652 151.158 609.507 151.295 609.373 151.41 609.24 151.526 609.114 151.62 608.992 151.695 608.873 151.769 608.757 151.823 608.644 151.858 608.533 151.892 608.418 151.91 608.303 151.91 608.094 151.91 607.928 151.858 607.8 151.754 607.674 151.65 607.566 151.502 607.476 151.309 607.388 151.116 607.305 150.883 607.232 150.609 607.158 150.335 607.071 150.03 606.972 149.694 606.948 149.615 606.927 149.552 606.905 149.504 606.884 149.456 606.857 149.42 606.824 149.395 606.791 149.37 606.749 149.354 606.701 149.348 606.651 149.341 606.588 149.338 606.512 149.338L606.196 149.338 605.652 151.821 604.702 151.821 605.899 146.509C605.939 146.334 605.967 146.197 605.984 146.096 606 145.996 606.009 145.906 606.009 145.827 606.009 145.764 605.997 145.71 605.975 145.663 605.954 145.617 605.919 145.58 605.869 145.552 605.819 145.524 605.755 145.504 605.672 145.49 605.589 145.477 605.487 145.469 605.364 145.466L605.439 145.129Z" fill-rule="evenodd" transform="matrix(1.00073 0 0 1 -126.121 -72.8937)"/><path d="M611.173 150.673 612.038 150.673C612.084 150.904 612.107 151.132 612.107 151.356 612.107 151.587 612.068 151.798 611.988 151.989 611.91 152.18 611.784 152.37 611.611 152.56 611.437 152.75 611.199 152.958 610.895 153.186L610.628 152.884C610.797 152.726 610.919 152.583 610.995 152.456 611.07 152.329 611.124 152.185 611.158 152.023 611.191 151.862 611.207 151.659 611.207 151.415 611.207 151.165 611.196 150.917 611.173 150.673Z" fill-rule="evenodd" transform="matrix(1.00073 0 0 1 -126.121 -72.8937)"/><path d="M616.189 146.821 616.529 146.821 615.501 151.667C615.418 152.043 615.312 152.366 615.183 152.634 615.051 152.903 614.892 153.123 614.704 153.295 614.517 153.466 614.298 153.592 614.047 153.673 613.796 153.754 613.509 153.794 613.187 153.794 613.1 153.794 613.017 153.79 612.939 153.782 612.86 153.773 612.788 153.761 612.727 153.745L612.85 153.225C612.89 153.242 612.943 153.253 613.007 153.258 613.074 153.262 613.15 153.265 613.237 153.265 613.398 153.265 613.542 153.243 613.668 153.201 613.796 153.158 613.909 153.08 614.01 152.968 614.11 152.856 614.201 152.702 614.281 152.506 614.362 152.31 614.437 152.058 614.507 151.751 614.621 151.217 614.733 150.716 614.839 150.248 614.943 149.78 615.03 149.387 615.098 149.071 615.166 148.754 615.219 148.502 615.259 148.314 615.299 148.126 615.327 147.981 615.345 147.879 615.364 147.777 615.374 147.704 615.377 147.661 615.38 147.619 615.382 147.584 615.382 147.558 615.382 147.442 615.339 147.357 615.251 147.303 615.164 147.249 615.01 147.218 614.789 147.211L614.862 146.875ZM616.005 144.828 616.999 144.828 616.757 145.891 615.764 145.891Z" fill-rule="evenodd" transform="matrix(1.00073 0 0 1 -126.121 -72.8937)"/><path d="M618.269 150.673 619.134 150.673C619.181 150.904 619.204 151.132 619.204 151.356 619.204 151.587 619.164 151.798 619.085 151.989 619.007 152.18 618.88 152.37 618.708 152.56 618.533 152.75 618.296 152.958 617.992 153.186L617.725 152.884C617.894 152.726 618.015 152.583 618.092 152.456 618.166 152.329 618.221 152.185 618.254 152.023 618.288 151.862 618.304 151.659 618.304 151.415 618.304 151.165 618.293 150.917 618.269 150.673Z" fill-rule="evenodd" transform="matrix(1.00073 0 0 1 -126.121 -72.8937)"/><path d="M622.073 146.821 622.316 146.821 621.584 150.114C621.537 150.309 621.506 150.464 621.487 150.579 621.469 150.695 621.461 150.799 621.461 150.891 621.461 151.016 621.486 151.107 621.537 151.163 621.589 151.219 621.665 151.247 621.766 151.247 621.826 151.247 621.886 151.236 621.944 151.212 622.004 151.189 622.067 151.153 622.135 151.104 622.203 151.054 622.278 150.991 622.357 150.913 622.439 150.836 622.528 150.743 622.628 150.634L622.963 150.96C622.792 151.135 622.636 151.283 622.497 151.403 622.356 151.523 622.223 151.621 622.098 151.697 621.972 151.773 621.849 151.827 621.73 151.86 621.609 151.893 621.481 151.91 621.346 151.91 621.222 151.91 621.109 151.887 621.007 151.84 620.906 151.794 620.82 151.731 620.748 151.65 620.675 151.569 620.619 151.473 620.579 151.361 620.541 151.249 620.521 151.125 620.521 150.99 620.521 150.881 620.534 150.746 620.559 150.584 620.586 150.423 620.621 150.247 620.662 150.058 620.702 149.868 620.748 149.669 620.797 149.462 620.846 149.254 620.896 149.048 620.943 148.844 620.991 148.639 621.034 148.442 621.072 148.252 621.11 148.063 621.137 147.891 621.154 147.736 621.16 147.709 621.164 147.684 621.164 147.659 621.164 147.634 621.164 147.612 621.164 147.592 621.157 147.464 621.112 147.37 621.027 147.31 620.943 147.251 620.793 147.218 620.579 147.211L620.639 146.875ZM621.786 144.828 622.776 144.828 622.533 145.891 621.554 145.891Z" fill-rule="evenodd" transform="matrix(1.00073 0 0 1 -126.121 -72.8937)"/><text font-family="DengXian,DengXian_MSFontService,sans-serif" font-weight="400" font-size="83" transform="matrix(0.166167 0 0 0.166045 431.691 223)">Triangle </text><path d="M609.271 286.668 616.297 286.668 615.772 289.036 615.126 289.036C615.126 288.601 615.116 288.275 615.093 288.058 615.071 287.84 615.028 287.674 614.965 287.56 614.902 287.445 614.826 287.367 614.733 287.324 614.641 287.281 614.479 287.259 614.244 287.259L613.25 287.259 611.789 293.894C611.749 294.07 611.721 294.21 611.704 294.313 611.689 294.416 611.676 294.524 611.664 294.638 611.652 294.753 611.647 294.856 611.647 294.945 611.647 295.083 611.671 295.193 611.716 295.271 611.76 295.35 611.827 295.407 611.917 295.443 612.006 295.478 612.161 295.505 612.381 295.523L612.307 295.854 609.474 295.854 609.549 295.523C609.728 295.497 609.859 295.46 609.945 295.415 610.03 295.37 610.105 295.301 610.17 295.208 610.236 295.113 610.301 294.965 610.366 294.763 610.43 294.562 610.508 294.256 610.598 293.848L612.038 287.259 611.183 287.259C610.905 287.259 610.683 287.301 610.517 287.38 610.351 287.462 610.185 287.613 610.019 287.832 609.853 288.051 609.652 288.42 609.414 288.936L608.767 288.936Z" fill-rule="evenodd" transform="matrix(1.00073 0 0 1 -126.121 -72.8937)"/><path d="M617.675 291.9 618.032 291.9 617.162 295.747 617.3 295.747C617.424 295.747 617.56 295.721 617.705 295.668 617.851 295.614 617.994 295.546 618.138 295.463 618.281 295.379 618.419 295.284 618.552 295.178 618.683 295.073 618.799 294.967 618.9 294.859 619 294.753 619.08 294.651 619.139 294.555 619.199 294.459 619.229 294.379 619.229 294.313 619.229 294.233 619.203 294.17 619.149 294.12 619.096 294.07 619.002 294.037 618.862 294.02L618.922 293.705 620.702 293.705 620.826 294.01C620.619 294.19 620.418 294.354 620.227 294.505 620.036 294.658 619.848 294.803 619.666 294.944 619.483 295.083 619.3 295.221 619.118 295.357 618.934 295.492 618.748 295.631 618.557 295.777 618.635 296.028 618.716 296.282 618.797 296.541 618.88 296.8 618.963 297.056 619.045 297.31 619.085 297.444 619.123 297.561 619.156 297.659 619.191 297.756 619.229 297.835 619.267 297.896 619.307 297.957 619.35 298.002 619.397 298.032 619.443 298.062 619.498 298.077 619.565 298.077 619.611 298.077 619.659 298.069 619.709 298.052 619.757 298.035 619.814 298.006 619.873 297.962 619.935 297.919 620.005 297.861 620.081 297.786 620.159 297.713 620.247 297.62 620.347 297.507L620.682 297.83C620.528 297.987 620.383 298.123 620.25 298.24 620.116 298.354 619.99 298.451 619.868 298.524 619.749 298.598 619.633 298.653 619.52 298.688 619.408 298.721 619.294 298.739 619.179 298.739 618.972 298.739 618.804 298.688 618.678 298.583 618.55 298.479 618.442 298.331 618.352 298.138 618.264 297.946 618.183 297.712 618.108 297.438 618.034 297.165 617.947 296.86 617.849 296.523 617.826 296.445 617.803 296.382 617.781 296.333 617.76 296.285 617.733 296.249 617.7 296.224 617.667 296.199 617.627 296.184 617.577 296.177 617.527 296.171 617.464 296.167 617.389 296.167L617.072 296.167 616.528 298.65 615.578 298.65 616.775 293.338C616.815 293.164 616.843 293.026 616.86 292.926 616.876 292.825 616.885 292.735 616.885 292.656 616.885 292.594 616.873 292.539 616.851 292.493 616.831 292.446 616.795 292.41 616.745 292.382 616.697 292.353 616.63 292.333 616.547 292.32 616.466 292.307 616.363 292.299 616.242 292.295L616.315 291.958Z" fill-rule="evenodd" transform="matrix(1.00073 0 0 1 -126.121 -72.8937)"/><path d="M622.049 297.502 622.914 297.502C622.96 297.733 622.983 297.961 622.983 298.185 622.983 298.416 622.944 298.627 622.865 298.818 622.786 299.01 622.66 299.199 622.487 299.389 622.314 299.58 622.075 299.787 621.771 300.015L621.506 299.714C621.673 299.555 621.794 299.412 621.871 299.286 621.947 299.158 622 299.015 622.034 298.852 622.067 298.691 622.083 298.489 622.083 298.245 622.083 297.994 622.072 297.747 622.049 297.502Z" fill-rule="evenodd" transform="matrix(1.00073 0 0 1 -126.121 -72.8937)"/><path d="M627.065 293.65 627.405 293.65 626.377 298.497C626.294 298.872 626.188 299.194 626.059 299.463 625.927 299.732 625.77 299.953 625.58 300.124 625.393 300.295 625.174 300.421 624.923 300.503 624.672 300.583 624.386 300.624 624.063 300.624 623.976 300.624 623.895 300.619 623.815 300.611 623.736 300.602 623.666 300.591 623.603 300.574L623.726 300.055C623.765 300.071 623.819 300.081 623.885 300.086 623.95 300.091 624.026 300.094 624.112 300.094 624.274 300.094 624.418 300.073 624.544 300.03 624.672 299.986 624.785 299.91 624.886 299.797 624.986 299.686 625.077 299.531 625.159 299.336 625.238 299.14 625.315 298.887 625.383 298.58 625.499 298.047 625.609 297.546 625.715 297.077 625.819 296.609 625.906 296.217 625.974 295.9 626.042 295.585 626.095 295.332 626.135 295.143 626.175 294.955 626.203 294.811 626.221 294.708 626.24 294.607 626.25 294.534 626.253 294.49 626.256 294.447 626.258 294.414 626.258 294.387 626.258 294.271 626.215 294.186 626.127 294.132 626.04 294.079 625.886 294.047 625.665 294.04L625.74 293.705ZM626.882 291.658 627.875 291.658 627.633 292.72 626.64 292.72Z" fill-rule="evenodd" transform="matrix(1.00073 0 0 1 -126.121 -72.8937)"/><path d="M629.145 297.502 630.01 297.502C630.057 297.733 630.08 297.961 630.08 298.185 630.08 298.416 630.04 298.627 629.962 298.818 629.883 299.01 629.756 299.199 629.584 299.389 629.411 299.58 629.172 299.787 628.868 300.015L628.602 299.714C628.77 299.555 628.891 299.412 628.968 299.286 629.044 299.158 629.097 299.015 629.13 298.852 629.164 298.691 629.18 298.489 629.18 298.245 629.18 297.994 629.169 297.747 629.145 297.502Z" fill-rule="evenodd" transform="matrix(1.00073 0 0 1 -126.121 -72.8937)"/><path d="M632.949 293.65 633.192 293.65 632.46 296.944C632.413 297.139 632.382 297.293 632.363 297.409 632.345 297.524 632.337 297.629 632.337 297.72 632.337 297.846 632.362 297.936 632.413 297.992 632.465 298.049 632.541 298.077 632.642 298.077 632.702 298.077 632.762 298.065 632.822 298.042 632.88 298.019 632.944 297.982 633.011 297.932 633.079 297.884 633.154 297.82 633.233 297.743 633.315 297.665 633.404 297.572 633.504 297.463L633.839 297.79C633.668 297.964 633.512 298.112 633.373 298.233 633.232 298.353 633.099 298.451 632.974 298.527 632.85 298.602 632.727 298.656 632.606 298.69 632.486 298.723 632.358 298.739 632.222 298.739 632.098 298.739 631.985 298.716 631.883 298.67 631.784 298.623 631.697 298.56 631.624 298.479 631.551 298.399 631.495 298.303 631.457 298.19 631.417 298.079 631.397 297.954 631.397 297.82 631.397 297.71 631.41 297.575 631.437 297.414 631.463 297.252 631.496 297.077 631.538 296.886 631.58 296.697 631.624 296.5 631.674 296.29 631.722 296.083 631.772 295.877 631.82 295.673 631.867 295.468 631.91 295.271 631.948 295.081 631.986 294.892 632.013 294.719 632.029 294.565 632.036 294.539 632.039 294.514 632.039 294.489 632.039 294.464 632.039 294.441 632.039 294.422 632.033 294.293 631.988 294.2 631.903 294.14 631.82 294.08 631.671 294.047 631.457 294.04L631.515 293.705ZM632.662 291.658 633.652 291.658 633.409 292.72 632.43 292.72Z" fill-rule="evenodd" transform="matrix(1.00073 0 0 1 -126.121 -72.8937)"/></g></svg>